<?xml version="1.0" encoding="UTF-8" standalone="no"?>
<!-- Created with Inkscape (http://www.inkscape.org/) -->

<svg
   width="1000"
   height="856.77197"
   viewBox="0 0 1000 856.77197"
   version="1.1"
   id="svg1"
   inkscape:version="1.4.2 (ebf0e940d0, 2025-05-08)"
   sodipodi:docname="symbol.svg"
   xmlns:inkscape="http://www.inkscape.org/namespaces/inkscape"
   xmlns:sodipodi="http://sodipodi.sourceforge.net/DTD/sodipodi-0.dtd"
   xmlns="http://www.w3.org/2000/svg"
   xmlns:svg="http://www.w3.org/2000/svg">
  <sodipodi:namedview
     id="namedview1"
     pagecolor="#ffffff"
     bordercolor="#000000"
     borderopacity="0.25"
     inkscape:showpageshadow="2"
     inkscape:pageopacity="0.0"
     inkscape:pagecheckerboard="0"
     inkscape:deskcolor="#d1d1d1"
     inkscape:document-units="px"
     inkscape:zoom="0.70644641"
     inkscape:cx="395.64218"
     inkscape:cy="448.017"
     inkscape:window-width="1920"
     inkscape:window-height="1011"
     inkscape:window-x="0"
     inkscape:window-y="0"
     inkscape:window-maximized="1"
     inkscape:current-layer="svg1" />
  <defs
     id="defs1">
    <clipPath
       clipPathUnits="userSpaceOnUse"
       id="clipPath71">
      <path
         d="M 0,595.276 H 841.89 V 0 H 0 Z"
         transform="translate(-635.31272,-172.81231)"
         id="path71" />
    </clipPath>
  </defs>
  <path
     id="path70"
     d="m 0,0 c -22.679,-29.716 -60.784,-41.615 -107.713,-33.98 3.533,3.924 6.784,8.03 9.732,12.316 6.138,-0.703 12.083,-1.065 17.794,-1.065 34.392,0 60.764,12.549 75.365,36.271 19.308,31.367 12.983,73.206 -2.574,96.317 -30.435,51.652 -74.537,103.674 -121.551,143.581 3.217,2.265 6.46,4.494 9.723,6.675 52.288,-42.296 94.86,-93.264 129.939,-155.613 C 26.519,72.785 22.009,28.831 0,0 m -152.864,-59.287 c -54.897,-26.795 -122.35,-18.204 -157.193,19.023 3.915,1.595 7.683,3.377 11.316,5.323 24.532,-19.76 52.276,-28.098 79.131,-28.098 34.513,0.007 67.542,13.734 90.297,34.532 33.38,30.51 54.445,84.469 13.754,144.583 1.909,3.12 3.902,6.296 5.961,9.5 7.852,-8.668 12.997,-20.085 18.378,-32.146 1.21,-2.707 2.427,-5.433 3.675,-8.134 8.21,-35.285 4.27,-67.662 -10.428,-94.13 -0.14,0.017 -0.273,0.025 -0.413,0.043 l -0.131,-1.038 c -11.73,-20.627 -30.061,-37.599 -54.347,-49.458 m -215.921,15.314 c -27.214,0.885 -52.108,16.046 -66.594,40.558 -19.225,32.526 -18.046,75.155 3.211,116.93 10.791,20.564 23.391,36.565 36.736,53.509 5.391,6.841 10.921,13.89 16.325,21.249 2.765,-2.837 5.575,-5.687 8.41,-8.56 0.51,-0.516 1.021,-1.035 1.531,-1.552 -31.827,-35.817 -54.642,-72.232 -62.856,-100.573 -7.746,-27.621 -4.275,-54.229 9.765,-74.925 12.779,-18.837 33.673,-31.482 55.892,-33.833 l 0.401,-0.044 0.408,0.013 c 42.89,0.943 75.588,17.199 92.08,45.782 15.742,27.275 14.927,63.56 -2.076,94.775 2.313,3.014 4.659,6.011 7.042,8.995 21.524,-37.539 23.542,-78.67 5.194,-110.586 -19.276,-33.526 -57.853,-52.318 -105.469,-51.738 m -20.557,360.065 c 27.539,15.162 68.154,5.022 100.074,-24.576 -2.53,-2.247 -5.028,-4.53 -7.507,-6.836 -37.929,33.199 -71.408,30.633 -88.669,18.168 -17.581,-12.695 -22.129,-36.615 -11.498,-61.14 7.319,-15.441 24.735,-33.66 43.171,-52.936 14.81,-15.483 30.091,-31.465 40.636,-46.528 -2.85,-3.648 -5.644,-7.347 -8.362,-11.124 -10.404,18.746 -27.678,36.272 -44.461,53.269 -20.498,20.767 -39.864,40.374 -46.482,60.771 -7.262,32.997 1.159,58.847 23.098,70.932 m 147.169,2.325 c 39.744,13.987 66.683,-4.33 86.017,-24.008 -3.284,-2.42 -6.602,-4.923 -9.954,-7.504 l -1.647,1.298 c -19.837,15.767 -42.33,33.634 -83.233,10.887 l -0.987,-0.675 c -32.533,-27.155 -57.829,-49 -84.194,-79.867 -2.567,2.91 -5.125,5.85 -7.669,8.821 3.6,3.749 7.209,7.528 10.848,11.345 27.863,29.264 56.669,59.535 90.819,79.703 M -85.254,2.374 c 1.433,-0.074 2.857,-0.119 4.264,-0.119 22.124,0 41.119,9.096 52.897,25.588 11.626,16.276 14.283,37.604 6.638,54.593 -32.798,58.692 -77.457,114.444 -125.987,157.426 2.585,1.972 5.209,3.934 7.85,5.888 46.856,-39.273 90.948,-91.021 121.405,-142.688 C -4.65,82.932 0.828,47.056 -15.69,20.231 -29.434,-2.108 -55.292,-12.331 -90.702,-9.567 c 2.028,3.87 3.851,7.85 5.448,11.941 m -51.754,89.681 c -9.182,-17.726 -10.13,-50.376 8.3,-65.203 -1.909,-5.234 -4.463,-10.26 -7.643,-15.032 -44.625,45.718 -5.274,101.042 23.581,141.61 6.528,9.19 12.311,17.344 16.538,24.544 2.967,-3.477 5.901,-6.989 8.8,-10.542 -20.92,-25.126 -38.389,-54.587 -49.576,-75.377 m 4.73,-5.601 c 7.949,-18.332 9.765,-36.317 5.704,-52.621 -11.852,11.942 -12.941,36.145 -5.704,52.621 M -273.194,-15.991 c 16.116,-13.476 36.044,-19.306 56.069,-19.3 23.945,0 47.999,8.313 65.726,21.786 34.52,26.25 43.071,66.356 23.002,107.455 1.733,3.146 3.596,6.454 5.571,9.879 31.632,-51.322 13.404,-96.869 -15.094,-122.914 -35.653,-32.59 -99.185,-46 -149.217,-8.74 5.034,3.552 9.674,7.518 13.943,11.834 m 45.15,181.85 10.371,11.826 c 14.032,-13.787 27.564,-27.88 40.902,-41.785 l 9.976,-10.379 c -5.315,-9.264 -10.184,-19.068 -14.416,-29.842 -8.039,-30.307 -12.718,-69.665 21.356,-107.019 -30.609,-20.514 -77.534,-25.684 -108.812,0.242 4.156,4.801 7.912,9.958 11.123,15.544 19.916,34.645 17.487,79.253 -6.45,119.461 11.396,13.965 23.467,27.744 35.95,41.952 m -67.275,-72.378 c -16.507,-19.38 -20.747,-49.078 -10.347,-71.164 -3.151,-3.536 -7.142,-7.012 -12.175,-10.127 -10.538,28.867 -7.989,56.904 7.45,81.183 19.403,29.2 44.097,59.191 79.727,96.822 2.76,-2.603 5.501,-5.22 8.219,-7.853 l -10.6,-12.094 c -22.677,-25.812 -44.1,-50.191 -62.274,-76.767 m -1.989,-14.838 c 5.2,-11.765 7.506,-30.133 -1.852,-47.168 -0.56,-1.019 -1.203,-2.062 -1.886,-3.113 -6.031,15.582 -4.492,34.664 3.738,50.281 m -38.398,30.802 C -356.929,81.934 -361.451,42.98 -348.484,1.709 c -2.454,-0.365 -4.979,-0.685 -7.657,-0.907 -12.849,0.625 -30.054,8.74 -39.54,25.456 -7.14,12.587 -12.154,34.194 4.581,65.592 11.741,22.333 25.084,42.312 42.896,64.28 9.019,-10.134 17.013,-20.483 22.436,-31.104 -3.446,-5.039 -6.768,-10.215 -9.938,-15.581 m 21.154,157.957 c -22.769,16.666 -42.391,22.259 -53.074,14.922 -4.249,-2.918 -10.543,-10.568 -4.924,-28.972 l 0.471,-0.955 c 6.116,-8.612 12.621,-16.806 19.276,-24.742 -0.159,-0.164 -0.319,-0.332 -0.478,-0.496 l 4.777,-4.638 c 0.01,0.01 0.02,0.02 0.03,0.03 6.536,-7.619 13.171,-15.02 19.712,-22.3 10.822,-12.04 21.957,-24.502 32.448,-37.728 -2.88,-3.304 -5.719,-6.629 -8.509,-9.984 -10.92,14.924 -25.535,30.207 -39.724,45.05 -17.71,18.511 -34.431,36.003 -40.776,49.393 -8.192,18.894 -5.376,36.336 7.345,45.522 13.327,9.62 40.015,10.837 71.923,-16.658 -2.859,-2.79 -5.688,-5.609 -8.497,-8.444 m -51.782,-11.597 c -3.07,10.364 -2.19,17.824 2.479,21.028 6.095,4.194 21.257,2.661 44.58,-14.231 -6.26,-6.409 -12.426,-12.877 -18.539,-19.302 -3.467,-3.641 -6.91,-7.243 -10.345,-10.821 -6.283,7.514 -12.415,15.246 -18.175,23.326 m 181.678,16.38 c -12.222,9.621 -27.423,18.917 -49.389,7.158 -34.496,-24.371 -64.071,-51.586 -85.898,-78.963 -1.289,1.437 -2.588,2.892 -3.869,4.317 -1.263,1.405 -2.532,2.821 -3.801,4.235 26.018,30.677 51.06,52.337 83.344,79.29 32.658,17.942 49.106,5.446 67.833,-9.414 -2.72,-2.169 -5.459,-4.376 -8.22,-6.623 m -59.155,-8.206 c 4.332,3.284 8.749,6.522 13.251,9.707 16.557,8.848 27.883,3.813 40.59,-5.851 -9.465,-7.788 -19.158,-15.957 -29.065,-24.321 -7.977,6.669 -16.225,13.464 -24.776,20.465 m -48.04,-96.382 c -7.679,9.629 -15.637,18.841 -23.579,27.748 9.934,12.564 21.544,25.103 34.524,37.335 9.603,-7.103 18.87,-14.56 27.857,-22.281 -6.491,-7.308 -13.018,-14.466 -19.51,-21.538 -6.558,-7.146 -13.008,-14.184 -19.292,-21.264 m 15.909,69.683 c 2.703,2.465 5.446,4.92 8.254,7.354 32.739,-25.271 62.064,-54.247 90.427,-82.311 6.894,-6.821 13.766,-13.618 20.665,-20.346 -2.281,-3.451 -4.511,-6.946 -6.678,-10.511 l -8.694,9.046 c -32.039,33.401 -65.157,67.887 -103.974,96.768 M -154.43,-7.412 c -32.454,35.178 -27.99,72.578 -20.468,101.015 10.937,27.799 26.659,49.425 43.304,72.313 6.753,9.294 13.714,18.902 20.383,28.986 2.038,-2.215 4.053,-4.462 6.065,-6.717 -3.849,-7.41 -10.42,-16.662 -18.021,-27.352 -29.949,-42.112 -75.074,-105.581 -21.169,-159.064 -3.024,-3.227 -6.396,-6.29 -10.094,-9.181 m 1.624,243.139 c 12.622,-11.123 24.976,-23.13 36.932,-35.83 -6.85,-10.452 -14.097,-20.421 -21.102,-30.063 -0.437,-0.601 -0.87,-1.198 -1.306,-1.797 -13.822,15.258 -28.409,29.535 -44.058,43.712 9.019,7.578 18.971,15.763 29.534,23.978 m 10.533,-73.197 c -2.37,-3.28 -4.715,-6.553 -7.02,-9.839 -6.339,6.196 -12.658,12.431 -18.993,18.704 -28.009,27.71 -56.968,56.291 -89.432,81.621 2.789,2.282 5.616,4.548 8.491,6.792 41.773,-34.186 76.32,-63.27 106.954,-97.278 m -175.814,-38.132 c 5.265,7.485 10.802,14.671 16.563,21.685 l 0.835,0.557 c -0.056,0.084 -0.117,0.168 -0.173,0.252 10.495,12.72 21.692,24.921 33.209,37.466 6.529,7.11 13.099,14.32 19.628,21.676 2.692,-2.367 5.362,-4.753 8.008,-7.16 -36.106,-38.143 -61.202,-68.633 -81.069,-98.545 -17.961,-28.241 -20.775,-60.618 -8.263,-93.784 -3.756,-1.43 -7.939,-2.648 -12.523,-3.634 -12.607,39.463 -8.555,76.561 11.67,102.807 3.71,6.273 7.632,12.279 11.713,18.109 l 0.556,0.25 c -0.048,0.107 -0.105,0.214 -0.154,0.321 m -34.65,36.724 c -18.418,-22.635 -32.156,-43.165 -44.243,-66.156 -18.148,-34.055 -12.46,-57.949 -4.491,-71.996 10.734,-18.906 30.335,-28.098 45.438,-28.805 3.403,0.279 6.581,0.706 9.656,1.197 0.053,-0.149 0.095,-0.297 0.148,-0.445 l 2.416,0.864 c 29.58,5.405 43.758,20.236 50.488,32.489 11.371,20.703 7.44,43.19 0.618,56.159 l -1.689,-0.888 c 1.338,2.048 2.77,4.035 4.358,5.902 1.953,2.853 3.96,5.668 5.984,8.472 12.24,-26.029 12.185,-55.017 -0.474,-76.957 -10.001,-17.334 -32.144,-38.209 -80.894,-39.393 -18.385,2.064 -35.653,12.606 -46.279,28.257 -8.415,12.41 -16.639,33.635 -8.052,64.269 7.646,26.36 29.24,60.721 59.532,94.934 2.532,-2.62 5.032,-5.255 7.484,-7.903 m 271.601,-73.979 -0.223,0.644 c -1.293,2.777 -2.542,5.574 -3.784,8.357 -5.608,12.568 -11.443,25.5 -20.717,35.161 6.904,10.405 14.528,20.962 22.691,30.854 20.842,-26.116 39.768,-54.083 55.771,-82.711 6.561,-14.613 4.166,-33.354 -6.109,-47.738 C -44.333,16.555 -62.158,8.407 -82.921,8.949 c 7.597,23.372 8.422,49.899 1.785,78.194 M -61,254.658 c 5.752,9.447 5.357,19.894 -0.994,26.621 -7.44,7.893 -20.384,8.084 -34.66,0.484 -32.739,-18.101 -65.463,-44.302 -90.681,-65.514 -2.895,2.583 -5.838,5.169 -8.808,7.759 12.107,9.148 23.148,17.63 32.997,25.204 24.532,18.868 42.254,32.5 51.656,37.151 l 0.631,0.356 c 25.907,16.709 48.534,17.671 59.07,2.51 10.774,-15.522 6.441,-44.133 -18.933,-64.155 -2.785,2.839 -5.595,5.652 -8.444,8.426 z m -52.389,9.286 c 6.601,4.258 13.257,8.295 19.907,11.972 11.435,6.076 21.385,6.37 26.647,0.796 4.236,-4.485 4.293,-11.779 0.471,-18.149 l -17.63,-20.474 c -9.444,8.958 -19.238,17.571 -29.395,25.855 m 51.013,59.199 c 19.282,-5.631 34.073,-20.562 38.596,-38.984 5.823,-23.691 -5.203,-50.653 -30.993,-76.125 -2.342,2.613 -4.695,5.214 -7.085,7.774 30.337,24.618 34.504,60.594 20.548,80.695 -11.632,16.741 -37.737,25.8 -76.168,1.128 -10.555,-5.319 -27.672,-18.479 -53.445,-38.304 -10.429,-8.013 -22.142,-17.026 -35.104,-26.794 -2.581,2.203 -5.189,4.415 -7.829,6.638 14.779,12.476 29.072,24.504 42.783,35.405 l 0.143,-0.113 0.458,0.587 c 42.515,33.74 79.445,56.537 108.096,48.093 m 78.97,-215.526 c -19.842,35.266 -42.033,66.9 -66.95,95.432 27.71,27.253 39.462,56.557 33.042,82.689 -5.09,20.729 -21.646,37.508 -43.189,43.788 -25.618,7.572 -56.004,-6.72 -90.205,-31.165 -19.531,20.038 -49.663,41.799 -94.255,26.069 -13.968,-8.222 -26.938,-17.953 -39.258,-28.518 -34.099,31.903 -78.155,42.637 -108.332,26.008 -24.709,-13.606 -34.328,-42.106 -26.302,-78.505 5.669,-17.503 19.243,-33.733 35.05,-50.273 -5.548,-7.607 -11.275,-14.914 -16.857,-22.002 -12.944,-16.435 -26.328,-33.431 -37.425,-54.567 -22.327,-43.877 -23.429,-88.85 -3.025,-123.377 15.651,-26.474 42.603,-42.858 72.173,-43.826 0.829,-0.006 1.657,-0.013 2.478,-0.013 18.027,0 34.755,2.716 49.729,7.858 22.481,-25.526 57.725,-39.123 95.338,-39.123 23.767,0.007 48.464,5.415 71.448,16.639 14.19,6.928 26.433,15.521 36.652,25.49 11.248,-2.093 22.053,-3.175 32.317,-3.175 36.775,0 66.74,13.326 86.271,38.915 23.843,31.239 28.525,77.098 11.3,111.656"
     style="fill:#647b98;fill-opacity:1;fill-rule:nonzero;stroke:none"
     transform="matrix(2.0721692,0,0,-2.0721692,944.20668,687.04479)"
     clip-path="url(#clipPath71)" />
</svg>
