<?xml version="1.0" encoding="UTF-8" standalone="no"?>
<!-- Created with Inkscape (http://www.inkscape.org/) -->

<svg
   width="866.02899"
   height="1000"
   viewBox="0 0 866.02899 1000"
   version="1.1"
   id="svg1"
   xml:space="preserve"
   inkscape:version="1.4.2 (ebf0e940d0, 2025-05-08)"
   sodipodi:docname="logo.svg"
   inkscape:export-filename="logo.png"
   inkscape:export-xdpi="96"
   inkscape:export-ydpi="96"
   xmlns:inkscape="http://www.inkscape.org/namespaces/inkscape"
   xmlns:sodipodi="http://sodipodi.sourceforge.net/DTD/sodipodi-0.dtd"
   xmlns="http://www.w3.org/2000/svg"
   xmlns:svg="http://www.w3.org/2000/svg"><sodipodi:namedview
     id="namedview1"
     pagecolor="#505050"
     bordercolor="#eeeeee"
     borderopacity="1"
     inkscape:showpageshadow="0"
     inkscape:pageopacity="0"
     inkscape:pagecheckerboard="0"
     inkscape:deskcolor="#505050"
     inkscape:document-units="px"
     showguides="true"
     inkscape:zoom="0.5"
     inkscape:cx="495"
     inkscape:cy="425"
     inkscape:window-width="1920"
     inkscape:window-height="1020"
     inkscape:window-x="0"
     inkscape:window-y="28"
     inkscape:window-maximized="1"
     inkscape:current-layer="layer3"><sodipodi:guide
       position="986.04711,500"
       orientation="0,1"
       id="guide2"
       inkscape:locked="false"
       inkscape:label=""
       inkscape:color="rgb(0,134,229)" /><sodipodi:guide
       position="433.0145,786.45375"
       orientation="-1,0"
       id="guide3"
       inkscape:locked="false"
       inkscape:label=""
       inkscape:color="rgb(0,134,229)" /><sodipodi:guide
       position="29.977346,267.31725"
       orientation="0,-1"
       id="guide6"
       inkscape:locked="false" /><sodipodi:guide
       position="-2.4735552e-06,250"
       orientation="0,-1"
       id="guide7"
       inkscape:locked="false" /><sodipodi:guide
       position="-230.68929,375"
       orientation="0,-1"
       id="guide8"
       inkscape:locked="false" /></sodipodi:namedview><defs
     id="defs1"><clipPath
       clipPathUnits="userSpaceOnUse"
       id="clipPath11"><path
         sodipodi:type="star"
         style="display:inline;fill:#d80000;stroke-width:2.5"
         id="path11"
         inkscape:flatsided="true"
         sodipodi:sides="6"
         sodipodi:cx="405.25177"
         sodipodi:cy="288.9021"
         sodipodi:r1="210.85258"
         sodipodi:r2="182.6037"
         sodipodi:arg1="0.52359878"
         sodipodi:arg2="1.0471976"
         inkscape:rounded="0"
         inkscape:randomized="0"
         d="M 587.85546,394.32839 405.25177,499.75468 222.64807,394.32839 222.64808,183.47581 405.25177,78.049515 587.85547,183.47581 Z"
         transform="matrix(0.98941672,0,0,0.98941672,43.325623,134.15766)" /></clipPath><filter
       style="color-interpolation-filters:sRGB;"
       inkscape:label="Blur"
       id="filter6"
       x="-1.1246565"
       y="-1.0649259"
       width="3.249313"
       height="3.1298517"><feGaussianBlur
         stdDeviation="10 10"
         result="fbSourceGraphic"
         id="feGaussianBlur6" /><feColorMatrix
         result="fbSourceGraphicAlpha"
         in="fbSourceGraphic"
         values="0 0 0 -1 0 0 0 0 -1 0 0 0 0 -1 0 0 0 0 1 0"
         id="feColorMatrix12" /><feGaussianBlur
         id="feGaussianBlur12"
         stdDeviation="21.4196 19.7509"
         result="blur"
         in="fbSourceGraphic" /></filter><filter
       style="color-interpolation-filters:sRGB;"
       inkscape:label="Blur"
       id="filter6-9"
       x="-1.2253901"
       y="-1.212214"
       width="3.4507803"
       height="3.4244281"><feGaussianBlur
         stdDeviation="10 10"
         result="fbSourceGraphic"
         id="feGaussianBlur6-1" /><feColorMatrix
         result="fbSourceGraphicAlpha"
         in="fbSourceGraphic"
         values="0 0 0 -1 0 0 0 0 -1 0 0 0 0 -1 0 0 0 0 1 0"
         id="feColorMatrix10" /><feGaussianBlur
         id="feGaussianBlur10"
         stdDeviation="24.2338 23.8657"
         result="blur"
         in="fbSourceGraphic" /></filter><filter
       style="color-interpolation-filters:sRGB;"
       inkscape:label="Blur"
       id="filter6-9-3"
       x="-1.5709741"
       y="-1.5253894"
       width="4.1419481"
       height="4.0507788"><feGaussianBlur
         stdDeviation="10 10"
         result="fbSourceGraphic"
         id="feGaussianBlur6-1-6" /><feColorMatrix
         result="fbSourceGraphicAlpha"
         in="fbSourceGraphic"
         values="0 0 0 -1 0 0 0 0 -1 0 0 0 0 -1 0 0 0 0 1 0"
         id="feColorMatrix6" /><feGaussianBlur
         id="feGaussianBlur7"
         stdDeviation="33.8884 32.6149"
         result="blur"
         in="fbSourceGraphic" /></filter><filter
       style="color-interpolation-filters:sRGB;"
       inkscape:label="Blur"
       id="filter6-1"
       x="-1.4050332"
       y="-1.4819382"
       width="3.8100664"
       height="3.9638763"><feGaussianBlur
         stdDeviation="10 10"
         result="fbSourceGraphic"
         id="feGaussianBlur6-8" /><feColorMatrix
         result="fbSourceGraphicAlpha"
         in="fbSourceGraphic"
         values="0 0 0 -1 0 0 0 0 -1 0 0 0 0 -1 0 0 0 0 1 0"
         id="feColorMatrix9" /><feGaussianBlur
         id="feGaussianBlur9"
         stdDeviation="29.2525 31.401"
         result="blur"
         in="fbSourceGraphic" /></filter><filter
       style="color-interpolation-filters:sRGB"
       inkscape:label="Blur"
       id="filter6-9-2"
       x="-0.35794744"
       y="-0.35794744"
       width="1.7158949"
       height="1.7158949"><feGaussianBlur
         stdDeviation="10 10"
         result="blur"
         id="feGaussianBlur6-1-3" /></filter><filter
       style="color-interpolation-filters:sRGB;"
       inkscape:label="Blur"
       id="filter6-1-2"
       x="-0.9255769"
       y="-0.85183974"
       width="2.8511538"
       height="2.7036795"><feGaussianBlur
         stdDeviation="10 10"
         result="fbSourceGraphic"
         id="feGaussianBlur6-8-8" /><feColorMatrix
         result="fbSourceGraphicAlpha"
         in="fbSourceGraphic"
         values="0 0 0 -1 0 0 0 0 -1 0 0 0 0 -1 0 0 0 0 1 0"
         id="feColorMatrix11" /><feGaussianBlur
         id="feGaussianBlur11"
         stdDeviation="15.8579 13.7979"
         result="blur"
         in="fbSourceGraphic" /></filter><filter
       style="color-interpolation-filters:sRGB;"
       inkscape:label="Blur"
       id="filter6-12"
       x="-2.3595215"
       y="-2.5889587"
       width="5.7190429"
       height="6.1779173"><feGaussianBlur
         stdDeviation="10 10"
         result="fbSourceGraphic"
         id="feGaussianBlur6-9" /><feColorMatrix
         result="fbSourceGraphicAlpha"
         in="fbSourceGraphic"
         values="0 0 0 -1 0 0 0 0 -1 0 0 0 0 -1 0 0 0 0 1 0"
         id="feColorMatrix8" /><feGaussianBlur
         id="feGaussianBlur8"
         stdDeviation="55.9181 62.3279"
         result="blur"
         in="fbSourceGraphic" /></filter><linearGradient
       x1="0"
       y1="0"
       x2="1"
       y2="0"
       gradientUnits="userSpaceOnUse"
       gradientTransform="matrix(-1.014e-4,2320.86,2320.86,1.014e-4,1763.52,-458.22)"
       spreadMethod="pad"
       id="linearGradient403"><stop
         style="stop-opacity:1;stop-color:#fcfbf4"
         offset="0"
         id="stop400" /><stop
         style="stop-opacity:1;stop-color:#fcfbf4"
         offset="0.0748539"
         id="stop401" /><stop
         style="stop-opacity:1;stop-color:#f6f6d8"
         offset="0.660781"
         id="stop402" /><stop
         style="stop-opacity:1;stop-color:#f5f5cb"
         offset="1"
         id="stop403" /></linearGradient><clipPath
       clipPathUnits="userSpaceOnUse"
       id="clipPath403"><path
         d="m 2637.91,1220.74 c -4.15,0 -3.57,5.65 0.54,5.65 4.18,0 3.62,-5.65 -0.54,-5.65"
         transform="translate(0,-2.5000001e-5)"
         id="path403" /></clipPath><clipPath
       clipPathUnits="userSpaceOnUse"
       id="clipPath407"><path
         d="m 2817.18,1093.41 c -0.88,0 -1.56,0.23 -2.06,0.62 1.63,0.14 3.22,0.29 4.76,0.45 -0.61,-0.64 -1.52,-1.07 -2.7,-1.07"
         transform="translate(0,-2.5000001e-5)"
         id="path407" /></clipPath><clipPath
       clipPathUnits="userSpaceOnUse"
       id="clipPath439"><path
         d="m 3209.45,1079.15 c -4.71,0 -4.08,6.43 0.61,6.43 4.69,0 4.05,-6.43 -0.61,-6.43"
         transform="translate(0,-2.5000001e-5)"
         id="path439" /></clipPath><clipPath
       clipPathUnits="userSpaceOnUse"
       id="clipPath467"><path
         d="m 3437.64,1067.68 c -0.38,0 -0.86,0.08 -1.44,0.25 v 0 c -1.65,0.48 -5.97,1.67 -5.81,3.66 0.23,2.42 1.17,3.32 2.35,3.32 1.67,0 3.82,-1.81 5.09,-3.61 1.27,-1.81 1.66,-3.62 -0.19,-3.62 m -0.72,0.04 c 0,0 -0.23,0.06 -0.44,0.12 -0.22,0.06 -0.43,0.12 -0.42,0.12 0,0 0.04,-0.01 0.14,-0.03 v 0 c 0.55,-0.16 0.73,-0.21 0.72,-0.21"
         transform="translate(0,-2.5000001e-5)"
         id="path467" /></clipPath><clipPath
       clipPathUnits="userSpaceOnUse"
       id="clipPath471"><path
         d="m 3441.95,1199.83 c -4.88,0 -4.22,6.67 0.61,6.67 4.91,0 4.24,-6.67 -0.61,-6.67"
         transform="translate(0,-2.5000001e-5)"
         id="path471" /></clipPath><clipPath
       clipPathUnits="userSpaceOnUse"
       id="clipPath475"><path
         d="m 2551.05,1348.64 c -2.98,0 -2.55,4.02 0.36,4.02 2.95,0 2.52,-4.02 -0.36,-4.02"
         transform="translate(0,-2.5000001e-5)"
         id="path475" /></clipPath><clipPath
       clipPathUnits="userSpaceOnUse"
       id="clipPath479"><path
         d="m 3427.76,1336.52 c -4.57,0 -3.93,6.27 0.58,6.27 4.6,0 3.95,-6.27 -0.58,-6.27"
         transform="translate(0,-2.5000001e-5)"
         id="path479" /></clipPath><clipPath
       clipPathUnits="userSpaceOnUse"
       id="clipPath483"><path
         d="m 3221.94,1355.98 c -3.66,0 -3.16,5.02 0.45,5.02 3.68,0 3.17,-5.02 -0.45,-5.02"
         transform="translate(0,-2.5000001e-5)"
         id="path483" /></clipPath><linearGradient
       x1="0"
       y1="0"
       x2="1"
       y2="0"
       gradientUnits="userSpaceOnUse"
       gradientTransform="matrix(1312.92,0,0,-1312.92,2108.83,1150.47)"
       spreadMethod="pad"
       id="linearGradient750"><stop
         style="stop-opacity:1;stop-color:#f6f7d2"
         offset="0"
         id="stop748" /><stop
         style="stop-opacity:1;stop-color:#eaf0d2"
         offset="0.807685"
         id="stop749" /><stop
         style="stop-opacity:1;stop-color:#eaf0d2"
         offset="1"
         id="stop750" /></linearGradient><clipPath
       clipPathUnits="userSpaceOnUse"
       id="clipPath750"><path
         d="m 2457.38,1191.27 c -1.33,0.15 -2.71,0.3 -4.14,0.45 -1.73,1.61 -1.25,4.84 1.89,4.84 3.43,0 4.42,-3.95 2.25,-5.29"
         transform="translate(0,-2.5000001e-5)"
         id="path750" /></clipPath><clipPath
       clipPathUnits="userSpaceOnUse"
       id="clipPath753"><path
         d="m 2638.45,1134.4 c -4.11,0 -4.69,5.64 -0.54,5.64 4.16,0 4.72,-5.64 0.54,-5.64"
         transform="translate(0,-2.5000001e-5)"
         id="path753" /></clipPath><clipPath
       clipPathUnits="userSpaceOnUse"
       id="clipPath754"><path
         d="m 2577.36,1113.52 c -7.17,0 -6.19,9.83 0.95,9.83 7.2,0 6.21,-9.83 -0.95,-9.83"
         transform="matrix(0.03311236,0,0,-0.03968254,-84.863677,44.924602)"
         id="path754" /></clipPath><clipPath
       clipPathUnits="userSpaceOnUse"
       id="clipPath755"><path
         d="m 2455.13,1164.22 c -4.18,0 -3.64,5.72 0.53,5.72 4.18,0 3.6,-5.72 -0.53,-5.72"
         transform="matrix(0.03968222,0,0,-0.04716981,-96.939706,55.476414)"
         id="path755" /></clipPath><clipPath
       clipPathUnits="userSpaceOnUse"
       id="clipPath756"><path
         d="m 2815.12,1094.03 c -2.02,1.55 -0.91,5.51 2.62,5.51 3.31,0 3.85,-3.31 2.14,-5.06 -1.54,-0.16 -3.13,-0.31 -4.76,-0.45"
         transform="matrix(0.04950446,0,0,-0.04950495,-139.00358,54.856435)"
         id="path756" /></clipPath><clipPath
       clipPathUnits="userSpaceOnUse"
       id="clipPath757"><path
         d="m 3291.41,1099.19 67.1,39.71 c 105.76,-12.91 59.96,-29.84 -0.65,-35.7 -20.72,-1.98 -43.07,-3.21 -66.45,-4.01"
         transform="matrix(0.0053135,0,0,-0.01845018,-17.443677,21.164206)"
         id="path757" /></clipPath><clipPath
       clipPathUnits="userSpaceOnUse"
       id="clipPath781"><path
         d="m 3288.02,1099.08 69.32,39.96 c 0.39,-0.04 0.79,-0.09 1.17,-0.14 l -67.1,-39.71 c -1.13,-0.04 -2.25,-0.08 -3.39,-0.11"
         transform="matrix(0.01216542,0,0,-0.01845018,-39.937858,21.164206)"
         id="path781" /></clipPath><clipPath
       clipPathUnits="userSpaceOnUse"
       id="clipPath431"><path
         d="m 3410.58,693.551 c -0.81,0 -3.26,1.39 -4.75,2.789 -1.49,1.398 -2.03,2.801 0.97,2.801 0.54,0 1.19,-0.051 1.98,-0.153 1.94,-0.316 7.66,-4.258 2,-4.957 0.16,-0.34 0.07,-0.48 -0.2,-0.48"
         transform="translate(0,-2.5000001e-5)"
         id="path431" /></clipPath><clipPath
       clipPathUnits="userSpaceOnUse"
       id="clipPath459"><path
         d="m 3330.28,636.641 c -2.49,0 -2.18,3.418 0.32,3.418 2.51,0 2.18,-3.418 -0.32,-3.418"
         transform="translate(0,-2.5000001e-5)"
         id="path459" /></clipPath><clipPath
       clipPathUnits="userSpaceOnUse"
       id="clipPath511"><path
         d="m 3356.84,758.238 c -3.64,0 -3.13,4.961 0.46,4.961 3.67,0 3.14,-4.961 -0.46,-4.961"
         transform="translate(0,-2.5000001e-5)"
         id="path511" /></clipPath><clipPath
       clipPathUnits="userSpaceOnUse"
       id="clipPath431-6"><path
         d="m 3410.58,693.551 c -0.81,0 -3.26,1.39 -4.75,2.789 -1.49,1.398 -2.03,2.801 0.97,2.801 0.54,0 1.19,-0.051 1.98,-0.153 1.94,-0.316 7.66,-4.258 2,-4.957 0.16,-0.34 0.07,-0.48 -0.2,-0.48"
         transform="translate(0,-2.5000001e-5)"
         id="path431-9" /></clipPath><clipPath
       clipPathUnits="userSpaceOnUse"
       id="clipPath459-3"><path
         d="m 3330.28,636.641 c -2.49,0 -2.18,3.418 0.32,3.418 2.51,0 2.18,-3.418 -0.32,-3.418"
         transform="translate(0,-2.5000001e-5)"
         id="path459-7" /></clipPath><clipPath
       clipPathUnits="userSpaceOnUse"
       id="clipPath511-4"><path
         d="m 3356.84,758.238 c -3.64,0 -3.13,4.961 0.46,4.961 3.67,0 3.14,-4.961 -0.46,-4.961"
         transform="translate(0,-2.5000001e-5)"
         id="path511-5" /></clipPath><filter
       inkscape:collect="always"
       id="filter3404"
       x="-0.13976401"
       width="1.279528"
       y="-0.074074926"
       height="1.1481499"><feGaussianBlur
         inkscape:collect="always"
         stdDeviation="0.89969547"
         id="feGaussianBlur3406" /></filter><filter
       inkscape:collect="always"
       id="filter3512"
       x="-0.10079905"
       width="1.2015981"
       y="-0.15144443"
       height="1.3028889"><feGaussianBlur
         inkscape:collect="always"
         stdDeviation="1.2569275"
         id="feGaussianBlur3514" /></filter><filter
       inkscape:collect="always"
       id="filter3456"
       x="-0.13867436"
       width="1.2773487"
       y="-0.11294744"
       height="1.2258949"><feGaussianBlur
         inkscape:collect="always"
         stdDeviation="1.0105823"
         id="feGaussianBlur3458" /></filter><clipPath
       clipPathUnits="userSpaceOnUse"
       id="clipPath4"><rect
         style="fill:#000000;fill-opacity:1;stroke:none;stroke-width:30.0001;stroke-linecap:round;stroke-miterlimit:5;stroke-dasharray:none;paint-order:fill markers stroke"
         id="rect5"
         width="182.60371"
         height="210.85257"
         x="222.64807"
         y="78.049515" /></clipPath><clipPath
       clipPathUnits="userSpaceOnUse"
       id="clipPath5"><rect
         style="fill:#000000;fill-opacity:1;stroke:none;stroke-width:30.0001;stroke-linecap:round;stroke-miterlimit:5;stroke-dasharray:none;paint-order:fill markers stroke"
         id="rect6"
         width="182.60371"
         height="210.85257"
         x="405.25177"
         y="78.049522" /></clipPath></defs><g
     inkscape:groupmode="layer"
     id="layer2"
     inkscape:label="Background"
     style="display:inline"
     sodipodi:insensitive="true"><path
       sodipodi:type="star"
       style="display:inline;fill:#93c5e1;fill-opacity:1;stroke:none;stroke-width:2.10852;stroke-dasharray:none"
       id="path2-5-4"
       inkscape:flatsided="true"
       sodipodi:sides="6"
       sodipodi:cx="405.25177"
       sodipodi:cy="288.9021"
       sodipodi:r1="210.85258"
       sodipodi:r2="182.6037"
       sodipodi:arg1="0.52359878"
       sodipodi:arg2="1.0471976"
       inkscape:rounded="0"
       inkscape:randomized="0"
       d="M 587.85546,394.32839 405.25177,499.75468 222.64807,394.32839 222.64808,183.47581 405.25177,78.049515 587.85547,183.47581 Z"
       transform="matrix(2.3713348,0,0,2.371325,-527.97313,-185.08077)"
       inkscape:label="Blue"
       sodipodi:insensitive="true" /><path
       sodipodi:type="star"
       style="display:inline;fill:#ff00d7;fill-opacity:1;stroke:none;stroke-width:2.10852;stroke-dasharray:none"
       id="path2"
       inkscape:flatsided="true"
       sodipodi:sides="6"
       sodipodi:cx="405.25177"
       sodipodi:cy="288.9021"
       sodipodi:r1="210.85258"
       sodipodi:r2="182.6037"
       sodipodi:arg1="0.52359878"
       sodipodi:arg2="1.0471976"
       inkscape:rounded="0"
       inkscape:randomized="0"
       d="M 587.85546,394.32839 405.25177,499.75468 222.64807,394.32839 222.64808,183.47581 405.25177,78.049515 587.85547,183.47581 Z"
       transform="matrix(2.3713348,0,0,2.371325,-527.97313,-185.08077)"
       inkscape:label="Pink"
       clip-path="url(#clipPath4)"
       sodipodi:insensitive="true" /><path
       sodipodi:type="star"
       style="display:inline;fill:#95e890;fill-opacity:1;stroke:none;stroke-width:2.10852;stroke-dasharray:none"
       id="path5"
       inkscape:flatsided="true"
       sodipodi:sides="6"
       sodipodi:cx="405.25177"
       sodipodi:cy="288.9021"
       sodipodi:r1="210.85258"
       sodipodi:r2="182.6037"
       sodipodi:arg1="0.52359878"
       sodipodi:arg2="1.0471976"
       inkscape:rounded="0"
       inkscape:randomized="0"
       d="M 587.85546,394.32839 405.25177,499.75468 222.64807,394.32839 222.64808,183.47581 405.25177,78.049515 587.85547,183.47581 Z"
       transform="matrix(2.3713348,0,0,2.371325,-527.97313,-185.08077)"
       inkscape:label="Green"
       clip-path="url(#clipPath5)" /></g><g
     inkscape:groupmode="layer"
     id="layer5"
     inkscape:label="Border"
     style="display:inline"
     sodipodi:insensitive="true"><path
       sodipodi:type="star"
       style="display:inline;fill:none;fill-opacity:1;stroke:#2f648c;stroke-width:13.1051;stroke-dasharray:none"
       id="path1"
       inkscape:flatsided="true"
       sodipodi:sides="6"
       sodipodi:cx="405.25177"
       sodipodi:cy="288.9021"
       sodipodi:r1="210.85258"
       sodipodi:r2="182.6037"
       sodipodi:arg1="0.52359878"
       sodipodi:arg2="1.0471976"
       inkscape:rounded="0"
       inkscape:randomized="0"
       d="M 587.85546,394.32839 405.25177,499.75468 222.64807,394.32839 222.64808,183.47581 405.25177,78.049515 587.85547,183.47581 Z"
       transform="matrix(2.2891895,0,0,2.28918,-494.68361,-161.34892)"
       inkscape:label="1" /></g><g
     inkscape:groupmode="layer"
     id="layer4"
     inkscape:label="Logo"
     sodipodi:insensitive="true"
     style="display:none"><g
       id="g1"
       transform="translate(224,-168)"><path
         inkscape:connector-curvature="0"
         style="fill:none;stroke:#000000;stroke-width:0.399999;stroke-linecap:butt;stroke-linejoin:miter;stroke-miterlimit:4;stroke-dasharray:1.2, 0.399999;stroke-dashoffset:0;stroke-opacity:1"
         d="m 881.40062,400.94179 635.37608,-2.56197"
         id="path3194"
         inkscape:export-filename="/home/pierre/workspace/iramuteq/images/iraicone16x16.png"
         inkscape:export-xdpi="29.879032"
         inkscape:export-ydpi="29.879032" /><path
         inkscape:connector-curvature="0"
         style="fill:none;stroke:#000000;stroke-width:0.5;stroke-linecap:butt;stroke-linejoin:miter;stroke-miterlimit:4;stroke-dasharray:1.49999, 0.5;stroke-dashoffset:0;stroke-opacity:1"
         d="m 1196.5264,719.91101 c 1.2788,-628.97145 1.2788,-628.97145 1.2788,-628.97145"
         id="path3196"
         inkscape:export-filename="/home/pierre/workspace/iramuteq/images/iraicone16x16.png"
         inkscape:export-xdpi="29.879032"
         inkscape:export-ydpi="29.879032" /><ellipse
         style="fill:#00ff1a;fill-opacity:0.724265;stroke-width:0.0758516;filter:url(#filter3404)"
         id="path3206"
         inkscape:export-filename="/home/pierre/workspace/iramuteq/images/iraicone16x16.png"
         inkscape:export-xdpi="29.879032"
         inkscape:export-ydpi="29.879032"
         cx="1273.5554"
         cy="223.45779"
         rx="7.7246962"
         ry="14.574899"
         transform="matrix(13.183635,0,0,13.183635,-15413.583,-2637.2762)" /><ellipse
         style="fill:#007dff;fill-opacity:0.790441;stroke-width:0.0758516;filter:url(#filter3512)"
         id="path3204"
         inkscape:export-filename="/home/pierre/workspace/iramuteq/images/iraicone16x16.png"
         inkscape:export-xdpi="29.879032"
         inkscape:export-ydpi="29.879032"
         cx="1254.9481"
         cy="241.38492"
         rx="14.963563"
         ry="9.9595146"
         transform="matrix(13.183635,0,0,13.183635,-15413.583,-2637.2762)" /><path
         style="fill:none;stroke:#000000;stroke-width:0.497251;stroke-linecap:butt;stroke-linejoin:miter;stroke-miterlimit:4;stroke-dasharray:1.49175, 0.497251;stroke-dashoffset:0;stroke-opacity:1"
         d="m 1199.7735,403.61886 c 297.4466,247.40436 297.4466,247.40436 297.4466,247.40436 l 0.936,2.1608"
         id="path3775-2"
         inkscape:connector-curvature="0"
         inkscape:export-filename="/home/pierre/workspace/iramuteq/images/iraicone16x16.png"
         inkscape:export-xdpi="29.879032"
         inkscape:export-ydpi="29.879032" /><path
         style="fill:#0000ff;fill-opacity:0.996885;stroke-width:1"
         id="path2409"
         d="m 1390.9085,557.39832 c 0.8702,3.18226 1.942,6.3081 3.1905,9.36051 0.7383,2.52981 1.8061,4.92198 3.1825,7.16425 3.3157,6.01701 7.5121,-1.44466 -16.672,9.26994 -0.1714,0.0791 -1.499,-3.06783 -1.5768,-3.25491 -1.1338,-2.39217 -1.7587,-4.98433 -2.9136,-7.36411 -1.4317,-1.52574 -1.7059,-4.18 -3.4462,-5.39356 -0.9755,6.59116 -0.2241,0.68423 16.3174,-8.45651 0.1319,-0.0527 -0.2768,-0.0659 -0.3296,0.0264 -0.1318,0.17007 0,0.37441 0,0.55635 0.1714,0.71587 0.4483,1.40419 0.6592,2.10648 0.8438,2.63554 2.1714,5.05355 3.5464,7.44256 0.2769,0.41792 0.5405,0.84111 0.8174,1.25508 0.356,0.52471 1.2524,2.17121 1.0547,1.57004 -2.5774,-8.03925 -13.6556,15.26797 -17.0254,8.21011 -1.3368,-2.49052 -2.663,-4.99845 -4.1343,-7.41303 -1.0943,-1.83516 -1.9275,-3.81178 -2.9782,-5.66606 -0.5274,0.13315 -0.2901,-1.35871 -0.8174,-1.37914 -0.1714,-0.006 -0.1318,0.57612 0,0.49966 5.5345,-2.82433 10.8093,-6.15056 16.3938,-8.87641 0.2505,-0.11865 0,0.55239 0.1319,0.81738 0.1318,0.33487 0.2505,0.64732 0.3691,0.97164 1.1602,2.54615 2.4904,5.0165 3.8246,7.47578 1.2524,2.14418 2.3902,4.2889 3.3315,6.58826 3.8259,6.27765 -1.3579,3.03698 -16.8052,8.75274 -0.3955,0.14766 -0.2637,-0.80947 -0.4219,-1.21025 -0.3823,-1.02042 -0.6987,-1.70373 -1.1469,-2.72018 -1.3606,-2.99664 -2.6592,-6.01491 -3.88,-9.07153 -0.5273,-1.23267 -1.1074,-2.46719 -1.8391,-3.59993 -0.1318,-0.16743 -0.1846,-0.39287 -0.3691,-0.46801 -0.1319,-0.0396 -0.1319,0.352 0,0.30454 5.5555,-2.91583 11.0307,-5.98181 16.5467,-8.97278 0.5406,2.67997 1.6889,5.17352 2.762,7.66892 1.2393,1.83608 1.6374,5.30971 3.7943,6.3731 -5.5517,2.88748 -10.8528,6.31377 -16.6523,8.6627 -0.5537,0.22412 -0.2637,-1.16939 -0.435,-1.73971 -0.2505,-0.81475 -0.5406,-1.61816 -0.857,-2.41195 -1.0547,-2.68405 -2.3717,-5.26844 -3.6387,-7.85679 -1.3051,-1.51915 -3.7731,-8.67826 -5.2681,-9.39017 20.0839,-11.89269 14.5666,-12.94422 18.5942,-2.1633 1.0283,2.95339 2.1555,5.86619 3.3565,8.75459 0.1714,0.45483 0.3164,0.91494 0.501,1.36305 0.1318,0.30191 0.6855,1.47301 0.8833,1.84795 0,0.10547 0.2768,0.23599 0.1846,0.28741 -17.6068,8.96962 -14.0498,13.92706 -18.1275,7.00367 -2.1397,-3.3166 -4.2794,-6.62794 -6.2003,-10.07915 -0.29,-0.51548 -0.5801,-1.02964 -0.8833,-1.54525 -0.5405,-0.96768 -1.2261,-2.27062 -1.1865,-2.29633 17.231,-9.0296 14.7182,-14.41762 17.4446,-7.60999 1.0546,2.85808 2.5747,5.49758 4.0671,8.14129 1.6836,2.97423 3.2893,5.97482 5.0678,8.89592 1.4739,2.47642 2.9109,5.06225 4.8713,7.19668 0,-0.0659 0.2242,-0.21884 0.1583,-0.18193 -19.9759,10.67927 -13.2615,13.34144 -19.0623,4.49694 -0.2768,-0.40606 -0.5537,-0.81871 -0.8437,-1.21949 -0.1714,-0.24653 -1.3579,-1.84412 -1.6519,-2.16594 -0.1319,-0.10547 -0.4878,-0.19116 -0.356,-0.26631 16.7828,-9.73374 12.9463,-14.33351 17.3259,-8.49065 1.8326,2.80284 3.6295,5.60752 5.7059,8.23937 2.3322,2.48472 4.2254,5.35177 6.6103,7.78151 5.7217,4.91315 8.0249,-1.28277 -15.3668,10.38449 -0.3033,0.15425 -0.3692,-0.58404 -0.5406,-0.87803 -1.2524,-2.04729 -0.3691,-0.65127 -1.7771,-2.81392 -2.3177,-3.49775 -4.5102,-7.08726 -6.9293,-10.51566 -4.3427,-5.99526 -8.2464,1.05996 15.8994,-9.79083 0.3296,-0.14634 0.3164,0.63809 0.4878,0.95054 0.7778,1.42463 0.7778,1.374 1.6915,2.79744 1.7007,2.60218 3.7929,5.02863 5.0137,7.91255 -5.6505,3.19374 -11.0716,6.83216 -16.9502,9.58134 -0.501,0.23599 -0.8569,-0.70928 -1.3052,-1.04546 -3.3671,-2.54682 -6.22,-5.66949 -9.185,-8.67378 -4.4416,-4.82837 -9.2707,-9.26704 -13.8679,-13.94341 -6.278,-5.55545 -8.4902,0.2149 14.1461,-10.40953 0.2768,-0.13184 -0.01,0.62227 0.1318,0.92285 0.2637,1.10611 1.0415,2.87931 1.4462,3.86927 1.8668,3.90315 4.1133,7.61619 6.2992,11.34702 6.1871,9.71674 6.8146,3.32544 -13.9641,13.66879 -3.7824,-3.9858 -7.5635,-7.9844 -11.6557,-11.65512 -2.9768,-2.4772 -6.071,-4.86885 -9.2773,-7.04982 -6.5246,-2.97172 -12.6945,5.7279 14.5389,-9.21852 0.1319,-0.0527 -0.3164,-0.23072 -0.3296,-0.11865 0,0.48515 0.7647,1.91149 0.8833,2.16013 1.9618,3.27838 4.5049,6.1507 6.9636,9.05729 3.7798,4.72106 8.5588,8.47273 13.4249,12.00357 3.5201,2.00747 7.8219,5.97285 11.9998,6.24773 1.5187,-6.9756 0.2373,-0.0264 -15.7057,8.64543 -0.2373,0.13183 0,-0.56162 -0.1318,-0.81343 -0.2505,-0.57745 -0.5801,-1.11666 -0.9097,-1.64545 -1.0942,-1.71005 -2.2307,-3.03303 -3.5095,-4.63655 -3.6967,-4.327 -7.425,-8.60997 -11.3669,-12.71298 -5.2853,-6.80078 -2.2373,-3.48127 15.4288,-11.28796 0.4746,-0.20962 0.6724,0.7897 1.0283,1.17202 0.4614,0.51153 0.9492,1.00591 1.4278,1.5094 2.5787,3.26123 5.5885,6.10415 8.4547,9.09539 1.578,1.92191 3.6439,3.17422 5.5727,4.67162 5.4765,6.6224 -13.2021,10.03894 -16.0933,11.42915 0,0.007 -2.7409,-1.74076 -3.6426,-2.22566 -3.4805,-1.87128 -6.816,-3.98871 -10.2279,-5.98128 -2.8661,-1.63464 -5.3394,-3.88588 -8.2279,-5.4691 -2.0316,-0.61568 -3.6374,-2.04834 -5.5529,-2.88458 -0.8438,-0.5168 -1.6902,-0.93472 -2.6697,-1.07315 -0.1319,-0.0264 -0.5405,0.0395 -0.4219,-0.0396 16.3912,-9.58041 12.6181,-14.32758 16.6615,-9.01787 1.1601,1.5885 2.9175,2.61616 4.4086,3.86307 1.8325,1.84162 3.9129,3.40731 5.7599,5.22863 1.8009,1.36147 3.4831,2.86494 5.2827,4.22522 1.702,1.71968 3.8048,2.92255 5.7467,4.33571 2,1.27222 3.9565,2.65558 5.7112,4.25343 4.4363,6.97388 -8.2042,6.87909 -16.3358,10.82363 -0.3956,0.19249 -2.4614,-1.47234 -2.7106,-1.64386 -2.4706,-1.98203 -5.0559,-3.80717 -7.5028,-5.82203 -2.613,-1.70108 -5.2748,-3.26994 -7.7362,-5.202 -2.6314,-1.7935 -5.106,-3.79016 -7.6834,-5.65696 -2.3018,-1.72693 -4.6868,-3.33507 -6.9464,-5.12171 -1.7957,-1.63451 -4.1872,-2.27405 -6.1739,-3.56301 -3.7996,-6.18181 -1.0679,-1.21949 16.2343,-10.71052 0.1714,-0.0923 2.9465,2.3778 3.3223,2.69684 1.3988,1.94723 3.5108,3.09064 5.1034,4.8264 1.5082,1.36767 2.6986,2.69052 3.2115,4.6707 -19.14,12.40053 -11.8178,10.61414 -22.2698,7.00592 -1.7297,-1.2419 -4.5958,-0.89254 -5.8918,-2.64543 15.1058,-10.34428 12.0934,-13.24112 20.1776,-8.0411 1.8971,0.969 3.4528,2.46468 5.2932,3.55629 1.7956,1.60102 4.0039,2.51965 6.0381,3.72596 2.1278,1.19971 4.315,2.28644 6.4468,3.47771 2.2702,1.16411 4.4574,2.50937 6.6393,3.83789 2.228,1.11665 4.2583,1.37874 5.0572,3.97368 -13.3998,8.87285 -12.9107,12.96742 -21.1386,7.72481 -1.6427,-0.90703 -3.2471,-1.86798 -4.907,-2.7592 -1.5899,-1.13115 -2.961,-2.52203 -4.6208,-3.5605 -2.2834,-1.66206 -4.6011,-3.27745 -6.8568,-4.97814 -2.5511,-1.65376 -4.9755,-3.48365 -7.6294,-4.97274 -2.2768,-1.14697 -4.8213,-2.07537 -6.8054,-3.71014 -4.0289,-7.35541 4.4152,-4.99989 16.6773,-10.47176 0.29,-0.13183 2.1674,1.30123 2.464,1.46339 1.7798,1.28408 3.5016,2.63593 5.1786,4.05779 2.1845,2.12942 4.5549,4.02483 6.9148,5.9503 2.3427,1.87577 4.4719,4.07414 7.069,5.60001 1.797,1.14566 3.3896,2.5774 5.2273,3.66162 0.3296,0.21753 0.646,0.46802 1.002,0.65391 0.4878,0.25445 1.0547,0.33091 1.5306,0.59854 0.145,0.0791 0.5142,0.22544 0.3824,0.31377 -16.5587,10.43722 -11.7506,14.11928 -17.4169,9.2855 -2.0475,-1.44849 -4.0395,-2.98702 -5.9485,-4.62021 -2.257,-1.83134 -4.8068,-3.20573 -7.3077,-4.65909 -2.3098,-1.52693 -4.9874,-2.16423 -7.4883,-3.23079 -2.2214,-0.82002 -4.2662,-2.01248 -6.2306,-3.32214 -2.3388,-1.61803 -3.9828,-3.95404 -5.4224,-6.36203 -4.8424,-7.16952 2.0118,-4.7469 15.8599,-11.50483 0,-0.0264 1.1338,0.86089 1.615,1.25772 1.967,1.53669 3.814,3.22142 5.7612,4.78302 1.7574,1.26563 3.4713,2.48275 5.3526,3.57224 2.3032,1.21026 4.7039,2.19099 7.1416,3.10185 2.3414,0.64336 4.692,1.31177 6.9346,2.25664 2.2385,0.93736 4.6459,1.18916 7.0427,1.34368 2.5352,0.11865 5.0743,0.10547 7.6122,0.0923 0.2109,0.55108 3.988,-1.64479 3.5925,-1.42027 -28.7825,16.3162 -17.4314,11.62441 -13.3537,6.9305 1.4318,-2.39309 0.2505,-5.01742 -0.7383,-7.34961 -1.3513,-2.68168 -3.2154,-5.04314 -5.0058,-7.43755 -6.8146,-6.95687 9.8376,-17.60859 16.6879,-11.41847 2.0065,1.70095 3.934,3.49168 5.93,5.2165 2.1832,2.18611 4.696,3.92925 7.2655,5.61622 2.2306,1.06656 4.0632,2.88432 6.4244,3.67376 6.4599,2.30384 1.5385,0.41396 -16.0103,9.95285 -0.01,0.004 -2.3559,-2.39758 -3.4027,-3.4288 -2.4917,-2.31966 -4.7395,-4.88533 -6.7658,-7.61909 -1.4199,-1.92547 -2.8266,-3.7518 -3.2656,-6.1238 16.7024,-9.84487 14.2792,-13.17625 20.1776,-4.9374 1.1601,1.79601 2.1423,3.71225 3.5161,5.36152 1.3236,1.6825 2.3862,3.5526 3.8087,5.1548 0.4746,0.52999 0.8306,1.15885 1.3052,1.68896 0.5932,0.66577 0.9228,0.70005 0.9097,0.70532 -16.5125,9.74086 -11.7269,13.4982 -17.0228,9.11029 -1.7349,-1.99837 -3.5411,-3.93189 -5.3683,-5.8451 -2.3059,-2.08116 -4.7211,-4.02667 -7.3974,-5.60831 -2.5866,-1.63477 -5.1429,-3.34153 -7.4342,-5.37299 -1.557,-1.42476 -3.6703,-2.58044 -4.6591,-4.50775 -1.5293,-7.49543 -0.791,-1.94498 16.9054,-10.38264 0,-0.0132 3.4963,2.0457 3.8245,2.24003 2.0435,1.16675 3.8655,2.62763 5.7547,4.01349 1.4647,1.32021 2.8041,2.77397 4.4679,3.85173 1.6743,1.18785 3.1338,2.62592 4.7237,3.91264 1.8207,1.45864 3.8285,2.67153 5.752,3.99069 6.9109,2.42065 0.857,1.36793 -15.7333,9.84554 0,0.009 -2.2254,-1.93773 -2.3217,-2.02329 -2.0263,-1.65402 -3.8338,-3.52399 -5.632,-5.4223 -2.3203,-2.37345 -4.5114,-4.88665 -7.0308,-7.05298 -1.6915,-1.88394 -4.0026,-2.97265 -5.9234,-4.57103 -1.6915,-1.28409 -3.1338,-2.89223 -4.6433,-4.38989 -4.8714,-7.23676 11.6728,-9.50079 16.1697,-11.6604 0,-0.0264 1.2129,0.81739 1.6783,1.14302 2.1727,1.70214 4.2346,3.6114 5.8232,5.877 1.147,1.68171 2.4825,3.19638 3.7481,4.77881 1.5478,1.53866 2.7844,3.33625 4.4086,4.80385 1.7323,1.70109 3.5214,3.34469 5.2089,5.09178 1.4686,1.37466 2.9979,2.70225 4.3545,4.19042 1.1997,1.54723 2.1437,3.23777 3.0929,4.94321 1.0811,2.12995 1.8497,4.34625 2.323,6.68397 0.3955,1.76529 0.1713,3.54561 0,5.31327 l -17.0043,8.38057 c 0.2241,-1.57676 0.6196,-3.17805 0.3164,-4.76826 -0.3691,-2.16159 -1.0547,-4.17394 -2.0777,-6.12169 -0.8701,-1.56832 -1.7271,-3.13599 -2.8556,-4.54149 -1.3896,-1.43478 -2.8569,-2.79428 -4.2979,-4.17737 -1.6888,-1.70161 -3.4145,-3.36552 -5.131,-5.04024 -1.6361,-1.57465 -3.0639,-3.33097 -4.6143,-4.98684 -1.3184,-1.59931 -2.6011,-3.20586 -3.7613,-4.92039 -1.4436,-2.04676 -3.3249,-3.81917 -5.4448,-5.15309 -6.0236,-2.63739 -16.8435,10.43985 15.0253,-9.41641 0.3296,-0.20303 -0.7514,-1.08765 -0.8964,-0.73038 0,0.13448 0.1318,0.25577 0.2109,0.38365 1.4238,1.47907 2.874,2.96961 4.518,4.20544 1.9947,1.52522 4.1529,2.85268 5.8628,4.7237 2.4877,2.27734 4.7777,4.75652 7.1468,7.15555 1.7877,1.83068 3.6031,3.623 5.5912,5.23799 0.1978,0.16743 2.6526,2.25638 2.5801,2.31267 -14.738,11.41426 -10.5601,14.20339 -16.6615,10.11581 -1.9472,-1.38639 -4.0289,-2.59032 -5.8667,-4.12503 -1.4937,-1.31177 -2.9888,-2.61722 -4.6077,-3.77566 -1.6097,-1.18917 -3.0178,-2.59059 -4.5154,-3.9137 -1.7917,-1.40287 -3.6427,-2.71253 -5.6255,-3.83828 -0.8701,-0.51416 -1.7877,-1.12852 -2.7804,-1.38257 -0.1978,-0.0527 -0.8042,0.0791 -0.6196,-0.0395 16.1394,-9.68021 20.2988,-4.68507 15.3774,-10.00493 0.7514,1.28013 2.6907,2.59573 3.9669,3.74284 2.2597,1.92151 4.7303,3.5779 7.2563,5.12777 2.7211,1.76938 5.2787,3.77105 7.6241,6.01899 1.8391,1.88987 3.6519,3.80546 5.4857,5.69915 5.0717,5.32962 1.379,0.969 -15.413,11.03813 0,0.0264 -1.5148,-1.7459 -1.7125,-1.99916 -0.1978,-0.25181 -0.3956,-0.50494 -0.5933,-0.75806 -1.3685,-1.66984 -2.5089,-3.50302 -3.8364,-5.20543 -1.3316,-1.72626 -2.3968,-3.62457 -3.5834,-5.45051 -5.3288,-7.60234 -7.1969,-1.19443 13.9444,-11.97918 -2.2294,-2.21775 1.5464,3.77619 1.7811,3.74772 1.9604,2.65637 4.1594,5.13067 6.6116,7.34539 1.0151,0.95581 2.0408,1.89304 3.0375,2.8619 0.2373,0.22808 0.9492,0.5023 0.6987,0.69742 -15.0557,11.17221 -10.3201,13.60867 -16.2739,10.35245 -2.224,-1.23399 -4.3031,-2.70001 -6.4876,-3.99913 -2.6249,-1.73786 -5.0981,-3.65977 -7.4053,-5.80515 -2.0131,-1.69607 -3.9063,-3.5199 -5.9643,-5.15704 -5.8574,-4.31645 -0.8305,-0.21489 15.094,-10.28363 0.1318,-0.0527 -0.5933,-0.47066 -0.4483,0.13579 0,0.27554 0.2242,0.52471 0.356,0.76993 0.2109,0.36518 0.4614,0.70532 0.6856,1.05864 1.8668,2.51715 3.7217,5.06252 5.1824,7.84308 1.2657,2.86573 2.472,5.84364 1.6414,9.006 -4.1555,7.96714 -14.2225,12.31022 -22.9501,13.23229 -2.5708,-0.006 -5.1482,-0.004 -7.7124,-0.22676 -2.5247,-0.2795 -5.0098,-0.76202 -7.3591,-1.76793 -2.294,-0.78838 -4.5958,-1.54486 -6.9069,-2.28288 -2.4917,-0.998 -4.9808,-2.00154 -7.3248,-3.3232 -1.971,-1.11797 -3.7165,-2.51187 -5.5451,-3.84276 -1.8641,-1.61223 -3.7243,-3.22828 -5.7164,-4.68481 -0.2768,-0.18061 -0.5273,-0.37837 -0.8174,-0.54316 -0.1977,-0.11865 -0.8437,-0.17666 -0.646,-0.30586 5.2313,-3.41588 10.7552,-6.36453 16.0168,-9.73427 0.1319,-0.0791 -0.2768,-0.41397 -0.3691,-0.28609 -0.3164,0.44957 1.5135,1.1338 0.7778,1.45706 1.3052,2.17306 2.8068,4.24711 5.0045,5.5892 1.9235,1.1773 3.8879,2.27418 6.0236,3.02881 2.6236,0.97295 5.1904,2.0287 7.5938,3.48298 2.6011,1.48145 5.1667,3.03039 7.487,4.93372 1.938,1.57412 3.9432,3.06928 5.9906,4.49786 5.963,4.00782 1.0811,0.39419 -14.8421,11.13437 -0.1318,0.0527 -1.1997,-0.61831 -1.6981,-0.91099 -0.3427,-0.20303 -0.6855,-0.42188 -1.0151,-0.63282 -1.7772,-1.17598 -3.4383,-2.51174 -5.2089,-3.69959 -2.5154,-1.75263 -4.7263,-3.90051 -7.1218,-5.80963 -2.3822,-1.91545 -4.6999,-3.89405 -6.9886,-5.91998 -1.6374,-1.30122 -3.255,-2.63963 -5.0269,-3.75654 -0.4351,-0.24786 -1.2393,-0.72247 -1.7139,-0.95845 -0.2241,-0.11866 -0.9228,-0.18194 -0.6987,-0.31509 4.7553,-2.90607 20.7049,-4.77512 15.355,-10.22365 1.9459,1.53431 4.3954,2.3132 6.5193,3.5526 2.6446,1.61354 5.1706,3.40282 7.7269,5.15005 2.2729,1.64927 4.5523,3.29512 6.8898,4.84921 1.5556,1.09687 2.9531,2.39309 4.5589,3.41891 1.6558,0.95449 3.3381,1.85401 4.9728,2.84278 6.8872,4.32555 15.0096,-5.66896 -12.1355,10.84605 1.2261,0.98218 -0.1318,-0.10547 -0.2505,-0.20435 -1.1206,-0.62886 -2.3651,-1.02437 -3.4449,-1.73549 -2.1911,-1.26827 -4.3216,-2.64899 -6.5892,-3.77856 -2.1805,-1.13907 -4.3558,-2.28433 -6.5021,-3.48721 -2.1081,-1.13643 -4.1608,-2.33719 -6.0658,-3.80005 -1.8035,-1.16939 -3.4726,-2.53837 -5.371,-3.55444 -7.3235,-4.8376 -11.2404,2.55209 12.3412,-11.99987 0,-0.0659 -0.2505,-0.21094 -0.1582,-0.21358 0.5537,-0.0132 3.4277,1.29727 4.0394,1.53985 0.4087,0.16348 0.8174,0.32432 1.2393,0.48648 1.147,0.44692 2.261,0.97559 3.4238,1.3674 0.3032,0.10547 0.5932,0.22281 0.9097,0.26763 0.1845,0.0264 0.7382,-0.14897 0.5668,-0.0527 -5.3248,3.1551 -10.7328,6.16836 -16.0998,9.25267 2.083,2.46652 -1.1865,-1.87762 -1.6981,-2.03411 -1.5991,-1.61578 -3.5503,-2.8652 -4.986,-4.66147 -0.2373,-0.19775 -1.3052,-1.13379 -1.6203,-1.34209 -1.0151,-0.67368 -1.4238,-0.49702 -1.3408,-0.55371 15.5633,-10.61823 20.1196,-5.70944 15.5686,-10.46741 2.0435,1.26563 4.2939,2.20615 6.1409,3.79148 2.2755,1.7231 4.584,3.40111 6.8806,5.0935 2.5866,1.878 5.0783,3.87862 7.7032,5.70363 2.5101,1.87682 5.2616,3.3613 7.7572,5.2517 2.4232,1.93879 4.9267,3.78489 7.4527,5.5842 0.8702,0.49306 1.002,0.62226 1.8919,0.95581 0.2241,0.0791 0.8965,0.0923 0.6987,0.21489 -7.0981,4.33597 -20.6666,4.67835 -15.6305,10.12503 0,0.0527 0,-0.11865 0,-0.18457 -1.6717,-1.55949 -3.582,-2.84977 -5.4857,-4.10499 -2.0105,-1.37597 -4.0698,-2.68788 -5.8272,-4.39436 -1.8075,-1.45732 -3.6584,-2.85861 -5.3974,-4.39503 -1.8338,-1.75501 -3.781,-3.38727 -5.661,-5.091 -1.6796,-1.32324 -3.549,-2.51108 -4.787,-4.29272 -5.309,-8.27326 12.6787,-14.75578 18.7669,-9.98107 1.8536,1.02305 3.6361,2.17438 5.5754,3.04331 2.7501,1.76912 5.2576,3.90183 8.1053,5.52856 3.3974,1.99179 6.7118,4.13821 10.2555,5.86804 0.2637,0.13711 2.1701,1.15752 2.5787,1.27486 0.1978,0.0527 0.8042,-0.13843 0.6197,-0.0264 -15.2429,9.29538 -19.9231,4.62126 -15.1586,10.33676 0.1319,0.0923 -0.145,-0.19248 -0.2241,-0.28872 -1.9841,-1.54974 -3.9696,-3.03079 -5.5846,-4.9995 -2.82,-3.00455 -5.6953,-5.94846 -8.3703,-9.08867 -0.5009,-0.47856 -1.0019,-0.97031 -1.5174,-1.43662 -0.3691,-0.32959 -1.5385,-0.66577 -1.1338,-0.94922 18.5177,-12.99827 13.4737,-13.8879 16.9212,-8.59995 3.698,4.32687 7.4092,8.64491 11.1428,12.94159 1.8207,2.10002 3.8272,4.25396 5.1799,6.71323 3.7388,6.79841 -9.6623,14.55632 -16.4176,12.10271 -4.41,-1.60919 -8.1963,-4.5647 -12.0696,-7.14012 -4.9558,-3.69247 -9.864,-7.49595 -13.8666,-12.25024 -2.5365,-3.02313 -5.1983,-5.9706 -7.2681,-9.34746 -0.1582,-0.27949 -2.2571,-3.93848 -1.8471,-4.20597 13.446,-8.7596 12.067,-12.5172 19.0965,-8.15461 3.1773,2.3219 6.3466,4.68995 9.2312,7.37124 3.9868,3.80242 7.7269,7.8668 11.9141,11.45763 -16.9581,10.83484 -12.6168,15.06758 -18.5059,5.77338 -2.1727,-3.82444 -4.3361,-7.66246 -6.3176,-11.58974 -0.1714,-0.37441 -2.4996,-5.57245 -2.3678,-5.66632 14.237,-10.13123 12.7236,-14.06918 19.0557,-7.65903 4.4626,4.76575 9.0413,9.41693 13.6424,14.04887 2.406,2.43199 4.7725,4.9295 7.5292,6.9777 0.5668,0.42584 1.1865,0.79234 1.8008,1.15885 0.4087,0.24389 1.6401,0.38232 1.2657,0.66709 -4.9782,3.7311 -10.4494,6.75674 -15.6741,10.13505 -0.2504,-2.64187 -3.3381,-5.24972 -4.547,-7.5359 -0.1977,-0.29136 -2.6249,-3.96023 -2.5405,-4.02285 14.0551,-10.48429 13.2113,-15.83592 17.028,-8.99731 2.2241,3.55642 4.5286,7.05694 6.903,10.51488 0.6328,0.90835 1.2524,1.82804 1.8958,2.72624 0.2109,0.29531 0.9492,0.65654 0.6591,0.87144 -15.5395,11.35783 -11.8019,14.79006 -17.2705,9.0826 -2.3401,-2.54866 -4.3322,-5.39237 -6.6604,-7.95356 -2.0698,-2.63633 -3.8483,-5.46211 -5.8364,-8.1517 -4.7593,-5.70179 -1.4265,-1.13775 15.3299,-11.17221 0.1714,-0.10547 0.2373,0.33882 0.356,0.50889 0.8174,1.17994 1.6981,2.30911 2.497,3.50184 0.8174,1.23003 1.7139,2.41366 2.3599,3.74468 0.1845,0.3876 0.8437,0.9334 0.5009,1.19312 -15.5052,11.67265 -11.9312,15.39914 -16.6008,10.09286 -1.793,-2.38373 -3.3842,-4.9109 -4.8292,-7.51995 -1.8378,-2.9174 -3.4791,-5.93039 -5.164,-8.93547 -1.5108,-2.71385 -3.0507,-5.40911 -4.29,-8.2639 -2.928,-6.67289 -0.6328,-0.70268 16.0841,-10.68375 0,-0.0264 -0.1319,0.0527 -0.1319,0.0923 0.013,0.20831 0,0.41661 0.1319,0.61173 0.1582,0.40341 0.3559,0.78838 0.5537,1.17202 0.2768,0.53262 0.5801,1.0481 0.8701,1.57175 1.8523,3.45214 3.9815,6.7255 6.1924,9.95721 4.3532,6.55332 1.3051,1.03096 -15.0637,11.63693 0,0.0264 0.1319,-0.0527 0.1319,-0.0923 -0.1319,-0.27026 -0.1846,-0.52602 -0.2901,-0.7831 -0.1713,-0.41529 -0.3823,-0.81344 -0.5537,-1.23267 -0.1714,-0.42188 -0.29,-0.85826 -0.4482,-1.28805 -1.1865,-2.91569 -2.3388,-5.83573 -3.3315,-8.82354 -4.6117,-11.83811 -3.7389,-6.47804 14.1856,-16.98922 2.2478,3.04225 2.9505,7.075 5.1587,10.1688 1.6941,3.42498 3.3408,6.85364 4.8041,10.38409 0.2637,0.63941 1.3303,1.49344 0.7911,1.92033 -5.0823,3.98554 -10.9319,6.88146 -16.3965,10.32226 -1.8022,-2.13101 -2.8991,-4.68863 -4.0738,-7.19313 -1.1206,-2.64477 -2.2952,-5.26844 -3.1298,-8.02382 15.8665,-10.14626 14.4203,-15.69815 19.0728,-5.37892 1.1733,3.04107 2.4271,6.041 3.8061,8.994 0.1319,0.27818 1.8273,3.86861 1.706,3.94956 -5.3196,3.57144 -11.1718,6.29004 -16.5811,9.72596 -0.1845,0.11865 0.1582,0.52339 0.3692,0.56953 0.1845,0.0396 -0.1451,-0.35991 -0.2242,-0.53921 -0.7646,-2.28578 -1.93,-4.30604 -3.0915,-6.40764 -1.3751,-2.50726 -2.7158,-5.03852 -3.9643,-7.60999 -0.3955,-0.87144 -1.0943,-2.29514 -0.9097,-2.42513 11.3115,-8.28433 13.8336,-16.11673 17.8585,-8.38347 1.0284,1.85217 1.8616,3.80862 2.9018,5.65525 1.4291,2.46494 2.7092,5.01875 4.2306,7.43148 3.8114,6.33289 1.5082,1.82673 -15.2825,11.82164 -0.1318,0.0395 -2.3216,-3.79083 -2.4521,-3.91699 -1.4516,-2.49857 -2.8358,-5.03127 -3.8022,-7.76371 -0.1582,-0.48384 -1.5609,-4.30934 -1.4054,-4.4094 16.2765,-10.42338 12.0525,-13.68396 17.5883,-8.93706 1.5016,1.82422 2.29,4.09787 3.6717,6.01108 1.1601,2.42434 1.8219,5.03417 2.9742,7.46128 0.4219,1.03492 0.4087,1.10874 0.9492,2.07814 0.1846,0.32168 0.8701,0.73037 0.5669,0.94658 -20.432,14.71557 -14.473,16.30315 -16.2963,9.7137 -1.2656,-2.401 -2.5655,-4.77682 -3.2353,-7.43425 -1.1997,-3.10343 -2.2122,-6.27132 -3.3301,-9.40744 z"
         inkscape:export-filename="/home/pierre/workspace/iramuteq/images/iraicone16x16.png"
         inkscape:export-xdpi="29.879032"
         inkscape:export-ydpi="29.879032" /><path
         style="fill:none;stroke:#000000;stroke-width:0.497251;stroke-linecap:butt;stroke-linejoin:miter;stroke-miterlimit:4;stroke-dasharray:1.49175, 0.497251;stroke-dashoffset:0;stroke-opacity:1"
         d="M 894.89539,148.05911 C 1192.3419,395.4636 1192.3419,395.4636 1192.3419,395.4636 l 0.9361,2.16066"
         id="path3775-2-4"
         inkscape:connector-curvature="0"
         inkscape:export-filename="/home/pierre/workspace/iramuteq/images/iraicone16x16.png"
         inkscape:export-xdpi="29.879032"
         inkscape:export-ydpi="29.879032" /><ellipse
         style="display:inline;fill:#ff00d7;fill-opacity:0.6875;stroke-width:0.0758516;filter:url(#filter3456)"
         id="path3202"
         inkscape:export-filename="/home/pierre/workspace/iramuteq/images/iraicone248x248.png"
         inkscape:export-xdpi="463.125"
         inkscape:export-ydpi="463.125"
         cx="1247.6608"
         cy="218.16225"
         rx="8.7449389"
         ry="10.736842"
         transform="matrix(13.183635,0,0,13.183635,-15413.583,-2637.2762)" /><text
         xml:space="preserve"
         style="font-style:normal;font-variant:normal;font-weight:300;font-stretch:normal;font-size:158.204px;line-height:0%;font-family:Purisa;-inkscape-font-specification:'Purisa Light';text-align:start;writing-mode:lr-tb;text-anchor:start;fill:#0000ff;fill-opacity:1;stroke:none;stroke-width:1px;stroke-linecap:butt;stroke-linejoin:miter;stroke-opacity:1"
         x="991.56647"
         y="659.70398"
         id="text2383"
         inkscape:export-filename="/home/pierre/workspace/iramuteq/images/iraicone16x16.png"
         inkscape:export-xdpi="29.879032"
         inkscape:export-ydpi="29.879032"><tspan
           sodipodi:role="line"
           id="tspan2385"
           x="991.56647"
           y="659.70398"
           style="font-size:738.284px;line-height:1.25;stroke-width:1px">R</tspan></text><text
         xml:space="preserve"
         style="font-style:normal;font-variant:normal;font-weight:300;font-stretch:normal;font-size:158.204px;line-height:0%;font-family:Purisa;-inkscape-font-specification:'Purisa Light';text-align:start;writing-mode:lr-tb;text-anchor:start;fill:#ff0000;fill-opacity:1;stroke:none;stroke-width:1px;stroke-linecap:butt;stroke-linejoin:miter;stroke-opacity:1"
         x="1164.502"
         y="617.43109"
         id="text2387"
         inkscape:export-filename="/home/pierre/workspace/iramuteq/images/iraicone16x16.png"
         inkscape:export-xdpi="29.879032"
         inkscape:export-ydpi="29.879032"><tspan
           sodipodi:role="line"
           id="tspan2389"
           x="1164.502"
           y="617.43109"
           style="font-style:normal;font-variant:normal;font-weight:300;font-stretch:normal;font-size:632.814px;line-height:1.25;font-family:Purisa;-inkscape-font-specification:'Purisa Light';stroke-width:1px">a</tspan></text><text
         xml:space="preserve"
         style="font-style:normal;font-variant:normal;font-weight:300;font-stretch:normal;font-size:158.204px;line-height:0%;font-family:Purisa;-inkscape-font-specification:'Purisa Light';text-align:start;writing-mode:lr-tb;text-anchor:start;fill:#ff0000;fill-opacity:1;stroke:none;stroke-width:1px;stroke-linecap:butt;stroke-linejoin:miter;stroke-opacity:1"
         x="866.02899"
         y="655.86108"
         id="text2379"
         inkscape:export-filename="/home/pierre/workspace/iramuteq/images/iraicone16x16.png"
         inkscape:export-xdpi="29.879032"
         inkscape:export-ydpi="29.879032"><tspan
           sodipodi:role="line"
           id="tspan2381"
           x="866.02899"
           y="655.86108"
           style="font-style:normal;font-variant:normal;font-weight:300;font-stretch:normal;font-size:527.345px;line-height:1;font-family:Purisa;-inkscape-font-specification:'Purisa Light';stroke-width:1px">I</tspan></text></g></g><g
     inkscape:groupmode="layer"
     id="layer3"
     inkscape:label="Text"
     style="display:inline"
     sodipodi:insensitive="true"><text
       xml:space="preserve"
       style="font-style:normal;font-variant:normal;font-weight:300;font-stretch:normal;font-size:60px;font-family:Poppins;-inkscape-font-specification:'Poppins Light';text-align:start;letter-spacing:0px;word-spacing:0px;writing-mode:lr-tb;direction:ltr;text-anchor:start;display:none;fill:#ffffff;fill-opacity:1;stroke-width:6.11719"
       x="125.00198"
       y="1017.081"
       id="text14"
       transform="rotate(-30)"><tspan
         sodipodi:role="line"
         id="tspan14"
         x="0"
         y="0"
         style="font-style:normal;font-variant:normal;font-weight:bold;font-stretch:normal;font-size:60px;font-family:Purisa;-inkscape-font-specification:'Purisa Bold';text-align:center;text-anchor:middle;fill:#ffffff;stroke-width:6.11719">IRaMuTeQlIkE</tspan></text><text
       xml:space="preserve"
       style="font-style:normal;font-variant:normal;font-weight:300;font-stretch:normal;font-size:85px;font-family:Poppins;-inkscape-font-specification:'Poppins Light';text-align:start;letter-spacing:0px;word-spacing:0px;writing-mode:lr-tb;direction:ltr;text-anchor:start;display:none;fill:#000000;fill-opacity:1;stroke-width:6.11719"
       x="433.0145"
       y="661"
       id="text14-8"><tspan
         sodipodi:role="line"
         id="tspan14-3"
         x="0"
         y="0"
         style="font-style:normal;font-variant:normal;font-weight:bold;font-stretch:normal;font-size:85px;font-family:Purisa;-inkscape-font-specification:'Purisa Bold';text-align:center;text-anchor:middle;fill:#000000;stroke-width:6.11719">IRaMuTeQ<tspan
   style="font-size:85px;fill:#ff0000"
   id="tspan9">LiKe</tspan></tspan></text><text
       xml:space="preserve"
       style="font-style:normal;font-variant:normal;font-weight:300;font-stretch:normal;font-size:85px;font-family:Poppins;-inkscape-font-specification:'Poppins Light';text-align:start;letter-spacing:0px;word-spacing:0px;writing-mode:lr-tb;direction:ltr;text-anchor:start;display:inline;fill:#000000;fill-opacity:1;stroke-width:6.11719"
       x="433.0145"
       y="655"
       id="text11"><tspan
         sodipodi:role="line"
         id="tspan11"
         x="433.0145"
         y="655"
         style="font-style:normal;font-variant:normal;font-weight:500;font-stretch:normal;font-size:85px;font-family:'Open Sans';-inkscape-font-specification:'Open Sans Medium';text-align:center;text-anchor:middle;fill:#000000;stroke-width:6.11719">IRaMuTeQ<tspan
   style="font-style:normal;font-variant:normal;font-weight:500;font-stretch:normal;font-size:85px;font-family:'Open Sans';-inkscape-font-specification:'Open Sans Medium';fill:#ff0000"
   id="tspan10">LiKe</tspan></tspan></text></g><g
     inkscape:groupmode="layer"
     id="layer1"
     inkscape:label="Guides | 10px"
     style="display:none"
     sodipodi:insensitive="true"><path
       sodipodi:type="star"
       style="display:inline;fill:none;fill-opacity:1;stroke:#ff00ff;stroke-width:0.422192;stroke-dasharray:none;stroke-opacity:1"
       id="path2-5-5"
       inkscape:flatsided="true"
       sodipodi:sides="6"
       sodipodi:cx="405.25177"
       sodipodi:cy="288.9021"
       sodipodi:r1="210.85258"
       sodipodi:r2="182.6037"
       sodipodi:arg1="0.52359878"
       sodipodi:arg2="1.0471976"
       inkscape:rounded="0"
       inkscape:randomized="0"
       d="M 587.85546,394.32839 405.25177,499.75468 222.64807,394.32839 222.64808,183.47581 405.25177,78.049515 587.85547,183.47581 Z"
       transform="matrix(2.3685957,0,0,2.3685868,-526.86328,-184.2897)" /><path
       sodipodi:type="star"
       style="display:inline;fill:none;fill-opacity:1;stroke:#ff00ff;stroke-width:0.426462;stroke-dasharray:none;stroke-opacity:1"
       id="path2-5-5-2"
       inkscape:flatsided="true"
       sodipodi:sides="6"
       sodipodi:cx="405.25177"
       sodipodi:cy="288.9021"
       sodipodi:r1="210.85258"
       sodipodi:r2="182.6037"
       sodipodi:arg1="0.52359878"
       sodipodi:arg2="1.0471976"
       inkscape:rounded="0"
       inkscape:randomized="0"
       d="M 587.85546,394.32839 405.25177,499.75468 222.64807,394.32839 222.64808,183.47581 405.25177,78.049515 587.85547,183.47581 Z"
       transform="matrix(2.3448824,0,0,2.3448736,-517.25343,-177.43891)" /><path
       sodipodi:type="star"
       style="display:inline;fill:none;fill-opacity:1;stroke:#ff00ff;stroke-width:0.430819;stroke-dasharray:none;stroke-opacity:1"
       id="path2-5-5-2-7"
       inkscape:flatsided="true"
       sodipodi:sides="6"
       sodipodi:cx="405.25177"
       sodipodi:cy="288.9021"
       sodipodi:r1="210.85258"
       sodipodi:r2="182.6037"
       sodipodi:arg1="0.52359878"
       sodipodi:arg2="1.0471976"
       inkscape:rounded="0"
       inkscape:randomized="0"
       d="M 587.85546,394.32839 405.25177,499.75468 222.64807,394.32839 222.64808,183.47581 405.25177,78.049515 587.85547,183.47581 Z"
       transform="matrix(2.321169,0,0,2.3211603,-507.64353,-170.58808)" /><path
       sodipodi:type="star"
       style="display:inline;fill:none;fill-opacity:1;stroke:#ff00ff;stroke-width:0.435266;stroke-dasharray:none;stroke-opacity:1"
       id="path2-5-5-2-7-6"
       inkscape:flatsided="true"
       sodipodi:sides="6"
       sodipodi:cx="405.25177"
       sodipodi:cy="288.9021"
       sodipodi:r1="210.85258"
       sodipodi:r2="182.6037"
       sodipodi:arg1="0.52359878"
       sodipodi:arg2="1.0471976"
       inkscape:rounded="0"
       inkscape:randomized="0"
       d="M 587.85546,394.32839 405.25177,499.75468 222.64807,394.32839 222.64808,183.47581 405.25177,78.049515 587.85547,183.47581 Z"
       transform="matrix(2.2974557,0,0,2.2974471,-498.03367,-163.73729)" /><path
       sodipodi:type="star"
       style="display:inline;fill:none;fill-opacity:1;stroke:#ff00ff;stroke-width:0.439805;stroke-dasharray:none;stroke-opacity:1"
       id="path2-5-5-2-7-6-6"
       inkscape:flatsided="true"
       sodipodi:sides="6"
       sodipodi:cx="405.25177"
       sodipodi:cy="288.9021"
       sodipodi:r1="210.85258"
       sodipodi:r2="182.6037"
       sodipodi:arg1="0.52359878"
       sodipodi:arg2="1.0471976"
       inkscape:rounded="0"
       inkscape:randomized="0"
       d="M 587.85546,394.32839 405.25177,499.75468 222.64807,394.32839 222.64808,183.47581 405.25177,78.049515 587.85547,183.47581 Z"
       transform="matrix(2.2737423,0,0,2.2737338,-488.42378,-156.88647)" /><path
       sodipodi:type="star"
       style="display:inline;fill:none;fill-opacity:1;stroke:#ff00ff;stroke-width:0.44444;stroke-dasharray:none;stroke-opacity:1"
       id="path2-5-5-2-7-6-6-9"
       inkscape:flatsided="true"
       sodipodi:sides="6"
       sodipodi:cx="405.25177"
       sodipodi:cy="288.9021"
       sodipodi:r1="210.85258"
       sodipodi:r2="182.6037"
       sodipodi:arg1="0.52359878"
       sodipodi:arg2="1.0471976"
       inkscape:rounded="0"
       inkscape:randomized="0"
       d="M 587.85546,394.32839 405.25177,499.75468 222.64807,394.32839 222.64808,183.47581 405.25177,78.049515 587.85547,183.47581 Z"
       transform="matrix(2.250029,0,0,2.2500206,-478.81392,-150.03568)" /><path
       sodipodi:type="star"
       style="display:inline;fill:none;fill-opacity:1;stroke:#ff00ff;stroke-width:0.449174;stroke-dasharray:none;stroke-opacity:1"
       id="path2-5-5-2-7-6-6-9-3"
       inkscape:flatsided="true"
       sodipodi:sides="6"
       sodipodi:cx="405.25177"
       sodipodi:cy="288.9021"
       sodipodi:r1="210.85258"
       sodipodi:r2="182.6037"
       sodipodi:arg1="0.52359878"
       sodipodi:arg2="1.0471976"
       inkscape:rounded="0"
       inkscape:randomized="0"
       d="M 587.85546,394.32839 405.25177,499.75468 222.64807,394.32839 222.64808,183.47581 405.25177,78.049515 587.85547,183.47581 Z"
       transform="matrix(2.2263156,0,0,2.2263073,-469.20402,-143.18485)" /><path
       sodipodi:type="star"
       style="display:inline;fill:none;fill-opacity:1;stroke:#ff00ff;stroke-width:0.45401;stroke-dasharray:none;stroke-opacity:1"
       id="path2-5-5-2-7-6-6-9-3-2"
       inkscape:flatsided="true"
       sodipodi:sides="6"
       sodipodi:cx="405.25177"
       sodipodi:cy="288.9021"
       sodipodi:r1="210.85258"
       sodipodi:r2="182.6037"
       sodipodi:arg1="0.52359878"
       sodipodi:arg2="1.0471976"
       inkscape:rounded="0"
       inkscape:randomized="0"
       d="M 587.85546,394.32839 405.25177,499.75468 222.64807,394.32839 222.64808,183.47581 405.25177,78.049515 587.85547,183.47581 Z"
       transform="matrix(2.2026023,0,0,2.2025941,-459.59417,-136.33406)" /><path
       sodipodi:type="star"
       style="display:inline;fill:none;fill-opacity:1;stroke:#ff00ff;stroke-width:0.458951;stroke-dasharray:none;stroke-opacity:1"
       id="path2-5-5-2-7-6-6-9-3-2-7"
       inkscape:flatsided="true"
       sodipodi:sides="6"
       sodipodi:cx="405.25177"
       sodipodi:cy="288.9021"
       sodipodi:r1="210.85258"
       sodipodi:r2="182.6037"
       sodipodi:arg1="0.52359878"
       sodipodi:arg2="1.0471976"
       inkscape:rounded="0"
       inkscape:randomized="0"
       d="M 587.85546,394.32839 405.25177,499.75468 222.64807,394.32839 222.64808,183.47581 405.25177,78.049515 587.85547,183.47581 Z"
       transform="matrix(2.1788889,0,0,2.1788808,-449.98427,-129.48324)" /><path
       sodipodi:type="star"
       style="display:inline;fill:none;fill-opacity:1;stroke:#ff00ff;stroke-width:0.464001;stroke-dasharray:none;stroke-opacity:1"
       id="path2-5-5-2-7-6-6-9-3-2-7-2"
       inkscape:flatsided="true"
       sodipodi:sides="6"
       sodipodi:cx="405.25177"
       sodipodi:cy="288.9021"
       sodipodi:r1="210.85258"
       sodipodi:r2="182.6037"
       sodipodi:arg1="0.52359878"
       sodipodi:arg2="1.0471976"
       inkscape:rounded="0"
       inkscape:randomized="0"
       d="M 587.85546,394.32839 405.25177,499.75468 222.64807,394.32839 222.64808,183.47581 405.25177,78.049515 587.85547,183.47581 Z"
       transform="matrix(2.1551756,0,0,2.1551676,-440.37441,-122.63245)" /><path
       sodipodi:type="star"
       style="display:inline;fill:none;fill-opacity:1;stroke:#ff00ff;stroke-width:0.469163;stroke-dasharray:none;stroke-opacity:1"
       id="path2-5-5-2-7-6-6-9-3-2-7-2-9"
       inkscape:flatsided="true"
       sodipodi:sides="6"
       sodipodi:cx="405.25177"
       sodipodi:cy="288.9021"
       sodipodi:r1="210.85258"
       sodipodi:r2="182.6037"
       sodipodi:arg1="0.52359878"
       sodipodi:arg2="1.0471976"
       inkscape:rounded="0"
       inkscape:randomized="0"
       d="M 587.85546,394.32839 405.25177,499.75468 222.64807,394.32839 222.64808,183.47581 405.25177,78.049515 587.85547,183.47581 Z"
       transform="matrix(2.1314622,0,0,2.1314543,-430.76451,-115.78162)" /><path
       sodipodi:type="star"
       style="display:inline;fill:none;fill-opacity:1;stroke:#ff00ff;stroke-width:0.474441;stroke-dasharray:none;stroke-opacity:1"
       id="path2-5-5-2-7-6-6-9-3-2-7-2-9-4"
       inkscape:flatsided="true"
       sodipodi:sides="6"
       sodipodi:cx="405.25177"
       sodipodi:cy="288.9021"
       sodipodi:r1="210.85258"
       sodipodi:r2="182.6037"
       sodipodi:arg1="0.52359878"
       sodipodi:arg2="1.0471976"
       inkscape:rounded="0"
       inkscape:randomized="0"
       d="M 587.85546,394.32839 405.25177,499.75468 222.64807,394.32839 222.64808,183.47581 405.25177,78.049515 587.85547,183.47581 Z"
       transform="matrix(2.1077489,0,0,2.1077411,-421.15466,-108.93083)" /><path
       sodipodi:type="star"
       style="display:inline;fill:none;fill-opacity:1;stroke:#ff00ff;stroke-width:0.479839;stroke-dasharray:none;stroke-opacity:1"
       id="path2-5-5-2-7-6-6-9-3-2-7-2-9-4-6"
       inkscape:flatsided="true"
       sodipodi:sides="6"
       sodipodi:cx="405.25177"
       sodipodi:cy="288.9021"
       sodipodi:r1="210.85258"
       sodipodi:r2="182.6037"
       sodipodi:arg1="0.52359878"
       sodipodi:arg2="1.0471976"
       inkscape:rounded="0"
       inkscape:randomized="0"
       d="M 587.85546,394.32839 405.25177,499.75468 222.64807,394.32839 222.64808,183.47581 405.25177,78.049515 587.85547,183.47581 Z"
       transform="matrix(2.0840355,0,0,2.0840278,-411.54476,-102.08001)" /><path
       sodipodi:type="star"
       style="display:inline;fill:none;fill-opacity:1;stroke:#ff00ff;stroke-width:0.485362;stroke-dasharray:none;stroke-opacity:1"
       id="path2-5-5-2-7-6-6-9-3-2-7-2-9-4-6-3"
       inkscape:flatsided="true"
       sodipodi:sides="6"
       sodipodi:cx="405.25177"
       sodipodi:cy="288.9021"
       sodipodi:r1="210.85258"
       sodipodi:r2="182.6037"
       sodipodi:arg1="0.52359878"
       sodipodi:arg2="1.0471976"
       inkscape:rounded="0"
       inkscape:randomized="0"
       d="M 587.85546,394.32839 405.25177,499.75468 222.64807,394.32839 222.64808,183.47581 405.25177,78.049515 587.85547,183.47581 Z"
       transform="matrix(2.0603222,0,0,2.0603146,-401.9349,-95.229214)" /><path
       sodipodi:type="star"
       style="display:inline;fill:none;fill-opacity:1;stroke:#ff00ff;stroke-width:0.491013;stroke-dasharray:none;stroke-opacity:1"
       id="path2-5-5-2-7-6-6-9-3-2-7-2-9-4-6-3-1"
       inkscape:flatsided="true"
       sodipodi:sides="6"
       sodipodi:cx="405.25177"
       sodipodi:cy="288.9021"
       sodipodi:r1="210.85258"
       sodipodi:r2="182.6037"
       sodipodi:arg1="0.52359878"
       sodipodi:arg2="1.0471976"
       inkscape:rounded="0"
       inkscape:randomized="0"
       d="M 587.85546,394.32839 405.25177,499.75468 222.64807,394.32839 222.64808,183.47581 405.25177,78.049515 587.85547,183.47581 Z"
       transform="matrix(2.0366088,0,0,2.0366013,-392.32501,-88.378392)" /><path
       sodipodi:type="star"
       style="display:inline;fill:none;fill-opacity:1;stroke:#ff00ff;stroke-width:0.496797;stroke-dasharray:none;stroke-opacity:1"
       id="path2-5-5-2-7-6-6-9-3-2-7-2-9-4-6-3-1-7"
       inkscape:flatsided="true"
       sodipodi:sides="6"
       sodipodi:cx="405.25177"
       sodipodi:cy="288.9021"
       sodipodi:r1="210.85258"
       sodipodi:r2="182.6037"
       sodipodi:arg1="0.52359878"
       sodipodi:arg2="1.0471976"
       inkscape:rounded="0"
       inkscape:randomized="0"
       d="M 587.85546,394.32839 405.25177,499.75468 222.64807,394.32839 222.64808,183.47581 405.25177,78.049515 587.85547,183.47581 Z"
       transform="matrix(2.0128955,0,0,2.0128881,-382.71515,-81.527599)" /><path
       sodipodi:type="star"
       style="display:inline;fill:none;fill-opacity:1;stroke:#ff00ff;stroke-width:0.502719;stroke-dasharray:none;stroke-opacity:1"
       id="path2-5-5-2-7-6-6-9-3-2-7-2-9-4-6-3-1-7-9"
       inkscape:flatsided="true"
       sodipodi:sides="6"
       sodipodi:cx="405.25177"
       sodipodi:cy="288.9021"
       sodipodi:r1="210.85258"
       sodipodi:r2="182.6037"
       sodipodi:arg1="0.52359878"
       sodipodi:arg2="1.0471976"
       inkscape:rounded="0"
       inkscape:randomized="0"
       d="M 587.85546,394.32839 405.25177,499.75468 222.64807,394.32839 222.64808,183.47581 405.25177,78.049515 587.85547,183.47581 Z"
       transform="matrix(1.9891821,0,0,1.9891748,-373.10525,-74.676777)" /><path
       sodipodi:type="star"
       style="display:inline;fill:none;fill-opacity:1;stroke:#ff00ff;stroke-width:0.508784;stroke-dasharray:none;stroke-opacity:1"
       id="path2-5-5-2-7-6-6-9-3-2-7-2-9-4-6-3-1-7-9-5"
       inkscape:flatsided="true"
       sodipodi:sides="6"
       sodipodi:cx="405.25177"
       sodipodi:cy="288.9021"
       sodipodi:r1="210.85258"
       sodipodi:r2="182.6037"
       sodipodi:arg1="0.52359878"
       sodipodi:arg2="1.0471976"
       inkscape:rounded="0"
       inkscape:randomized="0"
       d="M 587.85546,394.32839 405.25177,499.75468 222.64807,394.32839 222.64808,183.47581 405.25177,78.049515 587.85547,183.47581 Z"
       transform="matrix(1.9654688,0,0,1.9654616,-363.49539,-67.825983)" /><path
       sodipodi:type="star"
       style="display:inline;fill:none;fill-opacity:1;stroke:#ff00ff;stroke-width:0.514997;stroke-dasharray:none;stroke-opacity:1"
       id="path2-5-5-2-7-6-6-9-3-2-7-2-9-4-6-3-1-7-9-5-7"
       inkscape:flatsided="true"
       sodipodi:sides="6"
       sodipodi:cx="405.25177"
       sodipodi:cy="288.9021"
       sodipodi:r1="210.85258"
       sodipodi:r2="182.6037"
       sodipodi:arg1="0.52359878"
       sodipodi:arg2="1.0471976"
       inkscape:rounded="0"
       inkscape:randomized="0"
       d="M 587.85546,394.32839 405.25177,499.75468 222.64807,394.32839 222.64808,183.47581 405.25177,78.049515 587.85547,183.47581 Z"
       transform="matrix(1.9417554,0,0,1.9417483,-353.8855,-60.975161)" /><path
       sodipodi:type="star"
       style="display:inline;fill:none;fill-opacity:1;stroke:#ff00ff;stroke-width:0.521364;stroke-dasharray:none;stroke-opacity:1"
       id="path2-5-5-2-7-6-6-9-3-2-7-2-9-4-6-3-1-7-9-5-7-0"
       inkscape:flatsided="true"
       sodipodi:sides="6"
       sodipodi:cx="405.25177"
       sodipodi:cy="288.9021"
       sodipodi:r1="210.85258"
       sodipodi:r2="182.6037"
       sodipodi:arg1="0.52359878"
       sodipodi:arg2="1.0471976"
       inkscape:rounded="0"
       inkscape:randomized="0"
       d="M 587.85546,394.32839 405.25177,499.75468 222.64807,394.32839 222.64808,183.47581 405.25177,78.049515 587.85547,183.47581 Z"
       transform="matrix(1.9180421,0,0,1.9180351,-344.27564,-54.124368)" /><path
       sodipodi:type="star"
       style="display:inline;fill:none;fill-opacity:1;stroke:#ff00ff;stroke-width:0.52789;stroke-dasharray:none;stroke-opacity:1"
       id="path2-5-5-2-7-6-6-9-3-2-7-2-9-4-6-3-1-7-9-5-7-0-8"
       inkscape:flatsided="true"
       sodipodi:sides="6"
       sodipodi:cx="405.25177"
       sodipodi:cy="288.9021"
       sodipodi:r1="210.85258"
       sodipodi:r2="182.6037"
       sodipodi:arg1="0.52359878"
       sodipodi:arg2="1.0471976"
       inkscape:rounded="0"
       inkscape:randomized="0"
       d="M 587.85546,394.32839 405.25177,499.75468 222.64807,394.32839 222.64808,183.47581 405.25177,78.049515 587.85547,183.47581 Z"
       transform="matrix(1.8943287,0,0,1.8943218,-334.66574,-47.273546)" /><path
       sodipodi:type="star"
       style="display:inline;fill:none;fill-opacity:1;stroke:#ff00ff;stroke-width:0.534582;stroke-dasharray:none;stroke-opacity:1"
       id="path2-5-5-2-7-6-6-9-3-2-7-2-9-4-6-3-1-7-9-5-7-0-8-1"
       inkscape:flatsided="true"
       sodipodi:sides="6"
       sodipodi:cx="405.25177"
       sodipodi:cy="288.9021"
       sodipodi:r1="210.85258"
       sodipodi:r2="182.6037"
       sodipodi:arg1="0.52359878"
       sodipodi:arg2="1.0471976"
       inkscape:rounded="0"
       inkscape:randomized="0"
       d="M 587.85546,394.32839 405.25177,499.75468 222.64807,394.32839 222.64808,183.47581 405.25177,78.049515 587.85547,183.47581 Z"
       transform="matrix(1.8706154,0,0,1.8706086,-325.05589,-40.422752)" /><path
       sodipodi:type="star"
       style="display:inline;fill:none;fill-opacity:1;stroke:#ff00ff;stroke-width:0.541446;stroke-dasharray:none;stroke-opacity:1"
       id="path2-5-5-2-7-6-6-9-3-2-7-2-9-4-6-3-1-7-9-5-7-0-8-1-0"
       inkscape:flatsided="true"
       sodipodi:sides="6"
       sodipodi:cx="405.25177"
       sodipodi:cy="288.9021"
       sodipodi:r1="210.85258"
       sodipodi:r2="182.6037"
       sodipodi:arg1="0.52359878"
       sodipodi:arg2="1.0471976"
       inkscape:rounded="0"
       inkscape:randomized="0"
       d="M 587.85546,394.32839 405.25177,499.75468 222.64807,394.32839 222.64808,183.47581 405.25177,78.049515 587.85547,183.47581 Z"
       transform="matrix(1.846902,0,0,1.8468953,-315.44599,-33.57193)" /><path
       sodipodi:type="star"
       style="display:inline;fill:none;fill-opacity:1;stroke:#ff00ff;stroke-width:0.548488;stroke-dasharray:none;stroke-opacity:1"
       id="path2-5-5-2-7-6-6-9-3-2-7-2-9-4-6-3-1-7-9-5-7-0-8-1-0-2"
       inkscape:flatsided="true"
       sodipodi:sides="6"
       sodipodi:cx="405.25177"
       sodipodi:cy="288.9021"
       sodipodi:r1="210.85258"
       sodipodi:r2="182.6037"
       sodipodi:arg1="0.52359878"
       sodipodi:arg2="1.0471976"
       inkscape:rounded="0"
       inkscape:randomized="0"
       d="M 587.85546,394.32839 405.25177,499.75468 222.64807,394.32839 222.64808,183.47581 405.25177,78.049515 587.85547,183.47581 Z"
       transform="matrix(1.8231887,0,0,1.8231821,-305.83613,-26.721137)" /><path
       sodipodi:type="star"
       style="display:inline;fill:none;fill-opacity:1;stroke:#ff00ff;stroke-width:0.555716;stroke-dasharray:none;stroke-opacity:1"
       id="path2-5-5-2-7-6-6-9-3-2-7-2-9-4-6-3-1-7-9-5-7-0-8-1-0-2-9"
       inkscape:flatsided="true"
       sodipodi:sides="6"
       sodipodi:cx="405.25177"
       sodipodi:cy="288.9021"
       sodipodi:r1="210.85258"
       sodipodi:r2="182.6037"
       sodipodi:arg1="0.52359878"
       sodipodi:arg2="1.0471976"
       inkscape:rounded="0"
       inkscape:randomized="0"
       d="M 587.85546,394.32839 405.25177,499.75468 222.64807,394.32839 222.64808,183.47581 405.25177,78.049515 587.85547,183.47581 Z"
       transform="matrix(1.7994753,0,0,1.7994688,-296.22624,-19.870315)" /><path
       sodipodi:type="star"
       style="display:inline;fill:none;fill-opacity:1;stroke:#ff00ff;stroke-width:0.563137;stroke-dasharray:none;stroke-opacity:1"
       id="path2-5-5-2-7-6-6-9-3-2-7-2-9-4-6-3-1-7-9-5-7-0-8-1-0-2-9-8"
       inkscape:flatsided="true"
       sodipodi:sides="6"
       sodipodi:cx="405.25177"
       sodipodi:cy="288.9021"
       sodipodi:r1="210.85258"
       sodipodi:r2="182.6037"
       sodipodi:arg1="0.52359878"
       sodipodi:arg2="1.0471976"
       inkscape:rounded="0"
       inkscape:randomized="0"
       d="M 587.85546,394.32839 405.25177,499.75468 222.64807,394.32839 222.64808,183.47581 405.25177,78.049515 587.85547,183.47581 Z"
       transform="matrix(1.775762,0,0,1.7757556,-286.61638,-13.019522)" /><path
       sodipodi:type="star"
       style="display:inline;fill:none;fill-opacity:1;stroke:#ff00ff;stroke-width:0.570759;stroke-dasharray:none;stroke-opacity:1"
       id="path2-5-5-2-7-6-6-9-3-2-7-2-9-4-6-3-1-7-9-5-7-0-8-1-0-2-9-8-6"
       inkscape:flatsided="true"
       sodipodi:sides="6"
       sodipodi:cx="405.25177"
       sodipodi:cy="288.9021"
       sodipodi:r1="210.85258"
       sodipodi:r2="182.6037"
       sodipodi:arg1="0.52359878"
       sodipodi:arg2="1.0471976"
       inkscape:rounded="0"
       inkscape:randomized="0"
       d="M 587.85546,394.32839 405.25177,499.75468 222.64807,394.32839 222.64808,183.47581 405.25177,78.049515 587.85547,183.47581 Z"
       transform="matrix(1.7520486,0,0,1.7520423,-277.00648,-6.1686994)" /><path
       sodipodi:type="star"
       style="display:inline;fill:none;fill-opacity:1;stroke:#ff00ff;stroke-width:0.57859;stroke-dasharray:none;stroke-opacity:1"
       id="path2-5-5-2-7-6-6-9-3-2-7-2-9-4-6-3-1-7-9-5-7-0-8-1-0-2-9-8-6-1"
       inkscape:flatsided="true"
       sodipodi:sides="6"
       sodipodi:cx="405.25177"
       sodipodi:cy="288.9021"
       sodipodi:r1="210.85258"
       sodipodi:r2="182.6037"
       sodipodi:arg1="0.52359878"
       sodipodi:arg2="1.0471976"
       inkscape:rounded="0"
       inkscape:randomized="0"
       d="M 587.85546,394.32839 405.25177,499.75468 222.64807,394.32839 222.64808,183.47581 405.25177,78.049515 587.85547,183.47581 Z"
       transform="matrix(1.7283353,0,0,1.7283291,-267.39662,0.68209382)" /><path
       sodipodi:type="star"
       style="display:inline;fill:none;fill-opacity:1;stroke:#ff00ff;stroke-width:0.586639;stroke-dasharray:none;stroke-opacity:1"
       id="path2-5-5-2-7-6-6-9-3-2-7-2-9-4-6-3-1-7-9-5-7-0-8-1-0-2-9-8-6-1-9"
       inkscape:flatsided="true"
       sodipodi:sides="6"
       sodipodi:cx="405.25177"
       sodipodi:cy="288.9021"
       sodipodi:r1="210.85258"
       sodipodi:r2="182.6037"
       sodipodi:arg1="0.52359878"
       sodipodi:arg2="1.0471976"
       inkscape:rounded="0"
       inkscape:randomized="0"
       d="M 587.85546,394.32839 405.25177,499.75468 222.64807,394.32839 222.64808,183.47581 405.25177,78.049515 587.85547,183.47581 Z"
       transform="matrix(1.7046219,0,0,1.7046158,-257.78673,7.532916)" /><path
       sodipodi:type="star"
       style="display:inline;fill:none;fill-opacity:1;stroke:#ff00ff;stroke-width:0.594915;stroke-dasharray:none;stroke-opacity:1"
       id="path2-5-5-2-7-6-6-9-3-2-7-2-9-4-6-3-1-7-9-5-7-0-8-1-0-2-9-8-6-1-9-7"
       inkscape:flatsided="true"
       sodipodi:sides="6"
       sodipodi:cx="405.25177"
       sodipodi:cy="288.9021"
       sodipodi:r1="210.85258"
       sodipodi:r2="182.6037"
       sodipodi:arg1="0.52359878"
       sodipodi:arg2="1.0471976"
       inkscape:rounded="0"
       inkscape:randomized="0"
       d="M 587.85546,394.32839 405.25177,499.75468 222.64807,394.32839 222.64808,183.47581 405.25177,78.049515 587.85547,183.47581 Z"
       transform="matrix(1.6809086,0,0,1.6809026,-248.17687,14.383709)" /><path
       sodipodi:type="star"
       style="display:inline;fill:none;fill-opacity:1;stroke:#ff00ff;stroke-width:0.603428;stroke-dasharray:none;stroke-opacity:1"
       id="path2-5-5-2-7-6-6-9-3-2-7-2-9-4-6-3-1-7-9-5-7-0-8-1-0-2-9-8-6-1-9-7-5"
       inkscape:flatsided="true"
       sodipodi:sides="6"
       sodipodi:cx="405.25177"
       sodipodi:cy="288.9021"
       sodipodi:r1="210.85258"
       sodipodi:r2="182.6037"
       sodipodi:arg1="0.52359878"
       sodipodi:arg2="1.0471976"
       inkscape:rounded="0"
       inkscape:randomized="0"
       d="M 587.85546,394.32839 405.25177,499.75468 222.64807,394.32839 222.64808,183.47581 405.25177,78.049515 587.85547,183.47581 Z"
       transform="matrix(1.6571952,0,0,1.6571893,-238.56697,21.234531)" /></g></svg>
