<?xml version="1.0" encoding="UTF-8" standalone="no"?>
<!-- Created with Inkscape (http://www.inkscape.org/) -->

<svg
   width="866.02899"
   height="1000"
   viewBox="0 0 866.02899 1000"
   version="1.1"
   id="svg1"
   xml:space="preserve"
   sodipodi:docname="logo-plain-solid.svg"
   inkscape:version="1.4.2 (ebf0e940d0, 2025-05-08)"
   xmlns:inkscape="http://www.inkscape.org/namespaces/inkscape"
   xmlns:sodipodi="http://sodipodi.sourceforge.net/DTD/sodipodi-0.dtd"
   xmlns="http://www.w3.org/2000/svg"
   xmlns:svg="http://www.w3.org/2000/svg"><sodipodi:namedview
     id="namedview1"
     pagecolor="#ffffff"
     bordercolor="#000000"
     borderopacity="0.25"
     inkscape:showpageshadow="2"
     inkscape:pageopacity="0.0"
     inkscape:pagecheckerboard="0"
     inkscape:deskcolor="#d1d1d1"
     inkscape:zoom="0.56073568"
     inkscape:cx="337.0572"
     inkscape:cy="494.88558"
     inkscape:window-width="1920"
     inkscape:window-height="1011"
     inkscape:window-x="0"
     inkscape:window-y="0"
     inkscape:window-maximized="1"
     inkscape:current-layer="layer2" /><defs
     id="defs1"><linearGradient
       id="swatch711"><stop
         style="stop-color:#000000;stop-opacity:1;"
         offset="0"
         id="stop711" /></linearGradient></defs><g
     id="layer2"
     style="display:inline"
     inkscape:label="Background"><path
       style="display:inline;fill:#410085;fill-opacity:1;stroke:none;stroke-width:5;stroke-dasharray:none"
       id="path2-5-4-3"
       d="M 866.02898,750 433.01449,1000 -1.3456164e-5,750 1.0257184e-5,250.00001 433.01449,-3.842625e-6 866.029,250.00001 Z"
       inkscape:label="1" /><path
       style="display:none;fill:#410085;fill-opacity:1;stroke:none;stroke-width:2.10852;stroke-dasharray:none"
       id="path2-5-4"
       d="M 587.85546,394.32839 405.25177,499.75468 222.64807,394.32839 222.64808,183.47581 405.25177,78.049515 587.85547,183.47581 Z"
       transform="matrix(2.3713348,0,0,2.371325,-527.97313,-185.08077)"
       inkscape:label="1"
       sodipodi:insensitive="true" /></g><g
     id="layer3"
     style="display:none"
     inkscape:label="Text"
     sodipodi:insensitive="true"><path
       style="font-size:110px;font-family:'Lexend Deca';-inkscape-font-specification:'Lexend Deca';text-align:center;letter-spacing:0px;word-spacing:0px;text-anchor:middle;fill:#ffffff;stroke-width:6.11719"
       d="m -73.878097,1018.181 q -7.15,0 -13.09,-3.96 -5.83,-3.96 -9.35,-10.78 -3.52,-6.82001 -3.52,-15.40001 0,-8.69 3.52,-15.4 3.63,-6.82 9.68,-10.67 6.16,-3.85 13.75,-3.85 4.51,0 8.25,1.32 3.74,1.32 6.49,3.74 2.86,2.31 4.62,5.39 1.87,3.08 2.31,6.6 l -2.53,-0.88 v -14.96 h 11.44 v 57.75001 h -11.44 v -13.75 l 2.64,-0.77 q -0.66,2.97 -2.75,5.83 -1.98,2.75 -5.17,4.95 -3.08,2.2 -6.93,3.52 -3.74,1.32 -7.92,1.32 z m 2.97,-10.45 q 5.17,0 9.13,-2.53 3.96,-2.53 6.16,-6.93001 2.31,-4.51 2.31,-10.23 0,-5.61 -2.31,-10.01 -2.2,-4.4 -6.16,-6.93 -3.96,-2.53 -9.13,-2.53 -5.06,0 -9.02,2.53 -3.85,2.53 -6.16,6.93 -2.2,4.4 -2.2,10.01 0,5.72 2.2,10.23 2.31,4.40001 6.16,6.93001 3.96,2.53 9.02,2.53 z m 68.9699363,10.45 q -8.03,0 -14.4100003,-3.96 -6.27,-3.96 -10.01,-10.78 -3.63,-6.82001 -3.63,-15.29001 0,-8.47 3.63,-15.29 3.74,-6.82 10.01,-10.78 6.3800003,-3.96 14.4100003,-3.96 7.7,0 13.9699997,3.19 6.38,3.08 9.68,8.47 l -6.27,7.7 q -1.76,-2.53 -4.51,-4.62 -2.7499997,-2.09 -5.8299997,-3.3 -3.08,-1.21 -5.94000001,-1.21 -5.27999999,0 -9.46000029,2.64 -4.07,2.53 -6.49,7.04 -2.42,4.51 -2.42,10.12 0,5.61 2.53,10.12 2.53,4.40001 6.7100003,7.04001 4.18,2.64 9.23999999,2.64 2.97000001,0 5.72000001,-0.99 2.86,-0.99 5.4999997,-2.97 2.64,-1.98 4.95,-4.84001 l 6.27,7.70001 q -3.52,4.95 -10.12,8.14 -6.4899997,3.19 -13.5299997,3.19 z m 41.4699837,-1.1 v -72.49001 h 11.33 v 72.49001 z m -11.99,-46.75001 v -11 h 36.74 v 11 z m 66.000081,46.75001 -24.42,-57.75001 h 12.21 l 17.6,43.23001 -2.09,0.99 18.809996,-44.22001 h 11.66 l -25.63,57.75001 z m 69.410066,1.1 q -8.91,0 -15.84,-3.74 -6.82,-3.85 -10.78,-10.45 -3.85,-6.60001 -3.85,-15.18001 0,-6.82 2.2,-12.43 2.2,-5.61 6.05,-9.68 3.96,-4.18 9.35,-6.38 5.5,-2.31 11.88,-2.31 5.61,0 10.45,2.2 4.84,2.09 8.36,5.83 3.63,3.74 5.5,8.91 1.98,5.06 1.87,11.11 l -0.11,4.84 h -47.19 l -2.53,-9.02 h 39.93 l -1.65,1.87 v -2.64 q -0.33,-3.63 -2.42,-6.49 -2.09,-2.86 -5.28,-4.51 -3.19,-1.65 -6.93,-1.65 -5.94,0 -10.01,2.31 -4.07,2.2 -6.16,6.6 -2.09,4.29 -2.09,10.67 0,6.05 2.53,10.56 2.53,4.40001 7.15,6.82001 4.62,2.42 10.67,2.42 4.29,0 7.92,-1.43 3.74,-1.43 8.03,-5.17 l 5.72,8.03 q -2.64,2.64 -6.49,4.62 -3.74,1.98 -8.03,3.19 -4.18,1.1 -8.25,1.1 z m 37.51005,-1.1 v -57.75001 h 11.44 v 18.15 l -1.1,-4.4 q 1.21,-4.18 4.07,-7.59 2.97,-3.41 6.71,-5.39 3.85,-1.98 7.92,-1.98 1.87,0 3.52,0.33 1.76,0.33 2.75,0.77 l -2.97,12.32 q -1.32,-0.55 -2.97,-0.88 -1.54,-0.44 -3.08,-0.44 -2.97,0 -5.72,1.21 -2.64,1.1 -4.73,3.19 -1.98,1.98 -3.19,4.73 -1.21,2.64 -1.21,5.83 v 31.90001 z m 63.57999,1.1 q -7.26,0 -13.09,-2.53 -5.83,-2.53 -9.68,-7.48 l 7.7,-6.6 q 3.3,3.85 7.15,5.61 3.96,1.65 8.91,1.65 1.98,0 3.63,-0.44 1.76,-0.55 2.97,-1.54 1.32,-0.99 1.98,-2.31 0.66,-1.43 0.66,-3.08 0,-2.86001 -2.09,-4.62001 -1.1,-0.77 -3.52,-1.65 -2.31,-0.99 -6.05,-1.98 -6.38,-1.65 -10.45,-3.74 -4.07,-2.09 -6.27,-4.73 -1.65,-2.09 -2.42,-4.51 -0.77,-2.53 -0.77,-5.5 0,-3.63 1.54,-6.6 1.65,-3.08 4.4,-5.28 2.86,-2.31 6.6,-3.52 3.85,-1.21 8.14,-1.21 4.07,0 8.03,1.1 4.07,1.1 7.48,3.19 3.41,2.09 5.72,4.95 l -6.49,7.15 q -2.09,-2.09 -4.62,-3.63 -2.42,-1.65 -4.95,-2.53 -2.53,-0.88 -4.62,-0.88 -2.31,0 -4.18,0.44 -1.87,0.44 -3.19,1.32 -1.21,0.88 -1.87,2.2 -0.66,1.32 -0.66,2.97 0.11,1.43 0.66,2.75 0.66,1.21 1.76,2.09 1.21,0.88 3.63,1.87 2.42,0.99 6.16,1.87 5.5,1.43 9.02,3.19 3.63,1.65 5.72,3.85 2.2,2.09 3.08,4.84 0.88,2.75 0.88,6.16001 0,4.95 -2.86,8.91 -2.75,3.85 -7.48,6.05 -4.73,2.2 -10.56,2.2 z m 60.39,0 q -8.91,0 -15.84,-3.74 -6.82,-3.85 -10.78,-10.45 -3.85,-6.60001 -3.85,-15.18001 0,-6.82 2.2,-12.43 2.2,-5.61 6.05,-9.68 3.96,-4.18 9.35,-6.38 5.5,-2.31 11.88,-2.31 5.61,0 10.45,2.2 4.84,2.09 8.36,5.83 3.63,3.74 5.5,8.91 1.98,5.06 1.87,11.11 l -0.11,4.84 h -47.19 l -2.53,-9.02 h 39.93 l -1.65,1.87 v -2.64 q -0.33,-3.63 -2.42,-6.49 -2.09,-2.86 -5.28,-4.51 -3.19,-1.65 -6.93,-1.65 -5.94,0 -10.01,2.31 -4.07,2.2 -6.16,6.6 -2.09,4.29 -2.09,10.67 0,6.05 2.53,10.56 2.53,4.40001 7.15,6.82001 4.62,2.42 10.67,2.42 4.29,0 7.92,-1.43 3.74,-1.43 8.03,-5.17 l 5.72,8.03 q -2.64,2.64 -6.49,4.62 -3.74,1.98 -8.03,3.19 -4.18,1.1 -8.25,1.1 z"
       id="text14"
       transform="rotate(-30)"
       aria-label="actverse" /></g><g
     id="layer1"
     style="display:none"
     inkscape:label="Grid"
     sodipodi:insensitive="true"><path
       style="display:inline;fill:none;fill-opacity:1;stroke:#ff00ff;stroke-width:0.422192;stroke-dasharray:none;stroke-opacity:1"
       id="path2-5-5"
       d="M 587.85546,394.32839 405.25177,499.75468 222.64807,394.32839 222.64808,183.47581 405.25177,78.049515 587.85547,183.47581 Z"
       transform="matrix(2.3685957,0,0,2.3685868,-526.86328,-184.2897)" /><path
       style="display:inline;fill:none;fill-opacity:1;stroke:#ff00ff;stroke-width:0.426462;stroke-dasharray:none;stroke-opacity:1"
       id="path2-5-5-2"
       d="M 587.85546,394.32839 405.25177,499.75468 222.64807,394.32839 222.64808,183.47581 405.25177,78.049515 587.85547,183.47581 Z"
       transform="matrix(2.3448824,0,0,2.3448736,-517.25343,-177.43891)" /><path
       style="display:inline;fill:none;fill-opacity:1;stroke:#ff00ff;stroke-width:0.430819;stroke-dasharray:none;stroke-opacity:1"
       id="path2-5-5-2-7"
       d="M 587.85546,394.32839 405.25177,499.75468 222.64807,394.32839 222.64808,183.47581 405.25177,78.049515 587.85547,183.47581 Z"
       transform="matrix(2.321169,0,0,2.3211603,-507.64353,-170.58808)" /><path
       style="display:inline;fill:none;fill-opacity:1;stroke:#ff00ff;stroke-width:0.435266;stroke-dasharray:none;stroke-opacity:1"
       id="path2-5-5-2-7-6"
       d="M 587.85546,394.32839 405.25177,499.75468 222.64807,394.32839 222.64808,183.47581 405.25177,78.049515 587.85547,183.47581 Z"
       transform="matrix(2.2974557,0,0,2.2974471,-498.03367,-163.73729)" /><path
       style="display:inline;fill:none;fill-opacity:1;stroke:#ff00ff;stroke-width:0.439805;stroke-dasharray:none;stroke-opacity:1"
       id="path2-5-5-2-7-6-6"
       d="M 587.85546,394.32839 405.25177,499.75468 222.64807,394.32839 222.64808,183.47581 405.25177,78.049515 587.85547,183.47581 Z"
       transform="matrix(2.2737423,0,0,2.2737338,-488.42378,-156.88647)" /><path
       style="display:inline;fill:none;fill-opacity:1;stroke:#ff00ff;stroke-width:0.44444;stroke-dasharray:none;stroke-opacity:1"
       id="path2-5-5-2-7-6-6-9"
       d="M 587.85546,394.32839 405.25177,499.75468 222.64807,394.32839 222.64808,183.47581 405.25177,78.049515 587.85547,183.47581 Z"
       transform="matrix(2.250029,0,0,2.2500206,-478.81392,-150.03568)" /><path
       style="display:inline;fill:none;fill-opacity:1;stroke:#ff00ff;stroke-width:0.449174;stroke-dasharray:none;stroke-opacity:1"
       id="path2-5-5-2-7-6-6-9-3"
       d="M 587.85546,394.32839 405.25177,499.75468 222.64807,394.32839 222.64808,183.47581 405.25177,78.049515 587.85547,183.47581 Z"
       transform="matrix(2.2263156,0,0,2.2263073,-469.20402,-143.18485)" /><path
       style="display:inline;fill:none;fill-opacity:1;stroke:#ff00ff;stroke-width:0.45401;stroke-dasharray:none;stroke-opacity:1"
       id="path2-5-5-2-7-6-6-9-3-2"
       d="M 587.85546,394.32839 405.25177,499.75468 222.64807,394.32839 222.64808,183.47581 405.25177,78.049515 587.85547,183.47581 Z"
       transform="matrix(2.2026023,0,0,2.2025941,-459.59417,-136.33406)" /><path
       style="display:inline;fill:none;fill-opacity:1;stroke:#ff00ff;stroke-width:0.458951;stroke-dasharray:none;stroke-opacity:1"
       id="path2-5-5-2-7-6-6-9-3-2-7"
       d="M 587.85546,394.32839 405.25177,499.75468 222.64807,394.32839 222.64808,183.47581 405.25177,78.049515 587.85547,183.47581 Z"
       transform="matrix(2.1788889,0,0,2.1788808,-449.98427,-129.48324)" /><path
       style="display:inline;fill:none;fill-opacity:1;stroke:#ff00ff;stroke-width:0.464001;stroke-dasharray:none;stroke-opacity:1"
       id="path2-5-5-2-7-6-6-9-3-2-7-2"
       d="M 587.85546,394.32839 405.25177,499.75468 222.64807,394.32839 222.64808,183.47581 405.25177,78.049515 587.85547,183.47581 Z"
       transform="matrix(2.1551756,0,0,2.1551676,-440.37441,-122.63245)" /><path
       style="display:inline;fill:none;fill-opacity:1;stroke:#ff00ff;stroke-width:0.469163;stroke-dasharray:none;stroke-opacity:1"
       id="path2-5-5-2-7-6-6-9-3-2-7-2-9"
       d="M 587.85546,394.32839 405.25177,499.75468 222.64807,394.32839 222.64808,183.47581 405.25177,78.049515 587.85547,183.47581 Z"
       transform="matrix(2.1314622,0,0,2.1314543,-430.76451,-115.78162)" /><path
       style="display:inline;fill:none;fill-opacity:1;stroke:#ff00ff;stroke-width:0.474441;stroke-dasharray:none;stroke-opacity:1"
       id="path2-5-5-2-7-6-6-9-3-2-7-2-9-4"
       d="M 587.85546,394.32839 405.25177,499.75468 222.64807,394.32839 222.64808,183.47581 405.25177,78.049515 587.85547,183.47581 Z"
       transform="matrix(2.1077489,0,0,2.1077411,-421.15466,-108.93083)" /><path
       style="display:inline;fill:none;fill-opacity:1;stroke:#ff00ff;stroke-width:0.479839;stroke-dasharray:none;stroke-opacity:1"
       id="path2-5-5-2-7-6-6-9-3-2-7-2-9-4-6"
       d="M 587.85546,394.32839 405.25177,499.75468 222.64807,394.32839 222.64808,183.47581 405.25177,78.049515 587.85547,183.47581 Z"
       transform="matrix(2.0840355,0,0,2.0840278,-411.54476,-102.08001)" /><path
       style="display:inline;fill:none;fill-opacity:1;stroke:#ff00ff;stroke-width:0.485362;stroke-dasharray:none;stroke-opacity:1"
       id="path2-5-5-2-7-6-6-9-3-2-7-2-9-4-6-3"
       d="M 587.85546,394.32839 405.25177,499.75468 222.64807,394.32839 222.64808,183.47581 405.25177,78.049515 587.85547,183.47581 Z"
       transform="matrix(2.0603222,0,0,2.0603146,-401.9349,-95.229214)" /><path
       style="display:inline;fill:none;fill-opacity:1;stroke:#ff00ff;stroke-width:0.491013;stroke-dasharray:none;stroke-opacity:1"
       id="path2-5-5-2-7-6-6-9-3-2-7-2-9-4-6-3-1"
       d="M 587.85546,394.32839 405.25177,499.75468 222.64807,394.32839 222.64808,183.47581 405.25177,78.049515 587.85547,183.47581 Z"
       transform="matrix(2.0366088,0,0,2.0366013,-392.32501,-88.378392)" /><path
       style="display:inline;fill:none;fill-opacity:1;stroke:#ff00ff;stroke-width:0.496797;stroke-dasharray:none;stroke-opacity:1"
       id="path2-5-5-2-7-6-6-9-3-2-7-2-9-4-6-3-1-7"
       d="M 587.85546,394.32839 405.25177,499.75468 222.64807,394.32839 222.64808,183.47581 405.25177,78.049515 587.85547,183.47581 Z"
       transform="matrix(2.0128955,0,0,2.0128881,-382.71515,-81.527599)" /><path
       style="display:inline;fill:none;fill-opacity:1;stroke:#ff00ff;stroke-width:0.502719;stroke-dasharray:none;stroke-opacity:1"
       id="path2-5-5-2-7-6-6-9-3-2-7-2-9-4-6-3-1-7-9"
       d="M 587.85546,394.32839 405.25177,499.75468 222.64807,394.32839 222.64808,183.47581 405.25177,78.049515 587.85547,183.47581 Z"
       transform="matrix(1.9891821,0,0,1.9891748,-373.10525,-74.676777)" /><path
       style="display:inline;fill:none;fill-opacity:1;stroke:#ff00ff;stroke-width:0.508784;stroke-dasharray:none;stroke-opacity:1"
       id="path2-5-5-2-7-6-6-9-3-2-7-2-9-4-6-3-1-7-9-5"
       d="M 587.85546,394.32839 405.25177,499.75468 222.64807,394.32839 222.64808,183.47581 405.25177,78.049515 587.85547,183.47581 Z"
       transform="matrix(1.9654688,0,0,1.9654616,-363.49539,-67.825983)" /><path
       style="display:inline;fill:none;fill-opacity:1;stroke:#ff00ff;stroke-width:0.514997;stroke-dasharray:none;stroke-opacity:1"
       id="path2-5-5-2-7-6-6-9-3-2-7-2-9-4-6-3-1-7-9-5-7"
       d="M 587.85546,394.32839 405.25177,499.75468 222.64807,394.32839 222.64808,183.47581 405.25177,78.049515 587.85547,183.47581 Z"
       transform="matrix(1.9417554,0,0,1.9417483,-353.8855,-60.975161)" /><path
       style="display:inline;fill:none;fill-opacity:1;stroke:#ff00ff;stroke-width:0.521364;stroke-dasharray:none;stroke-opacity:1"
       id="path2-5-5-2-7-6-6-9-3-2-7-2-9-4-6-3-1-7-9-5-7-0"
       d="M 587.85546,394.32839 405.25177,499.75468 222.64807,394.32839 222.64808,183.47581 405.25177,78.049515 587.85547,183.47581 Z"
       transform="matrix(1.9180421,0,0,1.9180351,-344.27564,-54.124368)" /><path
       style="display:inline;fill:none;fill-opacity:1;stroke:#ff00ff;stroke-width:0.52789;stroke-dasharray:none;stroke-opacity:1"
       id="path2-5-5-2-7-6-6-9-3-2-7-2-9-4-6-3-1-7-9-5-7-0-8"
       d="M 587.85546,394.32839 405.25177,499.75468 222.64807,394.32839 222.64808,183.47581 405.25177,78.049515 587.85547,183.47581 Z"
       transform="matrix(1.8943287,0,0,1.8943218,-334.66574,-47.273546)" /><path
       style="display:inline;fill:none;fill-opacity:1;stroke:#ff00ff;stroke-width:0.534582;stroke-dasharray:none;stroke-opacity:1"
       id="path2-5-5-2-7-6-6-9-3-2-7-2-9-4-6-3-1-7-9-5-7-0-8-1"
       d="M 587.85546,394.32839 405.25177,499.75468 222.64807,394.32839 222.64808,183.47581 405.25177,78.049515 587.85547,183.47581 Z"
       transform="matrix(1.8706154,0,0,1.8706086,-325.05589,-40.422752)" /><path
       style="display:inline;fill:none;fill-opacity:1;stroke:#ff00ff;stroke-width:0.541446;stroke-dasharray:none;stroke-opacity:1"
       id="path2-5-5-2-7-6-6-9-3-2-7-2-9-4-6-3-1-7-9-5-7-0-8-1-0"
       d="M 587.85546,394.32839 405.25177,499.75468 222.64807,394.32839 222.64808,183.47581 405.25177,78.049515 587.85547,183.47581 Z"
       transform="matrix(1.846902,0,0,1.8468953,-315.44599,-33.57193)" /><path
       style="display:inline;fill:none;fill-opacity:1;stroke:#ff00ff;stroke-width:0.548488;stroke-dasharray:none;stroke-opacity:1"
       id="path2-5-5-2-7-6-6-9-3-2-7-2-9-4-6-3-1-7-9-5-7-0-8-1-0-2"
       d="M 587.85546,394.32839 405.25177,499.75468 222.64807,394.32839 222.64808,183.47581 405.25177,78.049515 587.85547,183.47581 Z"
       transform="matrix(1.8231887,0,0,1.8231821,-305.83613,-26.721137)" /><path
       style="display:inline;fill:none;fill-opacity:1;stroke:#ff00ff;stroke-width:0.555716;stroke-dasharray:none;stroke-opacity:1"
       id="path2-5-5-2-7-6-6-9-3-2-7-2-9-4-6-3-1-7-9-5-7-0-8-1-0-2-9"
       d="M 587.85546,394.32839 405.25177,499.75468 222.64807,394.32839 222.64808,183.47581 405.25177,78.049515 587.85547,183.47581 Z"
       transform="matrix(1.7994753,0,0,1.7994688,-296.22624,-19.870315)" /><path
       style="display:inline;fill:none;fill-opacity:1;stroke:#ff00ff;stroke-width:0.563137;stroke-dasharray:none;stroke-opacity:1"
       id="path2-5-5-2-7-6-6-9-3-2-7-2-9-4-6-3-1-7-9-5-7-0-8-1-0-2-9-8"
       d="M 587.85546,394.32839 405.25177,499.75468 222.64807,394.32839 222.64808,183.47581 405.25177,78.049515 587.85547,183.47581 Z"
       transform="matrix(1.775762,0,0,1.7757556,-286.61638,-13.019522)" /><path
       style="display:inline;fill:none;fill-opacity:1;stroke:#ff00ff;stroke-width:0.570759;stroke-dasharray:none;stroke-opacity:1"
       id="path2-5-5-2-7-6-6-9-3-2-7-2-9-4-6-3-1-7-9-5-7-0-8-1-0-2-9-8-6"
       d="M 587.85546,394.32839 405.25177,499.75468 222.64807,394.32839 222.64808,183.47581 405.25177,78.049515 587.85547,183.47581 Z"
       transform="matrix(1.7520486,0,0,1.7520423,-277.00648,-6.1686994)" /><path
       style="display:inline;fill:none;fill-opacity:1;stroke:#ff00ff;stroke-width:0.57859;stroke-dasharray:none;stroke-opacity:1"
       id="path2-5-5-2-7-6-6-9-3-2-7-2-9-4-6-3-1-7-9-5-7-0-8-1-0-2-9-8-6-1"
       d="M 587.85546,394.32839 405.25177,499.75468 222.64807,394.32839 222.64808,183.47581 405.25177,78.049515 587.85547,183.47581 Z"
       transform="matrix(1.7283353,0,0,1.7283291,-267.39662,0.68209382)" /><path
       style="display:inline;fill:none;fill-opacity:1;stroke:#ff00ff;stroke-width:0.586639;stroke-dasharray:none;stroke-opacity:1"
       id="path2-5-5-2-7-6-6-9-3-2-7-2-9-4-6-3-1-7-9-5-7-0-8-1-0-2-9-8-6-1-9"
       d="M 587.85546,394.32839 405.25177,499.75468 222.64807,394.32839 222.64808,183.47581 405.25177,78.049515 587.85547,183.47581 Z"
       transform="matrix(1.7046219,0,0,1.7046158,-257.78673,7.532916)" /><path
       style="display:inline;fill:none;fill-opacity:1;stroke:#ff00ff;stroke-width:0.594915;stroke-dasharray:none;stroke-opacity:1"
       id="path2-5-5-2-7-6-6-9-3-2-7-2-9-4-6-3-1-7-9-5-7-0-8-1-0-2-9-8-6-1-9-7"
       d="M 587.85546,394.32839 405.25177,499.75468 222.64807,394.32839 222.64808,183.47581 405.25177,78.049515 587.85547,183.47581 Z"
       transform="matrix(1.6809086,0,0,1.6809026,-248.17687,14.383709)" /><path
       style="display:inline;fill:none;fill-opacity:1;stroke:#ff00ff;stroke-width:0.603428;stroke-dasharray:none;stroke-opacity:1"
       id="path2-5-5-2-7-6-6-9-3-2-7-2-9-4-6-3-1-7-9-5-7-0-8-1-0-2-9-8-6-1-9-7-5"
       d="M 587.85546,394.32839 405.25177,499.75468 222.64807,394.32839 222.64808,183.47581 405.25177,78.049515 587.85547,183.47581 Z"
       transform="matrix(1.6571952,0,0,1.6571893,-238.56697,21.234531)" /></g></svg>
