<?xml version="1.0" encoding="UTF-8" standalone="no"?>
<svg
   id="_ÎÓÈ_1"
   data-name="—ÎÓÈ_1"
   version="1.1"
   viewBox="0 0 999.99997 999.99997"
   sodipodi:docname="icon-black.svg"
   width="1000"
   height="1000"
   inkscape:export-filename="icon-black-rgb-96-dpi.png"
   inkscape:export-xdpi="96"
   inkscape:export-ydpi="96"
   inkscape:version="1.4 (e7c3feb100, 2024-10-09)"
   xmlns:inkscape="http://www.inkscape.org/namespaces/inkscape"
   xmlns:sodipodi="http://sodipodi.sourceforge.net/DTD/sodipodi-0.dtd"
   xmlns="http://www.w3.org/2000/svg"
   xmlns:svg="http://www.w3.org/2000/svg">
  <sodipodi:namedview
     id="namedview1"
     pagecolor="#505050"
     bordercolor="#eeeeee"
     borderopacity="1"
     inkscape:showpageshadow="0"
     inkscape:pageopacity="0"
     inkscape:pagecheckerboard="0"
     inkscape:deskcolor="#505050"
     inkscape:zoom="0.70710678"
     inkscape:cx="543.76511"
     inkscape:cy="467.39758"
     inkscape:window-width="1920"
     inkscape:window-height="1020"
     inkscape:window-x="0"
     inkscape:window-y="28"
     inkscape:window-maximized="1"
     inkscape:current-layer="_ÎÓÈ_1" />
  <defs
     id="defs1">
    <style
       id="style1">
      .cls-1 {
        fill: #000;
        stroke-width: 0px;
      }
    </style>
  </defs>
  <path
     class="cls-1"
     d="M 500,0 V 0 C 223.81449,0 0,223.87282 0,499.86969 v 0 C 0,776.12718 223.81449,1000 500,1000 v 0 c 276.18551,0 500,-223.87282 500,-500.13031 v 0 C 1000,223.87282 776.18551,0 500,0 Z m -148.2543,473.80766 341.32361,2.08496 v 19.80714 L 351.7457,493.6148 Z m 0,26.06203 341.32361,2.08496 v 83.39849 L 351.7457,583.26818 Z m 0,89.914 341.32361,2.08495 v 19.80714 L 351.7457,609.59083 Z m 328.03544,110.24237 c -5.73216,18.24342 -23.44972,46.91165 -33.09016,58.11832 l -31.26628,6.25488 c 19.80198,-31.79567 28.13966,-116.23663 28.13966,-116.23663 0,0 -31.00574,102.16315 -49.50495,120.40656 l -15.11204,2.86683 c 19.02032,-40.91738 28.13965,-129.52828 28.13965,-129.52828 0,0 -32.04794,102.16315 -50.2866,133.6982 L 412.4544,804.27417 c 21.8864,-45.60855 31.78739,-144.90487 31.78739,-144.90487 0,0 -15.11203,96.69012 -45.59666,147.77169 l -44.03335,8.60047 c 10.42209,-20.84962 15.63314,-61.767 15.63314,-61.767 0,0 -14.85149,46.65102 -27.61855,64.11258 l -35.69568,7.03676 c 17.45701,-32.0563 29.18187,-68.54314 36.99844,-115.19417 6.51381,-38.05056 7.29547,-80.79229 7.55602,-95.1264 l 341.3236,2.08496 c 0.78166,14.0735 -7.81657,65.93693 -13.28817,82.87725 z m 13.28817,-231.43081 -341.32361,-2.6062 v -8.07922 c 0,-3.12745 3.12663,-5.99427 8.07712,-7.55799 26.8369,-9.12172 113.34029,-38.31118 116.98802,-99.0357 2.34497,-38.31119 -5.73215,-53.9484 -18.49922,-106.33308 -13.54872,-55.77274 45.59667,-101.64191 65.13809,-101.38128 19.28088,0 78.42627,46.91164 64.61699,102.42376 -13.02762,52.38467 -21.10474,67.76127 -19.02032,106.07245 3.38718,60.72453 89.63001,91.2171 116.46691,100.86005 4.95049,1.82434 7.81657,4.69116 7.81657,7.81861 v 8.07923 z"
     id="path1"
     inkscape:label="Icon" />
</svg>
