<?xml version="1.0" encoding="UTF-8" standalone="no"?>
<svg
   id="_ÎÓÈ_1"
   data-name="—ÎÓÈ_1"
   version="1.1"
   viewBox="0 0 999.99997 999.99997"
   sodipodi:docname="icon-color.svg"
   width="1000"
   height="1000"
   inkscape:version="1.4 (e7c3feb100, 2024-10-09)"
   inkscape:export-filename="icon-rgb-96-dpi.png"
   inkscape:export-xdpi="96"
   inkscape:export-ydpi="96"
   xmlns:inkscape="http://www.inkscape.org/namespaces/inkscape"
   xmlns:sodipodi="http://sodipodi.sourceforge.net/DTD/sodipodi-0.dtd"
   xmlns="http://www.w3.org/2000/svg"
   xmlns:svg="http://www.w3.org/2000/svg">
  <sodipodi:namedview
     id="namedview9"
     pagecolor="#505050"
     bordercolor="#eeeeee"
     borderopacity="1"
     inkscape:showpageshadow="0"
     inkscape:pageopacity="0"
     inkscape:pagecheckerboard="0"
     inkscape:deskcolor="#505050"
     inkscape:zoom="0.52449829"
     inkscape:cx="352.71802"
     inkscape:cy="511.91778"
     inkscape:window-width="1920"
     inkscape:window-height="1020"
     inkscape:window-x="0"
     inkscape:window-y="28"
     inkscape:window-maximized="1"
     inkscape:current-layer="_ÎÓÈ_1" />
  <defs
     id="defs6">
    <style
       id="style1">
      .cls-1 {
        fill: url(#linear-gradient);
      }

      .cls-1, .cls-2 {
        stroke-width: 0px;
      }

      .cls-2 {
        fill: #fff;
      }
    </style>
    <linearGradient
       id="linear-gradient"
       x1="56.200001"
       y1="56.200001"
       x2="327.5"
       y2="327.5"
       gradientUnits="userSpaceOnUse"
       gradientTransform="scale(2.6062027)">
      <stop
         offset="0"
         stop-color="#390963"
         id="stop1" />
      <stop
         offset=".2"
         stop-color="#721a6e"
         id="stop2" />
      <stop
         offset=".5"
         stop-color="#a92e5e"
         id="stop3" />
      <stop
         offset=".6"
         stop-color="#da4e3c"
         id="stop4" />
      <stop
         offset=".8"
         stop-color="#f06f20"
         id="stop5" />
      <stop
         offset="1"
         stop-color="#fb9706"
         id="stop6" />
    </linearGradient>
  </defs>
  <rect
     class="cls-1"
     x="0"
     y="0"
     width="1000"
     height="1000"
     rx="500.13028"
     ry="500.13028"
     id="rect6"
     inkscape:label="Background"
     style="fill:url(#linear-gradient)" />
  <g
     id="g9"
     inkscape:label="Brush"
     transform="scale(2.6062027)">
    <g
       id="g8">
      <polygon
         class="cls-2"
         points="266,192.1 134.7,191.3 134.7,223.3 266,224.1 "
         id="polygon6" />
      <polygon
         class="cls-2"
         points="266,234.1 266,226.6 134.7,225.8 134.7,233.4 "
         id="polygon7" />
      <polygon
         class="cls-2"
         points="134.7,188.8 266,189.6 266,182.1 134.7,181.3 "
         id="polygon8" />
    </g>
    <path
       class="cls-2"
       d="m 266,179.8 v -3.1 c 0,-1.2 -1.1,-2.3 -3,-3 -10.3,-3.7 -43.4,-15.4 -44.7,-38.7 -0.8,-14.8 2.3,-20.7 7.3,-40.7 C 230.9,73 208.3,55 200.8,55 c -7.4,0 -30.2,17.5 -25,38.9 4.9,20.1 8,26.1 7.1,40.8 -1.4,23.3 -34.5,34.5 -44.9,38 -1.9,0.6 -3.2,1.7 -3.2,2.9 v 3.1 l 131.2,1 z"
       id="path8" />
    <path
       class="cls-2"
       d="m 134.7,236 c -0.1,5.5 -0.2,21.9 -2.7,36.5 -3,17.9 -7.6,31.9 -14.3,44.2 l 13.7,-2.7 c 4.9,-6.7 10.6,-24.6 10.6,-24.6 0,0 -2,15.7 -6,23.7 l 16.9,-3.3 c 11.7,-19.6 17.5,-56.7 17.5,-56.7 0,0 -3.8,38.1 -12.2,55.6 l 55.4,-11 c 7,-12.2 19.3,-51.3 19.3,-51.3 0,0 -3.5,33.9 -10.8,49.7 l 5.8,-1.1 c 7.1,-7 19,-46.2 19,-46.2 0,0 -3.2,32.4 -10.8,44.6 l 12,-2.4 c 3.7,-4.3 10.4,-15.3 12.7,-22.3 2.1,-6.6 5.4,-26.4 5.1,-31.8 l -131.2,-0.8 z"
       id="path9" />
  </g>
</svg>
