<?xml version="1.0" encoding="UTF-8" standalone="no"?>
<svg
   id="_ÎÓÈ_1"
   data-name="—ÎÓÈ_1"
   version="1.1"
   viewBox="0 0 999.99998 676.019"
   sodipodi:docname="logo-color.svg"
   width="1000"
   height="676.01898"
   inkscape:version="1.4 (e7c3feb100, 2024-10-09)"
   inkscape:export-filename="logo-rgb-96-dpi.png"
   inkscape:export-xdpi="96"
   inkscape:export-ydpi="96"
   xmlns:inkscape="http://www.inkscape.org/namespaces/inkscape"
   xmlns:sodipodi="http://sodipodi.sourceforge.net/DTD/sodipodi-0.dtd"
   xmlns:xlink="http://www.w3.org/1999/xlink"
   xmlns="http://www.w3.org/2000/svg"
   xmlns:svg="http://www.w3.org/2000/svg">
  <sodipodi:namedview
     id="namedview32"
     pagecolor="#505050"
     bordercolor="#eeeeee"
     borderopacity="1"
     inkscape:showpageshadow="0"
     inkscape:pageopacity="0"
     inkscape:pagecheckerboard="0"
     inkscape:deskcolor="#505050"
     inkscape:zoom="0.47043012"
     inkscape:cx="416.63999"
     inkscape:cy="443.21142"
     inkscape:window-width="1920"
     inkscape:window-height="1020"
     inkscape:window-x="0"
     inkscape:window-y="28"
     inkscape:window-maximized="1"
     inkscape:current-layer="layer2" />
  <defs
     id="defs12">
    <style
       id="style1">
      .cls-1 {
        fill: #b54a4e;
      }

      .cls-1, .cls-2, .cls-3, .cls-4, .cls-5 {
        stroke-width: 0px;
      }

      .cls-2 {
        fill: url(#linear-gradient);
      }

      .cls-3 {
        fill: #000;
      }

      .cls-4 {
        fill: url(#linear-gradient-2);
      }

      .cls-5 {
        fill: #fff;
      }
    </style>
    <linearGradient
       id="linear-gradient"
       x1="-287.70001"
       y1="738.70001"
       x2="1488.1"
       y2="738.70001"
       gradientUnits="userSpaceOnUse">
      <stop
         offset="0"
         stop-color="#390963"
         id="stop1" />
      <stop
         offset=".2"
         stop-color="#721a6e"
         id="stop2" />
      <stop
         offset=".5"
         stop-color="#a92e5e"
         id="stop3" />
      <stop
         offset=".6"
         stop-color="#da4e3c"
         id="stop4" />
      <stop
         offset="1"
         stop-color="#f06f20"
         id="stop5" />
      <stop
         offset="1"
         stop-color="#fb9706"
         id="stop6" />
    </linearGradient>
    <linearGradient
       id="linear-gradient-2"
       x1="426.10001"
       y1="124.1"
       x2="796.5"
       y2="494.5"
       gradientUnits="userSpaceOnUse"
       gradientTransform="matrix(0.88786291,0,0,0.88786291,-43.771642,-42.084704)">
      <stop
         offset="0"
         stop-color="#390963"
         id="stop7" />
      <stop
         offset=".2"
         stop-color="#721a6e"
         id="stop8" />
      <stop
         offset=".5"
         stop-color="#a92e5e"
         id="stop9" />
      <stop
         offset=".6"
         stop-color="#da4e3c"
         id="stop10" />
      <stop
         offset=".8"
         stop-color="#f06f20"
         id="stop11" />
      <stop
         offset="1"
         stop-color="#fb9706"
         id="stop12" />
    </linearGradient>
    <linearGradient
       inkscape:collect="always"
       xlink:href="#linear-gradient"
       id="linearGradient32"
       gradientUnits="userSpaceOnUse"
       x1="-287.70001"
       y1="738.70001"
       x2="1488.1"
       y2="738.70001" />
    <linearGradient
       inkscape:collect="always"
       xlink:href="#linear-gradient"
       id="linearGradient33"
       gradientUnits="userSpaceOnUse"
       x1="-287.70001"
       y1="738.70001"
       x2="1488.1"
       y2="738.70001" />
    <linearGradient
       inkscape:collect="always"
       xlink:href="#linear-gradient"
       id="linearGradient34"
       gradientUnits="userSpaceOnUse"
       x1="-287.70001"
       y1="738.70001"
       x2="1488.1"
       y2="738.70001" />
    <linearGradient
       inkscape:collect="always"
       xlink:href="#linear-gradient"
       id="linearGradient35"
       gradientUnits="userSpaceOnUse"
       x1="-287.70001"
       y1="738.70001"
       x2="1488.1"
       y2="738.70001" />
    <linearGradient
       inkscape:collect="always"
       xlink:href="#linear-gradient"
       id="linearGradient36"
       gradientUnits="userSpaceOnUse"
       x1="-287.70001"
       y1="738.70001"
       x2="1488.1"
       y2="738.70001" />
    <linearGradient
       inkscape:collect="always"
       xlink:href="#linear-gradient"
       id="linearGradient37"
       gradientUnits="userSpaceOnUse"
       x1="-287.70001"
       y1="738.70001"
       x2="1488.1"
       y2="738.70001" />
    <linearGradient
       inkscape:collect="always"
       xlink:href="#linear-gradient"
       id="linearGradient38"
       gradientUnits="userSpaceOnUse"
       x1="-287.70001"
       y1="738.70001"
       x2="1488.1"
       y2="738.70001" />
    <linearGradient
       inkscape:collect="always"
       xlink:href="#linear-gradient"
       id="linearGradient39"
       gradientUnits="userSpaceOnUse"
       x1="-287.70001"
       y1="738.70001"
       x2="1488.1"
       y2="738.70001" />
  </defs>
  <g
     inkscape:groupmode="layer"
     id="layer1"
     inkscape:label="Name">
    <g
       id="g19"
       transform="matrix(0.88786291,0,0,0.88786291,-43.771642,-42.084704)"
       style="display:inline"
       inkscape:label="Outline">
      <path
         class="cls-3"
         d="m 115.2,668.7 c 6.7,0 12.7,0.6 18.2,1.8 5.5,1.2 10.2,3.1 14.1,5.8 3.9,2.7 7,6.2 9.1,10.7 2.2,4.4 3.2,9.9 3.2,16.5 0,6.6 -1.6,12.9 -4.8,17.6 -3.2,4.7 -7.9,8.6 -14.2,11.6 8.6,2.5 15.1,6.8 19.3,13 4.2,6.2 6.4,13.7 6.4,22.5 0,8.8 -1.4,13.2 -4.1,18.3 -2.7,5.2 -6.4,9.4 -11.1,12.6 -4.6,3.3 -9.9,5.7 -15.9,7.3 -5.9,1.6 -12.1,2.4 -18.3,2.4 H 49.3 v -140 h 65.9 z m -4,56.6 c 5.5,0 10,-1.3 13.5,-3.9 3.5,-2.6 5.3,-6.9 5.3,-12.7 0,-5.8 -0.6,-5.9 -1.8,-8 -1.2,-2.1 -2.7,-3.7 -4.7,-4.9 -2,-1.2 -4.2,-2 -6.8,-2.5 -2.5,-0.5 -5.2,-0.7 -7.9,-0.7 H 80 v 32.7 z m 1.8,59.4 c 3,0 5.9,-0.3 8.6,-0.9 2.7,-0.6 5.2,-1.6 7.3,-2.9 2.1,-1.4 3.8,-3.2 5,-5.6 1.2,-2.4 1.9,-5.4 1.9,-9 0,-7.2 -2,-12.3 -6.1,-15.4 -4.1,-3.1 -9.4,-4.6 -16.1,-4.6 H 80.1 v 38.4 z"
         id="path12" />
      <path
         class="cls-3"
         d="m 256.2,668.7 c 6.3,0 11.9,1 17,3 5,2 9.3,4.8 12.9,8.3 3.6,3.5 6.3,7.6 8.2,12.3 1.9,4.6 2.8,9.6 2.8,15 0,8.2 -1.7,15.4 -5.2,21.4 -3.5,6 -9.1,10.6 -17,13.7 v 0.4 c 3.8,1 6.9,2.6 9.4,4.8 2.5,2.2 4.5,4.7 6.1,7.6 1.6,2.9 2.7,6.2 3.4,9.7 0.7,3.5 1.2,7.1 1.5,10.6 0.1,2.2 0.3,4.8 0.4,7.8 0.1,3 0.4,6.1 0.7,9.2 0.3,3.1 0.8,6.1 1.6,8.9 0.7,2.8 1.8,5.2 3.2,7.2 h -30.8 c -1.7,-4.4 -2.7,-9.7 -3.1,-15.9 -0.4,-6.1 -1,-12 -1.8,-17.6 -1,-7.3 -3.3,-12.7 -6.7,-16.1 -3.4,-3.4 -9,-5.1 -16.7,-5.1 h -30.8 v 54.7 h -30.8 v -140 H 256 Z M 245.3,732 c 7.1,0 12.4,-1.6 15.9,-4.7 3.5,-3.1 5.3,-8.2 5.3,-15.3 0,-7.1 -1.8,-11.7 -5.3,-14.8 -3.5,-3.1 -8.8,-4.6 -15.9,-4.6 H 211.6 V 732 Z"
         id="path13" />
      <path
         class="cls-3"
         d="m 389.5,668.7 52.4,140 h -32 l -10.6,-31.2 h -52.4 l -11,31.2 h -31 l 52.9,-140 h 31.6 z m 1.7,85.8 -17.6,-51.4 h -0.4 L 355,754.5 h 36.3 z"
         id="path14" />
      <path
         class="cls-3"
         d="m 478.8,668.7 58.4,93.9 h 0.4 v -93.9 h 28.8 v 140 H 535.6 L 477.4,715 H 477 v 93.7 h -28.8 v -140 z"
         id="path15" />
      <path
         class="cls-3"
         d="m 647.8,668.7 c 9,0 17.4,1.4 25.2,4.3 7.8,2.9 14.5,7.2 20.2,12.9 5.7,5.8 10.1,12.9 13.3,21.6 3.2,8.6 4.8,18.8 4.8,30.4 0,11.6 -1.3,19.6 -3.9,28.2 -2.6,8.6 -6.6,16.1 -11.9,22.4 -5.3,6.3 -11.9,11.2 -19.8,14.8 -7.9,3.6 -17.2,5.4 -27.9,5.4 h -60.4 v -140 z m -2.2,114.1 c 4.4,0 8.8,-0.7 12.9,-2.2 4.2,-1.4 7.9,-3.8 11.2,-7.2 3.3,-3.3 5.9,-7.7 7.8,-13 2,-5.4 2.9,-11.9 2.9,-19.6 0,-7.7 -0.7,-13.4 -2.1,-19.1 -1.4,-5.7 -3.6,-10.6 -6.8,-14.6 -3.1,-4.1 -7.3,-7.2 -12.5,-9.3 -5.2,-2.2 -11.5,-3.2 -19.1,-3.2 h -22 v 88.2 h 27.5 z"
         id="path16" />
      <path
         class="cls-3"
         d="m 893.9,668.7 h 9.6 l -56.3,81.4 v 58.6 h -8.6 v -58.6 l -55.9,-81.4 h 9.8 l 50.6,74.1 z"
         id="path17" />
      <path
         class="cls-3"
         d="m 927.3,668.7 h 12.4 l 54.7,130.4 h 0.4 l 54.1,-130.4 h 12.4 v 140 h -8.6 V 679.3 h -0.4 L 999,808.7 h -8.6 L 936.5,679.3 h -0.4 v 129.4 h -8.6 v -140 z"
         id="path18" />
      <path
         class="cls-3"
         d="m 1087.6,668.7 h 8.6 v 132.6 h 79.4 v 7.5 h -88 v -140 z"
         id="path19" />
    </g>
    <g
       id="g27"
       transform="matrix(0.88786291,0,0,0.88786291,-43.771642,-42.084704)"
       inkscape:label="Letters">
      <path
         class="cls-2"
         d="m 115.2,668.7 c 6.7,0 12.7,0.6 18.2,1.8 5.5,1.2 10.2,3.1 14.1,5.8 3.9,2.7 7,6.2 9.1,10.7 2.2,4.4 3.2,9.9 3.2,16.5 0,6.6 -1.6,12.9 -4.8,17.6 -3.2,4.7 -7.9,8.6 -14.2,11.6 8.6,2.5 15.1,6.8 19.3,13 4.2,6.2 6.4,13.7 6.4,22.5 0,8.8 -1.4,13.2 -4.1,18.3 -2.7,5.2 -6.4,9.4 -11.1,12.6 -4.6,3.3 -9.9,5.7 -15.9,7.3 -5.9,1.6 -12.1,2.4 -18.3,2.4 H 49.3 v -140 h 65.9 z m -4,56.6 c 5.5,0 10,-1.3 13.5,-3.9 3.5,-2.6 5.3,-6.9 5.3,-12.7 0,-5.8 -0.6,-5.9 -1.8,-8 -1.2,-2.1 -2.7,-3.7 -4.7,-4.9 -2,-1.2 -4.2,-2 -6.8,-2.5 -2.5,-0.5 -5.2,-0.7 -7.9,-0.7 H 80 v 32.7 z m 1.8,59.4 c 3,0 5.9,-0.3 8.6,-0.9 2.7,-0.6 5.2,-1.6 7.3,-2.9 2.1,-1.4 3.8,-3.2 5,-5.6 1.2,-2.4 1.9,-5.4 1.9,-9 0,-7.2 -2,-12.3 -6.1,-15.4 -4.1,-3.1 -9.4,-4.6 -16.1,-4.6 H 80.1 v 38.4 z"
         id="path20"
         style="fill:url(#linearGradient32)" />
      <path
         class="cls-2"
         d="m 256.2,668.7 c 6.3,0 11.9,1 17,3 5,2 9.3,4.8 12.9,8.3 3.6,3.5 6.3,7.6 8.2,12.3 1.9,4.6 2.8,9.6 2.8,15 0,8.2 -1.7,15.4 -5.2,21.4 -3.5,6 -9.1,10.6 -17,13.7 v 0.4 c 3.8,1 6.9,2.6 9.4,4.8 2.5,2.2 4.5,4.7 6.1,7.6 1.6,2.9 2.7,6.2 3.4,9.7 0.7,3.5 1.2,7.1 1.5,10.6 0.1,2.2 0.3,4.8 0.4,7.8 0.1,3 0.4,6.1 0.7,9.2 0.3,3.1 0.8,6.1 1.6,8.9 0.7,2.8 1.8,5.2 3.2,7.2 h -30.8 c -1.7,-4.4 -2.7,-9.7 -3.1,-15.9 -0.4,-6.1 -1,-12 -1.8,-17.6 -1,-7.3 -3.3,-12.7 -6.7,-16.1 -3.4,-3.4 -9,-5.1 -16.7,-5.1 h -30.8 v 54.7 h -30.8 v -140 H 256 Z M 245.3,732 c 7.1,0 12.4,-1.6 15.9,-4.7 3.5,-3.1 5.3,-8.2 5.3,-15.3 0,-7.1 -1.8,-11.7 -5.3,-14.8 -3.5,-3.1 -8.8,-4.6 -15.9,-4.6 H 211.6 V 732 Z"
         id="path21"
         style="fill:url(#linearGradient33)" />
      <path
         class="cls-2"
         d="m 389.5,668.7 52.4,140 h -32 l -10.6,-31.2 h -52.4 l -11,31.2 h -31 l 52.9,-140 h 31.6 z m 1.7,85.8 -17.6,-51.4 h -0.4 L 355,754.5 h 36.3 z"
         id="path22"
         style="fill:url(#linearGradient34)" />
      <path
         class="cls-2"
         d="m 478.8,668.7 58.4,93.9 h 0.4 v -93.9 h 28.8 v 140 H 535.6 L 477.4,715 H 477 v 93.7 h -28.8 v -140 z"
         id="path23"
         style="fill:url(#linearGradient35)" />
      <path
         class="cls-2"
         d="m 647.8,668.7 c 9,0 17.4,1.4 25.2,4.3 7.8,2.9 14.5,7.2 20.2,12.9 5.7,5.8 10.1,12.9 13.3,21.6 3.2,8.6 4.8,18.8 4.8,30.4 0,11.6 -1.3,19.6 -3.9,28.2 -2.6,8.6 -6.6,16.1 -11.9,22.4 -5.3,6.3 -11.9,11.2 -19.8,14.8 -7.9,3.6 -17.2,5.4 -27.9,5.4 h -60.4 v -140 z m -2.2,114.1 c 4.4,0 8.8,-0.7 12.9,-2.2 4.2,-1.4 7.9,-3.8 11.2,-7.2 3.3,-3.3 5.9,-7.7 7.8,-13 2,-5.4 2.9,-11.9 2.9,-19.6 0,-7.7 -0.7,-13.4 -2.1,-19.1 -1.4,-5.7 -3.6,-10.6 -6.8,-14.6 -3.1,-4.1 -7.3,-7.2 -12.5,-9.3 -5.2,-2.2 -11.5,-3.2 -19.1,-3.2 h -22 v 88.2 h 27.5 z"
         id="path24"
         style="fill:url(#linearGradient36)" />
      <path
         class="cls-2"
         d="m 893.9,668.7 h 9.6 l -56.3,81.4 v 58.6 h -8.6 v -58.6 l -55.9,-81.4 h 9.8 l 50.6,74.1 z"
         id="path25"
         style="fill:url(#linearGradient37)" />
      <path
         class="cls-2"
         d="m 927.3,668.7 h 12.4 l 54.7,130.4 h 0.4 l 54.1,-130.4 h 12.4 v 140 h -8.6 V 679.3 h -0.4 L 999,808.7 h -8.6 L 936.5,679.3 h -0.4 v 129.4 h -8.6 v -140 z"
         id="path26"
         style="fill:url(#linearGradient38)" />
      <path
         class="cls-2"
         d="m 1087.6,668.7 h 8.6 v 132.6 h 79.4 v 7.5 h -88 v -140 z"
         id="path27"
         style="fill:url(#linearGradient39)" />
    </g>
    <circle
       class="cls-1"
       cx="632.15839"
       cy="668.20563"
       r="7.6356215"
       id="circle32"
       inkscape:label="Point" />
  </g>
  <g
     inkscape:groupmode="layer"
     id="layer2"
     inkscape:label="Icon">
    <rect
       class="cls-4"
       x="266.44766"
       y="-7.1122872e-07"
       width="464.97382"
       height="464.97382"
       rx="232.5313"
       ry="232.5313"
       id="rect28"
       style="fill:url(#linear-gradient-2)"
       inkscape:label="Circle" />
    <g
       id="g31"
       transform="matrix(0.88786291,0,0,0.88786291,-43.771642,-42.084704)"
       inkscape:label="Brush">
      <g
         id="g30">
        <polygon
           class="cls-5"
           points="712.4,309.6 533.3,308.5 533.3,352.2 712.4,353.3 "
           id="polygon28" />
        <polygon
           class="cls-5"
           points="712.4,367 712.4,356.7 533.3,355.6 533.3,365.9 "
           id="polygon29" />
        <polygon
           class="cls-5"
           points="533.3,305.1 712.4,306.2 712.4,295.9 533.3,294.8 "
           id="polygon30" />
      </g>
      <path
         class="cls-5"
         d="m 712.4,292.8 v -4.3 c 0,-1.6 -1.5,-3.2 -4.1,-4.1 -14.1,-5 -59.3,-21 -61,-52.8 -1.1,-20.1 3.1,-28.2 9.9,-55.6 7.3,-29.1 -23.7,-53.6 -33.8,-53.7 -10.2,0 -41.2,23.9 -34.1,53.1 6.7,27.5 10.9,35.6 9.7,55.7 -1.9,31.7 -47.1,47 -61.2,51.8 -2.6,0.9 -4.4,2.4 -4.4,4 v 4.3 l 179.1,1.4 z"
         id="path30" />
      <path
         class="cls-5"
         d="m 533.3,369.5 c -0.1,7.4 -0.3,29.8 -3.7,49.8 -4.1,24.4 -10.3,43.5 -19.4,60.4 l 18.7,-3.7 c 6.6,-9.1 14.4,-33.6 14.4,-33.6 0,0 -2.7,21.4 -8.2,32.4 l 23.1,-4.6 c 15.9,-26.8 23.8,-77.3 23.8,-77.3 0,0 -5.2,52 -16.6,75.9 L 641,453.9 c 9.5,-16.6 26.4,-70.1 26.4,-70.1 0,0 -4.8,46.3 -14.7,67.8 l 7.8,-1.6 c 9.7,-9.6 26,-63.1 26,-63.1 0,0 -4.4,44.2 -14.8,60.9 l 16.4,-3.3 c 5,-5.9 14.2,-20.9 17.3,-30.4 2.9,-9 7.4,-36.1 7,-43.4 l -179.1,-1.1 z"
         id="path31" />
    </g>
  </g>
</svg>
