<?xml version="1.0" encoding="UTF-8" standalone="no"?>
<svg
   id="_ÎÓÈ_1"
   data-name="—ÎÓÈ_1"
   version="1.1"
   viewBox="0 0 999.99996 676.55201"
   sodipodi:docname="logo-black.svg"
   width="1000"
   height="676.552"
   inkscape:version="1.4 (e7c3feb100, 2024-10-09)"
   inkscape:export-filename="logo-black-rgb-96-dpi.png"
   inkscape:export-xdpi="96"
   inkscape:export-ydpi="96"
   xmlns:inkscape="http://www.inkscape.org/namespaces/inkscape"
   xmlns:sodipodi="http://sodipodi.sourceforge.net/DTD/sodipodi-0.dtd"
   xmlns="http://www.w3.org/2000/svg"
   xmlns:svg="http://www.w3.org/2000/svg">
  <sodipodi:namedview
     id="namedview17"
     pagecolor="#505050"
     bordercolor="#eeeeee"
     borderopacity="1"
     inkscape:showpageshadow="0"
     inkscape:pageopacity="0"
     inkscape:pagecheckerboard="0"
     inkscape:deskcolor="#505050"
     inkscape:zoom="0.66435687"
     inkscape:cx="435.00717"
     inkscape:cy="306.31127"
     inkscape:window-width="1920"
     inkscape:window-height="1020"
     inkscape:window-x="0"
     inkscape:window-y="28"
     inkscape:window-maximized="1"
     inkscape:current-layer="layer2" />
  <defs
     id="defs1">
    <style
       id="style1">
      .cls-1 {
        fill: #000;
        stroke-width: 0px;
      }
    </style>
  </defs>
  <g
     inkscape:groupmode="layer"
     id="layer2"
     inkscape:label="Name">
    <g
       id="g8"
       style="display:inline"
       transform="matrix(0.88786352,0,0,0.88786352,-45.014681,-42.084731)">
      <path
         class="cls-1"
         d="m 116.6,669.3 c 6.7,0 12.7,0.6 18.2,1.8 5.5,1.2 10.2,3.1 14.1,5.8 3.9,2.7 7,6.2 9.1,10.7 2.2,4.4 3.2,9.9 3.2,16.5 0,6.6 -1.6,12.9 -4.8,17.6 -3.2,4.7 -7.9,8.6 -14.2,11.6 8.6,2.5 15.1,6.8 19.3,13 4.2,6.2 6.4,13.7 6.4,22.5 0,8.8 -1.4,13.2 -4.1,18.3 -2.7,5.2 -6.4,9.4 -11.1,12.6 -4.6,3.3 -9.9,5.7 -15.9,7.3 -5.9,1.6 -12.1,2.4 -18.3,2.4 H 50.7 v -140 h 65.9 z m -3.9,56.7 c 5.5,0 10,-1.3 13.5,-3.9 3.5,-2.6 5.3,-6.9 5.3,-12.7 0,-5.8 -0.6,-5.9 -1.8,-8 -1.2,-2.1 -2.7,-3.7 -4.7,-4.9 -2,-1.2 -4.2,-2 -6.8,-2.5 -2.5,-0.5 -5.2,-0.7 -7.9,-0.7 H 81.5 V 726 Z m 1.7,59.4 c 3,0 5.9,-0.3 8.6,-0.9 2.7,-0.6 5.2,-1.6 7.3,-2.9 2.1,-1.4 3.8,-3.2 5,-5.6 1.2,-2.4 1.9,-5.4 1.9,-9 0,-7.2 -2,-12.3 -6.1,-15.4 C 127,748.5 121.7,747 115,747 H 81.5 v 38.4 z"
         id="path1" />
      <path
         class="cls-1"
         d="m 257.7,669.3 c 6.3,0 11.9,1 17,3 5,2 9.3,4.8 12.9,8.3 3.6,3.5 6.3,7.6 8.2,12.3 1.9,4.6 2.8,9.6 2.8,15 0,8.2 -1.7,15.4 -5.2,21.4 -3.5,6 -9.1,10.6 -17,13.7 v 0.4 c 3.8,1 6.9,2.6 9.4,4.8 2.5,2.2 4.5,4.7 6.1,7.6 1.6,2.9 2.7,6.2 3.4,9.7 0.7,3.5 1.2,7.1 1.5,10.6 0.1,2.2 0.3,4.8 0.4,7.8 0.1,3 0.4,6.1 0.7,9.2 0.3,3.1 0.8,6.1 1.6,8.9 0.7,2.8 1.8,5.2 3.2,7.2 h -30.8 c -1.7,-4.4 -2.7,-9.7 -3.1,-15.9 -0.4,-6.1 -1,-12 -1.8,-17.6 -1,-7.3 -3.3,-12.7 -6.7,-16.1 -3.4,-3.4 -9,-5.1 -16.7,-5.1 h -30.8 v 54.7 H 182 v -140 h 75.5 z m -11,63.3 c 7.1,0 12.4,-1.6 15.9,-4.7 3.5,-3.1 5.3,-8.2 5.3,-15.3 0,-7.1 -1.8,-11.7 -5.3,-14.8 -3.5,-3.1 -8.8,-4.6 -15.9,-4.6 H 213 v 39.4 z"
         id="path2" />
      <path
         class="cls-1"
         d="m 390.9,669.3 52.4,140 h -32 l -10.6,-31.2 h -52.4 l -11,31.2 h -31 l 52.9,-140 h 31.6 z m 1.8,85.9 -17.6,-51.4 h -0.4 l -18.2,51.4 h 36.3 z"
         id="path3" />
      <path
         class="cls-1"
         d="m 480.2,669.3 58.4,93.9 h 0.4 v -93.9 h 28.8 v 140 H 537 l -58.2,-93.7 h -0.4 v 93.7 h -28.8 v -140 z"
         id="path4" />
      <path
         class="cls-1"
         d="m 649.2,669.3 c 9,0 17.4,1.4 25.2,4.3 7.8,2.9 14.5,7.2 20.2,12.9 5.7,5.8 10.1,12.9 13.3,21.6 3.2,8.6 4.8,18.8 4.8,30.4 0,11.6 -1.3,19.6 -3.9,28.2 -2.6,8.6 -6.6,16.1 -11.9,22.4 -5.3,6.3 -11.9,11.2 -19.8,14.8 -7.9,3.6 -17.2,5.4 -27.9,5.4 h -60.4 v -140 z M 647,783.4 c 4.4,0 8.8,-0.7 12.9,-2.2 4.2,-1.4 7.9,-3.8 11.2,-7.2 3.3,-3.3 5.9,-7.7 7.8,-13 2,-5.4 2.9,-11.9 2.9,-19.6 0,-7.7 -0.7,-13.4 -2.1,-19.1 -1.4,-5.7 -3.6,-10.6 -6.8,-14.6 -3.1,-4.1 -7.3,-7.2 -12.5,-9.3 -5.2,-2.2 -11.5,-3.2 -19.1,-3.2 h -22 v 88.2 h 27.5 z"
         id="path5" />
      <path
         class="cls-1"
         d="m 895.4,669.3 h 9.6 l -56.3,81.4 v 58.6 h -8.6 v -58.6 l -55.9,-81.4 h 9.8 l 50.6,74.1 z"
         id="path6" />
      <path
         class="cls-1"
         d="m 928.7,669.3 h 12.4 l 54.7,130.4 h 0.4 l 54.1,-130.4 h 12.4 v 140 h -8.6 V 679.9 h -0.4 l -53.3,129.4 h -8.6 L 937.9,679.9 h -0.4 v 129.4 h -8.6 v -140 z"
         id="path7" />
      <path
         class="cls-1"
         d="m 1089,669.3 h 8.6 v 132.6 h 79.4 v 7.5 h -88 v -140 z"
         id="path8" />
    </g>
    <g
       id="g16"
       style="display:inline"
       transform="matrix(0.88786352,0,0,0.88786352,-45.014681,-42.084731)">
      <path
         class="cls-1"
         d="m 116.6,669.3 c 6.7,0 12.7,0.6 18.2,1.8 5.5,1.2 10.2,3.1 14.1,5.8 3.9,2.7 7,6.2 9.1,10.7 2.2,4.4 3.2,9.9 3.2,16.5 0,6.6 -1.6,12.9 -4.8,17.6 -3.2,4.7 -7.9,8.6 -14.2,11.6 8.6,2.5 15.1,6.8 19.3,13 4.2,6.2 6.4,13.7 6.4,22.5 0,8.8 -1.4,13.2 -4.1,18.3 -2.7,5.2 -6.4,9.4 -11.1,12.6 -4.6,3.3 -9.9,5.7 -15.9,7.3 -5.9,1.6 -12.1,2.4 -18.3,2.4 H 50.7 v -140 h 65.9 z m -3.9,56.7 c 5.5,0 10,-1.3 13.5,-3.9 3.5,-2.6 5.3,-6.9 5.3,-12.7 0,-5.8 -0.6,-5.9 -1.8,-8 -1.2,-2.1 -2.7,-3.7 -4.7,-4.9 -2,-1.2 -4.2,-2 -6.8,-2.5 -2.5,-0.5 -5.2,-0.7 -7.9,-0.7 H 81.5 V 726 Z m 1.7,59.4 c 3,0 5.9,-0.3 8.6,-0.9 2.7,-0.6 5.2,-1.6 7.3,-2.9 2.1,-1.4 3.8,-3.2 5,-5.6 1.2,-2.4 1.9,-5.4 1.9,-9 0,-7.2 -2,-12.3 -6.1,-15.4 C 127,748.5 121.7,747 115,747 H 81.5 v 38.4 z"
         id="path9" />
      <path
         class="cls-1"
         d="m 257.7,669.3 c 6.3,0 11.9,1 17,3 5,2 9.3,4.8 12.9,8.3 3.6,3.5 6.3,7.6 8.2,12.3 1.9,4.6 2.8,9.6 2.8,15 0,8.2 -1.7,15.4 -5.2,21.4 -3.5,6 -9.1,10.6 -17,13.7 v 0.4 c 3.8,1 6.9,2.6 9.4,4.8 2.5,2.2 4.5,4.7 6.1,7.6 1.6,2.9 2.7,6.2 3.4,9.7 0.7,3.5 1.2,7.1 1.5,10.6 0.1,2.2 0.3,4.8 0.4,7.8 0.1,3 0.4,6.1 0.7,9.2 0.3,3.1 0.8,6.1 1.6,8.9 0.7,2.8 1.8,5.2 3.2,7.2 h -30.8 c -1.7,-4.4 -2.7,-9.7 -3.1,-15.9 -0.4,-6.1 -1,-12 -1.8,-17.6 -1,-7.3 -3.3,-12.7 -6.7,-16.1 -3.4,-3.4 -9,-5.1 -16.7,-5.1 h -30.8 v 54.7 H 182 v -140 h 75.5 z m -11,63.3 c 7.1,0 12.4,-1.6 15.9,-4.7 3.5,-3.1 5.3,-8.2 5.3,-15.3 0,-7.1 -1.8,-11.7 -5.3,-14.8 -3.5,-3.1 -8.8,-4.6 -15.9,-4.6 H 213 v 39.4 z"
         id="path10" />
      <path
         class="cls-1"
         d="m 390.9,669.3 52.4,140 h -32 l -10.6,-31.2 h -52.4 l -11,31.2 h -31 l 52.9,-140 h 31.6 z m 1.8,85.9 -17.6,-51.4 h -0.4 l -18.2,51.4 h 36.3 z"
         id="path11" />
      <path
         class="cls-1"
         d="m 480.2,669.3 58.4,93.9 h 0.4 v -93.9 h 28.8 v 140 H 537 l -58.2,-93.7 h -0.4 v 93.7 h -28.8 v -140 z"
         id="path12" />
      <path
         class="cls-1"
         d="m 649.2,669.3 c 9,0 17.4,1.4 25.2,4.3 7.8,2.9 14.5,7.2 20.2,12.9 5.7,5.8 10.1,12.9 13.3,21.6 3.2,8.6 4.8,18.8 4.8,30.4 0,11.6 -1.3,19.6 -3.9,28.2 -2.6,8.6 -6.6,16.1 -11.9,22.4 -5.3,6.3 -11.9,11.2 -19.8,14.8 -7.9,3.6 -17.2,5.4 -27.9,5.4 h -60.4 v -140 z M 647,783.4 c 4.4,0 8.8,-0.7 12.9,-2.2 4.2,-1.4 7.9,-3.8 11.2,-7.2 3.3,-3.3 5.9,-7.7 7.8,-13 2,-5.4 2.9,-11.9 2.9,-19.6 0,-7.7 -0.7,-13.4 -2.1,-19.1 -1.4,-5.7 -3.6,-10.6 -6.8,-14.6 -3.1,-4.1 -7.3,-7.2 -12.5,-9.3 -5.2,-2.2 -11.5,-3.2 -19.1,-3.2 h -22 v 88.2 h 27.5 z"
         id="path13" />
      <path
         class="cls-1"
         d="m 895.4,669.3 h 9.6 l -56.3,81.4 v 58.6 h -8.6 v -58.6 l -55.9,-81.4 h 9.8 l 50.6,74.1 z"
         id="path14" />
      <path
         class="cls-1"
         d="m 928.7,669.3 h 12.4 l 54.7,130.4 h 0.4 l 54.1,-130.4 h 12.4 v 140 h -8.6 V 679.9 h -0.4 l -53.3,129.4 h -8.6 L 937.9,679.9 h -0.4 v 129.4 h -8.6 v -140 z"
         id="path15" />
      <path
         class="cls-1"
         d="m 1089,669.3 h 8.6 v 132.6 h 79.4 v 7.5 h -88 v -140 z"
         id="path16" />
    </g>
    <circle
       class="cls-1"
       cx="632.69153"
       cy="668.82758"
       r="7.6356268"
       id="circle17" />
  </g>
  <g
     inkscape:groupmode="layer"
     id="layer3"
     inkscape:label="Icon">
    <path
       class="cls-1"
       d="M 500.04473,0 V 0 C 371.65967,0 267.51328,104.0576 267.51328,232.53146 v 0 c 0,128.38506 104.0576,232.53145 232.53145,232.53145 v 0 c 128.38507,0 232.53146,-104.0576 232.53146,-232.53145 v 0 C 732.57619,104.14639 628.51859,0 500.04473,0 Z m -68.987,220.36773 158.75,0.97664 v 9.145 l -158.75,-0.97665 z m 0,12.16373 158.75,0.97665 v 38.79964 l -158.75,-0.97665 z m 0,41.72958 158.75,0.97665 v 9.14499 l -158.75,-0.97665 z m 152.53496,51.22972 c -2.75237,8.43471 -10.83193,21.84145 -15.36004,26.99106 l -14.56096,2.92994 c 9.23378,-14.82732 13.14038,-54.07088 13.14038,-54.07088 0,0 -14.47217,47.5007 -23.08445,56.02418 l -6.92533,1.42059 c 8.78984,-19.08907 13.05159,-60.19715 13.05159,-60.19715 0,0 -14.9161,47.5007 -23.4396,62.23924 l -67.12248,13.22917 c 10.12164,-21.21995 14.73853,-67.38885 14.73853,-67.38885 0,0 -7.01412,44.92589 -21.13115,68.63185 l -20.50964,4.08417 c 4.88325,-9.67771 7.28047,-28.76678 7.28047,-28.76678 0,0 -6.92533,21.75266 -12.78523,29.83222 l -16.60305,3.28509 c 8.07957,-14.91611 13.58432,-31.8743 17.22455,-53.62695 3.01874,-17.66849 3.37388,-37.55663 3.46267,-44.2156 l 158.75,0.97665 c 0.35514,6.57018 -3.64024,30.63129 -6.21504,38.53327 z m 6.21504,-107.60905 -158.75,-1.24301 v -3.81781 c 0,-1.42059 1.4206,-2.75238 3.72904,-3.55146 12.51888,-4.26174 52.73909,-17.84606 54.33724,-45.99133 1.06544,-17.84605 -2.66359,-25.03775 -8.61227,-49.45399 -6.30384,-25.92562 21.21993,-47.234344 30.27614,-47.145564 9.05622,0 36.49119,21.841445 30.00979,47.678274 -6.12625,24.32746 -9.7665,31.43037 -8.78985,49.36521 1.50937,28.23406 41.6408,42.43988 54.15968,46.87919 2.30844,0.79908 3.64023,2.21967 3.64023,3.64025 v 3.81781 z"
       id="path17" />
  </g>
</svg>
