<?xml version="1.0" encoding="UTF-8" standalone="no"?>
<svg
   id="_ÎÓÈ_1"
   data-name="—ÎÓÈ_1"
   version="1.1"
   viewBox="0 0 1000 241.61199"
   sodipodi:docname="logo-wide-white.svg"
   width="1000"
   height="241.612"
   inkscape:version="1.4 (e7c3feb100, 2024-10-09)"
   inkscape:export-filename="logo-wide-white-rgb-96-dpi.png"
   inkscape:export-xdpi="96"
   inkscape:export-ydpi="96"
   xmlns:inkscape="http://www.inkscape.org/namespaces/inkscape"
   xmlns:sodipodi="http://sodipodi.sourceforge.net/DTD/sodipodi-0.dtd"
   xmlns="http://www.w3.org/2000/svg"
   xmlns:svg="http://www.w3.org/2000/svg">
  <sodipodi:namedview
     id="namedview17"
     pagecolor="#505050"
     bordercolor="#eeeeee"
     borderopacity="1"
     inkscape:showpageshadow="0"
     inkscape:pageopacity="0"
     inkscape:pagecheckerboard="0"
     inkscape:deskcolor="#505050"
     inkscape:zoom="0.7810244"
     inkscape:cx="497.42364"
     inkscape:cy="214.46193"
     inkscape:window-width="1920"
     inkscape:window-height="1020"
     inkscape:window-x="0"
     inkscape:window-y="28"
     inkscape:window-maximized="1"
     inkscape:current-layer="layer2" />
  <defs
     id="defs1">
    <style
       id="style1">
      .cls-1 {
        fill: #fff;
        stroke-width: 0px;
      }
    </style>
  </defs>
  <g
     inkscape:groupmode="layer"
     id="layer2"
     inkscape:label="Name">
    <g
       id="g17"
       inkscape:label="Letters"
       transform="scale(0.6295258)">
      <g
         id="g8">
        <path
           class="cls-1"
           d="m 528.1,123.1 c 6.7,0 12.7,0.6 18.2,1.8 5.5,1.2 10.2,3.1 14.1,5.8 3.9,2.7 7,6.2 9.1,10.7 2.2,4.4 3.2,9.9 3.2,16.5 0,6.6 -1.6,12.9 -4.8,17.6 -3.2,4.7 -7.9,8.6 -14.2,11.6 8.6,2.5 15.1,6.8 19.3,13 4.2,6.2 6.4,13.7 6.4,22.5 0,8.8 -1.4,13.2 -4.1,18.3 -2.7,5.2 -6.4,9.4 -11.1,12.6 -4.6,3.3 -9.9,5.7 -15.9,7.3 -5.9,1.6 -12.1,2.4 -18.3,2.4 H 462.2 V 123.1 Z m -3.9,56.7 c 5.5,0 10,-1.3 13.5,-3.9 3.5,-2.6 5.3,-6.9 5.3,-12.7 0,-5.8 -0.6,-5.9 -1.8,-8 -1.2,-2.1 -2.7,-3.7 -4.7,-4.9 -2,-1.2 -4.2,-2 -6.8,-2.5 -2.5,-0.5 -5.2,-0.7 -7.9,-0.7 H 493 v 32.7 z m 1.7,59.4 c 3,0 5.9,-0.3 8.6,-0.9 2.7,-0.6 5.2,-1.6 7.3,-2.9 2.1,-1.4 3.8,-3.2 5,-5.6 1.2,-2.4 1.9,-5.4 1.9,-9 0,-7.2 -2,-12.3 -6.1,-15.4 -4.1,-3.1 -9.4,-4.6 -16.1,-4.6 H 493 v 38.4 z"
           id="path1" />
        <path
           class="cls-1"
           d="m 669.2,123.1 c 6.3,0 11.9,1 17,3 5,2 9.3,4.8 12.9,8.3 3.6,3.5 6.3,7.6 8.2,12.3 1.9,4.6 2.8,9.6 2.8,15 0,8.2 -1.7,15.4 -5.2,21.4 -3.5,6 -9.1,10.6 -17,13.7 v 0.4 c 3.8,1 6.9,2.6 9.4,4.8 2.5,2.2 4.5,4.7 6.1,7.6 1.6,2.9 2.7,6.2 3.4,9.7 0.7,3.5 1.2,7.1 1.5,10.6 0.1,2.2 0.3,4.8 0.4,7.8 0.1,3 0.4,6.1 0.7,9.2 0.3,3.1 0.8,6.1 1.6,8.9 0.7,2.8 1.8,5.2 3.2,7.2 h -30.8 c -1.7,-4.4 -2.7,-9.7 -3.1,-15.9 -0.4,-6.1 -1,-12 -1.8,-17.6 -1,-7.3 -3.3,-12.7 -6.7,-16.1 -3.4,-3.4 -9,-5.1 -16.7,-5.1 H 624.3 V 263 H 593.5 V 123.1 H 669 Z m -11,63.4 c 7.1,0 12.4,-1.6 15.9,-4.7 3.5,-3.1 5.3,-8.2 5.3,-15.3 0,-7.1 -1.8,-11.7 -5.3,-14.8 -3.5,-3.1 -8.8,-4.6 -15.9,-4.6 h -33.7 v 39.4 z"
           id="path2" />
        <path
           class="cls-1"
           d="m 802.4,123.1 52.4,140 h -32 l -10.6,-31.2 h -52.4 l -11,31.2 h -31 l 52.9,-140 h 31.6 z m 1.7,85.9 -17.6,-51.4 h -0.4 L 767.9,209 h 36.3 z"
           id="path3" />
        <path
           class="cls-1"
           d="m 891.7,123.1 58.4,93.9 h 0.4 v -93.9 h 28.8 v 140 h -30.8 l -58.2,-93.7 h -0.4 v 93.7 h -28.8 v -140 z"
           id="path4" />
        <path
           class="cls-1"
           d="m 1060.7,123.1 c 9,0 17.4,1.4 25.2,4.3 7.8,2.9 14.5,7.2 20.2,12.9 5.7,5.8 10.1,12.9 13.3,21.6 3.2,8.6 4.8,18.8 4.8,30.4 0,11.6 -1.3,19.6 -3.9,28.2 -2.6,8.6 -6.6,16.1 -11.9,22.4 -5.3,6.3 -11.9,11.2 -19.8,14.8 -7.9,3.6 -17.2,5.4 -27.9,5.4 h -60.4 v -140 z m -2.2,114.2 c 4.4,0 8.8,-0.7 12.9,-2.2 4.2,-1.4 7.9,-3.8 11.2,-7.2 3.3,-3.3 5.9,-7.7 7.8,-13 2,-5.4 2.9,-11.9 2.9,-19.6 0,-7.7 -0.7,-13.4 -2.1,-19.1 -1.4,-5.7 -3.6,-10.6 -6.8,-14.6 -3.1,-4.1 -7.3,-7.2 -12.5,-9.3 -5.2,-2.2 -11.5,-3.2 -19.1,-3.2 h -22 v 88.2 h 27.5 z"
           id="path5" />
        <path
           class="cls-1"
           d="m 1306.9,123.1 h 9.6 l -56.3,81.4 v 58.6 h -8.6 v -58.6 l -55.9,-81.4 h 9.8 l 50.6,74.1 z"
           id="path6" />
        <path
           class="cls-1"
           d="m 1340.2,123.1 h 12.4 l 54.7,130.4 h 0.4 l 54.1,-130.4 h 12.4 v 140 h -8.6 V 133.7 h -0.4 l -53.3,129.4 h -8.6 l -53.9,-129.4 h -0.4 v 129.4 h -8.6 v -140 z"
           id="path7" />
        <path
           class="cls-1"
           d="m 1500.5,123.1 h 8.6 v 132.6 h 79.4 v 7.5 h -88 z"
           id="path8" />
      </g>
      <g
         id="g16">
        <path
           class="cls-1"
           d="m 528.1,123.1 c 6.7,0 12.7,0.6 18.2,1.8 5.5,1.2 10.2,3.1 14.1,5.8 3.9,2.7 7,6.2 9.1,10.7 2.2,4.4 3.2,9.9 3.2,16.5 0,6.6 -1.6,12.9 -4.8,17.6 -3.2,4.7 -7.9,8.6 -14.2,11.6 8.6,2.5 15.1,6.8 19.3,13 4.2,6.2 6.4,13.7 6.4,22.5 0,8.8 -1.4,13.2 -4.1,18.3 -2.7,5.2 -6.4,9.4 -11.1,12.6 -4.6,3.3 -9.9,5.7 -15.9,7.3 -5.9,1.6 -12.1,2.4 -18.3,2.4 H 462.2 V 123.1 Z m -3.9,56.7 c 5.5,0 10,-1.3 13.5,-3.9 3.5,-2.6 5.3,-6.9 5.3,-12.7 0,-5.8 -0.6,-5.9 -1.8,-8 -1.2,-2.1 -2.7,-3.7 -4.7,-4.9 -2,-1.2 -4.2,-2 -6.8,-2.5 -2.5,-0.5 -5.2,-0.7 -7.9,-0.7 H 493 v 32.7 z m 1.7,59.4 c 3,0 5.9,-0.3 8.6,-0.9 2.7,-0.6 5.2,-1.6 7.3,-2.9 2.1,-1.4 3.8,-3.2 5,-5.6 1.2,-2.4 1.9,-5.4 1.9,-9 0,-7.2 -2,-12.3 -6.1,-15.4 -4.1,-3.1 -9.4,-4.6 -16.1,-4.6 H 493 v 38.4 z"
           id="path9" />
        <path
           class="cls-1"
           d="m 669.2,123.1 c 6.3,0 11.9,1 17,3 5,2 9.3,4.8 12.9,8.3 3.6,3.5 6.3,7.6 8.2,12.3 1.9,4.6 2.8,9.6 2.8,15 0,8.2 -1.7,15.4 -5.2,21.4 -3.5,6 -9.1,10.6 -17,13.7 v 0.4 c 3.8,1 6.9,2.6 9.4,4.8 2.5,2.2 4.5,4.7 6.1,7.6 1.6,2.9 2.7,6.2 3.4,9.7 0.7,3.5 1.2,7.1 1.5,10.6 0.1,2.2 0.3,4.8 0.4,7.8 0.1,3 0.4,6.1 0.7,9.2 0.3,3.1 0.8,6.1 1.6,8.9 0.7,2.8 1.8,5.2 3.2,7.2 h -30.8 c -1.7,-4.4 -2.7,-9.7 -3.1,-15.9 -0.4,-6.1 -1,-12 -1.8,-17.6 -1,-7.3 -3.3,-12.7 -6.7,-16.1 -3.4,-3.4 -9,-5.1 -16.7,-5.1 H 624.3 V 263 H 593.5 V 123.1 H 669 Z m -11,63.4 c 7.1,0 12.4,-1.6 15.9,-4.7 3.5,-3.1 5.3,-8.2 5.3,-15.3 0,-7.1 -1.8,-11.7 -5.3,-14.8 -3.5,-3.1 -8.8,-4.6 -15.9,-4.6 h -33.7 v 39.4 z"
           id="path10" />
        <path
           class="cls-1"
           d="m 802.4,123.1 52.4,140 h -32 l -10.6,-31.2 h -52.4 l -11,31.2 h -31 l 52.9,-140 h 31.6 z m 1.7,85.9 -17.6,-51.4 h -0.4 L 767.9,209 h 36.3 z"
           id="path11" />
        <path
           class="cls-1"
           d="m 891.7,123.1 58.4,93.9 h 0.4 v -93.9 h 28.8 v 140 h -30.8 l -58.2,-93.7 h -0.4 v 93.7 h -28.8 v -140 z"
           id="path12" />
        <path
           class="cls-1"
           d="m 1060.7,123.1 c 9,0 17.4,1.4 25.2,4.3 7.8,2.9 14.5,7.2 20.2,12.9 5.7,5.8 10.1,12.9 13.3,21.6 3.2,8.6 4.8,18.8 4.8,30.4 0,11.6 -1.3,19.6 -3.9,28.2 -2.6,8.6 -6.6,16.1 -11.9,22.4 -5.3,6.3 -11.9,11.2 -19.8,14.8 -7.9,3.6 -17.2,5.4 -27.9,5.4 h -60.4 v -140 z m -2.2,114.2 c 4.4,0 8.8,-0.7 12.9,-2.2 4.2,-1.4 7.9,-3.8 11.2,-7.2 3.3,-3.3 5.9,-7.7 7.8,-13 2,-5.4 2.9,-11.9 2.9,-19.6 0,-7.7 -0.7,-13.4 -2.1,-19.1 -1.4,-5.7 -3.6,-10.6 -6.8,-14.6 -3.1,-4.1 -7.3,-7.2 -12.5,-9.3 -5.2,-2.2 -11.5,-3.2 -19.1,-3.2 h -22 v 88.2 h 27.5 z"
           id="path13" />
        <path
           class="cls-1"
           d="m 1306.9,123.1 h 9.6 l -56.3,81.4 v 58.6 h -8.6 v -58.6 l -55.9,-81.4 h 9.8 l 50.6,74.1 z"
           id="path14" />
        <path
           class="cls-1"
           d="m 1340.2,123.1 h 12.4 l 54.7,130.4 h 0.4 l 54.1,-130.4 h 12.4 v 140 h -8.6 V 133.7 h -0.4 l -53.3,129.4 h -8.6 l -53.9,-129.4 h -0.4 v 129.4 h -8.6 v -140 z"
           id="path15" />
        <path
           class="cls-1"
           d="m 1500.5,123.1 h 8.6 v 132.6 h 79.4 v 7.5 h -88 z"
           id="path16" />
      </g>
    </g>
    <circle
       class="cls-1"
       cx="739.37805"
       cy="160.21431"
       r="5.4139223"
       id="circle17"
       inkscape:label="Point" />
  </g>
  <g
     inkscape:groupmode="layer"
     id="layer1"
     inkscape:label="Icon">
    <path
       class="cls-1"
       d="M 120.806,0 V 0 C 54.076266,0 0,54.076266 0,120.806 v 0 c 0,66.72974 54.076266,120.806 120.806,120.806 v 0 c 66.72974,0 120.806,-54.07626 120.806,-120.806 v 0 C 241.54905,54.076266 187.47279,0 120.806,0 Z m -35.882969,114.44779 82.467879,0.50362 v 4.7844 l -82.467879,-0.50362 z m 0,6.35821 82.467879,0.50362 v 20.14483 l -82.467879,-0.50362 z m 0,21.71864 82.467879,0.50362 v 4.7844 l -82.467879,-0.50362 z m 79.257299,26.56599 c -1.38496,4.40668 -5.66573,11.33146 -7.99498,14.03843 l -7.55431,1.51086 c 4.7844,-7.68021 6.79888,-28.07685 6.79888,-28.07685 0,0 -7.49135,24.67741 -11.96099,29.08409 l -3.65125,0.69247 c 4.59554,-9.88354 6.79887,-31.28742 6.79887,-31.28742 0,0 -7.74316,24.6774 -12.14984,32.29467 l -34.875728,6.92479 c 5.288018,-11.01671 7.680218,-35.00164 7.680218,-35.00164 0,0 -3.65125,23.35541 -11.016705,35.69411 l -10.638986,2.07743 c 2.518103,-5.0362 3.777155,-14.91975 3.777155,-14.91975 0,0 -3.588297,11.26851 -6.672973,15.48633 l -8.624504,1.69972 c 4.217823,-7.74317 7.050689,-16.55653 8.939266,-27.82504 1.573815,-9.19108 1.762672,-19.51531 1.825626,-22.97769 l 82.467881,0.50362 c 0.18886,3.39943 -1.88858,15.927 -3.21058,20.01891 z m 3.27353,-55.90189 -82.467876,-0.62952 v -1.95154 c 0,-0.75543 0.75543,-1.44791 1.951529,-1.82562 6.484116,-2.20334 27.384377,-9.254031 28.265707,-23.921981 0.56657,-9.25403 -1.38495,-13.031185 -4.46963,-25.684653 -3.27353,-13.471853 11.0167,-24.551507 15.73814,-24.488555 4.6585,0 18.94873,11.331465 15.61225,24.740365 -3.14764,12.653468 -5.09916,16.367671 -4.59554,25.6217 0.81838,14.667951 21.65569,22.033404 28.1398,24.362644 1.1961,0.44067 1.88858,1.13315 1.88858,1.88858 v 1.95154 z"
       id="path17" />
  </g>
</svg>
