<?xml version="1.0" encoding="UTF-8" standalone="no"?>
<svg
   id="_ÎÓÈ_1"
   data-name="—ÎÓÈ_1"
   version="1.1"
   viewBox="0 0 999.99996 677.61699"
   sodipodi:docname="logo-white.svg"
   width="1000"
   height="677.617"
   inkscape:version="1.4 (e7c3feb100, 2024-10-09)"
   inkscape:export-filename="logo-white-rgb-96-dpi.png"
   inkscape:export-xdpi="96"
   inkscape:export-ydpi="96"
   xmlns:inkscape="http://www.inkscape.org/namespaces/inkscape"
   xmlns:sodipodi="http://sodipodi.sourceforge.net/DTD/sodipodi-0.dtd"
   xmlns="http://www.w3.org/2000/svg"
   xmlns:svg="http://www.w3.org/2000/svg">
  <sodipodi:namedview
     id="namedview17"
     pagecolor="#505050"
     bordercolor="#eeeeee"
     borderopacity="1"
     inkscape:showpageshadow="0"
     inkscape:pageopacity="0"
     inkscape:pagecheckerboard="0"
     inkscape:deskcolor="#505050"
     inkscape:zoom="0.46845903"
     inkscape:cx="494.17342"
     inkscape:cy="526.1933"
     inkscape:window-width="1920"
     inkscape:window-height="1020"
     inkscape:window-x="0"
     inkscape:window-y="28"
     inkscape:window-maximized="1"
     inkscape:current-layer="layer2" />
  <defs
     id="defs1">
    <style
       id="style1">
      .cls-1 {
        fill: #fff;
        stroke-width: 0px;
      }
    </style>
  </defs>
  <g
     inkscape:groupmode="layer"
     id="layer1"
     inkscape:label="Name">
    <g
       id="g17"
       transform="matrix(0.88786291,0,0,0.88786291,-45.01465,-42.084702)">
      <g
         id="g8">
        <path
           class="cls-1"
           d="m 116.6,670.5 c 6.7,0 12.7,0.6 18.2,1.8 5.5,1.2 10.2,3.1 14.1,5.8 3.9,2.7 7,6.2 9.1,10.7 2.2,4.4 3.2,9.9 3.2,16.5 0,6.6 -1.6,12.9 -4.8,17.6 -3.2,4.7 -7.9,8.6 -14.2,11.6 8.6,2.5 15.1,6.8 19.3,13 4.2,6.2 6.4,13.7 6.4,22.5 0,8.8 -1.4,13.2 -4.1,18.3 -2.7,5.2 -6.4,9.4 -11.1,12.6 -4.6,3.3 -9.9,5.7 -15.9,7.3 -5.9,1.6 -12.1,2.4 -18.3,2.4 H 50.7 v -140 h 65.9 z m -3.9,56.6 c 5.5,0 10,-1.3 13.5,-3.9 3.5,-2.6 5.3,-6.9 5.3,-12.7 0,-5.8 -0.6,-5.9 -1.8,-8 -1.2,-2.1 -2.7,-3.7 -4.7,-4.9 -2,-1.2 -4.2,-2 -6.8,-2.5 -2.5,-0.5 -5.2,-0.7 -7.9,-0.7 H 81.5 v 32.7 z m 1.7,59.5 c 3,0 5.9,-0.3 8.6,-0.9 2.7,-0.6 5.2,-1.6 7.3,-2.9 2.1,-1.4 3.8,-3.2 5,-5.6 1.2,-2.4 1.9,-5.4 1.9,-9 0,-7.2 -2,-12.3 -6.1,-15.4 -4.1,-3.1 -9.4,-4.6 -16.1,-4.6 H 81.5 v 38.4 z"
           id="path1" />
        <path
           class="cls-1"
           d="m 257.7,670.5 c 6.3,0 11.9,1 17,3 5,2 9.3,4.8 12.9,8.3 3.6,3.5 6.3,7.6 8.2,12.3 1.9,4.6 2.8,9.6 2.8,15 0,8.2 -1.7,15.4 -5.2,21.4 -3.5,6 -9.1,10.6 -17,13.7 v 0.4 c 3.8,1 6.9,2.6 9.4,4.8 2.5,2.2 4.5,4.7 6.1,7.6 1.6,2.9 2.7,6.2 3.4,9.7 0.7,3.5 1.2,7.1 1.5,10.6 0.1,2.2 0.3,4.8 0.4,7.8 0.1,3 0.4,6.1 0.7,9.2 0.3,3.1 0.8,6.1 1.6,8.9 0.7,2.8 1.8,5.2 3.2,7.2 h -30.8 c -1.7,-4.4 -2.7,-9.7 -3.1,-15.9 -0.4,-6.1 -1,-12 -1.8,-17.6 -1,-7.3 -3.3,-12.7 -6.7,-16.1 -3.4,-3.4 -9,-5.1 -16.7,-5.1 h -30.8 v 54.7 H 182 v -140 h 75.5 z m -11,63.3 c 7.1,0 12.4,-1.6 15.9,-4.7 3.5,-3.1 5.3,-8.2 5.3,-15.3 0,-7.1 -1.8,-11.7 -5.3,-14.8 -3.5,-3.1 -8.8,-4.6 -15.9,-4.6 H 213 v 39.4 z"
           id="path2" />
        <path
           class="cls-1"
           d="m 390.9,670.5 52.4,140 h -32 l -10.6,-31.2 h -52.4 l -11,31.2 h -31 l 52.9,-140 h 31.6 z m 1.8,85.9 -17.6,-51.4 h -0.4 l -18.2,51.4 h 36.3 z"
           id="path3" />
        <path
           class="cls-1"
           d="m 480.2,670.5 58.4,93.9 h 0.4 v -93.9 h 28.8 v 140 H 537 l -58.2,-93.7 h -0.4 v 93.7 h -28.8 v -140 z"
           id="path4" />
        <path
           class="cls-1"
           d="m 649.2,670.5 c 9,0 17.4,1.4 25.2,4.3 7.8,2.9 14.5,7.2 20.2,12.9 5.7,5.8 10.1,12.9 13.3,21.6 3.2,8.6 4.8,18.8 4.8,30.4 0,11.6 -1.3,19.6 -3.9,28.2 -2.6,8.6 -6.6,16.1 -11.9,22.4 -5.3,6.3 -11.9,11.2 -19.8,14.8 -7.9,3.6 -17.2,5.4 -27.9,5.4 h -60.4 v -140 z M 647,784.6 c 4.4,0 8.8,-0.7 12.9,-2.2 4.2,-1.4 7.9,-3.8 11.2,-7.2 3.3,-3.3 5.9,-7.7 7.8,-13 2,-5.4 2.9,-11.9 2.9,-19.6 0,-7.7 -0.7,-13.4 -2.1,-19.1 -1.4,-5.7 -3.6,-10.6 -6.8,-14.6 -3.1,-4.1 -7.3,-7.2 -12.5,-9.3 -5.2,-2.2 -11.5,-3.2 -19.1,-3.2 h -22 v 88.2 h 27.5 z"
           id="path5" />
        <path
           class="cls-1"
           d="m 895.4,670.5 h 9.6 l -56.3,81.4 v 58.6 h -8.6 v -58.6 l -55.9,-81.4 h 9.8 l 50.6,74.1 z"
           id="path6" />
        <path
           class="cls-1"
           d="m 928.7,670.5 h 12.4 l 54.7,130.4 h 0.4 l 54.1,-130.4 h 12.4 v 140 h -8.6 V 681.1 h -0.4 l -53.3,129.4 h -8.6 L 937.9,681.1 h -0.4 v 129.4 h -8.6 v -140 z"
           id="path7" />
        <path
           class="cls-1"
           d="m 1089,670.5 h 8.6 v 132.6 h 79.4 v 7.5 h -88 v -140 z"
           id="path8" />
      </g>
      <g
         id="g16">
        <path
           class="cls-1"
           d="m 116.6,670.5 c 6.7,0 12.7,0.6 18.2,1.8 5.5,1.2 10.2,3.1 14.1,5.8 3.9,2.7 7,6.2 9.1,10.7 2.2,4.4 3.2,9.9 3.2,16.5 0,6.6 -1.6,12.9 -4.8,17.6 -3.2,4.7 -7.9,8.6 -14.2,11.6 8.6,2.5 15.1,6.8 19.3,13 4.2,6.2 6.4,13.7 6.4,22.5 0,8.8 -1.4,13.2 -4.1,18.3 -2.7,5.2 -6.4,9.4 -11.1,12.6 -4.6,3.3 -9.9,5.7 -15.9,7.3 -5.9,1.6 -12.1,2.4 -18.3,2.4 H 50.7 v -140 h 65.9 z m -3.9,56.6 c 5.5,0 10,-1.3 13.5,-3.9 3.5,-2.6 5.3,-6.9 5.3,-12.7 0,-5.8 -0.6,-5.9 -1.8,-8 -1.2,-2.1 -2.7,-3.7 -4.7,-4.9 -2,-1.2 -4.2,-2 -6.8,-2.5 -2.5,-0.5 -5.2,-0.7 -7.9,-0.7 H 81.5 v 32.7 z m 1.7,59.5 c 3,0 5.9,-0.3 8.6,-0.9 2.7,-0.6 5.2,-1.6 7.3,-2.9 2.1,-1.4 3.8,-3.2 5,-5.6 1.2,-2.4 1.9,-5.4 1.9,-9 0,-7.2 -2,-12.3 -6.1,-15.4 -4.1,-3.1 -9.4,-4.6 -16.1,-4.6 H 81.5 v 38.4 z"
           id="path9" />
        <path
           class="cls-1"
           d="m 257.7,670.5 c 6.3,0 11.9,1 17,3 5,2 9.3,4.8 12.9,8.3 3.6,3.5 6.3,7.6 8.2,12.3 1.9,4.6 2.8,9.6 2.8,15 0,8.2 -1.7,15.4 -5.2,21.4 -3.5,6 -9.1,10.6 -17,13.7 v 0.4 c 3.8,1 6.9,2.6 9.4,4.8 2.5,2.2 4.5,4.7 6.1,7.6 1.6,2.9 2.7,6.2 3.4,9.7 0.7,3.5 1.2,7.1 1.5,10.6 0.1,2.2 0.3,4.8 0.4,7.8 0.1,3 0.4,6.1 0.7,9.2 0.3,3.1 0.8,6.1 1.6,8.9 0.7,2.8 1.8,5.2 3.2,7.2 h -30.8 c -1.7,-4.4 -2.7,-9.7 -3.1,-15.9 -0.4,-6.1 -1,-12 -1.8,-17.6 -1,-7.3 -3.3,-12.7 -6.7,-16.1 -3.4,-3.4 -9,-5.1 -16.7,-5.1 h -30.8 v 54.7 H 182 v -140 h 75.5 z m -11,63.3 c 7.1,0 12.4,-1.6 15.9,-4.7 3.5,-3.1 5.3,-8.2 5.3,-15.3 0,-7.1 -1.8,-11.7 -5.3,-14.8 -3.5,-3.1 -8.8,-4.6 -15.9,-4.6 H 213 v 39.4 z"
           id="path10" />
        <path
           class="cls-1"
           d="m 390.9,670.5 52.4,140 h -32 l -10.6,-31.2 h -52.4 l -11,31.2 h -31 l 52.9,-140 h 31.6 z m 1.8,85.9 -17.6,-51.4 h -0.4 l -18.2,51.4 h 36.3 z"
           id="path11" />
        <path
           class="cls-1"
           d="m 480.2,670.5 58.4,93.9 h 0.4 v -93.9 h 28.8 v 140 H 537 l -58.2,-93.7 h -0.4 v 93.7 h -28.8 v -140 z"
           id="path12" />
        <path
           class="cls-1"
           d="m 649.2,670.5 c 9,0 17.4,1.4 25.2,4.3 7.8,2.9 14.5,7.2 20.2,12.9 5.7,5.8 10.1,12.9 13.3,21.6 3.2,8.6 4.8,18.8 4.8,30.4 0,11.6 -1.3,19.6 -3.9,28.2 -2.6,8.6 -6.6,16.1 -11.9,22.4 -5.3,6.3 -11.9,11.2 -19.8,14.8 -7.9,3.6 -17.2,5.4 -27.9,5.4 h -60.4 v -140 z M 647,784.6 c 4.4,0 8.8,-0.7 12.9,-2.2 4.2,-1.4 7.9,-3.8 11.2,-7.2 3.3,-3.3 5.9,-7.7 7.8,-13 2,-5.4 2.9,-11.9 2.9,-19.6 0,-7.7 -0.7,-13.4 -2.1,-19.1 -1.4,-5.7 -3.6,-10.6 -6.8,-14.6 -3.1,-4.1 -7.3,-7.2 -12.5,-9.3 -5.2,-2.2 -11.5,-3.2 -19.1,-3.2 h -22 v 88.2 h 27.5 z"
           id="path13" />
        <path
           class="cls-1"
           d="m 895.4,670.5 h 9.6 l -56.3,81.4 v 58.6 h -8.6 v -58.6 l -55.9,-81.4 h 9.8 l 50.6,74.1 z"
           id="path14" />
        <path
           class="cls-1"
           d="m 928.7,670.5 h 12.4 l 54.7,130.4 h 0.4 l 54.1,-130.4 h 12.4 v 140 h -8.6 V 681.1 h -0.4 l -53.3,129.4 h -8.6 L 937.9,681.1 h -0.4 v 129.4 h -8.6 v -140 z"
           id="path15" />
        <path
           class="cls-1"
           d="m 1089,670.5 h 8.6 v 132.6 h 79.4 v 7.5 h -88 v -140 z"
           id="path16" />
      </g>
    </g>
    <circle
       class="cls-1"
       cx="631.80322"
       cy="669.80377"
       r="7.6356215"
       id="circle17" />
  </g>
  <g
     inkscape:groupmode="layer"
     id="layer2"
     inkscape:label="Icon">
    <path
       class="cls-1"
       d="M 500.04439,0 V 0 C 371.65942,0 267.5131,104.05753 267.5131,232.5313 v 0 c 0,128.38497 104.05753,232.53129 232.53129,232.53129 v 0 c 128.38498,0 232.5313,-104.05753 232.5313,-232.53129 v 0 C 732.57569,104.14632 628.51816,0 500.04439,0 Z m -68.98695,220.36758 158.74989,0.97664 v 9.14499 l -158.74989,-0.97665 z m 0,12.16372 158.74989,0.97665 v 38.79961 l -158.74989,-0.97665 z m 0,41.72955 158.74989,0.97665 v 9.14499 l -158.74989,-0.97665 z m 152.53485,51.22969 c -2.75237,8.4347 -10.83192,21.84143 -15.36003,26.99104 l -14.56095,2.92994 c 9.23378,-14.82731 13.14037,-54.07085 13.14037,-54.07085 0,0 -14.47216,47.50067 -23.08443,56.02415 l -6.92533,1.42058 c 8.78984,-19.08905 13.05158,-60.1971 13.05158,-60.1971 0,0 -14.91609,47.50066 -23.43958,62.23919 l -67.12243,13.22916 c 10.12163,-21.21993 14.73852,-67.3888 14.73852,-67.3888 0,0 -7.01412,44.92586 -21.13114,68.6318 l -20.50963,4.08417 c 4.88325,-9.6777 7.28047,-28.76676 7.28047,-28.76676 0,0 -6.92533,21.75265 -12.78522,29.8322 l -16.60304,3.28509 c 8.07956,-14.9161 13.58431,-31.87428 17.22454,-53.62692 3.01874,-17.66847 3.37388,-37.5566 3.46267,-44.21557 l 158.74989,0.97665 c 0.35514,6.57018 -3.64024,30.63127 -6.21504,38.53325 z m 6.21504,-107.60898 -158.74989,-1.24301 v -3.81781 c 0,-1.42058 1.42059,-2.75237 3.72903,-3.55145 12.51887,-4.26174 52.73906,-17.84605 54.33721,-45.9913 1.06543,-17.84604 -2.66359,-25.03773 -8.61227,-49.45396 -6.30383,-25.9256 21.21992,-47.23431 30.27612,-47.14553 9.05621,0 36.49117,21.84143 30.00977,47.67824 -6.12625,24.32745 -9.76649,31.43035 -8.78984,49.36518 1.50937,28.23404 41.64077,42.43985 54.15964,46.87916 2.30844,0.79908 3.64023,2.21966 3.64023,3.64024 v 3.81781 z"
       id="path17" />
  </g>
</svg>
