<?xml version="1.0" encoding="UTF-8" standalone="no"?>
<!-- Generator: Adobe Illustrator 26.0.3, SVG Export Plug-In . SVG Version: 6.00 Build 0)  -->

<svg
   version="1.0"
   id="katman_1"
   x="0px"
   y="0px"
   viewBox="0 0 1000 975.33398"
   xml:space="preserve"
   sodipodi:docname="github-colored-seeklogo.svg"
   width="1000"
   height="975.33398"
   inkscape:version="1.4.2 (ebf0e940d0, 2025-05-08)"
   xmlns:inkscape="http://www.inkscape.org/namespaces/inkscape"
   xmlns:sodipodi="http://sodipodi.sourceforge.net/DTD/sodipodi-0.dtd"
   xmlns="http://www.w3.org/2000/svg"
   xmlns:svg="http://www.w3.org/2000/svg"><defs
   id="defs7">
		
			<linearGradient
   id="SVGID_1_"
   gradientUnits="userSpaceOnUse"
   x1="209.6214"
   y1="493.76071"
   x2="506.50589"
   y2="196.8893"
   gradientTransform="matrix(2.4022095,0,0,-2.4022095,-361.33203,1325.9014)">
			<stop
   offset="0"
   style="stop-color:#3FE0C5"
   id="stop1" />
			<stop
   offset="0.5"
   style="stop-color:#E4A663"
   id="stop2" />
			<stop
   offset="0.56"
   style="stop-color:#E49D68"
   id="stop3" />
			<stop
   offset="0.67"
   style="stop-color:#E58577"
   id="stop4" />
			<stop
   offset="0.8"
   style="stop-color:#E65D8F"
   id="stop5" />
			<stop
   offset="0.95"
   style="stop-color:#E826B0"
   id="stop6" />
			<stop
   offset="1"
   style="stop-color:#E911BD"
   id="stop7" />
		</linearGradient>
		
	</defs><sodipodi:namedview
   id="namedview7"
   pagecolor="#ffffff"
   bordercolor="#000000"
   borderopacity="0.25"
   inkscape:showpageshadow="2"
   inkscape:pageopacity="0.0"
   inkscape:pagecheckerboard="0"
   inkscape:deskcolor="#d1d1d1"
   inkscape:zoom="0.52"
   inkscape:cx="423.07692"
   inkscape:cy="720.19231"
   inkscape:window-width="1920"
   inkscape:window-height="1011"
   inkscape:window-x="0"
   inkscape:window-y="0"
   inkscape:window-maximized="1"
   inkscape:current-layer="katman_1" />
<style
   type="text/css"
   id="style1">
	.st0{fill:url(#SVGID_1_);}
</style>
<path
   class="st0"
   d="M 493.86252,0.01244539 C 582.65139,-0.60130261 670.21277,21.493623 747.95417,64.455983 825.90016,107.41833 887.0704,165.92897 931.4648,239.98789 977.2913,316.70639 1000,400.58527 1000,492.03372 c 0,111.70213 -31.3011,211.53846 -93.6989,299.509 -62.39766,87.97054 -144.23072,148.93616 -244.88539,182.48776 -10.84288,2.6595 -19.23077,1.2275 -25.16366,-4.0917 -5.9329,-5.1146 -9.20622,-12.4795 -9.00164,-20.2537 V 780.29067 c 0,-42.96235 -11.45663,-73.85433 -34.36989,-92.67594 49.71359,-5.31915 86.74305,-12.07037 110.8838,-20.25368 37.64321,-13.50245 66.69395,-33.55155 86.74304,-60.55646 22.91326,-34.98364 34.36989,-82.6514 34.16531,-143.20786 0,-25.57283 -4.7054,-47.66776 -14.11621,-66.48936 -6.75122,-13.50246 -19.43535,-30.27823 -38.25695,-50.32733 5.72831,-15.54829 9.20622,-31.9149 10.02455,-48.48609 1.22749,-30.27823 -3.47791,-60.35188 -14.1162,-88.78887 -13.50246,-4.09166 -32.32406,-1.43208 -56.46482,7.97872 -19.43535,8.38789 -38.25695,17.79869 -56.46481,28.23241 l -26.18658,18.20785 C 587.56137,251.85369 544.39444,245.71621 501.02291,245.71621 458.26514,245.51162 415.91653,251.6491 375,263.92406 l -26.18658,-18.20785 c -18.8216,-10.84288 -38.25696,-20.25369 -58.51064,-28.23241 -24.14075,-9.4108 -42.34861,-12.07038 -54.41898,-7.97872 -11.8658,28.02782 -16.5712,58.51064 -13.91162,88.78887 0,18.8216 2.65957,34.36988 7.97872,46.44026 -14.1162,16.98036 -25.982,35.59738 -35.18822,55.64648 -7.36497,16.77578 -11.04746,37.84779 -11.04746,63.62521 0,60.55646 10.84288,107.61047 32.32406,141.36661 18.8216,28.2324 47.05401,49.09983 84.69722,62.39771 24.14075,7.97872 60.55646,14.72995 108.83797,20.25368 -17.38953,16.16203 -28.23241,38.8707 -32.32406,68.53519 -22.91326,10.84288 -45.21277,14.72995 -66.69395,11.86579 -34.98363,-2.65957 -61.78396,-20.86743 -80.60556,-54.41898 -7.77414,-14.52537 -18.8216,-26.80033 -32.32406,-36.21113 -9.61538,-5.52374 -19.84452,-10.22914 -30.27823,-14.11621 l -14.1162,-2.04582 c -14.72996,0 -22.5041,2.25041 -23.11784,6.95581 -0.61375,4.7054 2.25041,9.81996 9.00163,15.13911 l 10.02455,7.97873 c 11.04747,6.75122 20.66285,15.75286 28.23241,26.18658 8.1833,9.61538 15.13911,20.66284 20.25368,32.32405 l 7.97872,15.95745 c 6.34207,19.84452 20.0491,36.41571 38.25696,46.44026 18.00327,10.02455 38.05237,16.16203 58.51064,18.20786 16.77578,1.2275 33.55155,0.61375 50.32733,-2.04583 L 375,826.73094 l 2.04583,122.95414 c 0.20458,7.7742 -3.27333,15.1391 -9.00164,20.2537 -6.13748,5.3192 -14.52537,6.7512 -25.16367,4.0917 C 240.5892,940.47888 157.93781,879.51326 94.72177,791.54272 31.50573,703.57218 0,603.73585 0,492.03372 0,400.58527 21.48118,317.11555 64.44354,242.03372 106.38298,167.77022 167.75777,106.39542 241.81669,64.660563 316.89853,21.493623 400.982,0.01244539 493.86252,0.01244539 Z M 173.07692,679.63601 c 2.65958,-2.65957 6.95581,-3.06874 10.02455,-1.02291 4.09166,2.04582 5.31915,4.7054 4.09166,7.97872 -1.2275,3.27332 -4.29624,3.68249 -9.00164,1.02291 -4.7054,-2.65957 -6.34206,-5.31915 -5.11457,-7.97872 z m 22.29951,16.16203 c 2.65958,-2.65958 6.13748,-2.04583 10.02455,2.04583 4.09166,4.09165 4.7054,7.36497 2.04583,10.02455 -2.65958,2.65957 -6.13748,2.04582 -10.02455,-2.04583 -4.09165,-4.09165 -4.7054,-7.36498 -2.04583,-10.02455 z m 20.0491,26.18658 c 3.68249,-2.45499 8.59247,-1.63666 11.04747,2.04583 0.40916,0.61374 0.81833,1.22749 1.02291,2.04582 4.09165,5.31915 4.09165,9.4108 0,12.07038 -1.43208,1.43208 -3.06874,1.43208 -5.11457,0 -2.25041,-1.43208 -4.7054,-2.86416 -7.16039,-4.09165 -2.45499,-6.75123 -2.45499,-10.84289 0.20458,-12.07038 z m 24.34534,28.2324 c 1.63666,-1.43207 4.09165,-1.84124 6.13748,-1.02291 5.31915,1.43208 9.61538,5.72832 11.04746,11.04746 0.81833,2.04583 0.40917,4.29624 -1.02291,6.13748 -4.09166,4.09166 -8.79706,3.27333 -14.11621,-2.04582 -2.45499,-2.04583 -3.88707,-4.90999 -4.09165,-7.97873 -0.20458,-2.2504 0.61375,-4.50081 2.04583,-6.13748 z m 32.32406,26.18658 c 1.22749,-5.31914 5.31915,-7.16039 12.07037,-5.11456 6.75123,2.04582 9.81997,4.7054 9.00164,7.97872 -0.40917,3.06874 -2.25041,5.72832 -5.11457,7.16039 -2.45499,1.43208 -5.52373,1.43208 -7.97872,0 -2.65957,-1.22749 -4.90998,-3.06874 -6.95581,-5.11456 -2.04583,-1.84125 -2.45499,-3.68249 -1.02291,-4.90999 z m 62.39771,7.97873 c 0,-1.43208 -1.02292,-2.65958 -3.06874,-4.09166 -2.86416,-1.63666 -5.9329,-2.2504 -9.00164,-2.04582 -6.75123,0 -10.02455,2.65957 -10.02455,7.97872 0,5.31915 3.68249,7.77414 11.04746,7.16039 7.16039,-0.40916 11.04747,-3.4779 11.04747,-9.00163 z m 26.39116,-11.8658 c 6.75122,0 10.43371,2.04583 11.04746,5.9329 0.61375,3.88707 -2.45499,7.36498 -9.00164,10.02455 -2.45499,0 -4.7054,-0.20458 -6.95581,-1.02291 -2.04582,-0.61375 -3.27332,-3.06874 -4.09165,-6.95581 -0.81833,-3.88707 2.04583,-6.75123 9.00164,-7.97873 z"
   id="path7"
   style="fill:url(#SVGID_1_);stroke-width:2.04583"
   inkscape:label="Icon" />
</svg>
