<?xml version="1.0" encoding="UTF-8" standalone="no"?>
<svg
   height="203.62199"
   viewBox="0 0 1000 203.62199"
   style="display:block"
   fill="none"
   version="1.1"
   id="svg2"
   sodipodi:docname="logo.svg"
   width="1000"
   inkscape:version="1.4.2 (ebf0e940d0, 2025-05-08)"
   xmlns:inkscape="http://www.inkscape.org/namespaces/inkscape"
   xmlns:sodipodi="http://sodipodi.sourceforge.net/DTD/sodipodi-0.dtd"
   xmlns="http://www.w3.org/2000/svg"
   xmlns:svg="http://www.w3.org/2000/svg"
   xmlns:rdf="http://www.w3.org/1999/02/22-rdf-syntax-ns#"
   xmlns:cc="http://creativecommons.org/ns#"
   xmlns:dc="http://purl.org/dc/elements/1.1/">
  <defs
     id="defs2" />
  <sodipodi:namedview
     id="namedview2"
     pagecolor="#ffffff"
     bordercolor="#000000"
     borderopacity="0.25"
     inkscape:showpageshadow="2"
     inkscape:pageopacity="0.0"
     inkscape:pagecheckerboard="0"
     inkscape:deskcolor="#d1d1d1"
     inkscape:zoom="0.59717378"
     inkscape:cx="432.87232"
     inkscape:cy="233.60035"
     inkscape:window-width="1920"
     inkscape:window-height="1011"
     inkscape:window-x="0"
     inkscape:window-y="0"
     inkscape:window-maximized="1"
     inkscape:current-layer="svg2" />
  <title
     id="title1">Linktree Logo</title>
  <desc
     id="desc1">Linktree Logo Symbol and Word Mark</desc>
  <path
     d="m 0,21.96842 h 28.746067 v 151.4425 H 108.207 v 26.62743 H 0 Z m 136.48543,0 c 2.33313,-0.03091 4.64844,0.398057 6.81491,1.26223 2.16776,0.864173 4.14214,2.146758 5.81375,3.774349 1.6716,1.62772 3.00482,3.568643 3.92586,5.711966 0.92103,2.143322 1.41081,4.447063 1.44134,6.779555 0,4.772734 -1.8955,9.349939 -5.27052,12.724832 -3.37502,3.374767 -7.95223,5.270783 -12.72534,5.270783 -4.77185,0 -9.34969,-1.896016 -12.72445,-5.270783 -3.3749,-3.374893 -5.27079,-7.952098 -5.27079,-12.724832 0.01,-2.338598 0.48533,-4.65188 1.39899,-6.804617 0.91366,-2.152864 2.24713,-4.102056 3.92243,-5.733846 1.6753,-1.63179 3.65935,-2.913357 5.83472,-3.770151 2.17666,-0.856668 4.50089,-1.271263 6.8391,-1.219486 z m -14.02231,49.779837 h 27.57709 V 200.03835 h -27.57709 z m 43.7029,0 h 27.57772 v 17.761922 c 8.16468,-13.555168 22.18761,-21.267465 40.65036,-21.267465 29.91467,0 48.61149,23.370841 48.61149,60.530926 v 71.26471 h -27.57772 v -68.92777 c 0,-24.0723 -10.51688,-37.627343 -29.51012,-37.627343 -20.78443,0 -32.23635,14.256123 -32.23635,39.964283 v 66.59083 H 166.10495 Z M 297.49541,21.96842 h 27.57772 V 134.61537 L 376.48845,71.748257 H 411.077 l -54.92137,64.270293 54.92137,64.0198 h -34.58855 l -51.41532,-62.61789 v 62.61789 h -27.57772 z m 124.33255,17.138566 h 28.04461 V 71.82624 h 32.71976 v 22.903452 h -32.71976 v 66.123818 c 0,8.42928 5.14203,13.57005 13.0879,13.57005 h 18.47929 v 25.6924 h -22.21814 c -24.07167,0 -37.39366,-14.25575 -37.39366,-39.47999 z M 494.7452,71.82624 h 27.57773 v 15.892111 c 6.77675,-12.152745 18.22867,-19.397781 32.25161,-19.397781 3.23635,-0.147443 6.47525,0.24756 9.58185,1.168599 v 25.707913 c -3.37502,-0.741538 -6.83019,-1.055633 -10.28281,-0.934905 -20.33281,0 -31.55065,17.138693 -31.55065,46.507863 v 59.34592 H 494.7452 Z m 133.89915,-3.50567 c 30.38154,0 63.33539,18.463004 63.33539,70.5794 v 3.74013 h -98.85898 c 2.11941,22.88729 15.42485,35.50833 37.62646,35.50833 15.89299,0 29.44778,-8.6481 32.48568,-20.55163 h 28.04588 c -2.8051,25.69239 -29.44779,46.0252 -60.53156,46.0252 -39.72933,0 -64.72076,-25.94173 -64.72076,-67.75992 0,-37.237311 24.07166,-67.619366 62.61789,-67.619366 z m 33.8876,51.41582 c -3.97294,-15.8921 -16.35989,-25.941602 -33.8876,-25.941602 -16.82677,0 -28.7303,10.283192 -33.40418,25.941602 z M 766.76577,68.32057 c 30.38281,0 63.33537,18.463004 63.33537,70.5794 v 3.74013 h -98.85897 c 2.10287,22.88729 15.42486,35.50833 37.62773,35.50833 15.89173,0 29.44651,-8.6481 32.48442,-20.55163 h 28.04587 c -2.8051,25.69239 -29.44778,46.0252 -60.53029,46.0252 -39.73059,0 -64.73729,-25.94173 -64.73729,-67.75992 0,-37.237311 24.07167,-67.619366 62.63316,-67.619366 z m 33.88759,51.41582 c -3.97293,-15.8921 -16.35861,-25.941602 -33.88759,-25.941602 -16.82677,0 -28.74557,10.283192 -33.42073,25.941602 z"
     fill="#000000"
     id="path1"
     inkscape:label="Linktree"
     style="stroke-width:12.7215" />
  <path
     d="m 836.88808,67.853308 h 49.31245 L 851.14382,34.433098 870.5416,14.489945 903.96232,48.84506 V 0 h 28.97964 v 48.84506 l 33.41944,-34.277259 19.38252,19.865297 -35.04017,33.342354 h 49.29715 v 27.577595 h -49.57829 l 35.27551,34.276753 -19.33672,19.47665 -47.90926,-48.14449 -47.91054,48.14449 -19.39778,-19.39778 35.28952,-34.277767 h -49.54526 z m 66.99537,67.073732 h 28.98091 v 65.43953 h -28.98091 z"
     fill="#43e660"
     id="path2"
     inkscape:label="Icon"
     style="stroke-width:12.7215" />
  <metadata
     id="metadata2">
    <rdf:RDF>
      <cc:Work
         rdf:about="">
        <dc:title>Linktree Logo</dc:title>
      </cc:Work>
    </rdf:RDF>
  </metadata>
</svg>
