<?xml version="1.0" encoding="UTF-8" standalone="no"?>
<svg
   width="1024"
   height="1024"
   viewBox="0 0 1024 1024"
   fill="none"
   version="1.1"
   id="svg1"
   sodipodi:docname="icon.svg"
   inkscape:version="1.4.2 (ebf0e940d0, 2025-05-08)"
   xmlns:inkscape="http://www.inkscape.org/namespaces/inkscape"
   xmlns:sodipodi="http://sodipodi.sourceforge.net/DTD/sodipodi-0.dtd"
   xmlns="http://www.w3.org/2000/svg"
   xmlns:svg="http://www.w3.org/2000/svg">
  <defs
     id="defs1" />
  <sodipodi:namedview
     id="namedview1"
     pagecolor="#ffffff"
     bordercolor="#000000"
     borderopacity="0.25"
     inkscape:showpageshadow="2"
     inkscape:pageopacity="0.0"
     inkscape:pagecheckerboard="0"
     inkscape:deskcolor="#d1d1d1"
     inkscape:zoom="0.3872484"
     inkscape:cx="420.91846"
     inkscape:cy="517.75553"
     inkscape:window-width="1920"
     inkscape:window-height="1011"
     inkscape:window-x="0"
     inkscape:window-y="0"
     inkscape:window-maximized="1"
     inkscape:current-layer="svg1" />
  <circle
     style="fill:#25d366;stroke-width:9.19325;stroke-linecap:square;stroke-miterlimit:0;fill-opacity:1"
     id="path2"
     cx="512"
     cy="512"
     r="512"
     inkscape:label="Circle" />
  <path
     fill-rule="evenodd"
     clip-rule="evenodd"
     d="m 747.25151,275.35316 c -62.41044,-62.49071 -145.41601,-96.92244 -233.8571,-96.95414 -182.24033,0 -330.5568,148.3007 -330.62021,330.589 -0.0318,58.27336 15.20261,115.15233 44.13354,165.27879 L 180,845.60099 355.26574,799.62817 c 48.28646,26.3479 102.66068,40.21806 157.98663,40.23465 h 0.14204 c 182.20892,0 330.54279,-148.31728 330.60557,-330.60552 0.0311,-88.3452 -34.32143,-171.3974 -96.74847,-233.88826 z m -233.8571,508.67658 h -0.11063 c -49.302,-0.0148 -97.66703,-13.26899 -139.86607,-38.29993 l -10.03525,-5.9594 -104.00858,27.28123 27.75777,-101.40941 -6.53135,-10.39899 c -27.50418,-43.75206 -42.04098,-94.32304 -42.00926,-146.23861 0.0634,-151.50341 123.33285,-274.77298 274.91591,-274.77298 73.39597,0.0317 142.38744,28.6457 194.27165,80.59446 51.88605,51.93311 80.4362,120.98726 80.40485,194.39983 -0.0645,151.51927 -123.33245,274.78905 -274.78899,274.78905 z m 150.72614,-205.7976 c -8.25942,-4.13709 -48.87225,-24.11241 -56.45108,-26.86985 -7.57697,-2.7593 -13.0771,-4.1371 -18.57908,4.13708 -5.50012,8.27602 -21.33652,26.88645 -26.15606,32.3866 -4.81954,5.51672 -9.63906,6.19917 -17.8985,2.06024 -8.25756,-4.13709 -34.87475,-12.85578 -66.43689,-40.99462 -24.55507,-21.90831 -41.13847,-48.95156 -45.95618,-57.22755 -4.81951,-8.27419 -0.5072,-12.74513 3.61329,-16.85087 3.70917,-3.70917 8.25942,-9.65382 12.39649,-14.47334 4.13894,-4.81953 5.50198,-8.27418 8.25942,-13.77615 2.75931,-5.51675 1.37966,-10.33444 -0.6806,-14.47337 -2.06208,-4.13708 -18.57908,-44.79971 -25.47546,-61.33331 -6.7064,-16.10588 -13.52162,-13.91818 -18.57908,-14.18764 -4.81954,-0.23795 -10.31966,-0.28537 -15.8364,-0.28537 -5.51674,0 -14.4586,2.06081 -22.03558,10.33591 -7.57696,8.27418 -28.91517,28.26427 -28.91517,68.91027 0,40.64605 29.59761,79.94561 33.7347,85.46235 4.13709,5.51673 58.25679,88.94833 141.11844,124.74346 19.70606,8.51211 35.09794,13.60094 47.0979,17.40603 19.78536,6.29325 37.79266,5.40607 52.02808,3.28127 15.8696,-2.37751 48.87413,-19.9901 55.75386,-39.283 6.87982,-19.29288 6.87982,-35.84307 4.81957,-39.28297 -2.06027,-3.43988 -7.57702,-5.51673 -15.83641,-9.65383 z"
     fill="#25d366"
     id="path1"
     style="fill:#ffffff;stroke-width:1.84444"
     inkscape:label="Glyph" />
</svg>
