<?xml version="1.0" encoding="UTF-8" standalone="no"?>
<svg
   width="1024"
   height="1024"
   viewBox="0 0 1024 1024"
   fill="none"
   version="1.1"
   id="svg1"
   sodipodi:docname="icon-square.svg"
   inkscape:version="1.4.2 (ebf0e940d0, 2025-05-08)"
   xml:space="preserve"
   xmlns:inkscape="http://www.inkscape.org/namespaces/inkscape"
   xmlns:sodipodi="http://sodipodi.sourceforge.net/DTD/sodipodi-0.dtd"
   xmlns="http://www.w3.org/2000/svg"
   xmlns:svg="http://www.w3.org/2000/svg"><defs
     id="defs1" /><sodipodi:namedview
     id="namedview1"
     pagecolor="#ffffff"
     bordercolor="#000000"
     borderopacity="0.25"
     inkscape:showpageshadow="2"
     inkscape:pageopacity="0.0"
     inkscape:pagecheckerboard="0"
     inkscape:deskcolor="#d1d1d1"
     inkscape:zoom="0.3872484"
     inkscape:cx="423.50078"
     inkscape:cy="517.75553"
     inkscape:window-width="1920"
     inkscape:window-height="1011"
     inkscape:window-x="0"
     inkscape:window-y="0"
     inkscape:window-maximized="1"
     inkscape:current-layer="svg1" /><rect
     style="display:inline;fill:#25d366;fill-opacity:1;stroke:none;stroke-width:16.4735;stroke-linecap:square;stroke-miterlimit:0"
     id="rect1"
     width="1024"
     height="1023.9999"
     x="0"
     y="0"
     rx="224"
     ry="224"
     inkscape:label="Square" /><path
     fill-rule="evenodd"
     clip-rule="evenodd"
     d="M 769.92635,252.54383 C 701.50045,184.02991 610.49434,146.27947 513.52881,146.2447 c -199.80566,0 -362.4177,162.59474 -362.48722,362.45301 -0.0349,63.89007 16.66792,126.25135 48.38738,181.20926 L 148,877.7553 340.15882,827.35135 c 52.94058,28.88745 112.55569,44.09451 173.21426,44.11268 h 0.15573 c 199.77123,0 362.40234,-162.61292 362.47117,-362.4711 0.0341,-96.86041 -37.62952,-187.91764 -106.07363,-256.4317 z M 513.52881,810.24945 h -0.12129 c -54.054,-0.0162 -107.08072,-14.54792 -153.34714,-41.99148 l -11.0025,-6.53381 -114.03351,29.91076 30.43322,-111.18381 -7.16088,-11.4013 C 228.14153,621.08067 212.20359,565.6354 212.23837,508.71591 212.30787,342.60975 347.45872,207.45879 513.6522,207.45879 c 80.47028,0.0348 156.11153,31.40673 212.99663,88.3626 56.88711,56.93871 88.18908,132.64868 88.15471,213.13715 -0.0707,166.12355 -135.21991,301.27475 -301.27467,301.27475 z M 678.78277,584.61594 c -9.05551,-4.53583 -53.58283,-26.43649 -61.89215,-29.4597 -8.30728,-3.02526 -14.33754,-4.53586 -20.36983,4.53583 -6.03025,9.07371 -23.39305,29.47792 -28.67713,35.5082 -5.28407,6.04845 -10.56812,6.79668 -19.62365,2.25882 -9.05347,-4.53584 -38.23618,-14.09489 -72.84045,-44.94591 -26.92182,-24.01996 -45.10362,-53.66978 -50.38569,-62.74346 -5.28404,-9.0717 -0.55609,-13.97359 3.96156,-18.47506 4.06668,-4.06668 9.05551,-10.58431 13.59133,-15.86835 4.53787,-5.28407 6.03229,-9.07169 9.05551,-15.10398 3.02527,-6.04849 1.51264,-11.33053 -0.7462,-15.8684 -2.26084,-4.53582 -20.36984,-49.11775 -27.93093,-67.24495 -7.3528,-17.65825 -14.82491,-15.25969 -20.36983,-15.55512 -5.28408,-0.26089 -11.31433,-0.31288 -17.3628,-0.31288 -6.04848,0 -15.8522,2.25944 -24.15949,11.33214 -8.30727,9.07169 -31.70218,30.98854 -31.70218,75.55223 0,44.56374 32.45039,87.65122 36.98624,93.69968 4.53585,6.04849 63.8719,97.52166 154.72022,136.76693 21.60544,9.33255 38.48087,14.91188 51.63745,19.08372 21.69239,6.89983 41.43533,5.92713 57.04284,3.59753 17.3992,-2.60666 53.58489,-21.91685 61.12772,-43.06931 7.54294,-21.15243 7.54294,-39.29782 5.28411,-43.06928 -2.25885,-3.77143 -8.30733,-6.04846 -17.36281,-10.58432 z"
     fill="#25d366"
     id="path1"
     style="fill:#ffffff;stroke-width:2.02222"
     inkscape:label="Glyph" /></svg>
