<?xml version="1.0" encoding="UTF-8" standalone="no"?>
<!-- Created with Inkscape (http://www.inkscape.org/) -->

<svg
   width="1000"
   height="955.55603"
   viewBox="0 0 1000 955.55603"
   version="1.1"
   id="svg1"
   inkscape:version="1.4.2 (ebf0e940d0, 2025-05-08)"
   sodipodi:docname="icon.svg"
   xmlns:inkscape="http://www.inkscape.org/namespaces/inkscape"
   xmlns:sodipodi="http://sodipodi.sourceforge.net/DTD/sodipodi-0.dtd"
   xmlns="http://www.w3.org/2000/svg"
   xmlns:svg="http://www.w3.org/2000/svg">
  <sodipodi:namedview
     id="namedview1"
     pagecolor="#ffffff"
     bordercolor="#000000"
     borderopacity="0.25"
     inkscape:showpageshadow="2"
     inkscape:pageopacity="0.0"
     inkscape:pagecheckerboard="0"
     inkscape:deskcolor="#d1d1d1"
     inkscape:document-units="px"
     inkscape:zoom="0.49953305"
     inkscape:cx="456.42626"
     inkscape:cy="469.43841"
     inkscape:window-width="1920"
     inkscape:window-height="1011"
     inkscape:window-x="0"
     inkscape:window-y="0"
     inkscape:window-maximized="1"
     inkscape:current-layer="svg1" />
  <defs
     id="defs1">
    <clipPath
       clipPathUnits="userSpaceOnUse"
       id="clipPath29">
      <path
         id="path29"
         style="display:inline;fill:#000000;stroke-width:46.5754;stroke-linejoin:bevel;stroke-miterlimit:3;stroke-dasharray:54.3381, 38.0365"
         d="M 649.99841,145 H 915 v 85 h 85 V 430 H 649.99841 Z"
         sodipodi:nodetypes="ccccccc" />
    </clipPath>
  </defs>
  <path
     style="display:inline;fill:none;fill-opacity:1;stroke:#215f9a;stroke-width:35;stroke-linecap:butt;stroke-linejoin:bevel;stroke-miterlimit:3;stroke-dasharray:35, 24.5;stroke-dashoffset:0;stroke-opacity:1"
     d="m 650,412.5 c 135,0 310,17.5 310,-67.5 0,-85 -165,-52.5 -165,-115 0,-62.5 147.5,-62.5 147.5,-62.5"
     id="path12"
     sodipodi:nodetypes="czzc"
     clip-path="url(#clipPath29)"
     inkscape:label="Path"
     transform="matrix(2.2222222,0,0,2.2222222,-1222.2222,0)"
     sodipodi:insensitive="true" />
  <path
     id="path14-9"
     style="display:inline;fill:#215f9a;fill-opacity:1;stroke-width:38.6231;stroke-linejoin:bevel;stroke-miterlimit:3;stroke-dasharray:45.0602, 32.6687"
     d="m 872.2222,0 c -70.5697,0 -127.7778,65.306158 -127.7778,127.77778 0,29.90544 10.8768,54.375 10.8768,54.375 0,0 82.5191,186.81911 103.2899,222.79513 4.787,8.29129 13.6111,8.28993 13.6111,8.28993 0,0 8.7979,0.002 13.5504,-8.22915 20.8791,-36.16367 96.1501,-203.82813 96.1501,-203.82813 0,0 18.0773,-43.49734 18.0773,-73.40278 C 1000,65.306158 942.792,0 872.2222,0 Z m 0,72.222222 a 55.555556,55.555556 0 0 1 55.5556,55.555558 55.555556,55.555556 0 0 1 -55.5556,55.55555 55.555556,55.555556 0 0 1 -55.5555,-55.55555 55.555556,55.555556 0 0 1 55.5555,-55.555558 z"
     inkscape:label="Pin 2"
     sodipodi:insensitive="true" />
  <path
     id="path14"
     style="display:inline;fill:#215f9a;fill-opacity:1;stroke-width:78.9253;stroke-linejoin:bevel;stroke-miterlimit:3;stroke-dasharray:92.0796, 66.7578"
     d="M 261.11111,0 C 116.90342,0 -1.9999997e-5,133.45171 0,261.11111 c 0,61.11111 22.22222,111.11111 22.22222,111.11111 0,0 168.63176,381.76158 211.0764,455.27778 9.78207,16.94307 27.81249,16.94444 27.81249,16.94444 0,0 17.97945,-0.002 27.69098,-16.82291 42.66601,-73.89964 196.47571,-416.51042 196.47571,-416.51042 0,0 36.9444,-88.88889 36.9444,-150 C 522.2222,133.45171 405.3188,0 261.11111,0 Z m 0,66.666667 a 200,200 0 0 1 199.99999,200.000003 200,200 0 0 1 -199.99999,200 200,200 0 0 1 -200,-200 200,200 0 0 1 200,-200.000003 z"
     inkscape:label="Pin 1"
     sodipodi:insensitive="true" />
  <path
     id="path12-8-0"
     style="baseline-shift:baseline;display:inline;overflow:visible;vector-effect:none;fill:#215f9a;fill-opacity:1;stroke:none;stroke-width:9.09375;stroke-linecap:round;stroke-linejoin:round;stroke-miterlimit:3;stroke-opacity:1;enable-background:accumulate;stop-color:#000000"
     inkscape:label="Carrot"
     d="m 305.17169,111.11111 a 7.2507253,7.2507253 0 0 0 -3.63005,0.97109 c -11.73802,6.77694 -17.65697,19.51461 -20.87706,32.77728 -7.74794,-4.18151 -16.05631,-7.11289 -24.48322,-7.1644 -3.07318,-0.0195 -6.16223,0.34562 -9.24567,1.17182 a 7.2507253,7.2507253 0 0 0 -5.12911,5.13542 c -0.73745,2.76673 -1.07751,5.54697 -1.08436,8.3243 -0.0329,13.1268 7.37762,26.19174 15.44718,37.49294 2.42062,3.39004 4.8968,6.59834 7.37144,9.57605 -0.29637,0.31724 -0.58793,0.63734 -0.87417,0.96037 -9.01094,10.1697 -13.27931,22.56295 -16.05825,32.93402 -1.29011,4.81482 -1.00684,9.77869 -0.6356,17.22942 0.3712,7.45074 1.20698,16.64122 2.41605,26.63556 2.41802,19.98878 6.30766,43.10109 11.09837,61.35251 4.78054,18.21244 12.69889,40.72387 20.44098,58.98871 3.87107,9.13242 7.67154,17.16364 11.1664,23.22267 1.74742,3.02949 3.38256,5.55449 5.19267,7.6786 1.81011,2.12404 3.47544,4.93586 8.87938,4.93586 5.40393,0 7.06553,-2.80693 8.87873,-4.9296 1.81318,-2.12266 3.45329,-4.64715 5.2059,-7.67671 3.5052,-6.05913 7.3176,-14.09153 11.1972,-23.22578 7.7592,-18.26851 15.6801,-40.78371 20.4032,-59.0164 4.723,-18.23213 8.6158,-41.33042 11.05,-61.31093 1.2171,-9.99031 2.065,-19.17867 2.4456,-26.63122 0.3807,-7.45253 0.6714,-12.42407 -0.6224,-17.25269 -2.7612,-10.30493 -7.0297,-22.69498 -16.0406,-32.87864 -0.2969,-0.33548 -0.5991,-0.66819 -0.9069,-0.99752 2.4798,-2.98292 4.9609,-6.19718 7.3866,-9.59428 9.7768,-13.69226 18.5857,-29.97375 14.3627,-45.81724 a 7.2507253,7.2507253 0 0 0 -5.1291,-5.13542 c -3.0834,-0.8262 -6.1724,-1.19061 -9.2456,-1.17182 -8.6155,0.0526 -17.107,3.1149 -25.0024,7.44636 -3.2032,-13.48698 -8.8532,-26.39653 -20.34976,-33.05422 a 7.2507253,7.2507253 0 0 0 -3.62815,-0.97611 z m -0.15111,16.56929 c 5.25502,5.83964 9.68555,17.16171 11.71831,29.34612 1.63309,9.78889 1.80958,20.11472 1.4934,26.99493 -4.04809,-0.78904 -8.40173,-1.21588 -13.06571,-1.21588 -4.72138,0 -9.12431,0.43518 -13.21427,1.2398 -0.45495,-6.846 -0.46255,-17.03536 1.04533,-26.76334 1.88449,-12.15769 6.15405,-23.51461 12.02294,-29.60163 z m -49.51525,24.67579 c 6.51271,0.11907 14.56589,3.12061 22.46051,7.8139 -1.32871,11.05025 -1.30286,21.17141 -0.32411,28.70923 -0.89184,0.44753 -1.76113,0.91601 -2.60797,1.40407 -2.43063,-2.78728 -4.85132,-5.79071 -7.06434,-8.89007 -7.17829,-10.053 -12.05069,-21.19202 -12.46409,-29.03713 z m 98.76737,0 c 0.1896,-0.009 0.3683,0.004 0.5551,0 -0.4134,7.84511 -5.2858,18.98413 -12.4641,29.03713 -2.2171,3.10506 -4.6424,6.11419 -7.0775,8.90579 -0.8543,-0.49305 -1.7313,-0.96605 -2.6313,-1.41791 0.8997,-7.55427 0.6867,-17.53335 -0.7477,-28.43737 7.8175,-4.71926 15.8264,-7.80631 22.3655,-8.08764 z m -49.10621,44.94938 c 15.99111,0 25.07371,5.27294 31.65831,12.71456 6.5847,7.44162 10.3715,17.60707 12.8946,27.02323 0.018,0.0675 0.502,5.80131 0.1466,12.75984 -0.1117,2.18844 -0.2692,4.57171 -0.4695,7.11349 h -21.6744 a 7.2500002,7.2500002 0 0 0 -7.25,7.25 7.2500002,7.2500002 0 0 0 7.25,7.25 h 20.2578 c -0.15,1.31707 -0.3074,2.65273 -0.472,4.00387 -2.1289,17.47486 -5.4618,37.6068 -9.3482,53.99615 h -16.8821 a 7.2500002,7.2500002 0 0 0 -7.24998,7.24996 7.2500002,7.2500002 0 0 0 7.24998,7.25004 h 13.0204 c -4.5541,15.48336 -10.9858,33.29536 -17.19542,47.9154 -3.73311,8.78938 -7.41249,16.46527 -10.40236,21.6336 -0.54611,0.94398 -1.03702,1.69856 -1.5274,2.45949 -0.48758,-0.759 -0.97529,-1.5104 -1.518,-2.45129 -2.98113,-5.16842 -6.65015,-12.84555 -10.37655,-21.63673 -1.67898,-3.961 -3.37534,-8.1562 -5.04731,-12.47605 h 2.43553 a 7.2500002,7.2500002 0 0 0 7.25004,-7.25 7.2500002,7.2500002 0 0 0 -7.25004,-7.25 h -7.78871 c -3.67876,-10.45584 -6.97716,-20.93753 -9.36518,-30.03526 -1.59391,-6.07234 -3.10669,-12.83887 -4.50042,-19.90916 h 13.59878 a 7.2500002,7.2500002 0 0 0 7.25002,-7.25004 7.2500002,7.2500002 0 0 0 -7.25002,-7.24998 H 266.3828 c -1.41409,-8.48145 -2.63347,-17.01978 -3.5992,-25.00309 -1.17709,-9.73031 -1.9826,-18.65889 -2.3292,-25.61602 -0.13667,-2.74094 -0.14356,-5.29185 -0.10044,-7.38089 h 22.25724 a 7.2500002,7.2500002 0 0 0 7.25,-7.25002 7.2500002,7.2500002 0 0 0 -7.25,-7.25 h -19.15202 c 2.38113,-6.53492 5.57106,-12.87878 10.06002,-17.94501 6.57533,-7.42094 15.64707,-12.66609 31.64762,-12.66609 z m -2.33987,221.82419 c -0.19511,0.15688 -0.3286,0.20977 -0.35244,0.20022 l -6.5e-4,-6.5e-4 h -6.4e-4 v -6.6e-4 h -6.5e-4 v -6.5e-4 l -6.4e-4,-6.4e-4 v -6.5e-4 l -6.4e-4,-6.4e-4 v -6.5e-4 -6.6e-4 -6.2e-4 l 6.4e-4,-6.7e-4 c 0.004,-0.0233 0.10978,-0.0993 0.35498,-0.19356 z m 4.6848,0.002 c 0.24954,0.0967 0.35496,0.17488 0.35618,0.19777 l -6.2e-4,6.3e-4 v 6.4e-4 6.2e-4 6.7e-4 h -6.5e-4 v 6.2e-4 l -6.2e-4,6.7e-4 -6.7e-4,6.2e-4 h -6.2e-4 c -0.02,0.0133 -0.15489,-0.0411 -0.35309,-0.202 z"
     sodipodi:insensitive="true" />
  <path
     id="path10"
     style="display:inline;fill:#215f9a;fill-opacity:1;stroke:none;stroke-width:9.82778;stroke-dasharray:none"
     d="m 187.24991,111.11111 c -6.44442,0 -8.05555,4.83332 -8.05555,7.25 v 73.30367 c -4.83332,0 -10.4722,-6.44256 -10.4722,-6.44256 v -64.44445 c 0,-2.41668 -1.61107,-8.05555 -8.10025,-8.05555 -6.4892,0 -8.01089,5.63887 -8.01089,8.05555 v 80.55557 c 0,16.1111 14.49998,28.40337 17.7222,28.40337 L 167.111,414 c -0.0562,3.2222 3.22222,19.33449 20.13891,19.33333 16.91669,-0.002 20.19522,-16.11162 20.13887,-19.33333 L 204.1666,229.73671 c 3.22218,0 17.7222,-12.29227 17.7222,-28.40337 v -80.55557 c 0,-2.41668 -1.61111,-8.05555 -8.05558,-8.05555 -6.44444,0 -8.05555,5.63887 -8.05555,8.05555 v 64.44445 c 0,0 -5.63889,6.44256 -10.4722,6.44256 v -73.30367 c 0,-2.41668 -1.61114,-7.25 -8.05556,-7.25 z m -18.52775,90.22223 c 0,0 5.63888,6.44443 18.52775,6.44443 12.88887,0 18.52776,-6.44443 18.52776,-6.44443 0,0 0,16.1111 -18.52776,16.1111 -18.52775,0 -18.52775,-16.1111 -18.52775,-16.1111 z m 18.52775,33.2367 c 1.61111,0 4.83336,179.42996 4.83336,179.42996 0,0 0,3.2222 -4.83336,3.2222 -4.83335,0 -4.83335,-3.2222 -4.83335,-3.2222 0,0 3.22224,-179.42996 4.83335,-179.42996 z"
     inkscape:label="Fork"
     sodipodi:insensitive="true" />
</svg>
