<?xml version="1.0" encoding="UTF-8" standalone="no"?>
<!-- Created with Inkscape (http://www.inkscape.org/) -->

<svg
   width="1000"
   height="100"
   viewBox="0 0 264.58333 26.458333"
   version="1.1"
   id="svg1"
   inkscape:version="1.4.2 (ebf0e940d0, 2025-05-08)"
   sodipodi:docname="osf-strip.svg"
   inkscape:export-filename="osf-strip-white-bg.png"
   inkscape:export-xdpi="240"
   inkscape:export-ydpi="240"
   xmlns:inkscape="http://www.inkscape.org/namespaces/inkscape"
   xmlns:sodipodi="http://sodipodi.sourceforge.net/DTD/sodipodi-0.dtd"
   xmlns="http://www.w3.org/2000/svg"
   xmlns:svg="http://www.w3.org/2000/svg">
  <sodipodi:namedview
     id="namedview1"
     pagecolor="#ffffff"
     bordercolor="#000000"
     borderopacity="0.25"
     inkscape:showpageshadow="2"
     inkscape:pageopacity="0.0"
     inkscape:pagecheckerboard="0"
     inkscape:deskcolor="#d1d1d1"
     inkscape:document-units="px"
     showguides="true"
     inkscape:zoom="0.70644642"
     inkscape:cx="509.59279"
     inkscape:cy="87.055435"
     inkscape:window-width="1920"
     inkscape:window-height="1011"
     inkscape:window-x="0"
     inkscape:window-y="0"
     inkscape:window-maximized="1"
     inkscape:current-layer="layer1">
    <sodipodi:guide
       position="263.22629,25.135416"
       orientation="0,1"
       id="guide1"
       inkscape:locked="false"
       inkscape:label=""
       inkscape:color="rgb(0,134,229)" />
    <sodipodi:guide
       position="266.43012,1.3229167"
       orientation="0,1"
       id="guide2"
       inkscape:locked="false"
       inkscape:label=""
       inkscape:color="rgb(0,134,229)" />
    <sodipodi:guide
       position="259.29166,12.54037"
       orientation="-1,0"
       id="guide3"
       inkscape:locked="false"
       inkscape:label=""
       inkscape:color="rgb(0,134,229)" />
    <sodipodi:guide
       position="5.2916666,10.062755"
       orientation="-1,0"
       id="guide4"
       inkscape:locked="false"
       inkscape:label=""
       inkscape:color="rgb(0,134,229)" />
    <sodipodi:guide
       position="173.03063,13.229166"
       orientation="0,1"
       id="guide5"
       inkscape:locked="false"
       inkscape:label=""
       inkscape:color="rgb(0,134,229)" />
    <sodipodi:guide
       position="17.398909,3.96875"
       orientation="0,1"
       id="guide6"
       inkscape:locked="false"
       inkscape:label=""
       inkscape:color="rgb(0,134,229)" />
    <sodipodi:guide
       position="99.392807,22.489583"
       orientation="0,1"
       id="guide7"
       inkscape:locked="false"
       inkscape:label=""
       inkscape:color="rgb(0,134,229)" />
    <sodipodi:guide
       position="20.017818,9.9762453"
       orientation="1,0"
       id="guide8"
       inkscape:locked="false" />
    <sodipodi:guide
       position="67.952168,33.012557"
       orientation="1,0"
       id="guide9"
       inkscape:locked="false" />
    <sodipodi:guide
       position="43.984993,26.325917"
       orientation="1,0"
       id="guide10"
       inkscape:locked="false" />
    <sodipodi:guide
       position="91.919342,33.012557"
       orientation="1,0"
       id="guide11"
       inkscape:locked="false" />
    <sodipodi:guide
       position="115.88652,33.012557"
       orientation="1,0"
       id="guide12"
       inkscape:locked="false" />
    <sodipodi:guide
       position="163.82977,5.4186931"
       orientation="1,0"
       id="guide13"
       inkscape:locked="false" />
    <sodipodi:guide
       position="174.41311,5.4186927"
       orientation="1,0"
       id="guide14"
       inkscape:locked="false" />
    <sodipodi:guide
       position="32.001406,35.899714"
       orientation="1,0"
       id="guide15"
       inkscape:locked="false" />
    <sodipodi:guide
       position="55.968578,35.899714"
       orientation="1,0"
       id="guide16"
       inkscape:locked="false" />
    <sodipodi:guide
       position="79.935757,37.799456"
       orientation="1,0"
       id="guide17"
       inkscape:locked="false" />
    <sodipodi:guide
       position="103.90293,37.799456"
       orientation="1,0"
       id="guide18"
       inkscape:locked="false" />
    <sodipodi:guide
       position="139.85366,17.772325"
       orientation="1,0"
       id="guide19"
       inkscape:locked="false" />
    <sodipodi:guide
       position="127.87011,37.799456"
       orientation="1,0"
       id="guide20"
       inkscape:locked="false" />
    <sodipodi:guide
       position="154.57984,17.772324"
       orientation="1,0"
       id="guide21"
       inkscape:locked="false" />
  </sodipodi:namedview>
  <defs
     id="defs1" />
  <g
     inkscape:groupmode="layer"
     id="layer1"
     inkscape:label="Background"
     style="display:none">
    <rect
       style="fill:#e2e2e2;fill-opacity:1;stroke-width:1.92737;stroke-linecap:round;stroke-linejoin:round;stroke-miterlimit:3;stroke-dasharray:1.92737, 1.44553;stroke-dashoffset:0"
       id="rect21"
       width="264.58334"
       height="26.458332"
       x="0"
       y="0" />
  </g>
  <g
     inkscape:groupmode="layer"
     id="layer2"
     inkscape:label="Graphics"
     sodipodi:insensitive="true">
    <path
       style="fill:none;stroke:#215f9a;stroke-width:2.64583;stroke-linecap:butt;stroke-linejoin:bevel;stroke-miterlimit:3;stroke-dasharray:2.64583, 1.98437;stroke-dashoffset:0;stroke-opacity:1"
       d="m 20.017818,22.489583 c 11.983588,0 1e-6,-18.520833 11.983588,-18.520833 11.983587,0 0,18.520833 11.983587,18.520833 11.983585,0 0,-18.520833 11.983586,-18.520833 11.983589,0 -10e-7,18.520833 11.983589,18.520833 11.983589,0 0,-18.520833 11.983589,-18.520833 11.983585,0 0,18.520833 11.983585,18.520833 11.983588,0 -3e-6,-18.520833 11.983588,-18.520833 11.98359,0 0,18.520833 11.98359,18.520833 11.98359,0 4e-5,-18.520833 11.98359,-18.520833 11.98355,0 -0.0432,18.520833 11.98355,18.520833"
       id="path1"
       sodipodi:nodetypes="czssssssssc" />
    <path
       id="path14-9"
       style="display:inline;fill:#215f9a;fill-opacity:1;stroke-width:2.22562;stroke-linejoin:bevel;stroke-miterlimit:3;stroke-dasharray:2.59656, 1.8825"
       d="m 147.21675,1.3229166 c -4.06652,0 -7.36309,3.7632147 -7.36309,7.363091 0,1.7232784 0.62676,3.1333164 0.62676,3.1333164 0,0 4.7551,10.765302 5.952,12.838392 0.27585,0.477779 0.78433,0.4777 0.78433,0.4777 0,0 0.50697,1.28e-4 0.78083,-0.474198 1.20314,-2.083902 5.54058,-11.745432 5.54058,-11.745432 0,0 1.04168,-2.5065 1.04168,-4.2297774 0,-3.5998773 -3.29656,-7.363092 -7.36309,-7.363092 z m 0,4.1617474 a 3.2013444,3.2013444 0 0 1 3.20135,3.2013436 3.2013444,3.2013444 0 0 1 -3.20135,3.2013454 3.2013444,3.2013444 0 0 1 -3.20134,-3.2013454 3.2013444,3.2013444 0 0 1 3.20134,-3.2013436 z"
       inkscape:label="Pin 2" />
    <g
       id="g2"
       transform="matrix(0.23684211,0,0,0.23684211,-27.983169,9.7826207)"
       inkscape:label="Pin 1">
      <path
         id="path14"
         style="display:inline;fill:#215f9a;fill-opacity:1;stroke-width:9.39705;stroke-linejoin:bevel;stroke-miterlimit:3;stroke-dasharray:10.9632, 7.94835"
         d="m 171.58229,-35.71875 c -17.16973,0 -31.08854,15.889094 -31.08854,31.0885413 0,7.2760415 2.64583,13.2291665 2.64583,13.2291665 0,0 20.07772,45.4534872 25.13129,54.2065102 1.16467,2.017283 3.31142,2.017447 3.31142,2.017447 0,0 2.14068,-2.43e-4 3.29696,-2.002977 5.07992,-8.798677 23.39288,-49.590772 23.39288,-49.590772 0,0 4.3987,-10.5833332 4.3987,-17.8593747 0,-15.1994473 -13.91881,-31.0885413 -31.08854,-31.0885413 z m 0,7.9375 a 23.8125,23.8125 0 0 1 23.8125,23.8124996 23.8125,23.8125 0 0 1 -23.8125,23.8124994 23.8125,23.8125 0 0 1 -23.8125,-23.8124994 23.8125,23.8125 0 0 1 23.8125,-23.8124996 z"
         inkscape:label="Pin 1" />
      <path
         id="path12-8-0"
         style="baseline-shift:baseline;display:inline;overflow:visible;vector-effect:none;fill:#215f9a;fill-opacity:1;stroke:none;stroke-width:1.08273;stroke-linecap:round;stroke-linejoin:round;stroke-miterlimit:3;stroke-opacity:1;enable-background:accumulate;stop-color:#000000"
         inkscape:label="Carrot"
         d="m 176.82825,-22.489583 a 0.86328947,0.86328947 0 0 0 -0.4322,0.115619 c -1.39756,0.80688 -2.10228,2.323459 -2.48567,3.902546 -0.92249,-0.497862 -1.91171,-0.846878 -2.91504,-0.853011 -0.3659,-0.0023 -0.73369,0.04115 -1.10081,0.139519 a 0.86328947,0.86328947 0 0 0 -0.61068,0.611437 c -0.0878,0.329413 -0.1283,0.660436 -0.12911,0.99111 -0.004,1.562911 0.8784,3.118455 1.83918,4.464004 0.2882,0.403627 0.58302,0.785614 0.87766,1.140148 -0.0353,0.03777 -0.07,0.07588 -0.10408,0.114345 -1.07286,1.210829 -1.58107,2.6864012 -1.91194,3.9212063 -0.1536,0.5732647 -0.11987,1.1642751 -0.0757,2.051378 0.0442,0.887103 0.1437,1.9813455 0.28766,3.1712958 0.28789,2.37991385 0.75101,5.1317234 1.3214,7.3047833 0.56918,2.1684191 1.51196,4.8486853 2.43375,7.0233436 0.4609,1.087329 0.9134,2.043546 1.3295,2.764948 0.20806,0.360699 0.40274,0.661332 0.61825,0.914234 0.21552,0.252894 0.4138,0.587676 1.05721,0.587676 0.6434,0 0.84124,-0.3342 1.05712,-0.58693 0.21588,-0.25273 0.41116,-0.553302 0.61982,-0.914009 0.41734,-0.721415 0.87126,-1.677773 1.33318,-2.765319 0.92382,-2.1750943 1.86691,-4.8558102 2.42925,-7.0266397 0.56233,-2.1707634 1.02582,-4.92090335 1.31564,-7.2998329 0.14491,-1.1894714 0.24586,-2.28346 0.29118,-3.1707799 0.0453,-0.8873172 0.0799,-1.4792404 -0.0741,-2.0541482 -0.32876,-1.2269311 -0.83698,-2.7021213 -1.90984,-3.9146123 -0.0353,-0.03994 -0.0713,-0.07956 -0.10798,-0.118767 0.29525,-0.355155 0.59066,-0.737852 0.87947,-1.14232 1.16405,-1.630235 2.21286,-3.56875 1.71006,-5.455114 a 0.86328947,0.86328947 0 0 0 -0.61068,-0.611437 c -0.36712,-0.09837 -0.73491,-0.141757 -1.10081,-0.139519 -1.02578,0.0063 -2.0368,0.370867 -2.97685,0.886581 -0.38137,-1.605793 -1.05409,-3.142836 -2.42289,-3.935518 a 0.86328947,0.86328947 0 0 0 -0.43198,-0.116217 z m -0.018,1.97278 c 0.62568,0.695282 1.15319,2.043317 1.39521,3.494023 0.19444,1.165489 0.21546,2.394909 0.17781,3.214084 -0.48197,-0.09394 -1.00033,-0.144766 -1.55564,-0.144766 -0.56213,0 -1.08636,0.05181 -1.57332,0.147614 -0.0542,-0.815102 -0.0551,-2.028273 0.12446,-3.186511 0.22437,-1.447525 0.73272,-2.799708 1.43148,-3.524444 z m -5.89541,2.937962 c 0.77542,0.01418 1.73425,0.371547 2.67421,0.930342 -0.1582,1.31567 -0.15512,2.520721 -0.0386,3.418193 -0.10619,0.05328 -0.20969,0.109062 -0.31051,0.167171 -0.2894,-0.33186 -0.57761,-0.689455 -0.8411,-1.058474 -0.85467,-1.196935 -1.43479,-2.523173 -1.48401,-3.457232 z m 11.75949,0 c 0.0226,-0.0011 0.0438,5.29e-4 0.0661,0 -0.0492,0.934059 -0.62934,2.260297 -1.484,3.457232 -0.26398,0.369697 -0.55274,0.727971 -0.84267,1.060347 -0.10171,-0.0587 -0.20613,-0.115021 -0.31329,-0.16882 0.10713,-0.899431 0.0818,-2.087564 -0.089,-3.385824 0.93077,-0.561888 1.88433,-0.92944 2.66289,-0.962935 z m -5.84671,5.351785 c 1.90394,0 2.98534,0.62781 3.76932,1.513827 0.78399,0.8860184 1.23486,2.0963422 1.53526,3.2174532 0.002,0.00804 0.0598,0.6907186 0.0175,1.5192189 -0.0133,0.2605617 -0.0321,0.5443194 -0.0559,0.8469498 h -2.58061 a 0.86320314,0.86320314 0 0 0 -0.8632,0.8632031 0.86320314,0.86320314 0 0 0 0.8632,0.8632031 h 2.41194 c -0.0178,0.1568133 -0.0366,0.3158411 -0.0562,0.4767104 -0.25348,2.08060127 -0.65029,4.4775596 -1.11303,6.4289172 h -2.01002 a 0.86320314,0.86320314 0 0 0 -0.8632,0.8631978 0.86320314,0.86320314 0 0 0 0.8632,0.8632084 h 1.55025 c -0.54223,1.843487 -1.308,3.9642282 -2.04734,5.7049271 -0.44447,1.046485 -0.88254,1.960396 -1.23853,2.575751 -0.065,0.112392 -0.12347,0.202234 -0.18185,0.292833 -0.0581,-0.09037 -0.11612,-0.179832 -0.18074,-0.291857 -0.35494,-0.615365 -0.79178,-1.529424 -1.23546,-2.576124 -0.1999,-0.471606 -0.40187,-0.9710972 -0.60094,-1.4854286 h 0.28998 a 0.86320314,0.86320314 0 0 0 0.86321,-0.8632031 0.86320314,0.86320314 0 0 0 -0.86321,-0.8632032 h -0.92735 c -0.438,-1.2448989 -0.83071,-2.492875 -1.11504,-3.5760739 -0.18977,-0.7229871 -0.36989,-1.5286275 -0.53583,-2.3704338 h 1.61911 a 0.86320314,0.86320314 0 0 0 0.8632,-0.86320836 0.86320314,0.86320314 0 0 0 -0.8632,-0.86320047 h -1.93217 c -0.16836,-1.00982197 -0.31355,-2.02641727 -0.42853,-2.97693027 -0.14015,-1.1585151 -0.23605,-2.2215739 -0.27732,-3.0499076 -0.0163,-0.3263423 -0.0171,-0.6300602 -0.012,-0.878787 h 2.65001 a 0.86320314,0.86320314 0 0 0 0.8632,-0.8632058 0.86320314,0.86320314 0 0 0 -0.8632,-0.8632031 h -2.28029 c 0.2835,-0.7780639 0.6633,-1.5333788 1.19777,-2.1365778 0.78287,-0.883555 1.86298,-1.508056 3.76804,-1.508056 z m -0.27859,26.410942 c -0.0232,0.01868 -0.0391,0.02498 -0.042,0.02384 l -8e-5,-7.7e-5 h -7e-5 v -7.9e-5 h -8e-5 v -7.7e-5 l -8e-5,-7.7e-5 v -7.6e-5 l -7e-5,-7.7e-5 v -7.7e-5 -7.9e-5 -7.4e-5 l 7e-5,-8e-5 c 5.3e-4,-0.0028 0.0131,-0.01183 0.0423,-0.02304 z m 0.55779,2.62e-4 c 0.0297,0.01151 0.0423,0.02082 0.0424,0.02355 l -8e-5,7.4e-5 v 7.7e-5 7.4e-5 7.9e-5 h -8e-5 v 7.4e-5 l -7e-5,7.9e-5 -8e-5,7.5e-5 h -7e-5 c -0.002,0.0016 -0.0184,-0.0049 -0.042,-0.02405 z" />
      <path
         id="path10"
         style="display:inline;fill:#215f9a;fill-opacity:1;stroke:none;stroke-width:1.17012;stroke-dasharray:none"
         d="m 162.78819,-22.489584 c -0.76729,0 -0.95911,0.575468 -0.95911,0.863203 v 8.727719 c -0.57547,0 -1.24685,-0.767067 -1.24685,-0.767067 v -7.672918 c 0,-0.287736 -0.19182,-0.959113 -0.96443,-0.959113 -0.77262,0 -0.9538,0.671377 -0.9538,0.959113 v 9.591147 c 0,1.9182288 1.7264,3.3817768 2.11005,3.3817768 L 160.3904,13.573124 c -0.007,0.383644 0.38365,2.302013 2.39779,2.301875 2.01415,-1.88e-4 2.4045,-1.91829 2.39779,-2.301875 l -0.38364,-21.9388472 c 0.38364,0 2.11004,-1.463548 2.11004,-3.3817768 v -9.591147 c 0,-0.287736 -0.19182,-0.959113 -0.95911,-0.959113 -0.76729,0 -0.95912,0.671377 -0.95912,0.959113 v 7.672918 c 0,0 -0.67138,0.767067 -1.24684,0.767067 v -8.727719 c 0,-0.287735 -0.19183,-0.863203 -0.95912,-0.863203 z m -2.20596,10.742084 c 0,0 0.67138,0.767291 2.20596,0.767291 1.53458,0 2.20596,-0.767291 2.20596,-0.767291 0,0 0,1.9182288 -2.20596,1.9182288 -2.20596,0 -2.20596,-1.9182288 -2.20596,-1.9182288 z m 2.20596,3.9572456 c 0.19182,0 0.57547,21.3633784 0.57547,21.3633784 0,0 0,0.383644 -0.57547,0.383644 -0.57547,0 -0.57547,-0.383644 -0.57547,-0.383644 0,0 0.38365,-21.3633784 0.57547,-21.3633784 z"
         inkscape:label="Fork" />
    </g>
  </g>
  <g
     id="g1"
     transform="matrix(0.23684211,0,0,0.23684211,-27.983169,9.7826207)"
     inkscape:label="Text"
     sodipodi:insensitive="true">
    <text
       xml:space="preserve"
       style="font-style:normal;font-variant:normal;font-weight:normal;font-stretch:normal;font-size:21.1667px;font-family:'Impact LT Std';-inkscape-font-specification:'Impact LT Std';text-align:start;writing-mode:lr-tb;direction:ltr;text-anchor:start;display:inline;fill:#215f9a;fill-opacity:1;stroke:none;stroke-width:5.22097"
       x="174.3073"
       y="20.722153"
       id="text1"
       transform="matrix(4.2222221,0,0,4.2222221,118.15116,-41.304398)"><tspan
         sodipodi:role="line"
         id="tspan1"
         x="174.3073"
         y="20.722153"
         style="font-size:21.1667px;stroke-width:5.22097">AcessoSAN</tspan></text>
  </g>
</svg>
