<?xml version="1.0" encoding="UTF-8" standalone="no"?>
<!-- Created with Inkscape (http://www.inkscape.org/) -->

<svg
   width="618.42102"
   height="1000"
   viewBox="0 0 618.42102 1000"
   version="1.1"
   id="svg1"
   inkscape:version="1.4.2 (ebf0e940d0, 2025-05-08)"
   sodipodi:docname="pin.svg"
   inkscape:export-filename="pin.png"
   inkscape:export-xdpi="96"
   inkscape:export-ydpi="96"
   xmlns:inkscape="http://www.inkscape.org/namespaces/inkscape"
   xmlns:sodipodi="http://sodipodi.sourceforge.net/DTD/sodipodi-0.dtd"
   xmlns="http://www.w3.org/2000/svg"
   xmlns:svg="http://www.w3.org/2000/svg">
  <sodipodi:namedview
     id="namedview1"
     pagecolor="#ffffff"
     bordercolor="#000000"
     borderopacity="0.25"
     inkscape:showpageshadow="2"
     inkscape:pageopacity="0.0"
     inkscape:pagecheckerboard="0"
     inkscape:deskcolor="#d1d1d1"
     inkscape:document-units="px"
     inkscape:zoom="0.49953305"
     inkscape:cx="457.42719"
     inkscape:cy="469.43841"
     inkscape:window-width="1920"
     inkscape:window-height="1011"
     inkscape:window-x="0"
     inkscape:window-y="0"
     inkscape:window-maximized="1"
     inkscape:current-layer="svg1" />
  <defs
     id="defs1">
    <clipPath
       clipPathUnits="userSpaceOnUse"
       id="clipPath29">
      <path
         id="path29"
         style="display:inline;fill:#000000;stroke-width:46.5754;stroke-linejoin:bevel;stroke-miterlimit:3;stroke-dasharray:54.3381, 38.0365"
         d="M 649.99841,145 H 915 v 85 h 85 V 430 H 649.99841 Z"
         sodipodi:nodetypes="ccccccc" />
    </clipPath>
  </defs>
  <path
     id="path14"
     style="display:inline;fill:#215f9a;fill-opacity:1;stroke-width:93.4642;stroke-linejoin:bevel;stroke-miterlimit:3;stroke-dasharray:109.042, 79.0553"
     d="M 309.21053,0 C 138.43826,0 -2.3684207e-5,158.03492 0,309.21053 c 0,72.36842 26.315787,131.57894 26.315787,131.57894 0,0 199.695503,452.08609 249.958893,539.14475 11.58403,20.06416 32.93585,20.06578 32.93585,20.06578 0,0 21.29145,-0.002 32.79195,-19.92187 50.52554,-87.51273 232.6686,-493.23602 232.6686,-493.23602 0,0 43.74995,-105.26316 43.74995,-177.63158 C 618.42103,158.03492 479.98279,0 309.21053,0 Z m 0,78.947369 A 236.84211,236.84211 0 0 1 546.05262,315.78948 236.84211,236.84211 0 0 1 309.21053,552.63159 236.84211,236.84211 0 0 1 72.36842,315.78948 236.84211,236.84211 0 0 1 309.21053,78.947369 Z"
     inkscape:label="Pin 1"
     sodipodi:insensitive="true" />
  <path
     id="path12-8-0"
     style="baseline-shift:baseline;display:inline;overflow:visible;vector-effect:none;fill:#215f9a;fill-opacity:1;stroke:none;stroke-width:10.7689;stroke-linecap:round;stroke-linejoin:round;stroke-miterlimit:3;stroke-opacity:1;enable-background:accumulate;stop-color:#000000"
     inkscape:label="Carrot"
     d="m 361.38753,131.57895 a 8.5863853,8.5863853 0 0 0 -4.29874,1.14997 c -13.90029,8.02533 -20.90957,23.10941 -24.72284,38.8152 -9.17519,-4.95179 -19.01405,-8.42316 -28.99329,-8.48416 -3.63929,-0.0231 -7.29737,0.40929 -10.94882,1.38769 a 8.5863853,8.5863853 0 0 0 -6.07394,6.08141 c -0.8733,3.27639 -1.276,6.56878 -1.28411,9.85773 -0.039,15.54489 8.73665,31.01653 18.29271,44.39953 2.86653,4.01452 5.79884,7.81383 8.72934,11.34006 -0.35097,0.37568 -0.69623,0.75475 -1.0352,1.13728 -10.67085,12.04307 -15.7255,26.71928 -19.01635,39.00082 -1.52776,5.70176 -1.19231,11.58002 -0.75269,20.40326 0.43958,8.82324 1.42932,19.7067 2.86112,31.54211 2.86344,23.67092 7.46959,51.04076 13.1428,72.65429 5.66117,21.56736 15.03816,48.22563 24.20643,69.85505 4.58416,10.8147 9.08471,20.32536 13.22336,27.50053 2.06932,3.58755 4.00567,6.57768 6.14922,9.09308 2.14355,2.51531 4.11565,5.84509 10.51505,5.84509 6.3994,0 8.36708,-3.32399 10.51429,-5.83768 2.14719,-2.51368 4.08942,-5.5032 6.16488,-9.09084 4.1509,-7.17529 8.66558,-16.68734 13.25984,-27.50421 9.18853,-21.63377 18.56854,-48.2965 24.16169,-69.88785 5.59302,-21.59068 10.20292,-48.94392 13.08552,-72.60505 1.44131,-11.83063 2.4454,-22.71158 2.89611,-31.53697 0.45083,-8.82536 0.79508,-14.71271 -0.73705,-20.43081 -3.26984,-12.20321 -8.32465,-26.87564 -18.99545,-38.93524 -0.35159,-0.39728 -0.70946,-0.79127 -1.07396,-1.18127 2.9366,-3.53241 5.87475,-7.33877 8.74729,-11.36165 11.57779,-16.21452 22.00938,-35.49523 17.00846,-54.25726 a 8.5863853,8.5863853 0 0 0 -6.07393,-6.08141 c -3.6514,-0.9784 -7.30943,-1.40994 -10.94874,-1.38769 -10.20257,0.0623 -20.25829,3.6887 -29.60811,8.81806 -3.79326,-15.97142 -10.48405,-31.25905 -24.0984,-39.14315 a 8.5863853,8.5863853 0 0 0 -4.29649,-1.15592 z m -0.17895,19.62152 c 6.22305,6.91537 11.46973,20.32308 13.87695,34.75199 1.93392,11.59211 2.14292,23.82006 1.7685,31.96768 -4.79379,-0.93439 -9.94942,-1.43986 -15.47255,-1.43986 -5.59111,0 -10.80511,0.51535 -15.64848,1.46819 -0.53876,-8.10711 -0.54776,-20.17346 1.23789,-31.69343 2.23163,-14.39727 7.28769,-27.84625 14.23769,-35.05457 z M 302.5721,180.4218 c 7.71242,0.14101 17.24908,3.69546 26.59798,9.25331 -1.57348,13.08582 -1.54287,25.0714 -0.38382,33.99777 -1.05613,0.52997 -2.08555,1.08475 -3.08838,1.66271 -2.87838,-3.30072 -5.74499,-6.85742 -8.36567,-10.52771 -8.50061,-11.90487 -14.27055,-25.09581 -14.76011,-34.38608 z m 116.96136,0 c 0.22453,-0.0106 0.43615,0.005 0.65736,0 -0.48955,9.29027 -6.2595,22.48121 -14.76012,34.38608 -2.62551,3.67704 -5.49758,7.24049 -8.38125,10.54633 -1.01167,-0.58387 -2.05022,-1.14401 -3.11601,-1.6791 1.06543,-8.94585 0.81319,-20.76318 -0.88544,-33.67584 9.25757,-5.58859 18.74179,-9.24431 26.48546,-9.57747 z m -58.15209,53.22953 c 18.93684,0 29.69255,6.24428 37.49011,15.05672 7.79767,8.81244 12.28204,20.85048 15.26992,32.00119 0.0213,0.0799 0.59447,6.86998 0.1736,15.11034 -0.13227,2.59157 -0.31879,5.41387 -0.55598,8.42387 h -25.66706 a 8.5855266,8.5855266 0 0 0 -8.58552,8.58553 8.5855266,8.5855266 0 0 0 8.58552,8.58552 h 23.9895 c -0.17763,1.55969 -0.36402,3.14139 -0.55894,4.74143 -2.52107,20.69391 -6.46793,44.53437 -11.07024,63.94281 h -19.99196 a 8.5855266,8.5855266 0 0 0 -8.5855,8.58548 8.5855266,8.5855266 0 0 0 8.5855,8.58557 h 15.41889 c -5.39301,18.33556 -13.0095,39.42872 -20.36299,56.74192 -4.42079,10.40848 -8.77795,19.49835 -12.31859,25.61874 -0.64671,1.11787 -1.22805,2.01145 -1.80876,2.91255 -0.5774,-0.89881 -1.15495,-1.78863 -1.79763,-2.90284 -3.53029,-6.1205 -7.87518,-15.21184 -12.28802,-25.62244 -1.98827,-4.69066 -3.99712,-9.65866 -5.97708,-14.77427 h 2.88418 a 8.5855266,8.5855266 0 0 0 8.58557,-8.58553 8.5855266,8.5855266 0 0 0 -8.58557,-8.58553 h -9.22347 c -4.35643,-12.38191 -8.26243,-24.79444 -11.09035,-35.56807 -1.88752,-7.19093 -3.67897,-15.20392 -5.32944,-23.57664 h 16.10382 a 8.5855266,8.5855266 0 0 0 8.58555,-8.58557 8.5855266,8.5855266 0 0 0 -8.58555,-8.5855 h -19.21756 c -1.67458,-10.04382 -3.11859,-20.155 -4.26221,-29.60892 -1.39393,-11.52274 -2.34782,-22.09606 -2.75827,-30.33476 -0.16184,-3.24585 -0.17,-6.26667 -0.11894,-8.74053 h 26.35726 a 8.5855266,8.5855266 0 0 0 8.58553,-8.58555 8.5855266,8.5855266 0 0 0 -8.58553,-8.58553 h -22.68002 c 2.81976,-7.73872 6.5973,-15.25119 11.91318,-21.25067 7.78657,-8.78795 18.52942,-14.99932 37.47744,-14.99932 z m -2.7709,262.68655 c -0.23105,0.18578 -0.38913,0.24841 -0.41736,0.2371 l -7.7e-4,-7.7e-4 h -7.6e-4 v -7.8e-4 h -7.7e-4 v -7.7e-4 l -7.6e-4,-7.6e-4 v -7.7e-4 l -7.5e-4,-7.6e-4 v -7.7e-4 -7.8e-4 -7.3e-4 l 7.5e-4,-8e-4 c 0.005,-0.0276 0.13001,-0.11759 0.42038,-0.22921 z m 5.54779,0.002 c 0.29551,0.11452 0.42035,0.2071 0.42179,0.23421 l -7.3e-4,7.4e-4 v 7.6e-4 7.3e-4 8e-4 h -7.7e-4 v 7.3e-4 l -7.3e-4,8e-4 -8e-4,7.3e-4 h -7.3e-4 c -0.0237,0.0157 -0.18342,-0.0487 -0.41813,-0.23921 z"
     sodipodi:insensitive="true" />
  <path
     id="path10"
     style="display:inline;fill:#215f9a;fill-opacity:1;stroke:none;stroke-width:11.6382;stroke-dasharray:none"
     d="m 221.74332,131.57895 c -7.63155,0 -9.53947,5.72367 -9.53947,8.58552 v 86.80698 c -5.72367,0 -12.40129,-7.62935 -12.40129,-7.62935 v -76.31579 c 0,-2.86186 -1.90785,-9.53947 -9.5924,-9.53947 -7.68458,0 -9.48658,6.67761 -9.48658,9.53947 v 95.39475 c 0,19.07894 17.17103,33.63557 20.98681,33.63557 l -3.81578,218.20653 c -0.0666,3.81576 3.81578,22.89611 23.84871,22.89473 20.03292,-0.002 23.91539,-19.07955 23.84866,-22.89473 l -3.81574,-218.20653 c 3.81574,0 20.98681,-14.55663 20.98681,-33.63557 v -95.39475 c 0,-2.86186 -1.90789,-9.53947 -9.5395,-9.53947 -7.63157,0 -9.53947,6.67761 -9.53947,9.53947 v 76.31579 c 0,0 -6.67763,7.62935 -12.40129,7.62935 v -86.80698 c 0,-2.86185 -1.90792,-8.58552 -9.53947,-8.58552 z m -21.94076,106.84211 c 0,0 6.67762,7.63156 21.94076,7.63156 15.26313,0 21.94076,-7.63156 21.94076,-7.63156 0,0 0,19.07894 -21.94076,19.07894 -21.94076,0 -21.94076,-19.07894 -21.94076,-19.07894 z m 21.94076,39.35925 c 1.90789,0 5.72371,212.48285 5.72371,212.48285 0,0 0,3.81576 -5.72371,3.81576 -5.72371,0 -5.72371,-3.81576 -5.72371,-3.81576 0,0 3.81581,-212.48285 5.72371,-212.48285 z"
     inkscape:label="Fork"
     sodipodi:insensitive="true" />
</svg>
