<?xml version="1.0" encoding="UTF-8" standalone="no"?>
<!-- Created with Inkscape (http://www.inkscape.org/) -->

<svg
   version="1.1"
   id="svg1"
   width="1000"
   height="366.13901"
   viewBox="0 0 999.99999 366.139"
   sodipodi:docname="logo.svg"
   xml:space="preserve"
   inkscape:version="1.4.2 (ebf0e940d0, 2025-05-08)"
   inkscape:export-filename="logo.png"
   inkscape:export-xdpi="96"
   inkscape:export-ydpi="96"
   xmlns:inkscape="http://www.inkscape.org/namespaces/inkscape"
   xmlns:sodipodi="http://sodipodi.sourceforge.net/DTD/sodipodi-0.dtd"
   xmlns="http://www.w3.org/2000/svg"
   xmlns:svg="http://www.w3.org/2000/svg"><defs
     id="defs1" /><sodipodi:namedview
     id="namedview1"
     pagecolor="#ffffff"
     bordercolor="#000000"
     borderopacity="0.25"
     inkscape:showpageshadow="2"
     inkscape:pageopacity="0.0"
     inkscape:pagecheckerboard="0"
     inkscape:deskcolor="#d1d1d1"
     inkscape:zoom="0.48073961"
     inkscape:cx="240.2548"
     inkscape:cy="127.92788"
     inkscape:window-width="1920"
     inkscape:window-height="1011"
     inkscape:window-x="0"
     inkscape:window-y="0"
     inkscape:window-maximized="1"
     inkscape:current-layer="svg1"><inkscape:page
       x="0"
       y="0"
       id="page1"
       width="1000"
       height="366.13901"
       margin="0"
       bleed="0" /></sodipodi:namedview><g
     id="g1"
     inkscape:groupmode="layer"
     inkscape:label="1"><path
       id="path5"
       d="m 246.43461,237.45588 c 12.66335,0 24.34195,4.21467 33.71615,11.31074 -8.42078,12.51258 -19.19874,23.30653 -31.70374,31.73656 -6.70363,-14.66009 -18.21396,-26.66545 -32.51858,-33.9936 8.77544,-5.72366 19.25152,-9.0537 30.50617,-9.0537 z m 44.89658,22.57909 c 6.92797,9.31202 11.03032,20.8509 11.03032,33.34534 0,3.10389 -0.25897,6.14775 -0.74558,9.11359 -2.75635,0.41765 -5.57537,0.63605 -8.44719,0.63605 -12.65015,0 -24.31882,-4.20627 -33.68974,-11.2921 12.34335,-8.70831 23.12624,-19.47537 31.85219,-31.80288 z m 1.83755,-68.75521 c 2.20046,0 4.36794,0.13196 6.50076,0.37939 -1.03755,15.5378 -5.12175,30.24045 -11.6555,43.51956 -11.71651,-8.38796 -26.07227,-13.32678 -41.57774,-13.32678 -1.05899,0 -2.11137,0.027 -3.15882,0.0727 9.23235,-18.18281 28.10778,-30.64491 49.8913,-30.64491 z m 55.79494,52.10596 c 0.0857,1.26172 0.13196,2.53548 0.13196,3.81847 0,22.02239 -12.73922,41.07103 -31.24517,50.19105 0.0726,-1.32918 0.11547,-2.66628 0.11547,-4.01427 0,-14.34437 -4.22771,-27.70151 -11.50208,-38.89893 1.34107,0.0747 2.68706,0.11727 4.04626,0.11727 14.15451,0 27.34737,-4.1167 38.45356,-11.21359 z m -33.96027,-47.67865 c 13.82131,5.86898 24.79555,17.13749 30.2736,31.15906 -9.54741,7.59043 -21.62683,12.12841 -34.76854,12.12841 -2.31427,0 -4.5939,-0.14433 -6.83559,-0.41815 6.05042,-13.26114 9.97298,-27.69574 11.33053,-42.86932 z m 42.51796,-42.93201 c 5.63806,8.7309 8.91235,19.13111 8.91235,30.29505 0,11.64065 -3.5613,22.45093 -9.64968,31.40467 -6.77127,-13.12967 -17.48984,-23.89607 -30.5837,-30.72672 13.41222,-6.77622 24.40131,-17.64654 31.32103,-30.973 z m -47.0129,-25.63021 c 13.56234,0 25.99641,4.82979 35.67907,12.86294 -5.56383,14.397 -16.91415,25.91392 -31.19733,31.70374 -1.41529,-15.63414 -5.55393,-30.48145 -11.9392,-44.06852 2.43964,-0.32496 4.92875,-0.49816 7.45746,-0.49816 z m -10.83402,48.82573 c -2.14272,-0.19464 -4.31019,-0.29526 -6.50406,-0.29526 -14.15451,0 -27.34734,4.11224 -38.45355,11.20848 -0.0841,-1.26024 -0.13196,-2.53201 -0.13196,-3.81369 0,-22.79634 13.64646,-42.40911 33.21468,-51.11691 6.67066,13.41222 10.83404,28.28758 11.87489,44.01738 z M 318.57792,69.619559 c 18.56532,9.098742 31.35238,28.182016 31.35238,50.244321 0,1.15961 -0.0396,2.30603 -0.10887,3.44749 -11.28269,-7.43767 -24.7906,-11.77096 -39.31131,-11.77096 -1.0458,0 -2.08499,0.0214 -3.11923,0.066 7.13416,-11.126 11.2728,-24.355132 11.2728,-38.549236 0,-1.153013 -0.033,-2.297778 -0.0857,-3.437595 z m -24.57287,-5.679291 c 2.85862,0 5.66775,0.214438 8.4109,0.630117 0.42227,2.766241 0.64166,5.600113 0.64166,8.48512 0,12.955315 -4.40586,24.879681 -11.8023,34.361105 -8.68637,-12.249315 -19.40822,-22.954687 -31.66909,-31.627853 9.49133,-7.421182 21.44043,-11.848489 34.41883,-11.848489 z M 247.13236,17.131894 c 22.03921,0 41.10103,12.755724 50.21297,31.28476 -1.10683,-0.05114 -2.22025,-0.08083 -3.33863,-0.08083 -14.48772,0 -27.96921,4.310191 -39.23542,11.716527 0.0775,-1.365801 0.12371,-2.739849 0.12371,-4.127094 0,-14.248536 -4.16833,-27.527157 -11.35197,-38.679549 1.18765,-0.07423 2.38355,-0.113817 3.58934,-0.113817 z M 279.89343,118.4123 c -14.12811,6.70199 -25.70938,17.89727 -32.89963,31.74333 -5.63804,-8.72926 -8.91233,-19.12781 -8.91233,-30.29175 0,-12.20149 3.91265,-23.490788 10.54865,-32.685201 12.29881,8.328416 22.925,18.941411 31.26331,31.233621"
       style="fill:#f68b1b;fill-opacity:1;fill-rule:evenodd;stroke:none;stroke-width:0.164952" /><path
       id="path6"
       d="m 238.74622,63.735728 c -13.43038,-6.205487 -28.08139,-10.222063 -43.48953,-11.597761 5.77496,-14.301322 17.29355,-25.67145 31.69382,-31.25012 7.7181,9.590299 12.3384,21.773639 12.3384,35.037413 0,2.650776 -0.18475,5.257014 -0.54269,7.810468 z m -3.65203,15.559904 c -7.95563,11.528482 -12.61717,25.504838 -12.61717,40.569888 0,1.15137 0.0313,2.29613 0.0841,3.43595 -18.56367,-9.10039 -31.35239,-28.180362 -31.35239,-50.245965 0,-1.878801 0.094,-3.734509 0.27382,-5.565474 15.57641,1.073836 30.31319,5.207528 43.61161,11.805601 z m -63.452,-27.17416 c -15.46966,1.360852 -30.17478,5.387326 -43.65382,11.617555 -0.35828,-2.553454 -0.5483,-5.162991 -0.5483,-7.813767 0,-13.384189 4.7069,-25.671449 12.55251,-35.298037 14.42667,5.641353 25.93899,17.102204 31.64961,31.494249 z M 183.36532,0 C 194.8608,0 205.54638,3.4722355 214.43398,9.4236961 201.15371,16.262598 190.29494,27.13952 183.47088,40.428038 176.69797,27.07519 165.86228,16.133936 152.5901,9.2323525 161.41815,3.3980072 171.99354,0 183.36532,0 Z m -7.54159,67.453742 c -0.14351,1.849109 -0.22104,3.716364 -0.22104,5.603412 0,14.248538 4.16833,27.522206 11.35197,38.674606 -1.18765,0.0759 -2.3819,0.11876 -3.58934,0.11876 -22.68434,0 -42.21759,-13.509552 -50.98824,-32.92438 13.26954,-6.464461 27.94579,-10.482687 43.44665,-11.472398 z m -68.45944,8.184909 C 95.077365,84.287074 84.327789,94.97925 75.613058,107.21867 68.159879,97.7158 63.711955,85.740299 63.711955,72.73055 c 0,-2.749747 0.203055,-5.450008 0.587063,-8.092536 2.880222,-0.458566 5.831209,-0.697746 8.839764,-0.697746 12.891309,0 24.765856,4.366275 34.225508,11.698383 z m 12.27209,-58.83336 c 1.26418,0 2.5155,0.04454 3.75842,0.128662 -7.31,11.216722 -11.55949,24.60751 -11.55949,38.991307 0,1.289923 0.0354,2.571599 0.10375,3.845027 -11.17795,-7.233137 -24.500446,-11.43446 -38.800278,-11.43446 -1.305594,0 -2.59931,0.03629 -3.887418,0.10722 9.0415,-18.720381 28.20675,-31.637756 50.385016,-31.637756 z m -0.8434,69.914822 c 6.70561,14.034097 17.85157,25.541137 31.62108,32.701697 -8.82937,5.83269 -19.40559,9.234 -30.77768,9.234 -12.17477,0 -23.439157,-3.89451 -32.621031,-10.50249 C 95.485125,105.7473 106.28815,95.056777 118.79298,86.720113 Z M 9.3120378,152.16969 C 3.430485,161.02265 0,171.6472 0,183.07011 0,194.71241 3.560632,205.5217 9.650321,214.47544 16.482309,201.22635 27.329207,190.38737 40.582584,183.56496 27.133244,176.67328 16.150426,165.64954 9.3120378,152.16969 Z M 20.788374,139.56737 c 5.449842,14.46627 16.724623,26.08382 30.965239,31.98415 1.428481,-15.56155 5.551615,-30.34453 11.902258,-43.87388 -2.527721,-0.3497 -5.106411,-0.53279 -7.730135,-0.53279 -13.31078,0 -25.533375,4.65494 -35.137362,12.42252 z M 48.173005,69.814202 c -18.351542,9.174619 -30.95996,28.144077 -30.95996,50.049678 0,1.00785 0.02953,2.00746 0.08248,3.00047 11.143149,-7.16716 24.401147,-11.32394 38.630214,-11.32394 1.236479,0 2.46339,0.0313 3.683703,0.094 -7.274702,-11.19858 -11.50159,-24.558022 -11.50159,-38.90388 0,-0.976515 0.02656,-1.948081 0.06515,-2.916348 z M 67.089012,175.46418 c 1.987832,0.21443 4.004534,0.32661 6.04977,0.32661 22.176938,0 41.341528,-12.91903 50.383678,-31.63777 -1.28678,0.0693 -2.58066,0.10722 -3.88542,0.10722 -15.05895,0 -29.030857,-4.65824 -40.556861,-12.61055 -6.68566,13.34789 -10.886156,28.15397 -11.991167,43.81449"
       style="fill:#2c9db9;fill-opacity:1;fill-rule:evenodd;stroke:none;stroke-width:0.164952" /><path
       id="path7"
       d="m 78.297317,234.33531 c 19.74786,-8.63292 33.552183,-28.33822 33.552183,-51.2652 0,-1.00786 -0.0277,-2.00911 -0.0805,-3.00377 -11.14332,7.16881 -24.401975,11.32888 -38.630218,11.32888 -2.059423,0 -4.096082,-0.0874 -6.110968,-0.25897 0.959361,15.39957 4.899562,29.9927 11.269503,43.19906 z m 105.068003,19.95406 c 23.13449,0 42.99137,14.05373 51.49794,34.08828 -13.45512,6.63865 -28.37501,10.75469 -44.14109,11.73863 0.22763,-2.31824 0.34639,-4.6683 0.34639,-7.04641 0,-14.24194 -4.16339,-27.51231 -11.34043,-38.66009 1.2025,-0.0778 2.41325,-0.12041 3.63719,-0.12041 z m 30.51277,102.79267 c -8.77543,5.72564 -19.25646,9.05689 -30.51277,9.05689 -11.51364,0 -22.21324,-3.48331 -31.10776,-9.44993 13.08018,-6.74111 23.81359,-17.40178 30.65084,-30.42209 6.85704,13.21561 17.71417,24.02507 30.96969,30.81513 z m 25.03473,-53.3426 c 0.24578,2.12376 0.37609,4.28496 0.37609,6.47436 0,13.46288 -4.75886,25.81364 -12.68645,35.46531 -14.17594,-5.3809 -25.5972,-16.35993 -31.56516,-30.2365 15.55331,-1.36332 30.33463,-5.42015 43.87552,-11.70317 z m -94.24039,-60.6371 c 18.25998,9.20629 30.7917,28.12543 30.7917,49.96687 0,2.36591 -0.14681,4.69651 -0.43217,6.98587 -15.4418,-1.09148 -30.0491,-5.194 -43.2497,-11.71933 8.19728,-11.63553 13.01124,-25.82139 13.01124,-41.13156 0,-1.37635 -0.0445,-2.7443 -0.12107,-4.10185 z m -21.49141,105.7727 c -1.20365,0.078 -2.41902,0.11926 -3.64246,0.11926 -21.662953,0 -40.450628,-12.32701 -49.738237,-30.34535 1.14889,0.0541 2.302891,0.0856 3.464648,0.0856 14.227747,0 27.489049,-4.16042 38.631539,-11.32873 -0.0353,0.93231 -0.0612,1.86725 -0.0612,2.80863 0,14.24261 4.16833,27.51017 11.34571,38.66058 z m 47.65621,-33.51029 c -5.93826,13.64136 -17.15763,24.45477 -31.07543,29.85694 -7.70505,-9.58337 -12.32173,-21.75632 -12.32173,-35.00789 0,-2.1894 0.13213,-4.34796 0.37692,-6.47238 13.29214,6.1664 27.7782,10.18891 43.02024,11.62333 z M 64.396834,302.4256 c 2.887976,0.46071 5.850014,0.70435 8.868137,0.70435 12.712336,0 24.433477,-4.24817 33.827969,-11.39586 -12.503337,-8.8495 -23.399884,-19.81995 -32.171359,-32.38219 -7.09606,9.3752 -11.306948,21.05528 -11.306948,33.71731 0,3.18885 0.269366,6.31253 0.782201,9.35639 z M 17.47268,243.38572 c -0.08577,1.26172 -0.133446,2.53498 -0.133446,3.81847 0,21.84325 12.52858,40.76108 30.790553,49.96687 -0.0767,-1.35772 -0.120414,-2.72368 -0.120414,-4.10119 0,-14.19295 4.134021,-27.42324 11.266368,-38.54924 -1.110949,0.051 -2.226353,0.0786 -3.350005,0.0786 -14.153684,0 -27.347186,-4.1167 -38.453056,-11.21359 z m 100.75072,37.07754 c 6.89052,-9.29668 10.96532,-20.80009 10.96532,-33.25907 0,-11.64197 -3.56179,-22.45604 -9.65214,-31.40979 -7.2663,14.09052 -19.07387,25.46048 -33.48719,32.16758 8.482149,12.83457 19.42818,23.89673 32.17401,32.50128 z M 21.153083,226.86679 c 9.546583,7.59092 21.631937,12.12775 34.772653,12.12775 2.409121,0 4.784921,-0.15076 7.113545,-0.44652 C 56.977964,225.26098 53.05706,210.79306 51.711055,195.5883 37.755972,201.42264 26.66874,212.74989 21.153083,226.86679 Z m 275.174487,91.7937 c -9.234,18.18082 -28.10777,30.64558 -49.89296,30.64558 -1.04249,0 -2.07838,-0.0315 -3.10768,-0.0882 7.31396,-11.21985 11.56806,-24.61394 11.56806,-39.00335 0,-0.87309 -0.0148,-1.74486 -0.0462,-2.6102 11.07982,7.04461 24.22317,11.1303 38.32159,11.1303 1.059,0 2.10974,-0.0284 3.15718,-0.074"
       style="fill:#4fc5d8;fill-opacity:1;fill-rule:evenodd;stroke:none;stroke-width:0.164952" /></g><g
     id="g7"
     transform="matrix(1.2371381,0,0,1.2371385,-0.45361733,6.4712817)"><g
       inkscape:groupmode="layer"
       id="layer1"
       inkscape:label="Text"><path
         id="path1"
         d="M 701.47585,205.65107 V 79.888002 h 22.39066 V 129.82 h 62.42667 V 79.888002 h 22.39066 V 205.65107 H 786.29318 V 149.252 h -62.42667 v 56.39907 h -22.39066"
         style="fill:#231f20;fill-opacity:1;fill-rule:nonzero;stroke:none;stroke-width:0.133333" /><path
         id="path2"
         d="m 682.73451,179.5896 c -10.12933,17.9724 -29.48266,28.1984 -51.68,28.1984 -24.14399,0 -44.22666,-9.36253 -54.23333,-32.23853 -4.572,-10.48227 -6.87466,-21.72547 -6.87466,-33.7308 0,-22.84667 10.99733,-46.605335 29.85733,-56.484001 19.22,-10.068 48.69333,-10.497333 65.82133,2.02 6.852,5.006666 12.86267,10.478666 16.84,18.102661 L 664.89851,116.34 c -3.036,-6.05333 -8.47466,-10.85733 -14.492,-14.16667 -10.34533,-5.690662 -27.42133,-7.566662 -40.06799,1.164 -13.768,9.50534 -18.06,26.144 -18.06,38.392 0,16.928 7.04,34.44467 19.864,41.89987 11.08666,6.44533 28.93066,8.33387 41.98533,-2.1376 4.32666,-3.4692 7.65733,-7.58333 10.16266,-12.12333 l 18.444,10.22133"
         style="fill:#231f20;fill-opacity:1;fill-rule:nonzero;stroke:none;stroke-width:0.133333" /><path
         id="path3"
         d="m 479.49185,155.096 h 42.4 L 500.56518,97.106668 Z m -41.776,50.55507 49.39067,-125.763068 h 27.70533 l 50.368,125.763068 H 540.97052 L 528.09318,173.2896 h -55.53199 l -11.96934,32.36147 h -22.876"
         style="fill:#231f20;fill-opacity:1;fill-rule:nonzero;stroke:none;stroke-width:0.133333" /><path
         id="path4"
         d="M 332.90652,205.65107 V 79.888002 h 94.024 v 19.432 h -72.23733 v 31.625328 h 61.628 v 18.19734 h -61.628 v 37.0756 h 72.39733 v 19.4328 h -94.184"
         style="fill:#231f20;fill-opacity:1;fill-rule:nonzero;stroke:none;stroke-width:0.133333" /></g></g></svg>
