<?xml version="1.0" encoding="UTF-8" standalone="no"?>
<!-- Created with Inkscape (http://www.inkscape.org/) -->

<svg
   width="1060"
   height="548.37701"
   id="svg4722"
   version="1.1"
   inkscape:version="1.4.2 (ebf0e940d0, 2025-05-08)"
   sodipodi:docname="logo-w-slogan.svg"
   inkscape:export-filename="logo-w-slogan-rgb-96-dpi.png"
   inkscape:export-xdpi="96"
   inkscape:export-ydpi="96"
   xmlns:inkscape="http://www.inkscape.org/namespaces/inkscape"
   xmlns:sodipodi="http://sodipodi.sourceforge.net/DTD/sodipodi-0.dtd"
   xmlns="http://www.w3.org/2000/svg"
   xmlns:svg="http://www.w3.org/2000/svg"
   xmlns:rdf="http://www.w3.org/1999/02/22-rdf-syntax-ns#"
   xmlns:cc="http://creativecommons.org/ns#"
   xmlns:dc="http://purl.org/dc/elements/1.1/">
  <defs
     id="defs4724">
    <clipPath
       id="clipPath3001"
       clipPathUnits="userSpaceOnUse">
      <path
         inkscape:connector-curvature="0"
         id="path3003"
         d="M 0,0 H 595.276 V 841.89 H 0 Z" />
    </clipPath>
  </defs>
  <sodipodi:namedview
     id="base"
     pagecolor="#ffffff"
     bordercolor="#666666"
     borderopacity="1.0"
     inkscape:pageopacity="0.0"
     inkscape:pageshadow="2"
     inkscape:zoom="0.7"
     inkscape:cx="537.85714"
     inkscape:cy="337.14286"
     inkscape:document-units="px"
     inkscape:current-layer="layer2"
     showgrid="false"
     inkscape:window-width="1920"
     inkscape:window-height="1004"
     inkscape:window-x="0"
     inkscape:window-y="40"
     inkscape:window-maximized="1"
     fit-margin-top="0"
     fit-margin-left="0"
     fit-margin-right="0"
     fit-margin-bottom="0"
     inkscape:showpageshadow="0"
     inkscape:pagecheckerboard="0"
     inkscape:deskcolor="#505050"
     showguides="true">
    <sodipodi:guide
       position="1002.453,528.37361"
       orientation="0,-1"
       id="guide1"
       inkscape:locked="false" />
    <sodipodi:guide
       position="10,394.15281"
       orientation="1,0"
       id="guide2"
       inkscape:locked="false" />
    <sodipodi:guide
       position="80.567747,134.52402"
       orientation="0,-1"
       id="guide3"
       inkscape:locked="false" />
    <sodipodi:guide
       position="1010.001,198.15424"
       orientation="1,0"
       id="guide4"
       inkscape:locked="false" />
    <sodipodi:guide
       position="950.07979,254.22926"
       orientation="1,0"
       id="guide5"
       inkscape:locked="false" />
    <sodipodi:guide
       position="484.84864,264.91796"
       orientation="1,0"
       id="guide6"
       inkscape:locked="false" />
    <sodipodi:guide
       position="603.16158,225.8309"
       orientation="0,-1"
       id="guide7"
       inkscape:locked="false" />
    <sodipodi:guide
       position="1020,500.48221"
       orientation="1,0"
       id="guide8"
       inkscape:locked="false" />
    <sodipodi:guide
       position="1030,514.41063"
       orientation="1,0"
       id="guide9"
       inkscape:locked="false" />
    <sodipodi:guide
       position="54.494672,94.138724"
       orientation="0,1"
       id="guide10"
       inkscape:locked="false"
       inkscape:label=""
       inkscape:color="rgb(0,134,229)" />
  </sodipodi:namedview>
  <metadata
     id="metadata4727">
    <rdf:RDF>
      <cc:Work
         rdf:about="">
        <dc:format>image/svg+xml</dc:format>
        <dc:type
           rdf:resource="http://purl.org/dc/dcmitype/StillImage" />
      </cc:Work>
    </rdf:RDF>
  </metadata>
  <g
     inkscape:groupmode="layer"
     id="layer3"
     inkscape:label="Slogan">
    <path
       style="font-weight:600;font-size:98.7066px;font-family:Merriweather;-inkscape-font-specification:'Merriweather Semi-Bold';letter-spacing:0px;word-spacing:0px;white-space:pre;fill:#33beee;stroke-width:30;stroke-linecap:round;stroke-miterlimit:5;paint-order:fill markers stroke"
       d="m 9.9232403,525.03278 v -1.82608 l 5.6756297,-1.5793 v -39.43329 l -5.8730429,-1.97413 v -1.62866 l 13.6215099,-3.94826 h 1.974132 l 1.727366,1.4806 v 45.50374 l 5.873042,1.5793 v 1.82608 z M 21.422559,468.52325 q -2.813138,0 -4.540504,-1.77672 -1.678012,-1.77672 -1.678012,-4.83662 0,-3.40538 2.023485,-5.57693 2.072839,-2.17154 5.132743,-2.17154 h 0.09871 q 2.813138,0 4.49115,1.72737 1.727366,1.72736 1.727366,4.88597 0,3.35603 -2.072839,5.57692 -2.023485,2.17155 -5.08339,2.17155 z m 19.793222,53.0548 v -70.67393 l -6.119809,-1.5793 v -1.57931 l 13.720217,-3.45473 h 1.974132 l 1.579305,1.33254 v 76.00408 l 5.774336,1.62866 v 1.77672 h -22.75187 v -1.77672 z m 25.066364,0 v -70.67393 l -6.119809,-1.5793 v -1.57931 l 13.720217,-3.45473 h 1.974132 l 1.579306,1.33254 v 76.00408 l 5.774336,1.62866 v 1.77672 H 60.458456 v -1.77672 z m 59.041505,4.29373 q -2.66508,0 -4.24439,-0.839 -1.5793,-0.83901 -1.5793,-3.35603 v -4.88597 q -1.57931,2.27025 -3.84956,4.39244 -2.27025,2.12219 -5.23145,3.50408 -2.91185,1.33254 -6.46528,1.33254 -7.501704,0 -10.857728,-4.04697 -3.356024,-4.04697 -3.356024,-12.93056 v -26.79884 l -5.478217,-2.02349 v -1.62866 l 13.276038,-3.94826 h 1.727365 l 1.678016,1.28318 v 32.91865 q 0,3.45473 0.54288,5.9224 0.54289,2.41831 1.97413,3.7015 1.4806,1.28318 4.14568,1.28318 2.66508,0 4.78727,-0.64159 2.12219,-0.64159 3.80021,-1.67801 1.67801,-1.08577 2.96119,-2.27025 v -32.91865 l -6.0211,-2.02349 v -1.62866 l 13.57216,-3.94826 h 1.87542 l 1.77672,1.28318 v 46.2934 l 4.54051,0.44418 v 1.77672 q -1.67802,0.39482 -4.04698,0.88836 -2.36895,0.54288 -5.52756,0.54288 z m 12.88541,-0.839 v -1.82608 l 5.42886,-1.5793 v -39.43329 l -5.87304,-1.97413 v -1.62866 l 13.22668,-3.94826 h 2.41831 l 1.52996,1.28318 v 7.69912 q 1.67801,-2.2209 4.19503,-4.39244 2.51702,-2.17155 5.77433,-3.6028 3.30667,-1.43124 7.15623,-1.43124 5.47822,0 8.58748,2.36896 3.10925,2.36896 4.49115,7.05752 1.62865,-2.41831 4.19503,-4.58986 2.56637,-2.17154 5.87304,-3.50408 3.30667,-1.33254 7.10687,-1.33254 3.99762,0 6.71205,1.28318 2.76379,1.23384 4.39245,3.7015 1.62865,2.41831 2.3196,6.0211 0.69095,3.55344 0.69095,8.19265 v 28.23009 l 5.47821,1.5793 v 1.82608 h -22.01157 v -1.82608 l 5.08339,-1.5793 v -28.03268 q 0,-3.94826 -0.59224,-6.81075 -0.54288,-2.91184 -2.17154,-4.49115 -1.57931,-1.57931 -4.73792,-1.57931 -2.56637,0 -4.68856,0.54289 -2.1222,0.49353 -3.89891,1.4806 -1.77672,0.93771 -3.40538,2.3196 0.19741,0.78966 0.29612,2.1222 0.14806,1.28318 0.19741,2.71443 0.0494,1.43124 0.0494,2.76378 l -0.0494,28.97039 5.42886,1.5793 v 1.82608 H 169.4497 v -1.82608 l 5.08339,-1.5793 v -28.03268 q 0,-3.94826 -0.54289,-6.81075 -0.49353,-2.91184 -2.07284,-4.49115 -1.5793,-1.57931 -4.68856,-1.57931 -3.89891,0 -6.7614,1.18448 -2.81314,1.13513 -5.37951,3.20797 v 36.52144 l 5.57692,1.5793 v 1.82608 z m 86.83172,0 v -1.82608 l 5.67563,-1.5793 v -39.43329 l -5.87304,-1.97413 v -1.62866 l 13.62151,-3.94826 h 1.97413 l 1.72736,1.4806 v 45.50374 l 5.87305,1.5793 v 1.82608 z m 11.49932,-56.50953 q -2.81314,0 -4.54051,-1.77672 -1.67801,-1.77672 -1.67801,-4.83662 0,-3.40538 2.02349,-5.57693 2.07284,-2.17154 5.13274,-2.17154 h 0.0987 q 2.81313,0 4.49115,1.72737 1.72736,1.72736 1.72736,4.88597 0,3.35603 -2.07284,5.57692 -2.02348,2.17155 -5.08339,2.17155 z m 20.09755,53.10415 v -39.43329 l -5.87304,-1.97413 v -1.62866 l 13.22668,-3.94826 h 2.36896 l 1.67802,1.28318 v 3.84956 l -0.0987,3.80021 q 1.77672,-2.27026 4.29374,-4.4418 2.56637,-2.17155 5.77433,-3.60279 3.25732,-1.43125 7.05752,-1.43125 5.37951,0 8.43942,2.2209 3.0599,2.17155 4.34309,6.46528 1.28318,4.29374 1.28318,10.51226 v 28.32879 l 5.42887,1.5793 v 1.82608 H 282.5975 v -1.82608 l 5.08339,-1.5793 v -28.13138 q 0,-3.94827 -0.59224,-6.81076 -0.54289,-2.91184 -2.17155,-4.49115 -1.5793,-1.5793 -4.68856,-1.5793 -2.81314,0 -4.93533,0.54288 -2.07284,0.54289 -3.8002,1.57931 -1.67802,1.03642 -3.40538,2.36896 v 36.52144 l 5.52757,1.5793 v 1.82608 h -22.65317 v -1.82608 z m 63.81368,4.29374 q -3.65215,0 -6.7614,-1.52996 -3.10926,-1.52995 -4.98469,-4.49115 -1.87542,-3.01055 -1.87542,-7.30429 0,-4.58985 2.66508,-7.79782 2.66507,-3.20796 6.90946,-5.18209 4.29374,-1.97413 9.17971,-2.86249 4.93533,-0.88836 9.37713,-0.88836 v -5.52757 q 0,-3.05991 -0.83901,-5.42887 -0.839,-2.41831 -2.76378,-3.8002 -1.92478,-1.38189 -5.23145,-1.38189 -4.73792,0 -8.58748,1.13512 -3.84955,1.13513 -6.51463,2.51702 l -1.28319,-2.12219 q 1.82607,-1.57931 4.73792,-3.25732 2.91184,-1.67801 6.86011,-2.81314 3.94826,-1.18447 8.83424,-1.18447 5.42886,0 8.9823,1.87542 3.60279,1.87543 5.37951,5.72498 1.77672,3.84956 1.77672,9.7226 v 30.84581 l 4.49115,0.44418 v 1.67802 q -1.03642,0.29612 -2.56637,0.64159 -1.52996,0.34547 -3.35603,0.59224 -1.77672,0.29612 -3.8002,0.29612 -2.76379,0 -4.34309,-0.83901 -1.57931,-0.839 -1.57931,-3.35602 v -4.58986 q -0.839,1.77672 -2.86249,3.89891 -1.97413,2.07284 -4.98468,3.55344 -2.9612,1.43125 -6.86011,1.43125 z m 5.03403,-5.82369 q 2.8625,0 5.23145,-1.18448 2.41832,-1.23384 4.24439,-3.45473 V 498.4807 q -4.83662,0 -8.58748,1.52995 -3.70149,1.4806 -5.82368,4.29374 -2.1222,2.81314 -2.1222,6.71205 0,2.66508 0.93772,4.73792 0.98706,2.07283 2.56637,3.20796 1.62866,1.13513 3.55343,1.13513 z m 41.40605,5.87304 q -4.68856,0 -7.10687,-2.17155 -2.41832,-2.17154 -2.41832,-7.74846 v -36.96562 h -6.41593 v -1.87543 q 0.7403,-0.24677 1.77672,-0.54289 1.08578,-0.29612 2.17155,-0.64159 1.08577,-0.39483 1.67801,-0.69095 0.83901,-0.44418 1.43125,-1.18447 0.64159,-0.78966 1.13512,-1.72737 0.54289,-0.93771 1.03642,-1.87543 0.49353,-1.03641 1.13513,-2.81313 0.69094,-1.82608 1.38189,-3.94827 0.69095,-2.12219 1.18448,-3.89891 h 5.08339 l -0.0494,15.54629 h 10.11742 v 3.65215 H 368.9642 v 35.33696 q 0,2.71443 0.39483,4.09632 0.39482,1.38189 1.18447,1.87543 0.83901,0.44418 2.02349,0.44418 1.43125,0 3.40538,-0.6416 2.02348,-0.64159 3.30667,-1.43124 l 1.13512,2.46766 q -1.28318,1.18448 -3.25731,2.27025 -1.97414,1.08578 -4.54051,1.77672 -2.56637,0.69095 -5.72498,0.69095 z m 16.43466,-0.93771 v -1.82608 l 5.67563,-1.5793 v -39.43329 l -5.87304,-1.97413 v -1.62866 l 13.62151,-3.94826 h 1.97413 l 1.72737,1.4806 v 45.50374 l 5.87304,1.5793 v 1.82608 z m 11.49932,-56.50953 q -2.81314,0 -4.5405,-1.77672 -1.67801,-1.77672 -1.67801,-4.83662 0,-3.40538 2.02348,-5.57693 2.07284,-2.17154 5.13274,-2.17154 h 0.0987 q 2.81314,0 4.49115,1.72737 1.72737,1.72736 1.72737,4.88597 0,3.35603 -2.07284,5.57692 -2.02349,2.17155 -5.08339,2.17155 z m 20.09757,53.10415 v -39.43329 l -5.87304,-1.97413 v -1.62866 l 13.22668,-3.94826 h 2.36896 l 1.67801,1.28318 v 3.84956 l -0.0987,3.80021 q 1.77672,-2.27026 4.29373,-4.4418 2.56638,-2.17155 5.77434,-3.60279 3.25732,-1.43125 7.05752,-1.43125 5.37951,0 8.43942,2.2209 3.0599,2.17155 4.34309,6.46528 1.28318,4.29374 1.28318,10.51226 v 28.32879 l 5.42886,1.5793 v 1.82608 H 440.8828 v -1.82608 l 5.08339,-1.5793 v -28.13138 q 0,-3.94827 -0.59224,-6.81076 -0.54289,-2.91184 -2.17155,-4.49115 -1.5793,-1.5793 -4.68856,-1.5793 -2.81314,0 -4.93533,0.54288 -2.07284,0.54289 -3.80021,1.57931 -1.67801,1.03642 -3.40537,2.36896 v 36.52144 l 5.52757,1.5793 v 1.82608 h -22.65317 v -1.82608 z m 70.26472,26.74949 q -3.50408,0 -7.30428,-0.59224 -3.80021,-0.59224 -7.05753,-1.97414 -3.25731,-1.33253 -5.33015,-3.70149 -2.02349,-2.36896 -2.02349,-5.87305 0,-2.66507 1.33254,-4.78727 1.38189,-2.07283 3.75085,-3.45473 2.41831,-1.38189 5.57693,-1.87542 -2.61573,-1.33254 -4.04697,-3.45473 -1.43125,-2.12219 -1.43125,-5.28081 0,-2.51701 1.13513,-4.44179 1.13512,-1.97413 3.01055,-3.35603 1.87542,-1.43124 4.14567,-2.41831 -5.52757,-2.56637 -7.69911,-6.71205 -2.17155,-4.19503 -2.17155,-9.03165 0,-5.47822 2.9612,-9.37713 3.01055,-3.94826 7.89653,-6.07045 4.88598,-2.12219 10.51225,-2.12219 5.87304,0 9.47584,1.48059 3.65214,1.43125 5.67562,3.65215 1.13513,-2.31961 3.40538,-3.80021 2.27025,-1.48059 4.73792,-1.48059 h 2.12219 v 7.99523 l -8.48877,0.0494 q 0.7403,0.7403 1.28319,2.27026 0.59224,1.48059 0.98707,3.40537 0.39482,1.87543 0.39482,3.84956 0,5.37951 -2.9612,9.27842 -2.96119,3.84956 -7.79782,5.9224 -4.83662,2.07283 -10.51225,2.07283 -1.97413,0 -4.14568,-0.14806 -2.17154,-0.19741 -3.75085,-0.44418 -0.88836,0.69095 -1.87542,1.82608 -0.93772,1.13512 -0.93772,3.25731 0,2.56638 2.1222,3.65215 2.12219,1.08577 7.10687,1.08577 h 12.58509 q 5.08339,0 8.53812,1.4806 3.45473,1.4806 5.23145,4.04697 1.77672,2.56637 1.77672,5.87304 0,4.58986 -2.07284,8.1433 -2.07284,3.60279 -5.87304,6.0211 -3.75085,2.46766 -8.93295,3.75085 -5.13274,1.28319 -11.35126,1.28319 z m 1.33254,-2.66508 q 5.37951,0 9.08101,-1.43125 3.75085,-1.38189 5.67563,-4.04697 1.92478,-2.61572 1.92478,-6.21851 0,-1.92478 -0.78965,-3.35603 -0.78966,-1.38189 -2.71444,-2.17154 -1.87542,-0.78966 -5.13274,-0.78966 h -9.7226 q -2.86249,0 -5.13274,-0.24676 -2.27025,-0.24677 -3.75085,-0.6416 -1.13513,0.88836 -2.02349,2.46767 -0.88836,1.57931 -0.88836,4.93533 0,3.99762 2.02349,6.51463 2.02348,2.56638 5.13274,3.75086 3.15861,1.23383 6.31722,1.23383 z m 0.49354,-39.72941 q 4.5405,0 6.95881,-3.65214 2.46767,-3.65215 2.46767,-11.10449 0,-4.24439 -0.98707,-7.60041 -0.98707,-3.35603 -2.86249,-5.2808 -1.87543,-1.92478 -4.49115,-1.92478 -3.01055,0 -5.08339,1.62866 -2.07284,1.62865 -3.15861,4.88597 -1.08577,3.25732 -1.08577,8.19265 0,4.29374 0.88836,7.69911 0.93771,3.35603 2.76378,5.28081 1.87543,1.87542 4.58986,1.87542 z m 58.73043,19.98809 q -4.68856,0 -7.10687,-2.17155 -2.41831,-2.17154 -2.41831,-7.74846 v -36.96562 h -6.41593 v -1.87543 q 0.7403,-0.24677 1.77672,-0.54289 1.08577,-0.29612 2.17154,-0.64159 1.08577,-0.39483 1.67801,-0.69095 0.83901,-0.44418 1.43125,-1.18447 0.64159,-0.78966 1.13513,-1.72737 0.54288,-0.93771 1.03641,-1.87543 0.49354,-1.03641 1.13513,-2.81313 0.69095,-1.82608 1.38189,-3.94827 0.69095,-2.12219 1.18448,-3.89891 h 5.08339 l -0.0494,15.54629 h 10.11742 v 3.65215 h -10.06807 v 35.33696 q 0,2.71443 0.39483,4.09632 0.39482,1.38189 1.18448,1.87543 0.839,0.44418 2.02348,0.44418 1.43125,0 3.40538,-0.6416 2.02349,-0.64159 3.30667,-1.43124 l 1.13513,2.46766 q -1.28319,1.18448 -3.25732,2.27025 -1.97413,1.08578 -4.5405,1.77672 -2.56638,0.69095 -5.72499,0.69095 z m 20.61972,-4.34309 v -70.72328 l -6.16916,-1.5793 v -1.57931 l 13.76957,-3.45473 h 1.97413 l 1.77672,1.33254 v 30.10551 l -0.19741,7.89653 q 1.82607,-2.31961 4.39244,-4.49115 2.56637,-2.17155 5.77434,-3.60279 3.25732,-1.43125 7.10687,-1.43125 5.33016,0 8.39006,2.2209 3.05991,2.2209 4.34309,6.51464 1.28319,4.29373 1.28319,10.5616 v 28.23009 l 5.42886,1.5793 v 1.82608 h -21.96222 v -1.82608 l 5.08339,-1.5793 v -28.03268 q 0,-3.99761 -0.59224,-6.90946 -0.54288,-2.91184 -2.17154,-4.49115 -1.57931,-1.5793 -4.68856,-1.5793 -2.56638,0 -4.68857,0.54288 -2.12219,0.54289 -3.94826,1.57931 -1.77672,1.03642 -3.55344,2.36896 v 36.52144 l 5.72498,1.5793 v 1.82608 h -22.89993 v -1.82608 z m 73.62503,4.5405 q -7.69911,0 -12.88121,-3.0599 -5.13274,-3.05991 -7.74847,-8.63683 -2.61572,-5.62628 -2.61572,-13.37474 0,-6.51464 1.87543,-11.54868 1.87542,-5.03403 5.13274,-8.53812 3.30667,-3.55343 7.5017,-5.37951 4.24438,-1.82607 8.88359,-1.82607 8.8836,0 14.01634,4.63921 5.13274,4.63921 5.23145,13.47345 0.0494,3.10926 -0.14806,5.08339 -0.14806,1.92478 -0.44418,3.05991 h -29.56263 q 0.0987,4.73791 0.93772,8.63682 0.839,3.84956 2.51702,6.6627 1.72736,2.81314 4.39244,4.34309 2.71443,1.52995 6.41593,1.52995 3.50408,0 7.10687,-1.23383 3.65215,-1.23383 5.77434,-2.91185 l 1.18448,2.31961 q -1.57931,1.62866 -4.34309,3.20796 -2.71443,1.52996 -6.16916,2.51702 -3.40538,1.03642 -7.05753,1.03642 z m -10.75902,-28.32879 18.21137,-0.93771 q 0.0987,-1.43125 0.0987,-2.66508 0.0494,-1.23383 0.0494,-2.61573 0,-7.40299 -1.72736,-11.3019 -1.72737,-3.89891 -6.02111,-3.89891 -2.61572,0 -4.63921,1.52995 -1.97413,1.52995 -3.35602,4.39244 -1.38189,2.81314 -2.07284,6.7614 -0.64159,3.89892 -0.54289,8.73554 z m 48.16899,27.19367 v -1.82608 l 5.42886,-1.5793 v -39.43329 l -5.87304,-1.97413 v -1.62866 l 13.22668,-3.94826 h 2.41831 l 1.52996,1.28318 v 7.69912 q 1.67801,-2.2209 4.19503,-4.39244 2.51702,-2.17155 5.77433,-3.6028 3.30667,-1.43124 7.15623,-1.43124 5.47822,0 8.58748,2.36896 3.10925,2.36896 4.49115,7.05752 1.62865,-2.41831 4.19503,-4.58986 2.56637,-2.17154 5.87304,-3.50408 3.30667,-1.33254 7.10687,-1.33254 3.99762,0 6.71205,1.28318 2.76379,1.23384 4.39245,3.7015 1.62865,2.41831 2.3196,6.0211 0.69095,3.55344 0.69095,8.19265 v 28.23009 l 5.47821,1.5793 v 1.82608 h -22.01157 v -1.82608 l 5.08339,-1.5793 v -28.03268 q 0,-3.94826 -0.59224,-6.81075 -0.54288,-2.91184 -2.17154,-4.49115 -1.57931,-1.57931 -4.73792,-1.57931 -2.56637,0 -4.68856,0.54289 -2.1222,0.49353 -3.89891,1.4806 -1.77672,0.93771 -3.40538,2.3196 0.19741,0.78966 0.29612,2.1222 0.14806,1.28318 0.19741,2.71443 0.0494,1.43124 0.0494,2.76378 l -0.0494,28.97039 5.42886,1.5793 v 1.82608 h -21.96221 v -1.82608 l 5.08339,-1.5793 v -28.03268 q 0,-3.94826 -0.54289,-6.81075 -0.49353,-2.91184 -2.07284,-4.49115 -1.5793,-1.57931 -4.68856,-1.57931 -3.89891,0 -6.7614,1.18448 -2.81314,1.13513 -5.37951,3.20797 v 36.52144 l 5.57692,1.5793 v 1.82608 z m 99.54558,0.88836 q -3.65214,0 -6.7614,-1.52996 -3.10926,-1.52995 -4.98468,-4.49115 -1.87543,-3.01055 -1.87543,-7.30429 0,-4.58985 2.66508,-7.79782 2.66508,-3.20796 6.90946,-5.18209 4.29374,-1.97413 9.17972,-2.86249 4.93533,-0.88836 9.37712,-0.88836 v -5.52757 q 0,-3.05991 -0.839,-5.42887 -0.83901,-2.41831 -2.76379,-3.8002 -1.92478,-1.38189 -5.23145,-1.38189 -4.73791,0 -8.58747,1.13512 -3.84956,1.13513 -6.51464,2.51702 l -1.28318,-2.12219 q 1.82607,-1.57931 4.73791,-3.25732 2.91185,-1.67801 6.86011,-2.81314 3.94827,-1.18447 8.83424,-1.18447 5.42887,0 8.9823,1.87542 3.60279,1.87543 5.37951,5.72498 1.77672,3.84956 1.77672,9.7226 v 30.84581 l 4.49115,0.44418 v 1.67802 q -1.03642,0.29612 -2.56637,0.64159 -1.52995,0.34547 -3.35602,0.59224 -1.77672,0.29612 -3.80021,0.29612 -2.76378,0 -4.34309,-0.83901 -1.5793,-0.839 -1.5793,-3.35602 v -4.58986 q -0.83901,1.77672 -2.8625,3.89891 -1.97413,2.07284 -4.98468,3.55344 -2.9612,1.43125 -6.86011,1.43125 z m 5.03404,-5.82369 q 2.86249,0 5.23145,-1.18448 2.41831,-1.23384 4.24438,-3.45473 V 498.4807 q -4.83662,0 -8.58747,1.52995 -3.7015,1.4806 -5.82369,4.29374 -2.12219,2.81314 -2.12219,6.71205 0,2.66508 0.93771,4.73792 0.98707,2.07283 2.56637,3.20796 1.62866,1.13513 3.55344,1.13513 z m 28.1968,4.93533 v -1.82608 l 5.72499,-1.5793 v -39.43329 l -5.87305,-1.97413 v -1.62866 l 12.97992,-3.94826 h 2.51702 l 1.67801,1.23383 -0.0494,3.30667 -0.24677,8.58748 0.24677,-0.54289 q 0.24677,-1.62866 1.28318,-3.8002 1.08578,-2.17155 2.81314,-4.24439 1.72737,-2.12219 3.94827,-3.50408 2.22089,-1.38189 4.78727,-1.38189 0.98706,0 1.5793,0.14806 0.64159,0.0987 1.03642,0.29612 v 10.85772 q -0.49353,-0.39483 -1.52995,-0.78965 -0.98707,-0.44418 -2.36896,-0.44418 -2.27025,0 -4.39244,0.44418 -2.07284,0.44418 -3.84956,1.67801 -1.77672,1.18448 -3.15861,3.40538 l 0.0494,31.68482 7.00817,1.62865 v 1.82608 z m 33.98184,0 v -1.77672 l 5.82369,-1.62866 v -70.72328 l -6.11981,-1.5793 v -1.57931 l 13.72021,-3.45473 h 1.97414 l 1.77671,1.33254 v 48.36623 l -0.39482,9.08101 20.53097,-23.887 -7.45235,-1.82607 v -1.92478 h 19.69197 v 1.92478 l -6.11981,1.77672 -11.35126,11.79544 17.17495,30.69775 5.2808,1.52995 v 1.87543 h -23.88699 l -0.14806,-1.82608 5.47821,-1.5793 -11.64738,-22.70252 -7.6004,8.19265 0.44417,5.92239 v 8.58748 l 5.77434,1.62866 v 1.77672 z m 75.56755,1.13512 q -7.69911,0 -12.88121,-3.0599 -5.13274,-3.05991 -7.74847,-8.63683 -2.61572,-5.62628 -2.61572,-13.37474 0,-6.51464 1.87542,-11.54868 1.87543,-5.03403 5.13275,-8.53812 3.30667,-3.55343 7.5017,-5.37951 4.24438,-1.82607 8.88359,-1.82607 8.8836,0 14.01634,4.63921 5.13274,4.63921 5.23145,13.47345 0.0494,3.10926 -0.14806,5.08339 -0.14806,1.92478 -0.44418,3.05991 H 908.9657 q 0.0987,4.73791 0.93772,8.63682 0.839,3.84956 2.51701,6.6627 1.72737,2.81314 4.39245,4.34309 2.71443,1.52995 6.41593,1.52995 3.50408,0 7.10687,-1.23383 3.65215,-1.23383 5.77434,-2.91185 l 1.18448,2.31961 q -1.57931,1.62866 -4.34309,3.20796 -2.71444,1.52996 -6.16917,2.51702 -3.40537,1.03642 -7.05752,1.03642 z m -10.75902,-28.32879 18.21137,-0.93771 q 0.0987,-1.43125 0.0987,-2.66508 0.0493,-1.23383 0.0493,-2.61573 0,-7.40299 -1.72737,-11.3019 -1.72736,-3.89891 -6.0211,-3.89891 -2.61572,0 -4.63921,1.52995 -1.97413,1.52995 -3.35602,4.39244 -1.38189,2.81314 -2.07284,6.7614 -0.64159,3.89892 -0.54289,8.73554 z m 47.99737,28.13138 q -4.68857,0 -7.10688,-2.17155 -2.41831,-2.17154 -2.41831,-7.74846 v -36.96562 h -6.41593 v -1.87543 q 0.7403,-0.24677 1.77672,-0.54289 1.08577,-0.29612 2.17154,-0.64159 1.08578,-0.39483 1.67802,-0.69095 0.839,-0.44418 1.43124,-1.18447 0.64159,-0.78966 1.13513,-1.72737 0.54288,-0.93771 1.03642,-1.87543 0.49353,-1.03641 1.13512,-2.81313 0.69095,-1.82608 1.3819,-3.94827 0.69094,-2.12219 1.18447,-3.89891 h 5.08339 l -0.0494,15.54629 h 10.11743 v 3.65215 H 959.0359 v 35.33696 q 0,2.71443 0.39483,4.09632 0.39483,1.38189 1.18448,1.87543 0.83901,0.44418 2.02348,0.44418 1.43125,0 3.40538,-0.6416 2.02349,-0.64159 3.30667,-1.43124 l 1.13513,2.46766 q -1.28319,1.18448 -3.25732,2.27025 -1.97413,1.08578 -4.5405,1.77672 -2.56637,0.69095 -5.72498,0.69095 z m 34.18513,0.14806 q -3.75085,0 -7.10687,-0.83901 -3.35603,-0.839 -5.9224,-1.72736 -2.56637,-0.88836 -4.09632,-0.93772 l 0.19741,-12.23961 h 4.93533 l 2.2209,6.71204 q 0.54289,1.62866 2.27025,3.15862 1.72737,1.48059 3.99762,2.46766 2.27025,0.93771 4.29374,0.93771 3.0599,0 5.2808,-0.88836 2.2209,-0.88836 3.45474,-2.61572 1.2338,-1.77672 1.2338,-4.19503 0,-2.27025 -1.4806,-3.99762 -1.43122,-1.72736 -4.39242,-3.35602 -2.9612,-1.67801 -7.35364,-3.65215 -4.09632,-1.77672 -7.30429,-4.09632 -3.20796,-2.31961 -5.03404,-5.42886 -1.82607,-3.10926 -1.82607,-7.25494 0,-4.49115 2.27025,-7.69911 2.27026,-3.20797 6.36658,-4.93533 4.09632,-1.72737 9.52519,-1.72737 4.09632,0 6.81075,0.6416 2.76379,0.59223 4.58989,1.28318 1.8754,0.69095 3.3066,0.93771 l -0.2467,11.89415 h -4.7873 l -2.0728,-6.41593 q -0.54292,-1.72737 -1.57934,-3.0599 -1.03642,-1.3819 -2.66508,-2.1222 -1.5793,-0.78965 -3.94826,-0.78965 -2.1222,0 -4.24439,0.83901 -2.07284,0.78965 -3.50408,2.51701 -1.43125,1.67802 -1.43125,4.29374 0,2.61573 1.57931,4.49115 1.5793,1.87543 4.14568,3.35603 2.61572,1.43124 5.67563,2.91184 3.01055,1.38189 5.82368,2.86249 2.8131,1.4806 5.034,3.30667 2.2209,1.77672 3.5041,4.14568 1.3326,2.31961 1.3326,5.47822 0,4.44179 -2.1222,8.04458 -2.0729,3.55344 -6.2679,5.62628 -4.19503,2.07284 -10.4629,2.07284 z"
       id="text2"
       aria-label="illuminating the markets" />
  </g>
  <g
     inkscape:groupmode="layer"
     id="layer2"
     inkscape:label="Registered symbol">
    <path
       style="font-weight:bold;font-size:54.4681px;font-family:'Open Sans';-inkscape-font-specification:'Open Sans Bold';letter-spacing:0px;word-spacing:0px;white-space:pre;fill:#005dac;stroke-width:30;stroke-linecap:round;stroke-miterlimit:5;paint-order:fill markers stroke"
       d="M 1039.1954,33.936178 V 15.884311 h 5.4455 q 3.3312,0 4.887,1.416223 1.5558,1.416224 1.5558,4.069151 0,1.93484 -0.9774,3.051863 -0.9774,1.097074 -2.214,1.595744 l 4.7472,7.918886 h -3.71 l -3.8896,-6.861705 h -2.5332 v 6.861705 z m 3.3113,-9.594417 h 2.0346 q 1.5956,0 2.3935,-0.797874 0.7979,-0.817818 0.7979,-2.094415 0,-1.456118 -0.738,-2.094416 -0.7182,-0.658245 -2.4934,-0.658245 h -1.9946 z M 1045,39.980063 q -3.2513,0 -6.0039,-1.097075 -2.7329,-1.117022 -4.7674,-3.13165 -2.0146,-2.014628 -3.1316,-4.747342 Q 1030,28.251336 1030,25.000004 q 0,-3.111703 1.1169,-5.824469 1.137,-2.732714 3.1716,-4.787235 2.0545,-2.054523 4.7873,-3.211438 Q 1041.8085,10 1045,10 q 3.1117,0 5.8245,1.117023 2.7327,1.097074 4.7872,3.131649 2.0546,2.014629 3.2114,4.747341 1.1769,2.732714 1.1769,6.003991 0,3.251332 -1.117,6.003992 -1.0971,2.732714 -3.1317,4.747342 -2.0146,2.014628 -4.7474,3.13165 -2.7326,1.097075 -6.0039,1.097075 z m 0,-2.613033 q 2.5132,0 4.7074,-0.897606 2.1941,-0.917554 3.8697,-2.57314 1.6755,-1.655585 2.6131,-3.909575 0.9374,-2.273938 0.9374,-4.986705 0,-2.553192 -0.9175,-4.807182 -0.9175,-2.25399 -2.5732,-3.969415 -1.6356,-1.715427 -3.8497,-2.672874 -2.1942,-0.977394 -4.7872,-0.977394 -2.6131,0 -4.8471,0.917554 -2.214,0.917553 -3.8697,2.593086 -1.6556,1.655585 -2.5731,3.929522 -0.9175,2.273937 -0.9175,4.986703 0,2.712767 0.8976,4.986705 0.8976,2.25399 2.5332,3.909575 1.6357,1.655586 3.8696,2.57314 2.2341,0.897606 4.907,0.897606 z"
       id="text1"
       aria-label="®" />
  </g>
  <g
     inkscape:label="Background"
     inkscape:groupmode="layer"
     id="layer1"
     transform="translate(-275.59081,-489.88623)"
     sodipodi:insensitive="true">
    <rect
       style="fill:#ffffff;stroke:none;stroke-width:29.9998;stroke-linecap:round;stroke-miterlimit:5;paint-order:fill markers stroke"
       id="rect1"
       width="1020"
       height="413.85303"
       x="275.59082"
       y="489.88626"
       transform="translate(0,3.6679151e-5)" />
    <path
       inkscape:connector-curvature="0"
       d="m 1044.3243,499.88963 c -368.1924,0 -663.26714,214.90984 -727.0698,393.84456 h 968.3373 V 499.88963 Z"
       style="display:inline;fill:#005dac;fill-opacity:1;fill-rule:nonzero;stroke:none;stroke-width:1.25"
       id="path3011" />
    <path
       inkscape:connector-curvature="0"
       d="M 313.61997,893.73922 C 350.24183,760.16182 518.09761,584.69609 775.01339,499.88624 H 285.59081 v 393.85298 z"
       style="display:inline;fill:#5ba7dc;fill-opacity:1;fill-rule:nonzero;stroke:none;stroke-width:1.25"
       id="path3007" />
  </g>
  <g
     inkscape:groupmode="layer"
     id="layer4"
     inkscape:label="Text"
     sodipodi:insensitive="true">
    <path
       inkscape:connector-curvature="0"
       d="m 908.51902,315.39099 c -12.59086,0 -26.16447,-4.05697 -39.3517,-11.36455 l 7.90395,-16.01785 c 9.13026,5.26649 21.71272,10.75137 33.27045,10.75137 9.72663,0 16.62263,-5.87966 16.62263,-14.39677 0,-7.90393 -5.05652,-11.96929 -16.62263,-14.40515 l -12.38088,-2.63744 c -15.4047,-3.24222 -24.53497,-13.7836 -24.53497,-28.18875 0,-19.26848 15.4047,-31.84254 38.13377,-31.84254 13.98519,0 25.14814,4.26695 33.86682,8.93708 l -7.30756,15.40469 c -9.53345,-5.27489 -17.03421,-7.71075 -25.14814,-7.71075 -9.53344,0 -15.60628,4.46855 -15.60628,12.38088 0,6.48441 3.4438,9.72663 13.78359,12.37248 l 12.78405,3.22541 c 20.67119,5.29169 26.14767,16.63943 26.14767,28.61712 0,20.68799 -16.81582,34.87477 -41.56077,34.87477"
       style="fill:#ffffff;fill-opacity:1;fill-rule:nonzero;stroke:none;stroke-width:1.25"
       id="path3031" />
    <path
       inkscape:connector-curvature="0"
       d="m 837.82453,315.79752 c -4.46855,-3.25062 -7.09759,-6.9044 -8.92868,-13.18723 -7.50076,8.51709 -17.43738,12.57406 -29.20509,12.57406 -11.54932,0 -20.48641,-4.05697 -25.55131,-10.13821 -4.05696,-4.86332 -5.68646,-11.54933 -5.68646,-24.34178 V 211.5512 l 22.1159,-4.05695 v 68.75838 c 0,12.77565 1.8311,22.10751 14.40516,22.10751 7.29917,0 16.42104,-6.08965 19.86483,-13.38043 V 211.5512 l 22.11591,-4.05695 v 77.26707 c 0,15.4215 6.28284,20.49482 6.28284,20.49482 z"
       style="fill:#ffffff;fill-opacity:1;fill-rule:nonzero;stroke:none;stroke-width:1.25"
       id="path3027" />
    <path
       inkscape:connector-curvature="0"
       d="m 756.74153,219.66601 c -6.47602,5.68648 -12.97724,6.68601 -17.84895,6.68601 -2.83064,0 -5.06491,-0.40317 -7.70234,-0.99953 5.87125,6.88759 6.49281,14.18676 6.49281,17.63057 0,8.72707 -3.04063,15.4131 -8.32393,20.68796 -7.69393,7.70237 -19.47005,11.16295 -30.6162,10.96137 -0.41156,0.20158 -4.85492,1.83111 -8.71868,4.04858 -2.03268,1.21793 -5.0817,3.24221 -5.0817,5.68645 0,1.20954 0.41159,2.02429 1.02474,2.62904 0.79795,0.80637 2.84742,1.22636 9.12186,1.41954 l 10.54977,0.20999 c 10.13822,0.18479 22.72068,0.60477 31.42258,9.52503 3.86376,3.85538 7.51755,9.93662 7.51755,19.68005 0,10.54138 -4.25856,17.44579 -8.5171,21.69593 -7.10598,7.0892 -19.47006,11.95249 -37.52059,11.95249 -14.40517,0 -30.22145,-2.83062 -38.73016,-11.34773 -5.48486,-5.47647 -6.6944,-11.75931 -6.6944,-16.63101 0,-3.6454 0.80636,-7.70236 2.02428,-10.95296 h 19.67166 c -0.20159,1.21792 -0.39478,3.46059 -0.39478,5.07331 0,3.04061 0.39478,8.11392 4.25015,11.7677 5.0565,4.86331 13.99357,5.26649 18.26054,5.26649 11.34774,0 17.63056,-3.24222 20.87276,-6.68602 2.64586,-2.84743 3.6622,-5.88805 3.6622,-9.33184 0,-4.67013 -1.83109,-7.29917 -3.44381,-8.92029 -2.24266,-2.03268 -6.29122,-4.05695 -14.59834,-4.87172 -3.25061,-0.20159 -6.29962,-0.41158 -9.53345,-0.41158 -4.26694,0 -8.53387,0 -12.80084,-0.40317 -12.56567,-1.01633 -16.61423,-4.25013 -18.05055,-5.48488 -3.03222,-2.82222 -3.63699,-6.47601 -3.63699,-9.31503 0,-4.05698 0.81476,-7.09759 4.04857,-10.3482 4.05697,-4.04859 11.9693,-6.68602 15.4131,-7.70236 -8.92869,-2.43585 -14.17837,-7.50918 -15.4131,-8.52551 -5.88805,-5.87125 -7.90393,-12.76725 -7.90393,-20.67958 0,-9.93661 3.63697,-17.23579 8.51709,-22.51069 6.68601,-7.30756 18.26892,-12.17088 32.24573,-12.17088 9.13025,0 16.02624,2.02429 20.48638,3.25061 3.24223,0.81476 7.08919,2.02429 11.35614,2.02429 6.49282,0 13.17884,-2.63746 18.26054,-7.09758 z m -47.25563,8.92029 c -4.04857,-4.05697 -10.13821,-4.46015 -13.17882,-4.46015 -3.8386,0 -9.33186,0.80636 -13.18724,4.66174 -4.04016,4.25854 -4.45174,9.94501 -4.45174,13.18722 0,4.04858 0.60476,9.33185 4.65332,13.17883 4.06537,3.86378 9.94502,4.25856 12.98566,4.25856 2.83062,0 8.92867,-0.20159 13.17882,-4.46015 4.06536,-4.05697 4.46853,-10.14661 4.46853,-13.17883 0,-4.05696 -0.80635,-9.53344 -4.46853,-13.18722"
       style="fill:#ffffff;fill-opacity:1;fill-rule:nonzero;stroke:none;stroke-width:1.25"
       id="path3023" />
    <path
       inkscape:connector-curvature="0"
       d="m 639.97243,229.40777 c -2.21746,-0.82315 -3.84697,-1.41951 -6.49282,-1.41951 -9.32346,0 -17.24419,6.87919 -19.26007,15.2031 v 69.35475 h -22.11591 v -72.39537 c 0,-12.98563 -1.41111,-21.29275 -3.63699,-27.58399 l 20.478,-5.27488 c 2.42747,4.66172 3.85538,10.54138 3.85538,16.22784 8.10553,-11.15455 16.21945,-16.42943 26.15608,-16.42943 3.2506,0 5.27488,0.40318 7.91233,1.6295 z"
       style="fill:#ffffff;fill-opacity:1;fill-rule:nonzero;stroke:none;stroke-width:1.25"
       id="path3019" />
    <path
       inkscape:connector-curvature="0"
       d="m 561.10778,316.81474 c -6.28283,-2.43587 -11.54932,-7.30758 -14.00198,-13.8004 -8.29871,9.34025 -17.23579,12.17089 -28.19714,12.17089 -23.51023,0 -34.06002,-12.57407 -34.06002,-30.42303 0,-23.72021 17.84895,-35.6895 50.70784,-35.6895 h 6.8876 v -5.46809 c 0,-11.76771 -2.02429,-18.06733 -14.19517,-18.06733 -14.80835,0 -30.61621,11.7677 -30.61621,11.7677 l -9.94502,-16.00946 c 15.41309,-9.74343 28.18876,-14.00198 43.60185,-14.00198 16.02626,0 26.77763,5.88805 31.22937,17.0426 1.84789,4.46015 1.84789,9.92822 1.6211,25.13974 l -0.39478,29.40667 c -0.20159,13.80039 1.01634,18.26054 8.92029,23.72861 z m -23.12384,-52.73213 c -22.30069,0 -29.0035,6.49282 -29.0035,19.46167 0,9.73503 5.27488,15.4215 14.19515,15.4215 7.10599,0 14.00199,-3.85538 18.46213,-10.3398 l 0.41998,-24.33338 c 0,0 -2.45265,-0.20999 -4.07376,-0.20999"
       style="fill:#ffffff;fill-opacity:1;fill-rule:nonzero;stroke:none;stroke-width:1.25"
       id="path3015" />
  </g>
</svg>
