<?xml version="1.0" encoding="UTF-8" standalone="no"?>
<!-- Created with Inkscape (http://www.inkscape.org/) -->

<svg
   width="1060"
   height="413.853"
   id="svg4722"
   version="1.1"
   inkscape:version="1.4.2 (ebf0e940d0, 2025-05-08)"
   sodipodi:docname="logo.svg"
   inkscape:export-filename="logo-rgb-96-dpi.png"
   inkscape:export-xdpi="96"
   inkscape:export-ydpi="96"
   xmlns:inkscape="http://www.inkscape.org/namespaces/inkscape"
   xmlns:sodipodi="http://sodipodi.sourceforge.net/DTD/sodipodi-0.dtd"
   xmlns="http://www.w3.org/2000/svg"
   xmlns:svg="http://www.w3.org/2000/svg"
   xmlns:rdf="http://www.w3.org/1999/02/22-rdf-syntax-ns#"
   xmlns:cc="http://creativecommons.org/ns#"
   xmlns:dc="http://purl.org/dc/elements/1.1/">
  <defs
     id="defs4724">
    <clipPath
       id="clipPath3001"
       clipPathUnits="userSpaceOnUse">
      <path
         inkscape:connector-curvature="0"
         id="path3003"
         d="M 0,0 H 595.276 V 841.89 H 0 Z" />
    </clipPath>
  </defs>
  <sodipodi:namedview
     id="base"
     pagecolor="#ffffff"
     bordercolor="#666666"
     borderopacity="1.0"
     inkscape:pageopacity="0.0"
     inkscape:pageshadow="2"
     inkscape:zoom="0.7"
     inkscape:cx="468.57143"
     inkscape:cy="197.14286"
     inkscape:document-units="px"
     inkscape:current-layer="layer2"
     showgrid="false"
     inkscape:window-width="1920"
     inkscape:window-height="1004"
     inkscape:window-x="0"
     inkscape:window-y="40"
     inkscape:window-maximized="1"
     fit-margin-top="0"
     fit-margin-left="0"
     fit-margin-right="0"
     fit-margin-bottom="0"
     inkscape:showpageshadow="0"
     inkscape:pagecheckerboard="0"
     inkscape:deskcolor="#505050"
     showguides="true">
    <sodipodi:guide
       position="1002.453,403.8496"
       orientation="0,-1"
       id="guide1"
       inkscape:locked="false" />
    <sodipodi:guide
       position="10,269.6288"
       orientation="1,0"
       id="guide2"
       inkscape:locked="false" />
    <sodipodi:guide
       position="80.567747,10.000007"
       orientation="0,-1"
       id="guide3"
       inkscape:locked="false" />
    <sodipodi:guide
       position="1010.001,73.630225"
       orientation="1,0"
       id="guide4"
       inkscape:locked="false" />
    <sodipodi:guide
       position="950.07979,129.70525"
       orientation="1,0"
       id="guide5"
       inkscape:locked="false" />
    <sodipodi:guide
       position="484.84864,140.39395"
       orientation="1,0"
       id="guide6"
       inkscape:locked="false" />
    <sodipodi:guide
       position="603.16158,101.30689"
       orientation="0,-1"
       id="guide7"
       inkscape:locked="false" />
    <sodipodi:guide
       position="1020,375.9582"
       orientation="1,0"
       id="guide8"
       inkscape:locked="false" />
    <sodipodi:guide
       position="1030,385.01371"
       orientation="1,0"
       id="guide9"
       inkscape:locked="false" />
  </sodipodi:namedview>
  <metadata
     id="metadata4727">
    <rdf:RDF>
      <cc:Work
         rdf:about="">
        <dc:format>image/svg+xml</dc:format>
        <dc:type
           rdf:resource="http://purl.org/dc/dcmitype/StillImage" />
      </cc:Work>
    </rdf:RDF>
  </metadata>
  <g
     inkscape:label="Background"
     inkscape:groupmode="layer"
     id="layer1"
     transform="translate(-275.59081,-489.88623)"
     sodipodi:insensitive="true">
    <rect
       style="fill:#ffffff;stroke:none;stroke-width:29.9998;stroke-linecap:round;stroke-miterlimit:5;paint-order:fill markers stroke"
       id="rect1"
       width="1020"
       height="413.85303"
       x="275.59082"
       y="489.88626"
       transform="translate(0,3.6679151e-5)" />
    <path
       inkscape:connector-curvature="0"
       d="m 1044.3243,499.88963 c -368.1924,0 -663.26714,214.90984 -727.0698,393.84456 h 968.3373 V 499.88963 Z"
       style="display:inline;fill:#005dac;fill-opacity:1;fill-rule:nonzero;stroke:none;stroke-width:1.25"
       id="path3011" />
    <path
       inkscape:connector-curvature="0"
       d="M 313.61997,893.73922 C 350.24183,760.16182 518.09761,584.69609 775.01339,499.88624 H 285.59081 v 393.85298 z"
       style="display:inline;fill:#5ba7dc;fill-opacity:1;fill-rule:nonzero;stroke:none;stroke-width:1.25"
       id="path3007" />
  </g>
  <g
     inkscape:groupmode="layer"
     id="layer4"
     inkscape:label="Text"
     sodipodi:insensitive="true">
    <path
       inkscape:connector-curvature="0"
       d="m 908.51902,315.39099 c -12.59086,0 -26.16447,-4.05697 -39.3517,-11.36455 l 7.90395,-16.01785 c 9.13026,5.26649 21.71272,10.75137 33.27045,10.75137 9.72663,0 16.62263,-5.87966 16.62263,-14.39677 0,-7.90393 -5.05652,-11.96929 -16.62263,-14.40515 l -12.38088,-2.63744 c -15.4047,-3.24222 -24.53497,-13.7836 -24.53497,-28.18875 0,-19.26848 15.4047,-31.84254 38.13377,-31.84254 13.98519,0 25.14814,4.26695 33.86682,8.93708 l -7.30756,15.40469 c -9.53345,-5.27489 -17.03421,-7.71075 -25.14814,-7.71075 -9.53344,0 -15.60628,4.46855 -15.60628,12.38088 0,6.48441 3.4438,9.72663 13.78359,12.37248 l 12.78405,3.22541 c 20.67119,5.29169 26.14767,16.63943 26.14767,28.61712 0,20.68799 -16.81582,34.87477 -41.56077,34.87477"
       style="fill:#ffffff;fill-opacity:1;fill-rule:nonzero;stroke:none;stroke-width:1.25"
       id="path3031" />
    <path
       inkscape:connector-curvature="0"
       d="m 837.82453,315.79752 c -4.46855,-3.25062 -7.09759,-6.9044 -8.92868,-13.18723 -7.50076,8.51709 -17.43738,12.57406 -29.20509,12.57406 -11.54932,0 -20.48641,-4.05697 -25.55131,-10.13821 -4.05696,-4.86332 -5.68646,-11.54933 -5.68646,-24.34178 V 211.5512 l 22.1159,-4.05695 v 68.75838 c 0,12.77565 1.8311,22.10751 14.40516,22.10751 7.29917,0 16.42104,-6.08965 19.86483,-13.38043 V 211.5512 l 22.11591,-4.05695 v 77.26707 c 0,15.4215 6.28284,20.49482 6.28284,20.49482 z"
       style="fill:#ffffff;fill-opacity:1;fill-rule:nonzero;stroke:none;stroke-width:1.25"
       id="path3027" />
    <path
       inkscape:connector-curvature="0"
       d="m 756.74153,219.66601 c -6.47602,5.68648 -12.97724,6.68601 -17.84895,6.68601 -2.83064,0 -5.06491,-0.40317 -7.70234,-0.99953 5.87125,6.88759 6.49281,14.18676 6.49281,17.63057 0,8.72707 -3.04063,15.4131 -8.32393,20.68796 -7.69393,7.70237 -19.47005,11.16295 -30.6162,10.96137 -0.41156,0.20158 -4.85492,1.83111 -8.71868,4.04858 -2.03268,1.21793 -5.0817,3.24221 -5.0817,5.68645 0,1.20954 0.41159,2.02429 1.02474,2.62904 0.79795,0.80637 2.84742,1.22636 9.12186,1.41954 l 10.54977,0.20999 c 10.13822,0.18479 22.72068,0.60477 31.42258,9.52503 3.86376,3.85538 7.51755,9.93662 7.51755,19.68005 0,10.54138 -4.25856,17.44579 -8.5171,21.69593 -7.10598,7.0892 -19.47006,11.95249 -37.52059,11.95249 -14.40517,0 -30.22145,-2.83062 -38.73016,-11.34773 -5.48486,-5.47647 -6.6944,-11.75931 -6.6944,-16.63101 0,-3.6454 0.80636,-7.70236 2.02428,-10.95296 h 19.67166 c -0.20159,1.21792 -0.39478,3.46059 -0.39478,5.07331 0,3.04061 0.39478,8.11392 4.25015,11.7677 5.0565,4.86331 13.99357,5.26649 18.26054,5.26649 11.34774,0 17.63056,-3.24222 20.87276,-6.68602 2.64586,-2.84743 3.6622,-5.88805 3.6622,-9.33184 0,-4.67013 -1.83109,-7.29917 -3.44381,-8.92029 -2.24266,-2.03268 -6.29122,-4.05695 -14.59834,-4.87172 -3.25061,-0.20159 -6.29962,-0.41158 -9.53345,-0.41158 -4.26694,0 -8.53387,0 -12.80084,-0.40317 -12.56567,-1.01633 -16.61423,-4.25013 -18.05055,-5.48488 -3.03222,-2.82222 -3.63699,-6.47601 -3.63699,-9.31503 0,-4.05698 0.81476,-7.09759 4.04857,-10.3482 4.05697,-4.04859 11.9693,-6.68602 15.4131,-7.70236 -8.92869,-2.43585 -14.17837,-7.50918 -15.4131,-8.52551 -5.88805,-5.87125 -7.90393,-12.76725 -7.90393,-20.67958 0,-9.93661 3.63697,-17.23579 8.51709,-22.51069 6.68601,-7.30756 18.26892,-12.17088 32.24573,-12.17088 9.13025,0 16.02624,2.02429 20.48638,3.25061 3.24223,0.81476 7.08919,2.02429 11.35614,2.02429 6.49282,0 13.17884,-2.63746 18.26054,-7.09758 z m -47.25563,8.92029 c -4.04857,-4.05697 -10.13821,-4.46015 -13.17882,-4.46015 -3.8386,0 -9.33186,0.80636 -13.18724,4.66174 -4.04016,4.25854 -4.45174,9.94501 -4.45174,13.18722 0,4.04858 0.60476,9.33185 4.65332,13.17883 4.06537,3.86378 9.94502,4.25856 12.98566,4.25856 2.83062,0 8.92867,-0.20159 13.17882,-4.46015 4.06536,-4.05697 4.46853,-10.14661 4.46853,-13.17883 0,-4.05696 -0.80635,-9.53344 -4.46853,-13.18722"
       style="fill:#ffffff;fill-opacity:1;fill-rule:nonzero;stroke:none;stroke-width:1.25"
       id="path3023" />
    <path
       inkscape:connector-curvature="0"
       d="m 639.97243,229.40777 c -2.21746,-0.82315 -3.84697,-1.41951 -6.49282,-1.41951 -9.32346,0 -17.24419,6.87919 -19.26007,15.2031 v 69.35475 h -22.11591 v -72.39537 c 0,-12.98563 -1.41111,-21.29275 -3.63699,-27.58399 l 20.478,-5.27488 c 2.42747,4.66172 3.85538,10.54138 3.85538,16.22784 8.10553,-11.15455 16.21945,-16.42943 26.15608,-16.42943 3.2506,0 5.27488,0.40318 7.91233,1.6295 z"
       style="fill:#ffffff;fill-opacity:1;fill-rule:nonzero;stroke:none;stroke-width:1.25"
       id="path3019" />
    <path
       inkscape:connector-curvature="0"
       d="m 561.10778,316.81474 c -6.28283,-2.43587 -11.54932,-7.30758 -14.00198,-13.8004 -8.29871,9.34025 -17.23579,12.17089 -28.19714,12.17089 -23.51023,0 -34.06002,-12.57407 -34.06002,-30.42303 0,-23.72021 17.84895,-35.6895 50.70784,-35.6895 h 6.8876 v -5.46809 c 0,-11.76771 -2.02429,-18.06733 -14.19517,-18.06733 -14.80835,0 -30.61621,11.7677 -30.61621,11.7677 l -9.94502,-16.00946 c 15.41309,-9.74343 28.18876,-14.00198 43.60185,-14.00198 16.02626,0 26.77763,5.88805 31.22937,17.0426 1.84789,4.46015 1.84789,9.92822 1.6211,25.13974 l -0.39478,29.40667 c -0.20159,13.80039 1.01634,18.26054 8.92029,23.72861 z m -23.12384,-52.73213 c -22.30069,0 -29.0035,6.49282 -29.0035,19.46167 0,9.73503 5.27488,15.4215 14.19515,15.4215 7.10599,0 14.00199,-3.85538 18.46213,-10.3398 l 0.41998,-24.33338 c 0,0 -2.45265,-0.20999 -4.07376,-0.20999"
       style="fill:#ffffff;fill-opacity:1;fill-rule:nonzero;stroke:none;stroke-width:1.25"
       id="path3015" />
  </g>
  <g
     inkscape:groupmode="layer"
     id="layer2"
     inkscape:label="Registered symbol">
    <path
       style="font-weight:bold;font-size:54.4681px;font-family:'Open Sans';-inkscape-font-specification:'Open Sans Bold';letter-spacing:0px;word-spacing:0px;white-space:pre;fill:#005dac;stroke-width:30;stroke-linecap:round;stroke-miterlimit:5;paint-order:fill markers stroke"
       d="M 1039.1954,33.936178 V 15.884311 h 5.4455 q 3.3312,0 4.887,1.416223 1.5558,1.416224 1.5558,4.069151 0,1.93484 -0.9774,3.051863 -0.9774,1.097074 -2.214,1.595744 l 4.7472,7.918886 h -3.71 l -3.8896,-6.861705 h -2.5332 v 6.861705 z m 3.3113,-9.594417 h 2.0346 q 1.5956,0 2.3935,-0.797874 0.7979,-0.817818 0.7979,-2.094415 0,-1.456118 -0.738,-2.094416 -0.7182,-0.658245 -2.4934,-0.658245 h -1.9946 z M 1045,39.980063 q -3.2513,0 -6.0039,-1.097075 -2.7329,-1.117022 -4.7674,-3.13165 -2.0146,-2.014628 -3.1316,-4.747342 Q 1030,28.251336 1030,25.000004 q 0,-3.111703 1.1169,-5.824469 1.137,-2.732714 3.1716,-4.787235 2.0545,-2.054523 4.7873,-3.211438 Q 1041.8085,10 1045,10 q 3.1117,0 5.8245,1.117023 2.7327,1.097074 4.7872,3.131649 2.0546,2.014629 3.2114,4.747341 1.1769,2.732714 1.1769,6.003991 0,3.251332 -1.117,6.003992 -1.0971,2.732714 -3.1317,4.747342 -2.0146,2.014628 -4.7474,3.13165 -2.7326,1.097075 -6.0039,1.097075 z m 0,-2.613033 q 2.5132,0 4.7074,-0.897606 2.1941,-0.917554 3.8697,-2.57314 1.6755,-1.655585 2.6131,-3.909575 0.9374,-2.273938 0.9374,-4.986705 0,-2.553192 -0.9175,-4.807182 -0.9175,-2.25399 -2.5732,-3.969415 -1.6356,-1.715427 -3.8497,-2.672874 -2.1942,-0.977394 -4.7872,-0.977394 -2.6131,0 -4.8471,0.917554 -2.214,0.917553 -3.8697,2.593086 -1.6556,1.655585 -2.5731,3.929522 -0.9175,2.273937 -0.9175,4.986703 0,2.712767 0.8976,4.986705 0.8976,2.25399 2.5332,3.909575 1.6357,1.655586 3.8696,2.57314 2.2341,0.897606 4.907,0.897606 z"
       id="text1"
       aria-label="®" />
  </g>
</svg>
