<?xml version="1.0" encoding="UTF-8" standalone="no"?>
<!-- Created with Inkscape (http://www.inkscape.org/) -->

<svg
   version="1.1"
   id="svg1"
   width="1000"
   height="185.72099"
   viewBox="0 0 999.99996 185.72099"
   sodipodi:docname="logo-rgb-horizontal.svg"
   inkscape:version="1.4 (e7c3feb100, 2024-10-09)"
   inkscape:export-filename="logo-rgb-96-dpi-horizontal.png"
   inkscape:export-xdpi="96"
   inkscape:export-ydpi="96"
   xmlns:inkscape="http://www.inkscape.org/namespaces/inkscape"
   xmlns:sodipodi="http://sodipodi.sourceforge.net/DTD/sodipodi-0.dtd"
   xmlns="http://www.w3.org/2000/svg"
   xmlns:svg="http://www.w3.org/2000/svg"
   xmlns:rdf="http://www.w3.org/1999/02/22-rdf-syntax-ns#"
   xmlns:cc="http://creativecommons.org/ns#"
   xmlns:dc="http://purl.org/dc/elements/1.1/">
  <title
     id="title23">Horizontal logo</title>
  <defs
     id="defs1" />
  <sodipodi:namedview
     id="namedview1"
     pagecolor="#505050"
     bordercolor="#eeeeee"
     borderopacity="1"
     inkscape:showpageshadow="0"
     inkscape:pageopacity="0"
     inkscape:pagecheckerboard="0"
     inkscape:deskcolor="#505050"
     inkscape:zoom="0.84365355"
     inkscape:cx="440.34663"
     inkscape:cy="4.1486224"
     inkscape:window-width="1920"
     inkscape:window-height="1020"
     inkscape:window-x="0"
     inkscape:window-y="28"
     inkscape:window-maximized="1"
     inkscape:current-layer="layer1">
    <inkscape:page
       x="0"
       y="0"
       inkscape:label="1"
       id="page1"
       width="999.99994"
       height="185.72099"
       margin="0"
       bleed="0" />
  </sodipodi:namedview>
  <g
     inkscape:groupmode="layer"
     id="layer1"
     inkscape:label="Icon"
     sodipodi:insensitive="true">
    <path
       id="path2-2"
       d="m 10.96179,177.53775 c 0,0 32.784117,5.96809 43.964113,6.34619 11.179657,0.3789 54.262717,1.08293 54.262717,1.08293 0,0 28.97674,0.0308 35.43782,-0.5446 6.46176,-0.57512 18.85288,-1.67917 18.85288,-1.67917 0,0 37.48664,-3.77853 42.5302,-4.78703 l 4.37623,-21.21648 c 0,0 1.169,-43.25433 0,-43.42134 -1.16907,-0.16701 5.17713,-38.343045 4.67611,-39.379146 -0.50099,-1.036101 0.0287,-26.587891 0.0287,-26.587891 0,0 -16.89625,-17.535543 -19.56833,-18.203561 C 192.85018,28.479628 148.92782,4.5978912 147.92577,4.4308854 146.92375,4.2638796 116.3618,0.75677196 115.86079,1.0907835 115.35978,1.4247927 81.958745,2.2598194 81.290724,2.9278402 80.622702,3.595861 36.757794,41.67304 36.645567,42.007047 36.533406,42.341058 14.822734,62.715689 14.488726,63.049696 14.154714,63.38371 7.6415136,159.41168 7.6415136,159.41168 l 3.3202764,18.12607"
       style="display:inline;fill:#ffffff;fill-opacity:1;fill-rule:nonzero;stroke:none;stroke-width:0.133333" />
    <g
       id="g2"
       inkscape:label="Background"
       style="display:inline;fill:#f24c51;stroke-width:1.99596"
       transform="matrix(0.5010155,0,0,0.5010155,-2.7569829e-5,-38.33981)">
      <path
         id="path3-6"
         d="m 93.168264,283.29733 -4.916666,25.16667 2.916666,4.83333 -0.5,5.66654 3.916667,11.24946 c 0,0 19.833329,-28.916 19.416669,-28.74933 -0.41667,0.16667 -20.833336,-18.16667 -20.833336,-18.16667"
         style="fill:#f24c51;fill-opacity:1;fill-rule:nonzero;stroke:none;stroke-width:0.266125" />
      <path
         id="path4-1"
         d="m 288.21333,133.29734 c -5.33334,9.83333 -6.25067,19.74933 -6.25067,19.74933 -2.66667,-15.24933 5.16667,-27.66667 7.75067,-36.58267 2.58266,-8.91733 -0.66667,-26.083994 -0.66667,-26.083994 11.16667,18.250664 4.5,33.083994 -0.83333,42.917334 z m -24.83334,46.916 c 2.08267,15.66666 -6.33333,29.25066 -6.33333,29.25066 0,0 3,-21 1,-33.25066 -2,-12.24934 -3.91733,-20.08267 0,-40.58267 3.916,-20.5 4.33333,-39.750665 4.33333,-39.750665 7.33334,18.250665 2.83334,36.750665 -1.5,50.250665 -4.33333,13.5 0.416,18.416 2.5,34.08267 z m -7.97333,77.35866 c -1.88933,9.58533 -8.336,15.04533 -7.11067,35.03067 0,0 -5,-8.112 -2.66666,-18.112 2.33333,-10 8.11066,-24.77867 6.444,-32.55467 0,0 5.22266,6.04933 3.33333,15.636 z M 241.62933,205.38 c 3.22133,12.88934 0.77866,25.22267 -4.112,33.556 -4.888,8.33333 -9.22134,10.888 -8.888,23.444 0.33333,12.556 -1.112,19.55467 -4,25.77733 0,0 2.888,-14.556 1.444,-23.33333 -1.444,-8.77733 0.11066,-18.944 6.22266,-30.36 6.11067,-11.41733 10.22134,-16.63866 7.11067,-24.972 -3.11067,-8.33333 -6.44533,-17.556 -4.556,-29.77866 1.88933,-12.22134 11.88933,-29.55467 11.556,-51.888 0,0 4,11.66666 -2.33333,36.33333 -6.33334,24.66667 -5.668,28.332 -2.444,41.22133 z m -26.44534,6.66667 c 2.88934,16.33333 3.88934,21.66667 1.44534,29.88933 -2.44534,8.22267 -7.33467,14.444 -7.44534,23.11067 -0.11066,8.66666 0.88934,26 -4.77733,35.66666 0,0 -0.88933,-9.66666 -1.66667,-16.77733 -0.77733,-7.11067 2.55467,-19.77733 6.77734,-33.22267 4.22266,-13.44399 2.89066,-26.11066 1.33333,-39.44399 -1.55467,-13.33334 0.88933,-24.888 4.77867,-36.66667 3.888,-11.77733 5.30533,-27.33333 4.76266,-40.33333 0,0 8.36267,18.556 3.24534,35.88933 -5.12,17.33333 -11.34134,25.55467 -8.45334,41.888 z m -11.888,-84.22133 c -2.624,-10.60534 -3.41999,-22.60533 2.37467,-32.406668 0.0973,-0.161333 0.19333,-0.322667 0.292,-0.482667 0,0 -1.04133,10.986665 0,21.653335 1.04133,10.66666 2.18,22.93066 -4.556,33.236 0,0 4.556,-11.22267 1.88933,-22 z m -7.22266,55.22133 c -1.048,10.15867 -7.63867,22.54933 -11.35467,36.348 0.704,11.61467 2.89734,22.74133 0.57734,29.87466 -0.70934,2.17734 -1.56934,4.19467 -2.51867,6.236 0.39733,7.05334 0.468,13.13067 -1.81467,23.65334 -4,18.444 -7.556,30.22266 -7.556,30.22266 0,0 -5,-9.22266 -0.88933,-26.88933 3.14133,-13.49733 7.18667,-20.37867 10.26,-26.98667 -0.29867,-5.308 -0.78267,-11.17066 -0.592,-19.90266 0.12133,-5.57867 1.128,-10.99067 2.53333,-16.208 -0.20666,-3.4 -0.29066,-6.84 -0.0893,-10.236 0.888,-15 12.444,-14.444 0.444,-51.444 0,0 12.44533,11.332 11,25.332 z M 161.74,310.82533 c -5.33334,-12.33333 -1.77734,-21.17866 -1.77734,-21.17866 4.32267,8.396 1.77734,21.17866 1.77734,21.17866 z M 170.896,142.936 c -3.156,9.88934 -1.26667,26.66667 -1.26667,26.66667 0,0 -8.44533,-6.66667 -4,-23.22267 4.444,-16.55466 10.77733,-27 8.33333,-37.55466 -2.388,-10.312001 -3.82133,-19.034668 -1.91866,-25.957334 0.0453,-0.164 0.092,-0.326667 0.14133,-0.488 0,0 2.408,9.968 6.55467,23.000004 3.112,9.77866 -4.688,27.66666 -7.844,37.55599 z m 57.89999,-35.97199 c 2.83334,-15.750671 5.33334,-16.833338 3.41734,-26.833337 0,0 6.416,4.499999 3.5,16.082666 -2.91734,11.584001 -6.584,14.750671 -2.66667,33.750661 0,0 -7.084,-7.25066 -4.25067,-22.99999 z M 267.85066,280.936 c 2.89067,10.22267 -0.77867,21.22133 -0.77867,21.22133 -4.66666,-10.77866 0.77867,-21.22133 0.77867,-21.22133 z m 179.33333,-40.66666 c -0.44267,-68.88934 -7.10933,-138.66667 -80,-153.554668 -72.888,-14.887999 -241.33239,-12.221333 -296.443858,0 C 15.6292,98.937339 3.8510399,140.71467 0.96249998,178.49334 -1.92656,216.27067 2.2958399,290.27067 5.6291732,349.15867 c 3.3333332,58.88799 12.1666928,75.80519 12.1666928,75.80519 0,0 4.166667,-39.4172 6.666667,-53.25053 2.5,-13.83333 9.333333,-35.83333 9.333333,-35.83333 l 14.333333,-23.83333 24.916666,-28.83334 3.083333,-9.83333 -8,-21.24933 5.416667,-10 -9.916667,-40.83333 13.666667,-15 15.333333,-11.66667 10.416662,9.74933 15.91667,-7.16666 49.83347,9.91733 5.5,23.416 -10,1.084 0.416,26.83333 7.25066,3.24934 -12.33333,23.99999 c 0.004,0.168 0.008,0.33467 0.0107,0.5 0.11466,6.548 -0.73067,10.788 -4.51067,13.66667 -3.876,2.952 -12.25067,-0.83333 -12.25067,-0.83333 l -9.24933,13.75066 8.916,3.16667 5.5,11.5 -0.24933,4.83333 3,4.916 -2.75067,2.33334 -5.83333,-0.41614 -0.83334,16.41614 -4,-0.5828 -1.83333,-7.4172 -10.49947,6.83333 -25.416662,38.33333 1.500002,18.08387 2.5,-0.0839 31.33346,-40 0.0827,-4.83333 4.33333,-0.66667 c 0,0 18.91734,-14.0828 33,-20.5828 14.084,-6.5 45.41733,-10.58386 45.41733,-10.58386 l 67.91734,12.33333 13,6.9172 6.74933,-11.58387 c 4.83333,-4.5 7.584,-0.33333 8.41733,1.16667 0.83334,1.5 -7.16666,15.33333 -7.16666,15.33333 7.08266,0.4172 9.33333,7.8068 9.33333,7.8068 l 21.22133,24.97027 2.80667,-12.66667 -8.528,-12.7224 13.44533,-35.63733 -4.91733,-21.27867 c 0,0 -8.33333,3.58267 -16.36133,4.5 -8.02667,0.916 -16.472,-1.388 -21.60934,-3.53866 -5.13866,-2.14934 -12.64133,-9.98934 -12.64133,-9.98934 -0.0227,0.0187 -0.0467,0.0373 -0.0733,0.0547 -4.38267,3.39733 -10.388,4.228 -13.34267,-0.10933 -2.972,-4.36 -2.75067,-12.52667 -2.75067,-12.52667 l -11.94266,-24.08533 7.60933,-3.19333 -1.916,-13 c 0,0 -12.25067,3.08266 -13.75067,-2.69467 -1.5,-5.77733 16.75067,-10.80533 16.75067,-10.80533 6.916,-14.5 22.416,-20.5 22.416,-20.5 0,0 -3.16667,-20.66667 -1.5,-25.83334 1.66667,-5.16666 14.91733,3 14.91733,3 0,0 12.33334,-13.41733 22.74934,-23.16666 10.41733,-9.75067 33.40933,-14.70134 38.25066,-11.83334 4.83867,2.86667 -0.084,13.16667 -0.084,13.16667 0,0 32.75067,12.5 35.75067,17.416 3,4.91733 -4,10.41733 -4,10.41733 0,0 19.33333,13.08267 21,19.83334 1.66666,6.74933 -22,17.66666 -22,17.66666 0,0 14.16666,20.33334 14.916,27.5 0.75066,7.16667 -25.08267,23.5 -25.08267,23.5 l -29.41733,17.5 27.5,32.8332 12.33333,19.91613 4.66667,12.4172 6.16666,27.66667 4.5,36.83333 2.27867,17.74947 c 32.22133,-38.8896 32.22133,-120.22133 31.776,-189.11066"
         style="fill:#f24c51;fill-opacity:1;fill-rule:nonzero;stroke:none;stroke-width:0.266125" />
    </g>
    <path
       id="path5-8"
       d="m 193.67185,72.073989 c 4.17513,2.394186 4.73226,7.570679 4.73226,7.570679 -5.01015,-2.950646 -4.73226,-7.570679 -4.73226,-7.570679 z m -2.3668,5.915325 c 4.17513,2.394188 4.73094,7.570674 4.73094,7.570674 -5.01018,-2.950646 -4.73094,-7.570674 -4.73094,-7.570674 z m -7.58537,-29.405603 c 4.76367,-0.691402 8.39434,3.039496 8.39434,3.039496 -5.76301,0.768223 -8.39434,-3.039496 -8.39434,-3.039496 z m -0.53375,18.369231 c 4.17513,2.393519 4.73091,7.570682 4.73091,7.570682 -5.01014,-2.95065 -4.73091,-7.570682 -4.73091,-7.570682 z m -3.38954,-28.578589 c 5.37291,0.821665 8.06434,6.046922 8.06434,6.046922 -6.47646,-1.068166 -8.06434,-6.046922 -8.06434,-6.046922 z m 4.87189,72.528337 -9.43579,15.46862 -3.17313,-5.82381 7.32754,-16.59624 z m 7.98217,9.24006 -7.62746,9.99373 c 0,0 0.36273,13.64011 -3.45099,31.5645 l -13.86144,-4.06423 3.17312,-16.81141 -4.17515,-5.95661 4.95404,-13.0264 3.78635,6.56851 10.07509,-16.64507 z m 6.79111,10.9963 c 0,0 0.72413,13.58139 -0.22312,21.01392 -0.94594,7.43252 -3.67413,19.2899 -6.2901,24.02135 0,0 -24.55109,-0.91986 -36.96426,-7.69633 l 1.02276,-12.08704 25.42686,6.82638 c 0,0 3.38952,-18.88489 3.44432,-33.02474 l 7.57135,-9.18528 z m -46.10747,17.88284 c 0,0 0.25051,-6.01219 -0.58452,-7.59874 -0.83501,-1.58655 -2.33807,-3.29862 -2.33807,-3.29862 0,0 2.37951,-2.63006 3.59063,-4.21661 1.21044,-1.58655 2.83906,-2.08757 3.54851,0.75152 0.71011,2.83909 1.56583,6.84721 1.23183,11.31433 l -3.3608,6.1792 z m 1.29397,18.78808 c 0,0 -6.5132,1.50304 -7.80716,0 -1.29462,-1.50305 -5.26067,-8.85127 -5.26067,-8.85127 0,0 6.17919,4.63411 6.5339,4.50913 0.35474,-0.12552 0.43823,-0.79354 0.43823,-0.79354 0,0 -4.96806,-2.79706 -7.43173,-5.46915 l -1.12696,-7.13974 c 0,0 3.50711,5.21917 6.80514,7.64075 l -6.47111,-8.97679 c 0,0 2.79699,0.2505 5.05156,1.75356 2.25458,1.50304 4.92666,5.17715 6.13778,5.38618 1.21045,0.20849 1.62798,0.167 1.62798,0.167 v -5.34416 c 0,0 2.33807,3.42361 2.29665,5.51117 -0.0421,2.08756 -0.79361,11.60686 -0.79361,11.60686 z m -19.33053,-13.19341 c -1.29462,-3.1731 -0.75151,-6.09568 -0.37609,-10.98086 0.37609,-4.88463 1.05547,-9.74969 1.83705,-11.89885 0.33402,-0.91852 1.62864,-1.96258 3.63271,-0.54304 2.00406,1.41955 11.27286,8.64279 11.60686,11.69037 0.33401,3.04811 0,11.56537 0,11.56537 0,0 -0.75153,-0.29252 -2.92259,-2.42157 -2.17107,-2.12959 -7.84924,-5.9707 -9.93681,-3.75761 0,0 0.41751,7.2227 0.83501,8.60075 l 3.34012,6.9722 c 0,0 -6.7223,-6.05367 -8.01626,-9.22676 z m 12.7612,-23.50624 -1.72615,3.22841 -1.69744,-1.41955 z m 4.99345,-7.56741 c 0.66804,-1.11687 2.11898,-1.65936 2.9119,-1.11687 0.79362,0.54304 1.18976,1.50305 0,3.50712 -1.18974,2.00406 -6.39827,11.35635 -6.39827,11.35635 l -2.787,-2.73495 c 0,0 5.60536,-9.89459 6.27337,-11.01165 z m 2.129,8.45461 c 0,0 -1.03344,0.36533 -3.2045,2.87041 l 1.72281,-3.23596 z m 4.41561,14.68629 8.39168,3.34011 -1.58656,7.2227 -9.3937,-1.92056 -0.87711,-2.17107 z m 11.12655,-41.58422 c 0,0 -9.68629,5.99081 -18.57966,1.04345 0,0 0.21978,-4.11233 -0.38611,-6.743003 l -4.62404,3.517803 c 0,0 -3.48573,-3.078914 -5.1244,-5.949394 0,0 6.52323,-0.09422 12.2014,-4.310735 5.67818,-4.217216 6.26271,-7.139808 7.22332,-10.855335 0.95995,-3.716202 4.13303,-10.103813 10.72974,-10.730419 0,0 1.75356,2.254571 3.92464,6.137777 2.17106,3.882532 -0.83503,6.346198 -4.42566,8.433759 0,0 -1.54445,2.629994 0.39679,7.201931 1.94129,4.571932 6.86794,10.250106 6.86794,10.250106 l -6.0536,11.52335 z m -19.38596,0.76222 -1.85911,-0.94324 1.96734,-4.33947 z m -3.71953,-2.50642 3.14036,-2.39886 -1.59054,3.62468 z m -8.23669,-1.45629 c -2.33943,-1.67539 -2.04817,-5.646773 -2.04817,-5.646773 0,0 1.77827,0.712778 3.16642,0.712778 0,0 2.34542,3.573915 3.44966,4.799725 0,0 -2.22984,1.80967 -4.56791,0.13427 z m -1.36479,-9.156553 c 0.006,-0.01204 0.0108,-0.02405 0.0155,-0.03608 l 2.12967,3.692824 c 0,0 -1.21714,0.06547 -2.75826,-0.737494 -0.0274,-0.01466 -0.0548,-0.02874 -0.0821,-0.04406 0,0 0.11758,-1.483674 0.69542,-2.875164 z m -6.78974,-9.30152 2.9119,-1.221139 c 0,0 1.67004,5.83449 3.71618,9.696317 l -1.02272,2.421575 z m 4.89123,-8.833905 c 0,0 -0.66802,2.949981 2.06017,2.811033 2.72822,-0.138947 5.23328,-5.149102 5.23328,-5.149102 0,0 6.31748,0.390121 6.98549,-4.982097 0,0 7.23734,1.47499 10.60484,3.450994 l -25.74619,10.298874 -0.71479,-5.427669 z m 10.07643,-15.948991 12.46928,1.391485 7.68223,8.600769 -4.28602,1.698106 c 0,0 -3.61934,-1.586545 -8.35025,-3.061535 -4.73225,-1.475661 -10.82795,-2.560526 -17.42466,0 0,0 2.58858,-4.59331 9.90942,-8.628825 z m 21.10544,13.102557 c -1.77426,0.814316 -3.96669,3.298688 -5.19787,6.158483 -1.23183,2.859796 -1.81635,5.114365 -2.38016,7.097722 -0.56381,1.983349 -2.52577,5.406954 -7.47315,8.308836 -4.94801,2.901217 -10.57342,3.193806 -10.57342,3.193806 -4.87722,-7.784442 -6.41968,-14.612948 -6.41968,-14.612948 l 26.59592,-10.83463 c 0,0 0.54243,0.08351 1.39817,0.396805 0.85638,0.313304 4.05019,0.291926 4.05019,0.291926 z m 1.07752,-0.688731 -5.31544,-0.389454 3.78501,-1.503046 z m -54.99948,70.253063 c 0.38947,0.97464 4.06357,4.25944 4.23058,5.81779 0.167,1.55836 -2.56052,10.49394 -3.39555,10.60483 -0.83503,0.11088 -2.47768,-1.27993 -3.45166,-1.58655 -0.97398,-0.30662 -3.0061,-1.25254 -3.0061,-1.25254 l -2.58858,-2.19926 c 0,0 -2.25458,3.31299 -4.67614,4.70434 -2.421568,1.39135 -4.815093,0.97331 -6.596704,0.5284 -1.781612,-0.4449 -2.978704,-1.64133 -2.616634,-3.53449 0.362063,-1.89318 1.391483,-5.92949 1.169034,-6.73633 -0.22245,-0.8071 -2.253903,-1.53043 -3.06154,-3.28399 -0.806966,-1.75355 0.223123,-4.89845 -1.920558,-5.51117 -2.143009,-0.6127 -3.507109,-0.94592 -4.898596,-2.22637 -1.391488,-1.28074 -2.505077,-1.22543 -2.505077,-1.22543 0,0 -0.835026,-1.72456 -2.00406,-3.11671 0,0 5.567282,-5.40107 14.975016,-8.85207 9.407739,-3.451 15.558869,-3.31219 15.558869,-3.31219 l 12.49733,7.45992 c 0,0 -2.50508,5.56649 -4.25863,7.65406 -1.75355,2.08756 -3.84112,5.09312 -3.451,6.06776 z m -32.768411,10.21731 c 0,0 -0.04343,2.35951 -3.045508,3.64619 -3.002086,1.28647 -5.275357,2.61604 -5.275357,2.61604 0,0 0.77223,0.42946 1.715476,0.0861 0.943914,-0.34343 4.460371,-1.97327 4.460371,-1.97327 0,0 0.386786,2.40201 -0.728807,3.55982 -1.114929,1.15754 -11.065298,7.37615 -15.440029,7.84845 l -0.731147,-20.02861 6.349934,-2.27387 c 0,0 0.299943,3.7323 -3.602967,6.13376 0,0 7.462792,-0.68551 9.907748,-1.32928 2.444289,-0.64398 2.744227,-1.15909 2.744227,-1.15909 0,0 -1.972663,-1.15834 -2.315358,-1.84388 -0.343361,-0.68599 -0.04343,-1.80151 -0.04343,-1.80151 h 7.334199 c 0,0 1.672726,3.94681 -5.789735,7.07708 0,0 2.273273,-0.55793 4.460375,-0.55793 z M 72.41742,166.6404 c -1.415533,0.0428 -1.801653,-1.63064 -1.801653,-1.63064 l 4.41762,-2.31537 c 0.0254,2.64937 -1.201099,3.90245 -2.615967,3.94601 z m -32.271476,7.39024 c -8.934778,1.83706 -16.241251,1.21106 -16.241251,1.21106 0,0 -4.008126,-7.64076 -5.552924,-19.24761 -1.544797,-11.60687 -1.169035,-20.24912 -0.584517,-26.13632 l 5.803429,-9.8533 7.556982,9.10178 c 0,0 0.292262,10.85534 0.709774,16.70052 0.417512,5.84518 2.839086,16.65903 2.839086,16.65903 l 25.259535,-6.38821 0.960275,11.69036 c 0,0 -11.815612,4.42564 -20.750389,6.26269 z m -8.893025,-63.16937 10.396072,16.61695 2.588578,-4.75964 3.715866,11.73183 1.503046,22.75473 -14.153686,3.50711 c 0,0 -2.171069,-11.31487 -2.755587,-16.95102 -0.584518,-5.6367 -0.292259,-14.44596 -0.292259,-14.44596 l -7.932744,-9.9368 z m 6.346197,-7.51523 7.306474,16.65843 -3.256599,5.34417 -9.435792,-15.5729 z m 1.169036,-23.547724 c 0,0 0.292258,-6.137776 3.507107,-10.312905 0,0 6.47145,1.753556 6.47145,3.716197 0,1.961979 -1.127286,4.425638 -1.503047,6.220609 -0.375759,1.795641 0.417514,3.298686 0.417514,3.298686 0,0 -2.338071,3.298016 -4.425636,7.22264 -2.087567,3.92462 -2.212819,6.05427 1.085532,9.018281 0,0 -2.296321,4.300706 1.503047,6.137766 l -1.795306,8.85128 -5.845182,-11.73245 4.216882,-19.080004 z m 6.346194,-27.201135 c 0,0 -2.087563,4.905944 -6.262691,7.097716 0,0 0.312832,-4.133708 6.262691,-7.097716 z m 3.514391,2.6006 c 0,0 -1.534378,3.605309 -4.602262,5.215909 0,0 0.230133,-3.037492 4.602262,-5.215909 z m 3.374571,13.953619 -1.04378,2.672081 c 0,0 -2.421575,-1.670049 -4.884903,-2.33807 0,0 2.129316,-2.212482 5.928683,-0.334011 z m 29.559985,12.191375 c 0,0 -0.543101,2.630667 -1.79564,5.803763 -1.252539,3.173099 -4.55056,8.684268 -4.55056,8.684268 0,0 -5.56394,-0.667353 -11.732178,-4.113001 -6.168237,-3.444983 -6.053935,-7.20193 -7.306474,-11.585482 -1.252538,-4.384218 -4.550895,-7.807828 -4.550895,-7.807828 l 1.127286,-2.839084 z M 57.723236,62.680284 c 1.377792,-0.626605 10.18705,1.085534 13.026139,2.379487 2.839085,1.294626 8.433759,3.716202 10.813918,3.883206 2.379488,0.167004 0,0.167004 0,0.167004 0,0 0.792938,7.348229 0.334007,11.356353 L 52.96359,68.692471 c 0,0 3.381854,-5.386253 4.759646,-6.012187 z m 4.106458,-9.499921 c 0,0 -1.680475,3.718201 -5.040951,5.380906 0,0 0.252647,-3.133685 5.040951,-5.380906 z m 23.825222,29.832467 -5.51117,10.813914 -0.793608,-2.463659 c 0,0 2.324712,-6.179189 3.270629,-9.644212 z m -8.684266,12.525386 2.045481,-3.465026 0.6266,2.797002 c 0,0 -0.313966,0.468955 -2.672081,0.668024 z m -3.757617,5.386244 3.340105,-4.759639 3.089593,-0.626605 c -0.918527,9.728384 -6.429698,5.386244 -6.429698,5.386244 z m -1.461628,-0.58451 -8.30824,-5.302754 c -3.674116,-0.0835 -12.650641,3.716203 -12.650641,3.716203 0,0 -1.58655,-11.231436 -1.753556,-13.402499 -0.167005,-2.171066 2.630333,-3.966039 2.630333,-3.966039 -1.711804,-3.674112 -0.501015,-7.932744 -0.501015,-7.932744 2.88084,2.004062 5.010155,9.477208 5.385917,11.063758 0.375762,1.586546 2.296319,5.177159 7.431728,8.141836 5.135473,2.964004 10.897152,3.841116 10.897152,3.841116 z m -3.945332,3.48573 -1.690827,-3.59061 3.256666,2.33807 z m -2.400601,-4.112336 1.983091,4.321426 -1.712006,1.04345 z m 4.522904,10.577436 c 0,0 -2.421575,0.30596 -3.451461,1.27993 l 4.551024,-0.43088 2.407545,4.07694 v 1.78161 l -3.270629,-3.32607 c 0,0 -4.379477,0.49433 -5.814652,1.61393 -0.02971,0.0234 -0.05845,0.0467 -0.08584,0.0701 l 6.338717,-0.16366 4.05021,4.99939 c 0,0 -0.907841,1.60793 -3.204494,0.26121 -2.29599,-1.34673 -4.102317,-2.75552 -4.102317,-2.75552 l -4.268922,5.36494 c 0,0 1.920563,0.052 3.006093,0.0835 1.085802,0.0313 1.364367,0.28317 1.465241,1.41019 l -4.342403,3.1449 -8.113579,-9.57467 1.210788,-1.60058 c 0,0 3.159003,3.35339 6.053936,-0.20909 2.894668,-3.56255 4.620766,-7.19525 4.620766,-7.19525 z m 0.685388,18.79483 h -1.158346 l -2.46366,-9.62363 0.626601,-0.77284 2.995405,3.08953 z M 54.612467,101.29989 c 0,0 4.405058,-3.089587 8.016248,-4.112333 l 2.150489,2.108273 0.09366,6.15848 c 0,0 0.07335,0.14629 -0.469421,0 -0.542765,-0.14629 -1.482471,-1.69075 -1.482471,-1.69075 l -2.024638,1.46096 z m -9.706877,14.61295 1.962313,-9.7698 1.043782,0.63462 c -0.751524,2.80636 4.634393,5.54457 6.220939,6.08767 1.58655,0.54244 1.252538,1.48167 1.252538,1.48167 l -7.932742,10.66763 -1.565974,-4.75965 0.229933,-1.21052 z m 5.636425,29.76894 -0.62627,-11.73238 -1.795304,-6.3462 5.511168,-7.59873 7.932749,9.6863 z m 22.587513,-10.52132 0.897154,9.51929 c 0,0 -1.544466,1.92056 0.167004,4.19597 l -4.717563,0.89769 -1.315331,-14.38383 z M 209.23873,53.758867 c -2.83906,-2.56052 -8.15587,-4.230576 -8.15587,-4.230576 4.64744,-3.646722 1.69745,-7.097716 -3.7302,-10.549383 -5.42768,-3.450993 -12.6363,-3.813059 -12.6363,-3.813059 0,0 2.03145,-3.034149 0.50103,-6.09569 -1.53045,-3.062207 -13.88883,-0.0835 -20.31852,5.121715 -6.4297,5.205216 -11.99698,11.745809 -11.99698,11.745809 -6.23531,-4.564586 -8.43377,-2.36613 -8.29414,1.697442 0.13961,4.063565 1.39082,10.465878 1.39082,10.465878 -8.76779,3.674111 -10.93884,9.43579 -10.93884,9.43579 0,0 -5.17717,1.531104 -7.69026,3.562555 -2.51376,2.03212 -1.46698,5.594674 0.50903,6.318142 1.97667,0.724133 5.70691,-1.196426 5.70691,-1.196426 l 0.44488,5.48378 -3.47972,1.503046 6.15181,12.497334 c 0,0 -0.25049,4.843136 1.19643,6.429686 2.966,3.24993 6.95943,0.66803 6.95943,0.66803 11.69036,11.27285 24.91117,4.31408 24.91117,4.31408 l 2.28196,9.51929 c 0,0 -2.00406,4.73239 -2.81036,7.04228 -0.80765,2.30988 -3.73024,9.96499 -3.84113,11.24465 -0.11222,1.27993 4.59266,6.15207 4.59266,6.15207 l -1.22515,5.5383 c -2.89389,-4.59265 -9.76982,-11.71829 -9.76982,-11.71829 -1.22514,-4.06423 -4.62003,-4.25783 -4.62003,-4.25783 0,0 1.14166,-2.06044 2.9787,-5.26066 1.83705,-3.20048 -2.95131,-6.01219 -4.73225,-2.78378 -1.78228,3.22841 -2.67207,5.14897 -2.83909,5.14897 -0.16699,0 -15.86549,-11.74567 -40.13737,-10.24263 -24.270507,1.50306 -39.774602,15.86549 -39.774602,15.86549 l -3.298415,0.50102 0.125253,2.46359 c -9.644548,9.01829 -14.946967,20.29113 -14.946967,20.29113 l -0.835022,-7.80775 12.024373,-18.53757 4.550624,-3.2146 c 0,0 0.250508,2.29606 0.626599,2.75559 0.375431,0.45901 3.340105,0.5425 3.340105,0.5425 l 0.08351,-7.55671 c 0,0 1.08553,0.66802 2.128979,0.37549 1.044116,-0.292 2.839091,-2.21255 2.839091,-2.21255 l -1.503047,-2.33801 v -3.21518 l -3.006092,-5.88659 -4.049544,-1.50306 4.258631,-5.67817 c 0,0 4.634059,2.21248 6.721625,-0.66803 2.087565,-2.881164 1.336044,-6.555279 1.336044,-6.555279 l 6.346192,-12.525388 -3.590609,-1.67005 c 0.710106,-4.884563 0.0835,-11.982286 0.0835,-11.982286 3.590612,-0.292592 5.469755,-0.960611 5.469755,-0.960611 C 89.162024,60.968148 87.324971,55.20647 86.239436,54.204439 85.153901,53.202407 75.217093,52.868395 70.958462,51.782861 66.699766,50.69733 61.856615,47.941746 60.520571,47.774737 59.184534,47.607734 51.91981,52.033368 51.91981,52.033368 l -4.509142,-6.095685 c 0,0 -14.946963,12.441883 -16.283005,15.280974 -1.336039,2.839085 4.592644,21.794173 4.592644,21.794173 l -2.672083,4.843147 4.258631,11.272845 -0.918528,3.423608 c -14.028432,14.27894 -19.873614,26.13631 -19.873614,26.13631 -7.9327448,21.12615 -7.5987356,45.88493 -7.5987356,45.88493 l 2.0458126,2.96408 c -0.626268,-20.04062 5.051907,-42.0853 5.051907,-42.0853 -1.252538,27.13834 6.847213,41.25027 6.847213,41.25027 13.492948,1.47486 29.225903,-4.25863 29.225903,-4.25863 l 2.83909,11.43985 54.276747,1.83706 -0.16702,-8.68426 c 0,0 0,-1.25255 2.67208,-2.08757 2.67211,-0.83503 6.26271,-1.58655 7.26473,-2.08757 1.00205,-0.50101 2.25457,-5.92868 2.25457,-5.92868 0,0 -0.334,-2.33807 -2.25457,-4.50914 -1.92055,-2.17106 -2.25455,-3.2566 -2.25455,-3.2566 l 13.77792,2.17107 8.35026,10.02031 0.501,5.17716 4.75966,7.93275 19.37259,-1.72537 1.50304,-9.29618 c 12.97165,4.78757 28.94803,4.23044 28.94803,4.23044 0,0 3.28398,-6.95863 5.73427,-19.03858 2.44898,-12.07969 1.05682,-22.60101 1.05682,-22.60101 0,0 3.28398,14.58476 3.95202,19.26091 0.66801,4.67614 1.33602,22.65739 1.33602,22.65739 l 2.11629,-1.16984 c 0,-38.41119 -11.57945,-53.88736 -12.9155,-55.75234 -1.33604,-1.86525 -15.11398,-17.78605 -15.11398,-17.78605 0,0 19.84489,-11.467242 23.43551,-14.751902 3.59061,-3.284651 5.14976,-6.457082 3.81373,-10.660938 -1.33605,-4.202516 -6.62409,-8.57271 -6.62409,-8.57271 0,0 4.25862,-0.918526 8.51725,-4.703534 4.25865,-3.785672 2.8391,-8.239365 0,-10.799889"
       style="fill:#000000;fill-opacity:1;fill-rule:nonzero;stroke:none;stroke-width:0.133333" />
    <path
       id="path6-7"
       d="m 40.730462,133.9494 v 7.72426 l -2.505078,0.29199 c 0,0 -0.417512,-7.1392 2.505078,-8.01625 z m -4.425638,10.06233 c 1.210789,-0.20902 4.175129,-1.41954 4.175129,-1.41954 v 5.30214 c 0,0 0.835026,-2.04554 0.876779,-5.67817 l 2.00406,-0.79301 h -1.96231 l -0.04175,-8.55929 c 0,0 -2.004062,-1.41954 -3.340104,1.46157 -1.33604,2.88057 -0.626268,8.18326 -0.626268,8.18326 l -2.964343,1.08553 c 0,0 0.668021,0.626 1.878809,0.41751"
       style="fill:#000000;fill-opacity:1;fill-rule:nonzero;stroke:none;stroke-width:0.133333" />
    <path
       id="path7-9"
       d="m 72.127499,89.818619 c 2.128983,0 3.966038,-1.545132 3.966038,-1.545132 l -1.210454,-1.878471 c -9.060094,1.878471 -7.891325,-7.264726 -7.891325,-7.264726 -3.506843,6.930713 3.006093,10.688329 5.135741,10.688329"
       style="fill:#000000;fill-opacity:1;fill-rule:nonzero;stroke:none;stroke-width:0.133333" />
    <path
       id="path8-2"
       d="m 45.917776,72.335189 c -1.982886,-0.71011 -3.413184,-0.762215 -3.413184,-0.762215 0,0 -0.939104,2.139671 -1.367038,3.966708 -0.428269,1.826368 -0.459266,2.619976 -0.459266,2.619976 0.646845,-1.973335 1.941137,-5.072948 1.941137,-5.072948 l 3.298351,-0.751521"
       style="fill:#000000;fill-opacity:1;fill-rule:nonzero;stroke:none;stroke-width:0.133333" />
    <path
       id="path9-0"
       d="m 150.09017,79.923898 c 0,0 0.23783,10.298875 -7.73699,7.069664 l -1.53177,2.171067 c 0,0 1.64265,1.921229 4.95536,1.475656 3.27598,-0.440893 7.12512,-6.493155 4.40494,-10.583447 -0.0287,-0.04409 -0.0601,-0.08818 -0.0916,-0.13294"
       style="fill:#000000;fill-opacity:1;fill-rule:nonzero;stroke:none;stroke-width:0.133333" />
    <path
       id="path10-2"
       d="m 171.63385,82.038856 c 0,0 2.03278,-2.7282 2.08758,-3.451667 0.0562,-0.723465 -3.2279,-4.648085 -3.2279,-4.648085 l 2.11497,4.453026 -0.97465,3.646726"
       style="fill:#000000;fill-opacity:1;fill-rule:nonzero;stroke:none;stroke-width:0.133333" />
    <path
       id="path11-3"
       d="m 175.85842,134.78443 c 2.92259,0.87705 2.50506,8.01625 2.50506,8.01625 l -2.50506,-0.29199 z m -0.66804,7.47374 h -1.96195 l 2.00406,0.79302 c 0.0414,3.63262 0.87644,5.67817 0.87644,5.67817 v -5.30215 c 0,0 2.96468,1.21052 4.17513,1.41954 1.21112,0.2085 1.87913,-0.4175 1.87913,-0.4175 l -2.96468,-1.08554 c 0,0 0.71013,-5.30268 -0.62593,-8.18325 -1.33605,-2.88111 -3.34009,-1.46157 -3.34009,-1.46157 l -0.0422,8.55928"
       style="fill:#000000;fill-opacity:1;fill-rule:nonzero;stroke:none;stroke-width:0.133333" />
  </g>
  <g
     inkscape:groupmode="layer"
     id="layer2"
     inkscape:label="Name"
     sodipodi:insensitive="true">
    <path
       id="path12"
       d="m 271.11044,94.511534 h 28.47275 c 8.83235,0 15.4032,-1.801422 19.71864,-5.40426 4.31358,-3.602843 6.47223,-9.009445 6.47223,-16.21747 0,-7.205682 -2.15865,-12.612286 -6.47223,-16.215126 -4.31544,-3.602841 -10.88629,-5.406604 -19.71864,-5.406604 h -28.47275 z m -6.24266,54.206596 c -1.01573,0 -1.82836,-0.30453 -2.43672,-0.9136 -0.6086,-0.60906 -0.9143,-1.41958 -0.9143,-2.43625 V 45.634244 c 0,-1.115054 0.3057,-1.979455 0.9143,-2.588518 0.60836,-0.609062 1.42099,-0.913593 2.43672,-0.913593 h 35.47768 c 10.65766,0 19.15853,2.53698 25.50356,7.613285 6.34409,5.076303 9.51661,12.790318 9.51661,23.144386 0,8.121618 -2.03122,14.617508 -6.08969,19.490009 -4.06198,4.872505 -9.69487,8.170817 -16.90196,9.897277 l 24.51524,41.7208 c 0.30476,0.60906 0.4568,1.16893 0.4568,1.67493 0,0.81285 -0.30383,1.52265 -0.91429,2.13171 -0.60837,0.60907 -1.31956,0.9136 -2.13102,0.9136 h -1.82742 c -1.62433,0 -2.84222,-0.43103 -3.65485,-1.29543 -0.81333,-0.85971 -1.52266,-1.79907 -2.13102,-2.81575 l -24.20977,-40.95947 h -31.36721 v 41.7208 c 0,1.01667 -0.30383,1.82719 -0.9143,2.43625 -0.60836,0.60907 -1.47135,0.9136 -2.58782,0.9136 h -2.74054"
       style="fill:#000000;fill-opacity:1;fill-rule:nonzero;stroke:none;stroke-width:0.133333" />
    <path
       id="path13"
       d="m 362.31783,148.71813 c -1.01573,0 -1.82836,-0.30453 -2.43578,-0.9136 -0.60953,-0.60906 -0.9143,-1.41958 -0.9143,-2.43625 V 45.634244 c 0,-1.115054 0.30477,-1.979455 0.9143,-2.588518 0.60742,-0.609062 1.42005,-0.913593 2.43578,-0.913593 h 59.38362 c 1.11553,0 1.97923,0.304531 2.58876,0.913593 0.60859,0.609063 0.91218,1.473464 0.91218,2.588518 v 2.283985 c 0,1.016667 -0.30359,1.827189 -0.91218,2.436251 -0.60953,0.609063 -1.47323,0.913594 -2.58876,0.913594 h -53.14096 v 38.827754 h 49.79088 c 1.11646,0 1.98016,0.304533 2.58876,0.913594 0.60952,0.609063 0.91336,1.473464 0.91336,2.588518 v 2.28398 c 0,1.016673 -0.30384,1.827198 -0.91336,2.436254 -0.6086,0.609066 -1.4723,0.913599 -2.58876,0.913599 h -49.79088 v 40.350417 h 54.35885 c 1.11554,0 1.97946,0.30453 2.58875,0.91359 0.6086,0.60906 0.91337,1.47346 0.91337,2.58852 v 2.28398 c 0,1.01667 -0.30477,1.82719 -0.91337,2.43625 -0.60929,0.60907 -1.47321,0.9136 -2.58875,0.9136 h -60.60151"
       style="fill:#000000;fill-opacity:1;fill-rule:nonzero;stroke:none;stroke-width:0.133333" />
    <path
       id="path14"
       d="m 481.08251,150.24078 c -8.22001,0 -15.2008,-1.32119 -20.93584,-3.9589 -5.73456,-2.64006 -10.12495,-6.0391 -13.16934,-10.2018 -3.04625,-4.16271 -4.67058,-8.57608 -4.87274,-13.24712 0,-0.81286 0.30383,-1.52266 0.91219,-2.13172 0.60952,-0.60906 1.3718,-0.91359 2.28398,-0.91359 h 3.04626 c 1.01292,0 1.80094,0.30453 2.35989,0.91359 0.55634,0.60906 0.88759,1.31886 0.98924,2.13172 0.4055,2.84151 1.67539,5.6596 3.80665,8.45192 2.13218,2.79231 5.27707,5.1255 9.44187,7.00188 4.16038,1.87872 9.53888,2.81808 16.13784,2.81808 9.94879,0 17.20835,-1.80142 21.77633,-5.4066 4.56562,-3.6005 6.85195,-8.44957 6.85195,-14.54021 0,-4.05963 -1.1947,-7.33218 -3.5794,-9.82231 -2.38707,-2.48544 -6.01568,-4.72023 -10.88584,-6.69734 -4.87249,-1.9818 -11.1154,-4.18848 -18.72867,-6.624739 -7.21037,-2.33317 -13.14826,-4.743658 -17.81602,-7.233787 -4.67036,-2.485446 -8.0954,-5.504991 -10.27865,-9.058639 -2.18349,-3.551305 -3.27324,-8.121619 -3.27324,-13.703914 0,-5.177033 1.36991,-9.822308 4.1114,-13.931139 2.74149,-4.113518 6.72289,-7.386058 11.95239,-9.82231 5.22646,-2.436251 11.59586,-3.654377 19.11076,-3.654377 5.98756,0 11.21378,0.812865 15.68102,2.436251 4.46725,1.623387 8.17081,3.783218 11.11774,6.470121 2.94225,2.69159 5.17704,5.584638 6.69735,8.679146 1.52266,3.096849 2.33551,6.118738 2.43625,9.060981 0,0.712134 -0.25299,1.396158 -0.75898,2.056757 -0.51068,0.660598 -1.3212,0.988556 -2.43625,0.988556 h -3.04767 c -0.50833,0 -1.14081,-0.203801 -1.90214,-0.609064 -0.76134,-0.40526 -1.24389,-1.218125 -1.44536,-2.436249 -0.61141,-5.076305 -3.27488,-9.262441 -7.99512,-12.563093 -4.72023,-3.295967 -10.83664,-4.947463 -18.34684,-4.947463 -7.5149,0 -13.65472,1.473463 -18.42533,4.415704 -4.772,2.944585 -7.15578,7.564093 -7.15578,13.856179 0,4.061981 1.0661,7.386058 3.1964,9.974575 2.13289,2.588518 5.48297,4.872504 10.04884,6.849615 4.57032,1.981797 10.4548,4.136941 17.66517,6.472463 7.61328,2.436251 13.90538,4.872508 18.88095,7.308753 4.97088,2.436253 8.67914,5.404263 11.11539,8.906373 2.43625,3.50445 3.65437,8.049 3.65437,13.62895 0,6.19371 -1.54842,11.44571 -4.64528,15.75833 -3.09683,4.31499 -7.48678,7.61329 -13.1698,9.89728 -5.68771,2.28633 -12.48578,3.42714 -20.40594,3.42714"
       style="fill:#000000;fill-opacity:1;fill-rule:nonzero;stroke:none;stroke-width:0.133333" />
    <path
       id="path15"
       d="m 544.57731,148.71813 c -1.01433,0 -1.82719,-0.30453 -2.43626,-0.9136 -0.60671,-0.60906 -0.91359,-1.41958 -0.91359,-2.43625 V 45.481978 c 0,-1.014324 0.30688,-1.827189 0.91359,-2.436252 0.60907,-0.609062 1.42193,-0.913593 2.43626,-0.913593 h 2.89303 c 1.01434,0 1.8272,0.304531 2.43626,0.913593 0.60907,0.609063 0.9136,1.421928 0.9136,2.436252 v 99.886302 c 0,1.01667 -0.30453,1.82719 -0.9136,2.43625 -0.60906,0.60907 -1.42192,0.9136 -2.43626,0.9136 h -2.89303"
       style="fill:#000000;fill-opacity:1;fill-rule:nonzero;stroke:none;stroke-width:0.133333" />
    <path
       id="path16"
       d="m 615.53079,150.24078 c -9.2367,0 -16.77267,-1.80141 -22.6103,-5.4066 -5.83763,-3.60283 -10.17838,-8.49877 -13.01755,-14.69247 -2.84385,-6.19136 -4.4157,-13.24712 -4.72023,-21.16493 -0.10313,-4.16038 -0.15232,-8.62527 -0.15232,-13.399384 0,-4.769432 0.0492,-9.339745 0.15232,-13.703914 0.30453,-7.917818 1.87638,-14.999345 4.72023,-21.242239 2.83917,-6.242892 7.17992,-11.138821 13.01755,-14.692468 5.83763,-3.551305 13.3736,-5.3293 22.6103,-5.3293 7.20801,0 13.35017,1.016667 18.42648,3.045314 5.07396,2.030991 9.21089,4.696812 12.40847,7.992778 3.19994,3.300652 5.58231,6.851957 7.15651,10.658601 1.57419,3.806641 2.45967,7.538321 2.6658,11.192699 0.10068,0.913594 -0.17803,1.651498 -0.83862,2.206681 -0.6606,0.559871 -1.44769,0.838633 -2.35894,0.838633 h -3.04532 c -0.8152,0 -1.52499,-0.22957 -2.13173,-0.686367 -0.60905,-0.454455 -1.01666,-1.293087 -1.21812,-2.511214 -1.93027,-9.032869 -5.55887,-15.22657 -10.88583,-18.576414 -5.33165,-3.349845 -12.0571,-5.024768 -20.1787,-5.024768 -9.2367,0 -16.57121,2.614284 -22.00124,7.840511 -5.43237,5.230913 -8.35118,13.579758 -8.75646,25.04888 -0.30218,8.32542 -0.30218,16.852296 0,25.580641 0.40528,11.47146 3.32409,19.82031 8.75646,25.04653 5.43003,5.23092 12.76454,7.84286 22.00124,7.84286 8.1216,0 14.84705,-1.67492 20.1787,-5.02476 5.32696,-3.34985 8.95556,-9.5412 10.88583,-18.57643 0.20146,-1.21812 0.60907,-2.05675 1.21812,-2.51121 0.60674,-0.4568 1.31653,-0.68637 2.13173,-0.68637 h 3.04532 c 0.91125,0 1.69834,0.27876 2.35894,0.8363 0.66059,0.55986 0.93936,1.29543 0.83862,2.20902 -0.20613,3.65438 -1.09161,7.38606 -2.6658,11.1927 -1.5742,3.80665 -3.95657,7.36029 -7.15651,10.65626 -3.19758,3.30065 -7.33451,5.96647 -12.40847,7.99512 -5.07631,2.02865 -11.21847,3.04531 -18.42648,3.04531"
       style="fill:#000000;fill-opacity:1;fill-rule:nonzero;stroke:none;stroke-width:0.133333" />
    <path
       id="path17"
       d="m 681.91862,148.71813 c -1.01433,0 -1.82719,-0.30453 -2.43624,-0.9136 -0.60907,-0.60906 -0.91127,-1.41958 -0.91127,-2.43625 V 45.481978 c 0,-1.014324 0.3022,-1.827189 0.91127,-2.436252 0.60905,-0.609062 1.42191,-0.913593 2.43624,-0.913593 h 2.89774 c 1.00962,0 1.82484,0.304531 2.4339,0.913593 0.60671,0.609063 0.9136,1.421928 0.9136,2.436252 v 94.100212 h 52.52933 c 1.11739,0 1.9818,0.30453 2.59085,0.91359 0.60673,0.60906 0.91359,1.47346 0.91359,2.58852 v 2.28398 c 0,1.01667 -0.30686,1.82719 -0.91359,2.43625 -0.60905,0.60907 -1.47346,0.9136 -2.59085,0.9136 h -58.77457"
       style="fill:#000000;fill-opacity:1;fill-rule:nonzero;stroke:none;stroke-width:0.133333" />
    <path
       id="path18"
       d="m 765.35788,148.71813 c -1.01431,0 -1.82484,-0.30453 -2.4339,-0.9136 -0.60671,-0.60906 -0.9136,-1.41958 -0.9136,-2.43625 V 45.481978 c 0,-1.014324 0.30689,-1.827189 0.9136,-2.436252 0.60906,-0.609062 1.41959,-0.913593 2.4339,-0.913593 h 2.89775 c 1.00962,0 1.82482,0.304531 2.4339,0.913593 0.60907,0.609063 0.9136,1.421928 0.9136,2.436252 v 99.886302 c 0,1.01667 -0.30453,1.82719 -0.9136,2.43625 -0.60908,0.60907 -1.42428,0.9136 -2.4339,0.9136 h -2.89775"
       style="fill:#000000;fill-opacity:1;fill-rule:nonzero;stroke:none;stroke-width:0.133333" />
    <path
       id="path19"
       d="m 803.73119,148.71813 c -1.01901,0 -1.85765,-0.30453 -2.51589,-0.9136 -0.65827,-0.60906 -0.98856,-1.41958 -0.98856,-2.43625 V 45.634244 c 0,-1.115054 0.33029,-1.979455 0.98856,-2.588518 0.65824,-0.609062 1.49688,-0.913593 2.51589,-0.913593 h 3.80663 c 1.01198,0 1.77098,0.255337 2.28399,0.761328 0.50365,0.508334 0.81053,0.913595 0.90892,1.218126 l 34.56664,67.301443 34.71893,-67.301443 c 0.20146,-0.304531 0.52943,-0.709792 0.98856,-1.218126 0.45679,-0.505991 1.19236,-0.761328 2.20901,-0.761328 h 3.64971 c 1.1174,0 1.9818,0.304531 2.59081,0.913593 0.60909,0.609063 0.91603,1.473464 0.91603,2.588518 v 99.734036 c 0,1.01667 -0.30694,1.82719 -0.91603,2.43625 -0.60901,0.60907 -1.47341,0.9136 -2.59081,0.9136 h -2.73845 c -1.01667,0 -1.82719,-0.30453 -2.4339,-0.9136 -0.60907,-0.60906 -0.91595,-1.41958 -0.91595,-2.43625 V 62.840268 l -29.0804,57.251912 c -0.40761,1.01666 -0.99324,1.77565 -1.75223,2.28398 -0.75899,0.50833 -1.75222,0.76133 -2.97035,0.76133 h -3.3475 c -1.21812,0 -2.18326,-0.253 -2.89306,-0.76133 -0.71446,-0.50833 -1.3212,-1.26732 -1.82952,-2.28398 L 809.82181,62.840268 v 82.528012 c 0,1.01667 -0.30686,1.82719 -0.91593,2.43625 -0.60908,0.60907 -1.42192,0.9136 -2.4339,0.9136 h -2.74079"
       style="fill:#000000;fill-opacity:1;fill-rule:nonzero;stroke:none;stroke-width:0.133333" />
    <path
       id="path20"
       d="m 930.87074,112.93568 h 46.5932 L 954.16736,52.942996 Z m -19.48768,35.78245 c -0.81285,0 -1.52268,-0.30453 -2.13177,-0.9136 -0.60901,-0.60906 -0.9136,-1.31886 -0.9136,-2.13171 0,-0.506 0.0984,-1.06587 0.30459,-1.67493 l 38.52085,-98.820443 c 0.4076,-1.014325 0.93701,-1.775652 1.6,-2.283986 0.66056,-0.505991 1.59757,-0.761328 2.81339,-0.761328 h 5.17937 c 1.21813,0 2.15514,0.255337 2.82045,0.761328 0.65827,0.508334 1.18768,1.269661 1.59528,2.283986 l 38.52552,98.820443 c 0.19918,0.60906 0.30456,1.16893 0.30456,1.67493 0,0.81285 -0.30456,1.52265 -0.91363,2.13171 -0.60907,0.60907 -1.32358,0.9136 -2.13173,0.9136 h -3.04762 c -1.01666,0 -1.77571,-0.27876 -2.28399,-0.83863 -0.50829,-0.55519 -0.8644,-1.03775 -1.06587,-1.44536 l -9.43814,-24.36251 h -53.90208 l -9.44278,24.36251 c -0.10067,0.40761 -0.43103,0.89017 -0.98857,1.44536 -0.55754,0.55987 -1.34461,0.83863 -2.36131,0.83863 h -3.04292"
       style="fill:#000000;fill-opacity:1;fill-rule:nonzero;stroke:none;stroke-width:0.133333" />
  </g>
  <metadata
     id="metadata23">
    <rdf:RDF>
      <cc:Work
         rdf:about="">
        <dc:title>Horizontal logo</dc:title>
        <dc:creator>
          <cc:Agent>
            <dc:title>Rede RESICLIMA</dc:title>
          </cc:Agent>
        </dc:creator>
        <cc:license
           rdf:resource="http://creativecommons.org/licenses/by/4.0/" />
        <dc:description>See &lt;https://resiclima.com.br&gt;.</dc:description>
      </cc:Work>
      <cc:License
         rdf:about="http://creativecommons.org/licenses/by/4.0/">
        <cc:permits
           rdf:resource="http://creativecommons.org/ns#Reproduction" />
        <cc:permits
           rdf:resource="http://creativecommons.org/ns#Distribution" />
        <cc:requires
           rdf:resource="http://creativecommons.org/ns#Notice" />
        <cc:requires
           rdf:resource="http://creativecommons.org/ns#Attribution" />
        <cc:permits
           rdf:resource="http://creativecommons.org/ns#DerivativeWorks" />
      </cc:License>
    </rdf:RDF>
  </metadata>
</svg>
