<svg width="580" height="580" viewBox="0 0 580 580" fill="none" xmlns="http://www.w3.org/2000/svg">
<g clip-path="url(#clip0_1948_6514)">
<rect width="580" height="580" rx="10" fill="#B8D5FF"/>
<path d="M171.871 0L478.97 579.774L480.564 584.043H514.022V579.774L359.875 0H171.871Z" fill="#9EC6FF"/>
<path d="M397.836 61.7605C419.797 29.9325 475.151 29.6673 500.083 33.5131C530.055 36.0327 591.509 40.7536 597.556 39.4805C605.116 37.8891 671.159 364.922 642.911 383.62C614.664 402.319 529.126 412.266 500.083 341.051C471.04 269.835 317.47 378.846 240.287 364.922C163.105 350.997 148.782 312.008 160.718 314.792C172.653 317.577 168.675 331.502 216.416 288.932C254.61 254.876 272.911 259.889 277.288 266.653C274.9 259.491 275.457 234.427 296.782 191.459C318.107 148.491 366.141 133.771 387.492 131.782C381.789 121.703 375.875 93.5884 397.836 61.7605Z" fill="white" fill-opacity="0.6"/>
<path d="M113.61 393.569C91.6482 361.741 36.2941 361.476 11.3622 365.322C-18.6091 367.841 -80.0636 372.562 -86.111 371.289C-93.6701 369.698 -159.713 696.73 -131.466 715.429C-103.218 734.128 -17.6808 744.074 11.3622 672.859C40.4052 601.644 193.975 710.655 271.158 696.73C348.341 682.805 362.663 643.816 350.728 646.601C338.792 649.386 342.771 663.311 295.029 620.741C256.835 586.685 238.534 591.698 234.158 598.461C236.545 591.3 235.988 566.235 214.663 523.268C193.339 480.3 145.305 465.579 123.954 463.59C129.656 453.511 135.571 425.397 113.61 393.569Z" fill="white" fill-opacity="0.8"/>
<path opacity="0.8" d="M376.365 584.043L68.9414 4.26904L67.3464 -0.000244141H-0.000274658V4.26904L360.435 584.043H376.365Z" fill="#9EC6FF"/>
<path d="M389.643 639.477L-39.5365 143.037L-42.0449 139.232L-107.689 154.277L-106.736 158.439L374.115 643.036L389.643 639.477Z" fill="#9EC6FF"/>
<path d="M419.019 470.933L416.5 462.483L415.307 465.027L419.019 470.933Z" fill="#FF7561"/>
<path d="M416.5 462.484L408.801 461.34L415.307 465.029L416.5 462.484Z" fill="#E93C3C"/>
<path d="M416.5 462.484L408.801 461.34L422.997 457.368L416.5 462.484Z" fill="#D72523"/>
<path d="M416.5 462.486L418.954 470.988L422.996 457.37L416.5 462.486Z" fill="#E42727"/>
<path d="M395.762 373.169L392.928 363.662L391.586 366.524L395.762 373.169Z" fill="#FF7561"/>
<path d="M392.929 363.663L384.267 362.375L391.587 366.525L392.929 363.663Z" fill="#E93C3C"/>
<path d="M392.928 363.663L384.267 362.375L400.237 357.907L392.928 363.663Z" fill="#D72523"/>
<path d="M392.928 363.666L395.689 373.23L400.237 357.91L392.928 363.666Z" fill="#E42727"/>
<path d="M410.024 296.575L407.19 287.068L405.848 289.93L410.024 296.575Z" fill="#FF7561"/>
<path d="M407.191 287.069L398.529 285.781L405.849 289.931L407.191 287.069Z" fill="#E93C3C"/>
<path d="M407.191 287.069L398.529 285.781L414.499 281.313L407.191 287.069Z" fill="#D72523"/>
<path d="M407.191 287.072L409.951 296.637L414.499 281.316L407.191 287.072Z" fill="#E42727"/>
<path d="M391.697 318.649L388.863 309.142L387.521 312.005L391.697 318.649Z" fill="#FF7561"/>
<path d="M388.864 309.143L380.202 307.855L387.522 312.006L388.864 309.143Z" fill="#E93C3C"/>
<path d="M388.864 309.143L380.202 307.855L396.172 303.387L388.864 309.143Z" fill="#D72523"/>
<path d="M388.864 309.146L391.624 318.711L396.172 303.39L388.864 309.146Z" fill="#E42727"/>
<path d="M454.047 290.188L451.213 280.681L449.871 283.544L454.047 290.188Z" fill="#FF7561"/>
<path d="M451.214 280.682L442.552 279.395L449.871 283.545L451.214 280.682Z" fill="#E93C3C"/>
<path d="M451.213 280.682L442.552 279.395L458.522 274.926L451.213 280.682Z" fill="#D72523"/>
<path d="M451.213 280.685L453.974 290.25L458.522 274.929L451.213 280.685Z" fill="#E42727"/>
<path d="M453.48 425.575L450.646 416.068L449.304 418.93L453.48 425.575Z" fill="#FF7561"/>
<path d="M450.647 416.069L441.985 414.781L449.304 418.931L450.647 416.069Z" fill="#E93C3C"/>
<path d="M450.646 416.069L441.984 414.781L457.955 410.313L450.646 416.069Z" fill="#D72523"/>
<path d="M450.646 416.072L453.407 425.637L457.955 410.316L450.646 416.072Z" fill="#E42727"/>
<path d="M399.623 409.258L396.789 399.751L395.447 402.614L399.623 409.258Z" fill="#FF7561"/>
<path d="M396.79 399.752L388.128 398.465L395.448 402.615L396.79 399.752Z" fill="#E93C3C"/>
<path d="M396.79 399.752L388.128 398.465L404.098 393.997L396.79 399.752Z" fill="#D72523"/>
<path d="M396.79 399.755L399.55 409.32L404.098 394L396.79 399.755Z" fill="#E42727"/>
<path d="M450.51 361.298L445.63 344.925L443.319 349.855L450.51 361.298Z" fill="#FF7561"/>
<path d="M445.631 344.925L430.714 342.707L443.32 349.855L445.631 344.925Z" fill="#E93C3C"/>
<path d="M445.63 344.925L430.713 342.707L458.217 335.012L445.63 344.925Z" fill="#D72523"/>
<path d="M445.63 344.926L450.384 361.398L458.217 335.013L445.63 344.926Z" fill="#E42727"/>
<path d="M421.914 318.868L419.081 309.361L417.739 312.223L421.914 318.868Z" fill="#FF7561"/>
<path d="M419.081 309.362L410.42 308.074L417.739 312.224L419.081 309.362Z" fill="#E93C3C"/>
<path d="M419.081 309.362L410.419 308.074L426.389 303.606L419.081 309.362Z" fill="#D72523"/>
<path d="M419.081 309.365L421.841 318.93L426.389 303.609L419.081 309.365Z" fill="#E42727"/>
<path d="M422.458 270.028L417.578 253.655L415.267 258.585L422.458 270.028Z" fill="#FF7561"/>
<path d="M417.578 253.655L402.661 251.438L415.267 258.585L417.578 253.655Z" fill="#E93C3C"/>
<path d="M417.578 253.655L402.66 251.438L430.165 243.742L417.578 253.655Z" fill="#D72523"/>
<path d="M417.578 253.656L422.332 270.129L430.164 243.743L417.578 253.656Z" fill="#E42727"/>
<path d="M475.472 304.434L472.639 294.927L471.297 297.79L475.472 304.434Z" fill="#FF7561"/>
<path d="M472.639 294.928L463.978 293.641L471.297 297.791L472.639 294.928Z" fill="#E93C3C"/>
<path d="M472.639 294.928L463.977 293.641L479.947 289.173L472.639 294.928Z" fill="#D72523"/>
<path d="M472.639 294.931L475.399 304.496L479.947 289.175L472.639 294.931Z" fill="#E42727"/>
<path d="M406.323 355.984L403.805 347.533L402.612 350.078L406.323 355.984Z" fill="#FF7561"/>
<path d="M403.805 347.535L396.106 346.391L402.612 350.08L403.805 347.535Z" fill="#E93C3C"/>
<path d="M403.805 347.535L396.106 346.391L410.301 342.419L403.805 347.535Z" fill="#D72523"/>
<path d="M403.805 347.537L406.259 356.039L410.301 342.421L403.805 347.537Z" fill="#E42727"/>
<path d="M391.307 299.766L388.473 290.259L387.131 293.122L391.307 299.766Z" fill="#FF7561"/>
<path d="M388.474 290.26L379.812 288.973L387.132 293.123L388.474 290.26Z" fill="#E93C3C"/>
<path d="M388.474 290.26L379.812 288.973L395.782 284.505L388.474 290.26Z" fill="#D72523"/>
<path d="M388.474 290.263L391.234 299.828L395.782 284.507L388.474 290.263Z" fill="#E42727"/>
<path d="M36.7449 469.906L43.2707 473.486L40.9591 474.019L36.7449 469.906Z" fill="#FF7561"/>
<path d="M43.2713 473.486L42.8478 480.043L40.9597 474.019L43.2713 473.486Z" fill="#E93C3C"/>
<path d="M43.2712 473.486L42.8477 480.043L48.6472 469.035L43.2712 473.486Z" fill="#D72523"/>
<path d="M43.2709 473.485L36.6912 469.949L48.6471 469.033L43.2709 473.485Z" fill="#E42727"/>
<path d="M113.268 506.441L120.609 510.468L118.009 511.067L113.268 506.441Z" fill="#FF7561"/>
<path d="M120.61 510.468L120.134 517.844L118.009 511.066L120.61 510.468Z" fill="#E93C3C"/>
<path d="M120.61 510.468L120.133 517.844L126.658 505.459L120.61 510.468Z" fill="#D72523"/>
<path d="M120.61 510.465L113.208 506.488L126.658 505.458L120.61 510.465Z" fill="#E42727"/>
<path d="M179.003 508.281L186.344 512.308L183.744 512.907L179.003 508.281Z" fill="#FF7561"/>
<path d="M186.345 512.307L185.868 519.684L183.744 512.906L186.345 512.307Z" fill="#E93C3C"/>
<path d="M186.345 512.307L185.868 519.684L192.393 507.299L186.345 512.307Z" fill="#D72523"/>
<path d="M186.345 512.305L178.943 508.328L192.393 507.297L186.345 512.305Z" fill="#E42727"/>
<path d="M157.533 519.48L164.875 523.507L162.274 524.106L157.533 519.48Z" fill="#FF7561"/>
<path d="M164.875 523.507L164.399 530.883L162.274 524.105L164.875 523.507Z" fill="#E93C3C"/>
<path d="M164.875 523.507L164.398 530.883L170.923 518.498L164.875 523.507Z" fill="#D72523"/>
<path d="M164.875 523.505L157.473 519.527L170.923 518.497L164.875 523.505Z" fill="#E42727"/>
<path d="M192.096 473.085L199.437 477.113L196.837 477.711L192.096 473.085Z" fill="#FF7561"/>
<path d="M199.438 477.112L198.961 484.488L196.837 477.711L199.438 477.112Z" fill="#E93C3C"/>
<path d="M199.438 477.112L198.961 484.488L205.486 472.104L199.438 477.112Z" fill="#D72523"/>
<path d="M199.438 477.11L192.036 473.133L205.486 472.102L199.438 477.11Z" fill="#E42727"/>
<path d="M80.2944 449.527L87.6359 453.554L85.0353 454.153L80.2944 449.527Z" fill="#FF7561"/>
<path d="M87.6364 453.554L87.16 460.93L85.0358 454.152L87.6364 453.554Z" fill="#E93C3C"/>
<path d="M87.6362 453.553L87.1597 460.93L93.6842 448.545L87.6362 453.553Z" fill="#D72523"/>
<path d="M87.6365 453.551L80.2343 449.574L93.6847 448.543L87.6365 453.551Z" fill="#E42727"/>
<path d="M84.1726 496.835L91.5141 500.863L88.9136 501.461L84.1726 496.835Z" fill="#FF7561"/>
<path d="M91.5148 500.866L91.0383 508.242L88.9142 501.465L91.5148 500.866Z" fill="#E93C3C"/>
<path d="M91.5146 500.866L91.0381 508.242L97.5626 495.858L91.5146 500.866Z" fill="#D72523"/>
<path d="M91.5147 500.864L84.1125 496.887L97.5629 495.856L91.5147 500.864Z" fill="#E42727"/>
<path d="M132.788 463.372L145.432 470.308L140.953 471.339L132.788 463.372Z" fill="#FF7561"/>
<path d="M145.432 470.308L144.612 483.012L140.954 471.34L145.432 470.308Z" fill="#E93C3C"/>
<path d="M145.432 470.308L144.612 483.012L155.848 461.683L145.432 470.308Z" fill="#D72523"/>
<path d="M145.432 470.307L132.684 463.457L155.848 461.682L145.432 470.307Z" fill="#E42727"/>
<path d="M162.721 494.507L170.063 498.534L167.462 499.133L162.721 494.507Z" fill="#FF7561"/>
<path d="M170.063 498.534L169.587 505.91L167.462 499.133L170.063 498.534Z" fill="#E93C3C"/>
<path d="M170.063 498.534L169.586 505.91L176.111 493.526L170.063 498.534Z" fill="#D72523"/>
<path d="M170.063 498.532L162.661 494.555L176.111 493.524L170.063 498.532Z" fill="#E42727"/>
<path d="M148.703 520.075L161.347 527.011L156.868 528.042L148.703 520.075Z" fill="#FF7561"/>
<path d="M161.348 527.011L160.527 539.715L156.869 528.043L161.348 527.011Z" fill="#E93C3C"/>
<path d="M161.347 527.011L160.527 539.715L171.764 518.386L161.347 527.011Z" fill="#D72523"/>
<path d="M161.347 527.01L148.599 520.16L171.763 518.385L161.347 527.01Z" fill="#E42727"/>
<path d="M186.769 447.902L194.11 451.929L191.51 452.528L186.769 447.902Z" fill="#FF7561"/>
<path d="M194.111 451.929L193.634 459.305L191.51 452.527L194.111 451.929Z" fill="#E93C3C"/>
<path d="M194.111 451.928L193.634 459.305L200.159 446.92L194.111 451.928Z" fill="#D72523"/>
<path d="M194.111 451.926L186.709 447.949L200.159 446.918L194.111 451.926Z" fill="#E42727"/>
<path d="M129.325 500.778L135.851 504.357L133.54 504.89L129.325 500.778Z" fill="#FF7561"/>
<path d="M135.852 504.357L135.428 510.914L133.54 504.89L135.852 504.357Z" fill="#E93C3C"/>
<path d="M135.852 504.357L135.428 510.914L141.228 499.906L135.852 504.357Z" fill="#D72523"/>
<path d="M135.852 504.356L129.272 500.82L141.228 499.904L135.852 504.356Z" fill="#E42727"/>
<path d="M173.045 523.156L180.387 527.183L177.786 527.782L173.045 523.156Z" fill="#FF7561"/>
<path d="M180.387 527.182L179.911 534.559L177.787 527.781L180.387 527.182Z" fill="#E93C3C"/>
<path d="M180.387 527.182L179.911 534.559L186.435 522.174L180.387 527.182Z" fill="#D72523"/>
<path d="M180.387 527.18L172.985 523.203L186.435 522.172L180.387 527.18Z" fill="#E42727"/>
<path d="M63.6881 171.388L68.6386 164.73L66.078 164.73L63.6881 171.388Z" fill="#FF7561"/>
<path d="M68.6386 164.732L63.6881 158.074L66.0581 164.864L68.6386 164.732Z" fill="#E93C3C"/>
<path d="M68.6386 164.72L63.6881 158.074L76.4193 164.72L68.6386 164.72Z" fill="#D72523"/>
<path d="M68.6386 164.717L63.6881 171.363L76.4193 164.717L68.6386 164.717Z" fill="#E42727"/>
<path d="M42.9999 186.877L51.0444 176.059L46.8835 176.059L42.9999 186.877Z" fill="#FF7561"/>
<path d="M51.0444 176.057L42.9999 165.238L46.8512 176.272L51.0444 176.057Z" fill="#E93C3C"/>
<path d="M51.0444 176.038L42.9999 165.238L63.6881 176.038L51.0444 176.038Z" fill="#D72523"/>
<path d="M51.0444 176.036L42.9999 186.836L63.6881 176.036L51.0444 176.036Z" fill="#E42727"/>
<path d="M153.602 181.948L163.956 168.023L158.601 168.023L153.602 181.948Z" fill="#FF7561"/>
<path d="M163.956 168.022L153.602 154.098L158.559 168.299L163.956 168.022Z" fill="#E93C3C"/>
<path d="M163.956 167.998L153.602 154.098L180.23 167.998L163.956 167.998Z" fill="#D72523"/>
<path d="M163.956 167.998L153.602 181.898L180.23 167.998L163.956 167.998Z" fill="#E42727"/>
<path d="M120.978 213.77L132.516 198.254L126.548 198.254L120.978 213.77Z" fill="#FF7561"/>
<path d="M132.516 198.254L120.978 182.738L126.502 198.563L132.516 198.254Z" fill="#E93C3C"/>
<path d="M132.516 198.227L120.978 182.738L150.65 198.227L132.516 198.227Z" fill="#D72523"/>
<path d="M132.516 198.226L120.978 213.715L150.65 198.226L132.516 198.226Z" fill="#E42727"/>
<path d="M174.476 95.7425L183.448 83.6758L178.807 83.6758L174.476 95.7425Z" fill="#FF7561"/>
<path d="M183.448 83.6761L174.476 71.6094L178.771 83.9161L183.448 83.6761Z" fill="#E93C3C"/>
<path d="M183.448 83.6551L174.892 72.1677C174.79 72.032 174.943 71.8533 175.093 71.9315L197.551 83.6551L183.448 83.6551Z" fill="#D72523"/>
<path d="M183.448 83.6535L174.476 95.6992L197.551 83.6535L183.448 83.6535Z" fill="#E42727"/>
<path d="M178.269 269.627L186.313 258.809L182.152 258.809L178.269 269.627Z" fill="#FF7561"/>
<path d="M186.313 258.807L178.269 247.988L182.12 259.022L186.313 258.807Z" fill="#E93C3C"/>
<path d="M186.313 258.788L178.269 247.988L198.957 258.788L186.313 258.788Z" fill="#D72523"/>
<path d="M186.313 258.786L178.269 269.586L198.957 258.786L186.313 258.786Z" fill="#E42727"/>
<path d="M106.046 122.004L115.018 109.937L110.377 109.937L106.046 122.004Z" fill="#FF7561"/>
<path d="M115.018 109.938L106.046 97.8711L110.341 110.178L115.018 109.938Z" fill="#E93C3C"/>
<path d="M115.018 109.917L106.046 97.8711L129.121 109.917L115.018 109.917Z" fill="#D72523"/>
<path d="M115.018 109.915L106.046 121.961L129.121 109.915L115.018 109.915Z" fill="#E42727"/>
<path d="M53.3441 133.989L58.2945 127.332L55.7339 127.332L53.3441 133.989Z" fill="#FF7561"/>
<path d="M58.2945 127.333L53.3441 120.676L55.7141 127.466L58.2945 127.333Z" fill="#E93C3C"/>
<path d="M58.2945 127.322L53.3441 120.676L66.0752 127.322L58.2945 127.322Z" fill="#D72523"/>
<path d="M58.2945 127.319L53.3441 133.965L66.0752 127.319L58.2945 127.319Z" fill="#E42727"/>
<path d="M76.4193 128.419L81.3698 121.762L78.8092 121.762L76.4193 128.419Z" fill="#FF7561"/>
<path d="M81.3698 121.763L76.4193 115.105L78.7893 121.895L81.3698 121.763Z" fill="#E93C3C"/>
<path d="M81.3698 121.751L76.4193 115.105L89.1505 121.751L81.3698 121.751Z" fill="#D72523"/>
<path d="M81.3698 121.749L76.4193 128.395L89.1505 121.749L81.3698 121.749Z" fill="#E42727"/>
<path d="M93.9247 146.697L98.8751 140.039L96.3146 140.039L93.9247 146.697Z" fill="#FF7561"/>
<path d="M98.8751 140.04L93.9247 133.383L96.2947 140.173L98.8751 140.04Z" fill="#E93C3C"/>
<path d="M98.8751 140.029L93.9247 133.383L106.656 140.029L98.8751 140.029Z" fill="#D72523"/>
<path d="M98.8751 140.026L93.9247 146.672L106.656 140.026L98.8751 140.026Z" fill="#E42727"/>
<path d="M85.172 114.896L90.1224 108.238L87.5619 108.238L85.172 114.896Z" fill="#FF7561"/>
<path d="M90.1224 108.239L85.172 101.582L87.542 108.372L90.1224 108.239Z" fill="#E93C3C"/>
<path d="M90.1224 108.228L85.172 101.582L97.9032 108.228L90.1224 108.228Z" fill="#D72523"/>
<path d="M90.1224 108.225L85.172 114.871L97.9032 108.225L90.1224 108.225Z" fill="#E42727"/>
<path d="M72.4408 182.529L77.3912 175.871L74.8307 175.871L72.4408 182.529Z" fill="#FF7561"/>
<path d="M77.3912 175.872L72.4408 169.215L74.8108 176.005L77.3912 175.872Z" fill="#E93C3C"/>
<path d="M77.3912 175.861L72.4408 169.215L85.172 175.861L77.3912 175.861Z" fill="#D72523"/>
<path d="M77.3912 175.858L72.4408 182.504L85.172 175.858L77.3912 175.858Z" fill="#E42727"/>
<path d="M135.486 63.1214L144.459 51.0547L139.818 51.0547L135.486 63.1214Z" fill="#FF7561"/>
<path d="M144.459 51.055L135.486 38.9883L139.782 51.295L144.459 51.055Z" fill="#E93C3C"/>
<path d="M144.459 51.034L135.486 38.9883L158.562 51.034L144.459 51.034Z" fill="#D72523"/>
<path d="M144.459 51.0324L135.486 63.0781L158.562 51.0324L144.459 51.0324Z" fill="#E42727"/>
<path d="M128.325 146.668L137.298 134.602L132.657 134.602L128.325 146.668Z" fill="#FF7561"/>
<path d="M137.298 134.602L128.325 122.535L132.621 134.842L137.298 134.602Z" fill="#E93C3C"/>
<path d="M137.298 134.581L128.325 122.535L151.4 134.581L137.298 134.581Z" fill="#D72523"/>
<path d="M137.298 134.579L128.325 146.625L151.4 134.579L137.298 134.579Z" fill="#E42727"/>
<path d="M146.441 87.2301L152.938 78.4922L149.578 78.4922L146.441 87.2301Z" fill="#FF7561"/>
<path d="M152.938 78.4919L146.441 69.7539L149.551 78.6656L152.938 78.4919Z" fill="#E93C3C"/>
<path d="M152.938 78.4767L146.441 69.7539L163.151 78.4767L152.938 78.4767Z" fill="#D72523"/>
<path d="M152.938 78.4764L146.441 87.1992L163.151 78.4764L152.938 78.4764Z" fill="#E42727"/>
<path d="M213.465 40.8401L222.438 28.7734L217.797 28.7734L213.465 40.8401Z" fill="#FF7561"/>
<path d="M222.438 28.7737L213.465 16.707L217.761 29.0137L222.438 28.7737Z" fill="#E93C3C"/>
<path d="M222.438 28.7528L213.465 16.707L236.54 28.7528L222.438 28.7528Z" fill="#D72523"/>
<path d="M222.438 28.7511L213.465 40.7969L236.54 28.7511L222.438 28.7511Z" fill="#E42727"/>
<path d="M289.734 435.2C288.995 435.386 287.541 432.001 286.907 430.285L292.328 423.138C292.716 423.766 293.534 425.277 293.705 426.295C293.876 427.313 293.637 428.488 293.496 428.948C294.104 430.732 290.657 434.968 289.734 435.2Z" fill="url(#paint0_linear_1948_6514)"/>
<path d="M268.485 448.738C264.86 452.642 252.619 457.651 246.952 459.668L245.888 457.229L292.285 413.25C297.053 420.734 288.759 430.615 284.016 434.619C283.635 439.226 273.017 443.858 268.485 448.738Z" fill="#F7FFB7"/>
<path d="M287.279 392.38C280.415 393.871 278.477 400.261 278.366 403.27L233.633 459.674C234.054 460.116 235.207 460.934 236.455 460.663C238.015 460.324 256.866 451.076 258.786 449.213C260.322 447.723 265.298 445.348 267.594 444.346C271.33 442.603 279.345 438.4 281.514 435.541C283.683 432.683 284.685 426.758 284.914 424.152C290.58 423.047 292.598 413.969 292.222 413.108C291.922 412.42 292.195 410.957 292.369 410.312C293.454 409.668 296.246 405.888 296.642 403.666C296.96 401.888 296.036 400.97 295.534 400.733L295.391 400.796C296.079 400.496 296.384 399.68 296.45 399.309C296.072 396.878 293.326 395.15 292 394.59C290.969 392.853 288.423 392.393 287.279 392.38Z" fill="#94B461"/>
<path d="M276.836 403.839C278.328 403.188 278.496 403.252 278.484 403.485C274.909 410.167 275.352 413.979 277.658 420.829C279.963 427.68 276.887 428.851 276.725 429.263C269.64 433.378 268.846 437.823 268.505 438.997C268.163 440.171 254.281 454.937 249.88 454.636C246.359 454.396 237.582 457.895 233.633 459.674C232.724 460.071 230.667 460.627 229.707 459.679C228.747 458.732 229.799 457.02 230.445 456.283C229.279 433.565 241.442 421.2 247.669 417.857C248.826 408.608 267.578 404.803 276.836 403.839Z" fill="url(#paint1_linear_1948_6514)"/>
<path d="M286.336 402.355C283.984 402.288 283.607 400.927 283.712 400.255C283.77 399.136 285.171 399.163 285.864 399.316C287.001 400.357 288.688 402.422 286.336 402.355Z" fill="url(#paint2_radial_1948_6514)"/>
<path d="M288.534 408.568C290.409 407.124 294.332 403.614 295.023 401.127L295.678 400.67" stroke="#597A25" stroke-width="0.39785"/>
<path d="M248.226 459.452C249.288 458.443 250.237 455.842 250.579 454.669C249.794 454.043 246.496 453.922 239.586 458.439C230.948 464.086 230.327 466.577 231.008 466.963C231.552 467.272 231.897 467.828 232.002 468.067C231.427 469.229 230.266 471.762 230.222 472.6C230.167 473.649 233.044 473.589 232.963 473.796C232.899 473.96 233.288 475.191 233.49 475.786C244.426 475.798 247.87 464.902 248.226 459.452Z" fill="url(#paint3_linear_1948_6514)"/>
<path d="M267.05 449.365C267.211 446.289 269.113 443 270.043 441.741C273.193 438.26 279.787 431.581 280.961 432.708C282.136 433.835 283.268 438.647 283.686 440.912C276.56 460.28 265.707 465.208 261.171 465.251C261.429 459.264 265.198 452.166 267.05 449.365Z" fill="url(#paint4_linear_1948_6514)"/>
<path d="M261.855 405.66C270.703 402.258 276.871 403.853 277.794 404.7L278.483 403.482L279.365 406.324C280.039 408.498 281.569 410.304 283.603 411.328C284.883 411.971 286.306 412.276 287.737 412.214L292.153 412.02L289.41 412.657C286.743 413.277 283.947 413.008 281.447 411.892C280.424 411.435 279.467 410.844 278.601 410.133L277.379 409.131C265.636 412.99 268.606 419.739 264.434 423.059C237.334 447.134 250.298 449.642 240.047 451.231C231.835 452.504 217.333 441.876 215.255 440.743C223.84 429.388 222.763 441.136 236.346 428.276C238.545 426.638 242.573 416.435 244.233 414.83C245.892 413.224 256.386 408.695 257.814 408.115C259.187 406.665 261.08 405.874 261.855 405.66Z" fill="#F01A1A"/>
<path d="M517.193 208.735C516.486 209.019 514.588 205.862 513.727 204.247L518.133 196.433C518.602 197.003 519.617 198.389 519.924 199.375C520.231 200.361 520.153 201.557 520.076 202.032C520.919 203.718 518.076 208.381 517.193 208.735Z" fill="url(#paint5_linear_1948_6514)"/>
<path d="M497.969 225.02C494.904 229.379 483.453 235.996 478.111 238.76L476.727 236.487L516.754 186.642C522.49 193.413 515.607 204.323 511.449 208.932C511.694 213.548 501.799 219.572 497.969 225.02Z" fill="#F7FFB7"/>
<path d="M508.973 166.638C502.374 169.044 501.317 175.637 501.614 178.633L464.914 240.565C465.391 240.946 466.644 241.601 467.844 241.163C469.344 240.617 486.772 228.906 488.423 226.801C489.743 225.117 494.352 222.091 496.492 220.789C499.958 218.556 507.332 213.309 509.094 210.183C510.857 207.057 511.049 201.051 510.924 198.439C516.389 196.578 517.161 187.311 516.673 186.509C516.282 185.867 516.355 184.381 516.44 183.718C517.428 182.933 519.683 178.811 519.776 176.555C519.85 174.751 518.811 173.966 518.282 173.8L518.148 173.881C518.79 173.49 518.981 172.641 518.997 172.265C518.294 169.907 515.339 168.566 513.95 168.19C512.694 166.609 510.109 166.497 508.973 166.638Z" fill="#94B461"/>
<path d="M500.174 179.402C501.565 178.556 501.74 178.596 501.76 178.829C499.121 185.933 500.075 189.65 503.285 196.126C506.495 202.602 503.605 204.178 503.501 204.608C497.037 209.644 496.851 214.155 496.671 215.364C496.491 216.574 484.732 233.08 480.331 233.377C476.81 233.615 468.586 238.268 464.914 240.565C464.067 241.08 462.104 241.909 461.024 241.1C459.945 240.291 460.757 238.453 461.297 237.635C457.072 215.283 467.452 201.387 473.17 197.234C473.066 187.913 491.132 181.609 500.174 179.402Z" fill="url(#paint6_linear_1948_6514)"/>
<path d="M509.387 176.646C507.047 176.897 506.49 175.6 506.503 174.919C506.41 173.803 507.801 173.64 508.509 173.698C509.776 174.576 511.726 176.394 509.387 176.646Z" fill="url(#paint7_radial_1948_6514)"/>
<path d="M512.405 182.509C514.068 180.825 517.48 176.817 517.828 174.259L518.415 173.718" stroke="#597A25" stroke-width="0.39785"/>
<path d="M479.343 238.376C480.259 237.232 480.848 234.527 481.028 233.318C480.166 232.805 476.882 233.13 470.646 238.54C462.85 245.302 462.572 247.855 463.298 248.145C463.88 248.378 464.296 248.881 464.432 249.104C464.02 250.333 463.212 253 463.282 253.837C463.369 254.883 466.212 254.435 466.159 254.65C466.118 254.822 466.669 255.989 466.95 256.551C477.787 255.085 479.727 243.824 479.343 238.376Z" fill="url(#paint8_linear_1948_6514)"/>
<path d="M496.632 225.833C496.375 222.763 497.815 219.248 498.567 217.874C501.217 213.999 506.847 206.491 508.164 207.449C509.48 208.406 511.251 213.022 511.973 215.209C507.529 235.363 497.441 241.712 492.953 242.367C492.399 236.4 495.175 228.858 496.632 225.833Z" fill="url(#paint9_linear_1948_6514)"/>
<path d="M485.578 183.231C493.885 178.665 500.212 179.411 501.24 180.126L501.759 178.826L503.016 181.522C503.979 183.586 505.739 185.169 507.892 185.907C509.247 186.372 510.699 186.482 512.108 186.227L516.457 185.438L513.825 186.44C511.266 187.415 508.459 187.526 505.832 186.758C504.757 186.444 503.728 185.987 502.774 185.4L501.428 184.572C490.314 189.983 494.169 196.268 490.485 200.122C466.886 227.639 480.071 228.371 470.128 231.331C462.163 233.703 446.358 225.131 444.146 224.29C451.118 211.879 451.639 223.665 463.359 209.087C465.317 207.167 467.929 196.513 469.356 194.698C470.784 192.883 480.569 186.977 481.905 186.21C483.07 184.587 484.839 183.548 485.578 183.231Z" fill="#F01A1A"/>
<path d="M300.813 170.874C299.902 170.546 300.771 165.945 301.319 163.686L312.105 159.997C312.068 160.934 311.86 163.107 311.317 164.302C310.775 165.497 309.69 166.566 309.215 166.951C308.59 169.263 301.951 171.284 300.813 170.874Z" fill="url(#paint10_linear_1948_6514)"/>
<path d="M268.805 170.074C262.213 171.618 245.754 168.217 238.349 166.323L238.957 162.996L319.073 149.542C318.79 160.815 303.037 165.349 295.195 166.206C291.525 170.792 277.045 168.144 268.805 170.074Z" fill="#F7FFB7"/>
<path d="M328.602 123.984C320.307 120.687 313.731 126.05 311.48 129.143L224.303 156.876C224.432 157.642 225.069 159.322 226.577 159.921C228.462 160.671 254.898 164.293 258.243 163.692C260.92 163.211 267.851 164.236 270.981 164.809C276.158 165.621 287.59 166.876 291.905 165.401C296.219 163.925 301.479 158.389 303.569 155.805C310.327 158.66 318.894 150.52 319.109 149.346C319.281 148.407 320.606 147.058 321.247 146.501C322.848 146.592 328.473 144.588 330.468 142.526C332.064 140.876 331.74 139.253 331.379 138.648L331.184 138.612C332.123 138.784 333.023 138.14 333.355 137.796C334.682 134.965 333.012 131.195 332.012 129.664C332.157 127.102 329.799 124.81 328.602 123.984Z" fill="#94B461"/>
<path d="M309.463 128.657C311.498 129.03 311.63 129.216 311.452 129.453C302.943 133.963 300.706 138.296 298.276 147.154C295.847 156.012 291.773 155.064 291.311 155.384C280.921 154.697 276.931 158.82 275.737 159.815C274.544 160.811 249.433 166.53 245.006 163.092C241.465 160.341 229.728 157.803 224.303 156.878C223.064 156.651 220.5 155.777 220.16 154.098C219.82 152.418 222.144 151.36 223.348 151.041C238.235 126.261 259.831 121.853 268.767 122.746C276.549 113.816 299.019 123.107 309.463 128.657Z" fill="url(#paint11_linear_1948_6514)"/>
<path d="M320.531 133.835C318.099 132.096 318.667 130.394 319.254 129.76C320.11 128.622 321.568 129.644 322.19 130.297C322.65 132.201 322.963 135.575 320.531 133.835Z" fill="url(#paint12_radial_1948_6514)"/>
<path d="M318.441 141.944C321.442 141.751 328.067 140.833 330.561 138.701L331.575 138.684" stroke="#597A25" stroke-width="0.39785"/>
<path d="M239.842 166.999C241.679 166.688 244.524 164.62 245.718 163.625C245.333 162.409 241.942 159.941 231.452 159.802C218.339 159.628 215.917 161.814 216.361 162.704C216.716 163.416 216.686 164.246 216.626 164.572C215.196 165.389 212.175 167.236 211.534 168.089C210.732 169.156 213.808 171.134 213.576 171.294C213.391 171.422 212.928 172.996 212.72 173.767C224.241 181.536 235.602 172.492 239.842 166.999Z" fill="url(#paint13_linear_1948_6514)"/>
<path d="M266.848 169.716C269.2 166.587 273.538 164.468 275.413 163.8C281.203 162.365 292.893 160.001 293.332 162.022C293.771 164.044 291.55 169.92 290.385 172.606C269.131 187.97 254.193 185.466 249.38 182.294C253.899 176.164 262.909 171.354 266.848 169.716Z" fill="url(#paint14_linear_1948_6514)"/>
<path d="M292.474 120.528C304.216 123.218 309.588 129.275 309.959 130.823L311.551 130.027L310.464 133.649C309.633 136.42 309.965 139.41 311.383 141.931C312.275 143.518 313.56 144.849 315.113 145.798L319.906 148.726L316.547 147.447C313.305 146.212 310.547 143.938 308.709 140.996C307.957 139.793 307.366 138.489 306.958 137.13L306.379 135.199C291.26 130.938 289.604 140.16 282.85 140.702C237.198 146.859 249.088 158.7 237.153 153.103C227.591 148.62 219.842 127.126 218.454 124.458C235.561 118.576 226.092 130.199 249.535 126.276C253.016 126.109 264.501 118.209 267.389 117.694C270.278 117.179 284.555 119.848 286.472 120.249C288.949 119.694 291.506 120.203 292.474 120.528Z" fill="#FF4545"/>
</g>
<defs>
<linearGradient id="paint0_linear_1948_6514" x1="288.78" y1="424.686" x2="292.789" y2="433.875" gradientUnits="userSpaceOnUse">
<stop stop-color="#789F3C"/>
<stop offset="1" stop-color="#2B3916"/>
</linearGradient>
<linearGradient id="paint1_linear_1948_6514" x1="261.805" y1="400.932" x2="244.553" y2="457.302" gradientUnits="userSpaceOnUse">
<stop stop-color="#73983A"/>
<stop offset="1" stop-color="#263213"/>
</linearGradient>
<radialGradient id="paint2_radial_1948_6514" cx="0" cy="0" r="1" gradientUnits="userSpaceOnUse" gradientTransform="translate(286.167 401.575) rotate(-116.295) scale(3.29104 2.82297)">
<stop/>
<stop offset="1" stop-color="#666666"/>
</radialGradient>
<linearGradient id="paint3_linear_1948_6514" x1="238.112" y1="458.458" x2="244.206" y2="472.428" gradientUnits="userSpaceOnUse">
<stop stop-color="#789F3C"/>
<stop offset="1" stop-color="#2B3916"/>
</linearGradient>
<linearGradient id="paint4_linear_1948_6514" x1="266.637" y1="438.557" x2="275.852" y2="459.681" gradientUnits="userSpaceOnUse">
<stop stop-color="#789F3C"/>
<stop offset="1" stop-color="#2B3916"/>
</linearGradient>
<linearGradient id="paint5_linear_1948_6514" x1="514.827" y1="198.446" x2="520.041" y2="207.009" gradientUnits="userSpaceOnUse">
<stop stop-color="#789F3C"/>
<stop offset="1" stop-color="#2B3916"/>
</linearGradient>
<linearGradient id="paint6_linear_1948_6514" x1="484.888" y1="178.553" x2="475.413" y2="236.738" gradientUnits="userSpaceOnUse">
<stop stop-color="#73983A"/>
<stop offset="1" stop-color="#263213"/>
</linearGradient>
<radialGradient id="paint7_radial_1948_6514" cx="0" cy="0" r="1" gradientUnits="userSpaceOnUse" gradientTransform="translate(509.114 175.896) rotate(-124.062) scale(3.29104 2.82297)">
<stop/>
<stop offset="1" stop-color="#666666"/>
</radialGradient>
<linearGradient id="paint8_linear_1948_6514" x1="469.188" y1="238.758" x2="477.114" y2="251.776" gradientUnits="userSpaceOnUse">
<stop stop-color="#789F3C"/>
<stop offset="1" stop-color="#2B3916"/>
</linearGradient>
<linearGradient id="paint9_linear_1948_6514" x1="494.762" y1="215.18" x2="506.747" y2="234.865" gradientUnits="userSpaceOnUse">
<stop stop-color="#789F3C"/>
<stop offset="1" stop-color="#2B3916"/>
</linearGradient>
<linearGradient id="paint10_linear_1948_6514" x1="307.266" y1="159.112" x2="304.974" y2="171.644" gradientUnits="userSpaceOnUse">
<stop stop-color="#789F3C"/>
<stop offset="1" stop-color="#2B3916"/>
</linearGradient>
<linearGradient id="paint11_linear_1948_6514" x1="295.678" y1="114.929" x2="237.499" y2="162.123" gradientUnits="userSpaceOnUse">
<stop stop-color="#73983A"/>
<stop offset="1" stop-color="#263213"/>
</linearGradient>
<radialGradient id="paint12_radial_1948_6514" cx="0" cy="0" r="1" gradientUnits="userSpaceOnUse" gradientTransform="translate(320.906 132.893) rotate(-82.3597) scale(4.18216 3.58734)">
<stop/>
<stop offset="1" stop-color="#666666"/>
</radialGradient>
<linearGradient id="paint13_linear_1948_6514" x1="229.885" y1="158.776" x2="226.4" y2="177.828" gradientUnits="userSpaceOnUse">
<stop stop-color="#789F3C"/>
<stop offset="1" stop-color="#2B3916"/>
</linearGradient>
<linearGradient id="paint14_linear_1948_6514" x1="274.08" y1="158.028" x2="268.81" y2="186.837" gradientUnits="userSpaceOnUse">
<stop stop-color="#789F3C"/>
<stop offset="1" stop-color="#2B3916"/>
</linearGradient>
<clipPath id="clip0_1948_6514">
<rect width="580" height="580" rx="10" fill="white"/>
</clipPath>
</defs>
</svg>
