<svg width="531" height="208" viewBox="0 0 531 208" fill="none" xmlns="http://www.w3.org/2000/svg">
<path d="M26.3441 171.543C26.2281 170.458 25.7392 169.612 24.8775 169.007C24.024 168.403 22.9137 168.1 21.5465 168.1C20.5853 168.1 19.7609 168.245 19.0732 168.535C18.3854 168.825 17.8593 169.219 17.4947 169.716C17.1301 170.213 16.9437 170.781 16.9354 171.419C16.9354 171.949 17.0555 172.409 17.2958 172.798C17.5444 173.188 17.88 173.519 18.3026 173.793C18.7251 174.058 19.1933 174.281 19.707 174.464C20.2208 174.646 20.7386 174.799 21.2607 174.924L23.647 175.52C24.6082 175.744 25.5321 176.046 26.4187 176.428C27.3136 176.809 28.1132 177.289 28.8175 177.869C29.5301 178.449 30.0935 179.15 30.5078 179.97C30.9221 180.79 31.1293 181.751 31.1293 182.853C31.1293 184.345 30.7481 185.658 29.9858 186.793C29.2235 187.92 28.1214 188.803 26.6797 189.441C25.2462 190.07 23.5103 190.385 21.4719 190.385C19.4916 190.385 17.7723 190.079 16.3139 189.466C14.8639 188.852 13.7287 187.958 12.9084 186.781C12.0964 185.604 11.6572 184.171 11.5909 182.48H16.1275C16.1938 183.367 16.4672 184.105 16.9478 184.693C17.4284 185.281 18.054 185.72 18.8246 186.01C19.6035 186.3 20.4735 186.445 21.4347 186.445C22.4373 186.445 23.3156 186.296 24.0696 185.998C24.8319 185.691 25.4285 185.269 25.8594 184.73C26.2902 184.183 26.5098 183.545 26.5181 182.816C26.5098 182.153 26.3151 181.606 25.9339 181.175C25.5528 180.736 25.0183 180.372 24.3306 180.082C23.6512 179.783 22.8557 179.518 21.9442 179.286L19.0483 178.54C16.9519 178.002 15.2947 177.186 14.0767 176.092C12.867 174.99 12.2621 173.527 12.2621 171.705C12.2621 170.205 12.6681 168.891 13.4801 167.765C14.3004 166.638 15.4149 165.763 16.8235 165.142C18.2321 164.512 19.8272 164.197 21.6087 164.197C23.415 164.197 24.9976 164.512 26.3565 165.142C27.7237 165.763 28.7968 166.629 29.5756 167.74C30.3545 168.842 30.7564 170.109 30.7812 171.543H26.3441ZM35.0413 190V170.909H39.5406V190H35.0413ZM37.3034 168.2C36.5908 168.2 35.9776 167.963 35.4639 167.491C34.9501 167.011 34.6933 166.435 34.6933 165.763C34.6933 165.084 34.9501 164.508 35.4639 164.036C35.9776 163.555 36.5908 163.315 37.3034 163.315C38.0242 163.315 38.6374 163.555 39.1428 164.036C39.6566 164.508 39.9134 165.084 39.9134 165.763C39.9134 166.435 39.6566 167.011 39.1428 167.491C38.6374 167.963 38.0242 168.2 37.3034 168.2ZM44.1673 190V170.909H48.4677V174.153H48.6914C49.0891 173.059 49.7479 172.206 50.6676 171.593C51.5874 170.971 52.6853 170.661 53.9613 170.661C55.2539 170.661 56.3435 170.975 57.2301 171.605C58.125 172.227 58.7547 173.076 59.1193 174.153H59.3182C59.7408 173.092 60.4534 172.247 61.456 171.618C62.4669 170.98 63.6642 170.661 65.0479 170.661C66.8046 170.661 68.238 171.216 69.3484 172.326C70.4587 173.436 71.0139 175.056 71.0139 177.186V190H66.5021V177.882C66.5021 176.697 66.1873 175.831 65.5575 175.284C64.9278 174.729 64.1572 174.451 63.2457 174.451C62.1603 174.451 61.311 174.791 60.6978 175.471C60.0929 176.142 59.7905 177.016 59.7905 178.093V190H55.3782V177.695C55.3782 176.709 55.0799 175.922 54.4833 175.334C53.895 174.746 53.1244 174.451 52.1715 174.451C51.5252 174.451 50.9369 174.617 50.4066 174.949C49.8763 175.272 49.4537 175.732 49.1388 176.328C48.824 176.916 48.6665 177.604 48.6665 178.391V190H44.1673ZM87.7464 181.971V170.909H92.2457V190H87.8831V186.607H87.6842C87.2533 187.676 86.5449 188.55 85.5589 189.229C84.5811 189.909 83.3755 190.249 81.942 190.249C80.6908 190.249 79.5847 189.971 78.6235 189.416C77.6706 188.852 76.9249 188.036 76.3863 186.967C75.8477 185.89 75.5784 184.589 75.5784 183.065V170.909H80.0777V182.369C80.0777 183.578 80.4091 184.54 81.072 185.252C81.7349 185.965 82.6049 186.321 83.6821 186.321C84.345 186.321 84.9871 186.159 85.6086 185.836C86.23 185.513 86.7396 185.033 87.1373 184.395C87.5434 183.748 87.7464 182.94 87.7464 181.971ZM101.372 164.545V190H96.8723V164.545H101.372ZM111.492 190.385C110.282 190.385 109.193 190.17 108.223 189.739C107.262 189.3 106.5 188.654 105.936 187.8C105.381 186.947 105.103 185.894 105.103 184.643C105.103 183.566 105.302 182.675 105.7 181.971C106.098 181.267 106.64 180.703 107.328 180.281C108.016 179.858 108.791 179.539 109.652 179.324C110.522 179.1 111.421 178.938 112.35 178.839C113.468 178.723 114.375 178.619 115.071 178.528C115.767 178.429 116.273 178.279 116.588 178.081C116.911 177.873 117.073 177.554 117.073 177.124V177.049C117.073 176.113 116.795 175.388 116.24 174.874C115.685 174.36 114.885 174.103 113.841 174.103C112.739 174.103 111.865 174.344 111.218 174.824C110.58 175.305 110.15 175.872 109.926 176.527L105.725 175.93C106.056 174.77 106.603 173.801 107.366 173.022C108.128 172.235 109.06 171.647 110.162 171.257C111.264 170.859 112.482 170.661 113.816 170.661C114.736 170.661 115.651 170.768 116.563 170.984C117.474 171.199 118.307 171.555 119.061 172.053C119.815 172.541 120.42 173.208 120.876 174.054C121.34 174.899 121.572 175.955 121.572 177.223V190H117.247V187.377H117.097C116.824 187.908 116.439 188.405 115.941 188.869C115.453 189.325 114.835 189.693 114.09 189.975C113.352 190.249 112.486 190.385 111.492 190.385ZM112.66 187.079C113.563 187.079 114.346 186.901 115.009 186.545C115.672 186.18 116.182 185.7 116.538 185.103C116.903 184.506 117.085 183.856 117.085 183.152V180.902C116.944 181.018 116.704 181.126 116.364 181.225C116.033 181.325 115.66 181.412 115.245 181.486C114.831 181.561 114.421 181.627 114.015 181.685C113.609 181.743 113.257 181.793 112.959 181.834C112.287 181.925 111.687 182.074 111.156 182.282C110.626 182.489 110.208 182.779 109.901 183.152C109.594 183.516 109.441 183.989 109.441 184.569C109.441 185.397 109.744 186.023 110.348 186.445C110.953 186.868 111.724 187.079 112.66 187.079ZM135.629 170.909V174.389H124.654V170.909H135.629ZM127.364 166.335H131.863V184.258C131.863 184.863 131.954 185.327 132.136 185.65C132.327 185.965 132.576 186.18 132.882 186.296C133.189 186.412 133.528 186.47 133.901 186.47C134.183 186.47 134.44 186.449 134.672 186.408C134.912 186.367 135.095 186.329 135.219 186.296L135.977 189.814C135.737 189.896 135.393 189.988 134.945 190.087C134.506 190.186 133.968 190.244 133.33 190.261C132.203 190.294 131.188 190.124 130.285 189.751C129.381 189.37 128.665 188.782 128.134 187.987C127.612 187.191 127.355 186.197 127.364 185.004V166.335ZM147.638 190.373C145.724 190.373 144.071 189.975 142.679 189.18C141.296 188.376 140.231 187.241 139.485 185.774C138.739 184.299 138.366 182.563 138.366 180.566C138.366 178.603 138.739 176.879 139.485 175.396C140.239 173.904 141.291 172.744 142.642 171.916C143.993 171.079 145.579 170.661 147.402 170.661C148.579 170.661 149.689 170.851 150.733 171.232C151.786 171.605 152.714 172.185 153.517 172.972C154.329 173.759 154.967 174.762 155.431 175.98C155.895 177.19 156.127 178.632 156.127 180.305V181.685H140.479V178.652H151.815C151.806 177.791 151.62 177.024 151.255 176.353C150.891 175.674 150.381 175.139 149.727 174.75C149.08 174.36 148.326 174.165 147.464 174.165C146.545 174.165 145.737 174.389 145.041 174.837C144.345 175.276 143.802 175.856 143.413 176.577C143.031 177.289 142.837 178.072 142.828 178.926V181.573C142.828 182.683 143.031 183.636 143.438 184.432C143.844 185.219 144.411 185.824 145.14 186.246C145.869 186.661 146.723 186.868 147.701 186.868C148.355 186.868 148.948 186.777 149.478 186.594C150.008 186.404 150.468 186.126 150.858 185.762C151.247 185.397 151.541 184.946 151.74 184.407L155.941 184.879C155.676 185.99 155.17 186.959 154.425 187.788C153.687 188.608 152.743 189.246 151.591 189.702C150.439 190.149 149.122 190.373 147.638 190.373ZM165.216 186.52L165.055 187.887C164.939 188.931 164.731 189.992 164.433 191.069C164.143 192.154 163.837 193.153 163.513 194.064C163.19 194.976 162.929 195.692 162.73 196.214H159.698C159.814 195.709 159.971 195.021 160.17 194.151C160.377 193.281 160.576 192.304 160.767 191.218C160.957 190.133 161.086 189.031 161.152 187.912L161.239 186.52H165.216ZM178.35 190V164.545H194.906V168.411H182.962V175.321H194.048V179.187H182.962V186.135H195.005V190H178.35ZM203.09 170.909L206.943 177.956L210.858 170.909H215.619L209.864 180.455L215.718 190H210.983L206.943 183.127L202.941 190H198.169L203.985 180.455L198.318 170.909H203.09ZM219.099 197.159V170.909H223.524V174.066H223.785C224.017 173.602 224.344 173.109 224.767 172.587C225.189 172.057 225.761 171.605 226.482 171.232C227.203 170.851 228.122 170.661 229.241 170.661C230.716 170.661 232.046 171.038 233.231 171.792C234.424 172.537 235.368 173.643 236.064 175.11C236.769 176.568 237.121 178.358 237.121 180.479C237.121 182.576 236.777 184.357 236.089 185.824C235.402 187.29 234.465 188.409 233.28 189.18C232.095 189.95 230.753 190.336 229.253 190.336C228.16 190.336 227.252 190.153 226.531 189.789C225.811 189.424 225.231 188.985 224.791 188.471C224.36 187.949 224.025 187.456 223.785 186.992H223.598V197.159H219.099ZM223.511 180.455C223.511 181.689 223.685 182.77 224.033 183.699C224.39 184.627 224.899 185.352 225.562 185.874C226.233 186.387 227.045 186.644 227.998 186.644C228.992 186.644 229.825 186.379 230.496 185.849C231.167 185.31 231.673 184.577 232.013 183.649C232.361 182.712 232.535 181.648 232.535 180.455C232.535 179.27 232.365 178.217 232.025 177.298C231.685 176.378 231.18 175.657 230.509 175.135C229.838 174.613 229.001 174.352 227.998 174.352C227.037 174.352 226.221 174.605 225.55 175.11C224.878 175.616 224.369 176.324 224.021 177.235C223.681 178.147 223.511 179.22 223.511 180.455ZM245.473 164.545V190H240.974V164.545H245.473ZM258.427 190.373C256.563 190.373 254.947 189.963 253.58 189.142C252.213 188.322 251.152 187.174 250.398 185.7C249.652 184.225 249.28 182.501 249.28 180.529C249.28 178.557 249.652 176.829 250.398 175.346C251.152 173.863 252.213 172.711 253.58 171.891C254.947 171.071 256.563 170.661 258.427 170.661C260.292 170.661 261.907 171.071 263.275 171.891C264.642 172.711 265.698 173.863 266.444 175.346C267.198 176.829 267.575 178.557 267.575 180.529C267.575 182.501 267.198 184.225 266.444 185.7C265.698 187.174 264.642 188.322 263.275 189.142C261.907 189.963 260.292 190.373 258.427 190.373ZM258.452 186.768C259.463 186.768 260.308 186.491 260.988 185.936C261.667 185.372 262.173 184.618 262.504 183.674C262.844 182.729 263.014 181.677 263.014 180.517C263.014 179.348 262.844 178.292 262.504 177.347C262.173 176.394 261.667 175.636 260.988 175.073C260.308 174.509 259.463 174.228 258.452 174.228C257.416 174.228 256.555 174.509 255.867 175.073C255.187 175.636 254.678 176.394 254.338 177.347C254.007 178.292 253.841 179.348 253.841 180.517C253.841 181.677 254.007 182.729 254.338 183.674C254.678 184.618 255.187 185.372 255.867 185.936C256.555 186.491 257.416 186.768 258.452 186.768ZM271.394 190V170.909H275.756V174.091H275.955C276.303 172.989 276.9 172.14 277.745 171.543C278.598 170.938 279.572 170.636 280.666 170.636C280.914 170.636 281.192 170.648 281.499 170.673C281.813 170.69 282.074 170.719 282.282 170.76V174.899C282.091 174.833 281.789 174.775 281.374 174.725C280.968 174.667 280.575 174.638 280.194 174.638C279.373 174.638 278.636 174.816 277.981 175.172C277.335 175.52 276.825 176.005 276.452 176.626C276.08 177.248 275.893 177.965 275.893 178.777V190H271.394ZM292.936 190.373C291.022 190.373 289.369 189.975 287.977 189.18C286.593 188.376 285.529 187.241 284.783 185.774C284.037 184.299 283.664 182.563 283.664 180.566C283.664 178.603 284.037 176.879 284.783 175.396C285.537 173.904 286.589 172.744 287.94 171.916C289.291 171.079 290.877 170.661 292.7 170.661C293.877 170.661 294.987 170.851 296.031 171.232C297.083 171.605 298.012 172.185 298.815 172.972C299.627 173.759 300.265 174.762 300.729 175.98C301.193 177.19 301.425 178.632 301.425 180.305V181.685H285.777V178.652H297.112C297.104 177.791 296.918 177.024 296.553 176.353C296.189 175.674 295.679 175.139 295.024 174.75C294.378 174.36 293.624 174.165 292.762 174.165C291.843 174.165 291.035 174.389 290.339 174.837C289.643 175.276 289.1 175.856 288.71 176.577C288.329 177.289 288.135 178.072 288.126 178.926V181.573C288.126 182.683 288.329 183.636 288.735 184.432C289.141 185.219 289.709 185.824 290.438 186.246C291.167 186.661 292.021 186.868 292.998 186.868C293.653 186.868 294.246 186.777 294.776 186.594C295.306 186.404 295.766 186.126 296.155 185.762C296.545 185.397 296.839 184.946 297.038 184.407L301.239 184.879C300.974 185.99 300.468 186.959 299.723 187.788C298.985 188.608 298.041 189.246 296.889 189.702C295.737 190.149 294.42 190.373 292.936 190.373ZM310.514 186.52L310.352 187.887C310.236 188.931 310.029 189.992 309.731 191.069C309.441 192.154 309.134 193.153 308.811 194.064C308.488 194.976 308.227 195.692 308.028 196.214H304.996C305.112 195.709 305.269 195.021 305.468 194.151C305.675 193.281 305.874 192.304 306.064 191.218C306.255 190.133 306.383 189.031 306.45 187.912L306.537 186.52H310.514ZM339.694 164.545H344.305V181.175C344.305 182.998 343.874 184.602 343.013 185.985C342.159 187.369 340.958 188.451 339.408 189.229C337.859 190 336.048 190.385 333.977 190.385C331.897 190.385 330.082 190 328.533 189.229C326.983 188.451 325.782 187.369 324.929 185.985C324.075 184.602 323.648 182.998 323.648 181.175V164.545H328.259V180.79C328.259 181.851 328.492 182.795 328.956 183.624C329.428 184.453 330.091 185.103 330.944 185.575C331.798 186.039 332.809 186.271 333.977 186.271C335.145 186.271 336.156 186.039 337.009 185.575C337.871 185.103 338.534 184.453 338.998 183.624C339.462 182.795 339.694 181.851 339.694 180.79V164.545ZM353.618 178.814V190H349.118V170.909H353.419V174.153H353.643C354.082 173.084 354.782 172.235 355.743 171.605C356.713 170.975 357.91 170.661 359.335 170.661C360.653 170.661 361.8 170.942 362.778 171.506C363.764 172.069 364.526 172.885 365.065 173.954C365.612 175.023 365.881 176.32 365.873 177.844V190H361.373V178.54C361.373 177.264 361.042 176.266 360.379 175.545C359.724 174.824 358.817 174.464 357.657 174.464C356.87 174.464 356.17 174.638 355.557 174.986C354.952 175.326 354.475 175.819 354.127 176.465C353.788 177.111 353.618 177.894 353.618 178.814ZM377.531 190.336C376.031 190.336 374.689 189.95 373.504 189.18C372.319 188.409 371.383 187.29 370.695 185.824C370.007 184.357 369.664 182.576 369.664 180.479C369.664 178.358 370.012 176.568 370.708 175.11C371.412 173.643 372.361 172.537 373.554 171.792C374.747 171.038 376.077 170.661 377.544 170.661C378.662 170.661 379.582 170.851 380.303 171.232C381.024 171.605 381.595 172.057 382.018 172.587C382.441 173.109 382.768 173.602 383 174.066H383.186V164.545H387.698V190H383.273V186.992H383C382.768 187.456 382.432 187.949 381.993 188.471C381.554 188.985 380.974 189.424 380.253 189.789C379.532 190.153 378.625 190.336 377.531 190.336ZM378.786 186.644C379.739 186.644 380.551 186.387 381.222 185.874C381.894 185.352 382.403 184.627 382.751 183.699C383.099 182.77 383.273 181.689 383.273 180.455C383.273 179.22 383.099 178.147 382.751 177.235C382.412 176.324 381.906 175.616 381.235 175.11C380.572 174.605 379.756 174.352 378.786 174.352C377.784 174.352 376.947 174.613 376.276 175.135C375.605 175.657 375.099 176.378 374.759 177.298C374.42 178.217 374.25 179.27 374.25 180.455C374.25 181.648 374.42 182.712 374.759 183.649C375.107 184.577 375.617 185.31 376.288 185.849C376.968 186.379 377.8 186.644 378.786 186.644ZM400.944 190.373C399.03 190.373 397.377 189.975 395.985 189.18C394.601 188.376 393.536 187.241 392.791 185.774C392.045 184.299 391.672 182.563 391.672 180.566C391.672 178.603 392.045 176.879 392.791 175.396C393.545 173.904 394.597 172.744 395.948 171.916C397.298 171.079 398.885 170.661 400.708 170.661C401.885 170.661 402.995 170.851 404.039 171.232C405.091 171.605 406.019 172.185 406.823 172.972C407.635 173.759 408.273 174.762 408.737 175.98C409.201 177.19 409.433 178.632 409.433 180.305V181.685H393.785V178.652H405.12C405.112 177.791 404.926 177.024 404.561 176.353C404.196 175.674 403.687 175.139 403.032 174.75C402.386 174.36 401.632 174.165 400.77 174.165C399.85 174.165 399.043 174.389 398.347 174.837C397.65 175.276 397.108 175.856 396.718 176.577C396.337 177.289 396.142 178.072 396.134 178.926V181.573C396.134 182.683 396.337 183.636 396.743 184.432C397.149 185.219 397.717 185.824 398.446 186.246C399.175 186.661 400.029 186.868 401.006 186.868C401.661 186.868 402.253 186.777 402.784 186.594C403.314 186.404 403.774 186.126 404.163 185.762C404.553 185.397 404.847 184.946 405.046 184.407L409.247 184.879C408.982 185.99 408.476 186.959 407.73 187.788C406.993 188.608 406.048 189.246 404.897 189.702C403.745 190.149 402.427 190.373 400.944 190.373ZM413.24 190V170.909H417.602V174.091H417.801C418.149 172.989 418.746 172.14 419.591 171.543C420.444 170.938 421.418 170.636 422.512 170.636C422.76 170.636 423.038 170.648 423.344 170.673C423.659 170.69 423.92 170.719 424.127 170.76V174.899C423.937 174.833 423.634 174.775 423.22 174.725C422.814 174.667 422.42 174.638 422.039 174.638C421.219 174.638 420.481 174.816 419.827 175.172C419.181 175.52 418.671 176.005 418.298 176.626C417.925 177.248 417.739 177.965 417.739 178.777V190H413.24ZM442.205 175.955L438.104 176.403C437.988 175.988 437.785 175.599 437.495 175.234C437.213 174.87 436.832 174.576 436.351 174.352C435.871 174.128 435.282 174.016 434.586 174.016C433.65 174.016 432.863 174.219 432.225 174.625C431.595 175.031 431.284 175.558 431.293 176.204C431.284 176.759 431.487 177.211 431.902 177.559C432.324 177.907 433.02 178.192 433.99 178.416L437.246 179.112C439.052 179.502 440.395 180.119 441.273 180.964C442.16 181.809 442.607 182.915 442.615 184.283C442.607 185.484 442.255 186.545 441.559 187.464C440.871 188.376 439.914 189.089 438.688 189.602C437.462 190.116 436.053 190.373 434.462 190.373C432.125 190.373 430.244 189.884 428.819 188.906C427.394 187.92 426.545 186.549 426.271 184.792L430.659 184.37C430.858 185.231 431.28 185.882 431.926 186.321C432.573 186.76 433.414 186.98 434.45 186.98C435.518 186.98 436.376 186.76 437.022 186.321C437.677 185.882 438.004 185.339 438.004 184.693C438.004 184.146 437.793 183.694 437.37 183.338C436.956 182.982 436.31 182.708 435.431 182.518L432.175 181.834C430.344 181.453 428.989 180.811 428.111 179.908C427.232 178.996 426.797 177.844 426.806 176.452C426.797 175.276 427.116 174.257 427.763 173.395C428.417 172.525 429.325 171.854 430.485 171.381C431.653 170.901 433 170.661 434.524 170.661C436.761 170.661 438.522 171.137 439.806 172.09C441.099 173.043 441.899 174.331 442.205 175.955ZM455.858 170.909V174.389H444.884V170.909H455.858ZM447.593 166.335H452.093V184.258C452.093 184.863 452.184 185.327 452.366 185.65C452.557 185.965 452.805 186.18 453.112 186.296C453.418 186.412 453.758 186.47 454.131 186.47C454.413 186.47 454.669 186.449 454.901 186.408C455.142 186.367 455.324 186.329 455.448 186.296L456.206 189.814C455.966 189.896 455.622 189.988 455.175 190.087C454.736 190.186 454.197 190.244 453.559 190.261C452.432 190.294 451.417 190.124 450.514 189.751C449.611 189.37 448.894 188.782 448.364 187.987C447.842 187.191 447.585 186.197 447.593 185.004V166.335ZM465.115 190.385C463.905 190.385 462.816 190.17 461.846 189.739C460.885 189.3 460.123 188.654 459.559 187.8C459.004 186.947 458.726 185.894 458.726 184.643C458.726 183.566 458.925 182.675 459.323 181.971C459.721 181.267 460.264 180.703 460.951 180.281C461.639 179.858 462.414 179.539 463.275 179.324C464.146 179.1 465.045 178.938 465.973 178.839C467.091 178.723 467.998 178.619 468.695 178.528C469.391 178.429 469.896 178.279 470.211 178.081C470.534 177.873 470.696 177.554 470.696 177.124V177.049C470.696 176.113 470.418 175.388 469.863 174.874C469.308 174.36 468.508 174.103 467.464 174.103C466.362 174.103 465.488 174.344 464.842 174.824C464.204 175.305 463.773 175.872 463.549 176.527L459.348 175.93C459.679 174.77 460.226 173.801 460.989 173.022C461.751 172.235 462.683 171.647 463.785 171.257C464.887 170.859 466.105 170.661 467.439 170.661C468.359 170.661 469.275 170.768 470.186 170.984C471.097 171.199 471.93 171.555 472.684 172.053C473.438 172.541 474.043 173.208 474.499 174.054C474.963 174.899 475.195 175.955 475.195 177.223V190H470.87V187.377H470.72C470.447 187.908 470.062 188.405 469.565 188.869C469.076 189.325 468.458 189.693 467.713 189.975C466.975 190.249 466.109 190.385 465.115 190.385ZM466.283 187.079C467.186 187.079 467.969 186.901 468.632 186.545C469.295 186.18 469.805 185.7 470.161 185.103C470.526 184.506 470.708 183.856 470.708 183.152V180.902C470.567 181.018 470.327 181.126 469.987 181.225C469.656 181.325 469.283 181.412 468.869 181.486C468.454 181.561 468.044 181.627 467.638 181.685C467.232 181.743 466.88 181.793 466.582 181.834C465.91 181.925 465.31 182.074 464.779 182.282C464.249 182.489 463.831 182.779 463.524 183.152C463.217 183.516 463.064 183.989 463.064 184.569C463.064 185.397 463.367 186.023 463.972 186.445C464.576 186.868 465.347 187.079 466.283 187.079ZM484.218 178.814V190H479.719V170.909H484.019V174.153H484.243C484.682 173.084 485.382 172.235 486.344 171.605C487.313 170.975 488.51 170.661 489.936 170.661C491.253 170.661 492.401 170.942 493.378 171.506C494.364 172.069 495.127 172.885 495.665 173.954C496.212 175.023 496.482 176.32 496.473 177.844V190H491.974V178.54C491.974 177.264 491.643 176.266 490.98 175.545C490.325 174.824 489.418 174.464 488.258 174.464C487.471 174.464 486.77 174.638 486.157 174.986C485.552 175.326 485.076 175.819 484.728 176.465C484.388 177.111 484.218 177.894 484.218 178.814ZM508.132 190.336C506.632 190.336 505.29 189.95 504.105 189.18C502.92 188.409 501.983 187.29 501.296 185.824C500.608 184.357 500.264 182.576 500.264 180.479C500.264 178.358 500.612 176.568 501.308 175.11C502.012 173.643 502.961 172.537 504.154 171.792C505.348 171.038 506.677 170.661 508.144 170.661C509.263 170.661 510.182 170.851 510.903 171.232C511.624 171.605 512.196 172.057 512.619 172.587C513.041 173.109 513.368 173.602 513.6 174.066H513.787V164.545H518.299V190H513.874V186.992H513.6C513.368 187.456 513.033 187.949 512.594 188.471C512.155 188.985 511.574 189.424 510.854 189.789C510.133 190.153 509.225 190.336 508.132 190.336ZM509.387 186.644C510.34 186.644 511.152 186.387 511.823 185.874C512.494 185.352 513.004 184.627 513.352 183.699C513.7 182.77 513.874 181.689 513.874 180.455C513.874 179.22 513.7 178.147 513.352 177.235C513.012 176.324 512.507 175.616 511.835 175.11C511.173 174.605 510.356 174.352 509.387 174.352C508.384 174.352 507.547 174.613 506.876 175.135C506.205 175.657 505.7 176.378 505.36 177.298C505.02 178.217 504.85 179.27 504.85 180.455C504.85 181.648 505.02 182.712 505.36 183.649C505.708 184.577 506.218 185.31 506.889 185.849C507.568 186.379 508.401 186.644 509.387 186.644Z" fill="#A20000"/>
<path d="M26 117V36.96H40.64L84.32 96.72L79.64 106.32V36.96H94.76V117H81.56L36.8 57L41.24 49.68V117H26ZM135.159 118.8C129.159 118.8 123.919 117.6 119.439 115.2C114.959 112.72 111.479 109.12 108.999 104.4C106.519 99.68 105.279 94 105.279 87.36C105.279 76.8 107.799 68.76 112.839 63.24C117.959 57.64 125.119 54.84 134.319 54.84C140.959 54.84 146.279 56.28 150.279 59.16C154.359 62.04 157.319 66.16 159.159 71.52C161.079 76.8 161.999 83.12 161.919 90.48H115.119L113.919 80.16H149.799L146.919 84.48C146.759 78.16 145.639 73.64 143.559 70.92C141.559 68.12 138.319 66.72 133.839 66.72C131.119 66.72 128.719 67.36 126.639 68.64C124.639 69.84 123.079 71.88 121.959 74.76C120.919 77.64 120.399 81.6 120.399 86.64C120.399 92.88 121.879 97.68 124.839 101.04C127.799 104.32 132.319 105.96 138.399 105.96C140.879 105.96 143.239 105.72 145.479 105.24C147.799 104.68 149.919 104.04 151.839 103.32C153.839 102.6 155.519 101.92 156.879 101.28V114.72C154.079 115.92 150.879 116.88 147.279 117.6C143.759 118.4 139.719 118.8 135.159 118.8ZM194.876 118.92C188.636 118.92 183.876 117.4 180.596 114.36C177.316 111.24 175.676 106.76 175.676 100.92V68.52H166.316V56.52H175.676V39.84H191.396V56.52H205.436V68.52H191.396V98.52C191.396 101 191.876 102.84 192.836 104.04C193.796 105.24 195.476 105.84 197.876 105.84C199.156 105.84 200.476 105.64 201.836 105.24C203.276 104.76 204.476 104.2 205.436 103.56V116.76C203.836 117.56 202.076 118.12 200.156 118.44C198.316 118.76 196.556 118.92 194.876 118.92ZM216.528 117V36.96H232.848V103.8H269.328V117H216.528ZM304.239 118.8C294.319 118.8 286.879 116.04 281.919 110.52C276.959 105 274.479 97.04 274.479 86.64C274.479 75.52 276.999 67.44 282.039 62.4C287.159 57.36 294.519 54.84 304.119 54.84C310.839 54.84 316.439 56.04 320.919 58.44C325.399 60.76 328.719 64.28 330.879 69C333.119 73.72 334.239 79.6 334.239 86.64C334.239 97.04 331.639 105 326.439 110.52C321.319 116.04 313.919 118.8 304.239 118.8ZM304.239 106.32C307.759 106.32 310.599 105.52 312.759 103.92C314.999 102.32 316.639 100.08 317.679 97.2C318.719 94.24 319.239 90.72 319.239 86.64C319.239 82.08 318.679 78.36 317.559 75.48C316.519 72.6 314.879 70.48 312.639 69.12C310.479 67.76 307.679 67.08 304.239 67.08C300.719 67.08 297.879 67.8 295.719 69.24C293.559 70.68 291.959 72.84 290.919 75.72C289.959 78.6 289.479 82.24 289.479 86.64C289.479 93.04 290.639 97.92 292.959 101.28C295.279 104.64 299.039 106.32 304.239 106.32ZM367.837 118.8C362.157 118.64 357.317 117.4 353.317 115.08C349.317 112.76 346.237 109.4 344.077 105C341.997 100.52 340.957 95.04 340.957 88.56C340.957 81.76 341.797 76.2 343.477 71.88C345.157 67.48 347.477 64.08 350.437 61.68C353.477 59.2 356.997 57.48 360.997 56.52C365.077 55.56 369.397 55.08 373.957 55.08C378.677 55.08 382.837 55.68 386.437 56.88C390.117 58.08 392.997 59.84 395.077 62.16C397.237 64.48 398.317 67.44 398.317 71.04V118.32C398.317 122 397.717 125.32 396.517 128.28C395.317 131.32 393.477 133.92 390.997 136.08C388.597 138.24 385.557 139.88 381.877 141C378.197 142.2 373.797 142.8 368.677 142.8C363.957 142.8 359.837 142.44 356.317 141.72C352.797 141 349.997 140.2 347.917 139.32V125.76C349.117 126.24 350.757 126.8 352.837 127.44C354.997 128.16 357.397 128.76 360.037 129.24C362.677 129.72 365.317 129.96 367.957 129.96C372.197 129.96 375.397 129.4 377.557 128.28C379.797 127.16 381.317 125.68 382.117 123.84C382.917 122 383.317 120 383.317 117.84V108.36L386.797 111C385.437 112.52 383.757 113.88 381.757 115.08C379.837 116.2 377.677 117.08 375.277 117.72C372.957 118.44 370.477 118.8 367.837 118.8ZM371.077 107.04C373.237 107.04 375.357 106.8 377.437 106.32C379.597 105.76 381.557 104.96 383.317 103.92V74.16C383.317 72.24 382.797 70.84 381.757 69.96C380.797 69 379.477 68.36 377.797 68.04C376.197 67.64 374.437 67.44 372.517 67.44C368.277 67.44 364.957 68.32 362.557 70.08C360.237 71.84 358.597 74.28 357.637 77.4C356.677 80.52 356.197 84 356.197 87.84C356.197 93.68 357.477 98.36 360.037 101.88C362.597 105.32 366.277 107.04 371.077 107.04ZM437.429 118.8C427.509 118.8 420.069 116.04 415.109 110.52C410.149 105 407.669 97.04 407.669 86.64C407.669 75.52 410.189 67.44 415.229 62.4C420.349 57.36 427.709 54.84 437.309 54.84C444.029 54.84 449.629 56.04 454.109 58.44C458.589 60.76 461.909 64.28 464.069 69C466.309 73.72 467.429 79.6 467.429 86.64C467.429 97.04 464.829 105 459.629 110.52C454.509 116.04 447.109 118.8 437.429 118.8ZM437.429 106.32C440.949 106.32 443.789 105.52 445.949 103.92C448.189 102.32 449.829 100.08 450.869 97.2C451.909 94.24 452.429 90.72 452.429 86.64C452.429 82.08 451.869 78.36 450.749 75.48C449.709 72.6 448.069 70.48 445.829 69.12C443.669 67.76 440.869 67.08 437.429 67.08C433.909 67.08 431.069 67.8 428.909 69.24C426.749 70.68 425.149 72.84 424.109 75.72C423.149 78.6 422.669 82.24 422.669 86.64C422.669 93.04 423.829 97.92 426.149 101.28C428.469 104.64 432.229 106.32 437.429 106.32Z" fill="#454545"/>
</svg>
