<svg width="550" height="550" viewBox="0 0 550 550" fill="none" xmlns="http://www.w3.org/2000/svg">
<rect width="549.205" height="549.205" rx="10" fill="black"/>
<circle cx="275.914" cy="288.009" r="196.712" fill="url(#paint0_radial_1948_7210)"/>
<path d="M180.576 428.087C170.752 420.588 169.927 444.041 172.5 455C225.171 491 308.746 488.311 336.551 475.853C336.56 475.45 338.713 470.475 333.183 467.437C326.272 463.64 331.598 471.032 325.143 469.062C318.688 467.093 319.644 468.932 301.279 463.046C282.914 457.16 271.485 475.052 267.914 477.994C264.343 480.936 261.887 479.062 258.917 477.78C255.946 476.498 256.989 474.707 250.491 474.552C243.993 474.398 243.964 475.608 241.494 474.338C239.517 473.323 236.424 470.181 235.125 468.738C232.459 468.674 226.736 468.175 225.171 466.685C223.215 464.822 215.178 445.256 212.664 445.801C210.15 446.347 202.224 443.131 196.327 438.753C190.429 434.374 192.857 437.461 180.576 428.087Z" fill="#063164"/>
<path d="M199.809 115.984C199.365 112.215 192.234 112.751 188.724 113.49C191.384 111.494 199.809 107.301 203.688 105.453C207.753 105.084 216.491 104.123 218.93 103.236C221.978 102.128 230.846 100.742 244.148 101.574C257.449 102.405 252.461 104.345 259.112 103.236C265.763 102.128 274.354 100.742 276.294 100.742C278.233 100.742 279.342 102.959 272.968 104.345C266.594 105.73 264.377 107.67 262.438 115.984C260.498 124.297 258.835 118.201 252.461 125.96C252.184 131.78 246.919 131.502 244.148 131.502C241.377 131.502 239.16 133.442 235.834 134.274C232.509 135.105 228.352 134.828 220.87 137.322C213.388 139.816 218.653 141.202 212.002 148.13C205.351 155.058 206.737 148.407 204.52 148.13C202.303 147.852 201.471 148.13 196.76 141.202C192.049 134.274 196.76 133.165 196.76 131.502C196.76 130.172 203.411 126.145 206.737 124.297C205.351 124.113 202.026 122.191 199.809 115.984Z" fill="#063164"/>
<path d="M267.149 214.359C272.026 206.156 276.756 208.355 278.511 210.479C281.005 203.828 296.523 204.383 297.909 204.383C299.295 204.383 303.728 207.708 305.391 209.094C307.054 210.48 316.199 217.962 317.862 218.793C319.524 219.625 321.741 219.902 327.838 220.179C333.934 220.456 349.176 219.902 356.104 217.962C363.032 216.022 358.321 212.697 358.598 209.094C358.875 205.491 358.875 204.383 354.441 204.383C350.007 204.383 343.634 204.383 342.248 201.612C340.862 198.841 338.091 194.684 334.766 195.238C331.44 195.792 332.549 196.624 332.826 198.563C333.103 200.503 329.501 204.66 328.669 204.383C327.838 204.106 326.729 202.166 326.729 201.612C326.729 201.058 332.549 195.792 321.741 187.479C310.934 179.165 307.885 181.936 309.271 185.539C310.656 189.141 313.982 188.864 319.801 195.792C325.621 202.72 318.693 201.335 314.813 201.612C310.934 201.889 314.813 195.792 314.813 195.238C314.813 194.684 304.837 187.202 299.295 187.479C293.752 187.756 292.644 188.864 290.15 191.913C287.655 194.961 286.547 198.286 276.016 202.997C265.486 207.708 267.149 189.419 269.366 188.864C271.583 188.31 278.511 186.924 280.45 183.322C282.39 179.719 276.294 178.888 280.45 174.177C284.607 169.466 303.451 159.49 303.728 160.321C303.95 160.986 308.439 160.598 310.656 160.321H318.693C321.187 160.321 322.573 159.49 324.512 155.61C325.322 153.991 325.664 153.206 325.767 152.879L325.621 152.839C325.753 152.662 325.861 152.578 325.767 152.879L328.669 153.67L331.163 152.839V149.513C332.179 149.79 334.877 150.178 337.537 149.513C340.862 148.682 339.477 148.128 337.537 146.465C335.597 144.802 335.597 148.128 329.501 148.128C323.404 148.128 324.235 145.357 324.512 143.971C324.734 142.863 327.93 139.26 329.501 137.597C329.408 136.766 328.946 135.103 327.838 135.103C326.453 135.103 320.637 140.918 319.802 141.753L319.801 141.754C319.136 142.419 319.524 146.28 319.801 148.128C318.508 148.867 315.7 151.232 314.813 154.779C313.705 159.213 310.379 160.044 309.271 158.658C308.162 157.273 309.271 154.779 307.054 151.453C305.28 148.793 301.142 150.345 299.295 151.453C289.872 142.031 300.957 140.646 301.511 140.368C301.955 140.147 305.391 137.32 307.054 135.935C309.271 133.995 314.37 129.283 317.03 125.958C320.356 121.801 336.151 122.078 336.983 122.078C337.814 122.078 339.754 124.849 341.417 124.849C343.079 124.849 354.441 125.958 356.104 128.729C357.434 130.946 354.626 132.239 353.056 132.609C342.525 135.103 353.887 136.211 354.441 135.103C354.885 134.216 358.321 132.701 359.984 132.054C359.54 126.512 362.201 126.05 363.586 126.512C364.233 129.376 365.803 134.105 366.912 130.115C368.02 126.124 379.752 125.126 385.479 125.126C440.681 158.602 464.827 223.689 470 252.047C462.684 252.49 462.333 262.578 463.072 267.566C462.61 269.875 461.132 274.993 458.915 276.988C456.698 278.983 454.666 276.156 453.927 274.494C454.204 271.168 453.983 263.575 450.879 259.806C447.775 256.038 446.075 251.77 445.614 250.107C445.152 247.244 443.563 242.071 440.903 244.288C438.242 246.505 436.469 245.211 435.914 244.288C431.924 233.868 427.231 233.48 425.384 234.589C410.974 237.914 416.516 230.155 404.323 231.263C392.13 232.372 397.395 221.287 390.744 221.287C384.093 221.287 388.804 230.432 392.407 231.263C396.009 232.094 392.961 239.577 399.057 237.36C405.154 235.143 404.6 233.203 409.034 237.36C412.581 240.685 411.805 245.581 410.974 247.613C404.6 254.818 392.961 262.3 385.479 264.517C377.996 266.734 381.322 259.252 381.322 255.65C381.322 252.047 371.9 248.167 371.9 244.288C371.9 240.408 361.369 225.166 359.984 223.504C358.598 221.841 354.718 223.504 353.056 223.504C351.725 223.504 355.273 235.512 357.212 241.517C358.875 242.348 362.422 244.066 363.309 244.288C364.418 244.565 361.646 250.107 366.357 254.264C371.068 258.421 376.334 271.445 381.322 272C386.31 272.554 395.732 261.746 395.732 268.951C395.732 274.715 390.005 285.579 387.141 290.29C374.726 300.488 370.329 309.688 369.683 313.013C370.422 313.475 371.623 314.898 370.514 316.893C369.129 319.387 369.96 319.11 371.9 322.99C373.84 326.869 371.9 324.375 371.9 332.135C371.9 338.342 369.683 340.263 368.574 340.448C364.048 342.85 355.661 348.762 358.321 353.196C360.981 357.63 360.168 360.031 359.429 360.678C350.118 363.56 350.931 368.16 352.501 370.1C348.622 383.956 333.657 384.233 331.995 385.896C330.664 387.226 327.191 387.558 325.621 387.558C318.139 382.293 327.284 385.619 321.187 375.919C316.31 368.16 314.906 359.569 314.813 356.244C308.827 347.154 309.733 334.536 310.934 329.363C313.058 328.532 315.423 323.821 307.885 311.628C298.463 296.386 304.006 291.398 302.343 289.458C300.68 287.518 295.415 285.579 293.752 283.639C292.089 281.699 284.884 283.362 281.559 285.579C278.233 287.795 275.739 286.687 270.474 286.687C265.209 286.687 261.329 289.735 261.052 286.687C260.83 284.248 259.482 281.976 258.835 281.145C247.196 273.385 243.871 265.072 243.316 262.855C242.762 260.638 242.208 260.084 245.533 252.324C248.194 246.117 247.75 241.055 247.196 239.3C247.861 233.092 251.907 230.616 253.847 230.155C255.177 227.494 257.727 225.905 258.835 225.444C264.932 209.371 261.052 224.612 267.149 214.359Z" fill="#063164"/>
<path d="M154.935 289.823C161.586 277.408 157.706 274.489 154.935 274.582C154.565 274.582 153.605 274.803 152.718 275.69C151.609 276.799 151.332 279.016 146.621 279.57C142.852 280.013 140.802 278.092 140.247 277.076L127.5 267.377C127.738 262.146 123.1 242.541 124.031 234.453C121.286 232.677 116.277 230.392 113 227.5C109.231 224.175 94.7551 216.387 93 217.773C100.5 188.865 136.737 149.78 145.236 140.635C152 132.863 164.892 125.25 166 124.363C167.386 123.255 171.837 123.635 173.5 120.864C175.163 118.093 189.021 123.362 191.237 120.591C193.454 117.819 195.117 114.494 196.503 114.494C197.611 114.494 202.322 112.831 204.539 112L209.25 116.434C210.451 116.434 213.629 116.046 216.732 114.494C219.836 112.942 219.688 115.141 219.227 116.434V123.362C219.873 124.193 218.063 160.021 225.6 162.903C230.034 163.734 225.6 170.662 223.106 173.711C220.612 176.759 217.287 176.482 214.238 176.759C211.8 176.981 213.222 172.787 214.238 170.662C212.668 169.831 206.867 168.667 196.226 170.662C188.189 174.265 198.997 177.867 202.045 179.253C205.093 180.638 205.925 183.41 204.262 185.072C202.599 186.735 196.226 186.735 186.249 190.338C176.273 193.94 177.659 194.772 167.682 201.7C157.706 208.628 159.369 211.676 157.706 217.773C156.043 223.869 139.693 238.279 138.308 242.713C138.225 242.976 138.11 243.193 137.965 243.367C136.066 247.099 133.039 254.748 133.874 260.172C134.982 267.377 135.536 264.882 138.308 268.485C141.079 272.088 140.802 270.979 151.332 268.485C161.863 265.991 161.309 269.594 167.682 270.979C174.056 272.365 182.093 272.365 186.249 274.582C190.406 276.799 196.226 280.401 196.226 283.173C196.226 285.944 204.262 286.498 214.238 292.04C224.215 297.583 228.094 300.631 235.299 303.957C242.505 307.282 242.782 311.439 242.782 316.704C242.782 321.969 243.336 331.114 242.782 343.585C242.227 356.055 240.842 347.742 235.299 358.272C229.757 368.803 226.709 366.586 213.407 371.02C200.105 375.454 203.708 371.02 196.226 377.948C188.743 384.876 190.683 390.419 196.226 416.191C198.924 428.737 201.553 434.6 203.552 436.976C204.647 437.394 205.649 437.773 206.479 438.084C205.864 438.59 204.839 438.505 203.552 436.976C198.798 435.16 192.305 432.611 190.683 431.71C188.189 430.325 185.418 421.18 176.55 409.263C167.682 397.347 175.996 389.864 176.55 371.02C177.104 352.176 177.381 354.115 167.682 343.585C157.983 333.054 154.935 326.403 143.85 316.704C132.765 307.005 146.621 305.342 154.935 289.823Z" fill="#063164"/>
<path d="M167.5 143.5C237.852 33.6999 356 -30 444.5 216.001" stroke="#EAF3FF" stroke-width="1.13656"/>
<path d="M128.5 219.998C112.001 320.499 312.5 604.499 446 231.5" stroke="#EAF3FF" stroke-width="1.13656"/>
<path d="M181.5 325.999C155.272 152.022 403.598 -105.163 446 227.501" stroke="#EAF3FF" stroke-width="1.13656"/>
<path d="M131 219.502C171.5 130.5 315.676 27.9983 373.833 204.514" stroke="#EAF3FF" stroke-width="1.13656"/>
<path d="M181.5 326.999C193.556 433.408 357 425.498 379 213.999" stroke="#EAF3FF" stroke-width="1.13656"/>
<path d="M173 135.999C199.5 57.9993 284.109 87.0842 257.5 232.999C296.109 132.085 349 290.5 299 472" stroke="#EAF3FF" stroke-width="1.13656"/>
<path d="M172.5 327.998C172.5 319 233.473 186.966 351.5 297.998" stroke="#EAF3FF" stroke-width="1.13656"/>
<path d="M375.582 207.57C327.933 103.969 206.726 189.031 299 465.998" stroke="#EAF3FF" stroke-width="1.13656"/>
<path d="M356 299.5C343 260.5 313.5 48.9999 131 220.001" stroke="#EAF3FF" stroke-width="1.13656"/>
<path d="M374.27 207.132C357.659 163.856 226.624 190.667 300.5 470" stroke="#EAF3FF" stroke-width="1.13656"/>
<path d="M383.655 214.549L386.464 229.523L386.285 215.752C386.282 215.556 386.348 215.364 386.47 215.211L395.055 204.442L383.655 214.549Z" fill="#DF1800"/>
<path d="M383.886 214.859L386.469 229.52C386.541 229.929 386.046 230.188 385.751 229.896L363.269 207.564L383.606 214.53C383.752 214.58 383.859 214.706 383.886 214.859Z" fill="#F31500"/>
<path d="M384.029 214.445L395.059 204.447C395.366 204.168 395.134 203.659 394.722 203.71L363.269 207.566L383.605 214.532C383.752 214.582 383.914 214.549 384.029 214.445Z" fill="#C30000"/>
<path d="M302.388 474.713L309.076 488.402L305.242 475.174C305.188 474.985 305.2 474.784 305.277 474.603L310.691 461.939L302.388 474.713Z" fill="#DF1800"/>
<path d="M302.693 474.952L309.081 488.399C309.259 488.774 308.85 489.155 308.489 488.952L280.879 473.4L302.335 474.71C302.49 474.719 302.627 474.812 302.693 474.952Z" fill="#F31500"/>
<path d="M302.72 474.511L310.696 461.94C310.918 461.59 310.559 461.161 310.175 461.319L280.879 473.398L302.336 474.707C302.49 474.717 302.638 474.642 302.72 474.511Z" fill="#C30000"/>
<path d="M252.299 233.037L245.883 219.219L249.454 232.52C249.505 232.71 249.489 232.911 249.408 233.09L243.745 245.645L252.299 233.037Z" fill="#DF1800"/>
<path d="M251.998 232.792L245.877 219.221C245.706 218.843 246.123 218.47 246.48 218.68L273.778 234.774L252.351 233.041C252.197 233.029 252.062 232.933 251.998 232.792Z" fill="#F31500"/>
<path d="M251.962 233.23L243.74 245.641C243.511 245.987 243.862 246.422 244.248 246.272L273.777 234.774L252.351 233.041C252.197 233.028 252.048 233.101 251.962 233.23Z" fill="#C30000"/>
<path d="M129.086 220.304L140.524 230.367L131.898 219.631C131.775 219.478 131.708 219.287 131.71 219.091L131.836 205.319L129.086 220.304Z" fill="#DF1800"/>
<path d="M129.46 220.406L140.529 230.362C140.837 230.639 140.606 231.149 140.195 231.1L108.727 227.365L129.036 220.32C129.183 220.27 129.345 220.303 129.46 220.406Z" fill="#F31500"/>
<path d="M129.316 219.992L131.843 205.32C131.913 204.912 131.417 204.654 131.123 204.948L108.727 227.366L129.037 220.321C129.183 220.271 129.29 220.144 129.316 219.992Z" fill="#C30000"/>
<path d="M358.864 299.281L369.518 310.617L361.784 298.864C361.677 298.7 361.629 298.503 361.649 298.308L363.11 284.314L358.864 299.281Z" fill="#DF1800"/>
<path d="M359.231 299.419L369.542 310.635C369.823 310.94 369.545 311.426 369.14 311.338L337.486 304.49L358.818 299.293C358.968 299.257 359.126 299.305 359.231 299.419Z" fill="#F31500"/>
<path d="M359.128 298.995L363.124 284.293C363.233 283.893 362.763 283.589 362.443 283.854L337.487 304.493L358.818 299.296C358.968 299.259 359.087 299.144 359.128 298.995Z" fill="#C30000"/>
<path d="M184.286 331.678L204.117 331.516L186.391 334.752C186.198 334.787 186.023 334.888 185.895 335.038L174.23 348.771L184.286 331.678Z" fill="#DF1800"/>
<path d="M184.665 331.899L204.52 331.518C204.935 331.51 205.094 330.974 204.751 330.741L170.261 307.388L184.289 331.686C184.367 331.82 184.511 331.902 184.665 331.899Z" fill="#F31500"/>
<path d="M184.286 332.118L174.029 349.122C173.815 349.477 173.271 349.347 173.241 348.933L170.262 307.388L184.29 331.686C184.368 331.82 184.366 331.985 184.286 332.118Z" fill="#C30000"/>
<path d="M161.702 145.066L160.353 164.852L158.476 146.93C158.456 146.735 158.369 146.553 158.229 146.415L145.425 133.737L161.702 145.066Z" fill="#DF1800"/>
<path d="M161.454 145.426L160.322 165.252C160.298 165.666 160.821 165.866 161.079 165.541L186.991 132.93L161.695 145.067C161.555 145.134 161.463 145.272 161.454 145.426Z" fill="#F31500"/>
<path d="M161.264 145.031L145.091 133.508C144.753 133.267 144.925 132.735 145.339 132.737L186.991 132.931L161.695 145.068C161.555 145.135 161.39 145.121 161.264 145.031Z" fill="#C30000"/>
<path d="M449.05 225.776L458.825 243.031L452.764 226.062C452.698 225.877 452.698 225.675 452.764 225.49L458.825 208.521L449.05 225.776Z" fill="#DF1800"/>
<path d="M449.429 225.996L459.027 243.382C459.227 243.745 458.842 244.151 458.469 243.97L421 225.777H449.057C449.212 225.777 449.355 225.861 449.429 225.996Z" fill="#F31500"/>
<path d="M449.43 225.558L459.027 208.173C459.228 207.81 458.843 207.404 458.47 207.585L421.001 225.778H449.058C449.213 225.778 449.355 225.694 449.43 225.558Z" fill="#C30000"/>
<defs>
<radialGradient id="paint0_radial_1948_7210" cx="0" cy="0" r="1" gradientUnits="userSpaceOnUse" gradientTransform="translate(275.914 288.009) rotate(90) scale(196.712)">
<stop stop-color="#98C2FF"/>
<stop offset="1" stop-color="#084C9C"/>
</radialGradient>
</defs>
</svg>
